<svg xmlns="http://www.w3.org/2000/svg" viewBox="0 0 279.91 290.21"><defs><style>.cls-1{fill:#000068;}.cls-2{fill:#222293;}.cls-3{fill:#00d6c4;}</style></defs><title>logo lcd aja</title><g id="Layer_2" data-name="Layer 2"><g id="Layer_1-2" data-name="Layer 1"><path class="cls-1" d="M248.08,77.7H243.4V102h4.68a7.49,7.49,0,0,1,7.49,7.49v73a7.49,7.49,0,0,1-7.49,7.49H97.36v24.34H248.08a31.88,31.88,0,0,0,31.83-31.83v-73A31.88,31.88,0,0,0,248.08,77.7Z"/><polygon class="cls-1" points="212.97 102.04 212.97 77.7 97.36 77.7 73.02 77.7 62.72 77.7 38.38 77.7 0 77.7 0 214.38 62.72 214.38 62.72 190.04 24.34 190.04 24.34 102.04 38.38 102.04 62.72 102.04 73.02 102.04 97.36 102.04 212.97 102.04"/><path class="cls-2" d="M219.06,223.27a2.34,2.34,0,0,1-2.34,2.34H103.44V250H216.72a26.7,26.7,0,0,0,26.68-26.68v-8.89H219.06Z"/><path class="cls-2" d="M62.72,223.27V108.13H38.38V223.27A26.71,26.71,0,0,0,65.06,250h8V225.61h-8A2.34,2.34,0,0,1,62.72,223.27Z"/><path class="cls-2" d="M216.72,39.32H65.06A26.71,26.71,0,0,0,38.38,66V77.7H62.72V66a2.34,2.34,0,0,1,2.34-2.34H216.72A2.34,2.34,0,0,1,219.06,66v50.08l24.34-9.36V66A26.7,26.7,0,0,0,216.72,39.32Z"/><rect class="cls-3" x="73.02" width="24.34" height="63.66"/><path class="cls-3" d="M101.1,265.87a3.76,3.76,0,0,1-3.74-3.75V102H73V262.12a28.12,28.12,0,0,0,28.08,28.09H206.89V265.87Z"/></g></g></svg>