<svg width="81" height="93" viewBox="0 0 81 93" fill="none" xmlns="http://www.w3.org/2000/svg">
<g clip-path="url(#clip0_291_597)">
<path d="M0.0737915 82.5599H3.16203C4.56922 82.5599 5.59121 82.7603 6.22653 83.1611C6.86258 83.5619 7.18024 84.1987 7.18024 85.0722C7.18024 85.6652 7.0407 86.1514 6.76238 86.5314C6.48406 86.9114 6.11371 87.14 5.65207 87.2171V87.2847C6.28145 87.425 6.73492 87.6877 7.01324 88.0721C7.29157 88.4566 7.4311 88.968 7.4311 89.6063C7.4311 90.5117 7.10453 91.2175 6.44992 91.7245C5.79606 92.2314 4.90766 92.4845 3.78547 92.4845H0.0737915V82.5599ZM2.17789 86.4905H3.39953C3.96953 86.4905 4.38293 86.4022 4.63824 86.2263C4.8943 86.0497 5.02196 85.758 5.02196 85.3505C5.02196 84.9705 4.88317 84.6982 4.60485 84.5327C4.32653 84.3672 3.88641 84.2848 3.28449 84.2848H2.17789V86.4905ZM2.17789 88.1605V90.747H3.54946C4.12836 90.747 4.55586 90.6364 4.8327 90.4145C5.10953 90.1926 5.24684 89.8534 5.24684 89.3962C5.24684 88.5731 4.65828 88.1605 3.48192 88.1605H2.17789ZM18.4214 87.5088C18.4214 89.1513 18.0139 90.4145 17.1998 91.297C16.3856 92.1794 15.2181 92.621 13.6974 92.621C12.1766 92.621 11.0092 92.1794 10.195 91.297C9.38008 90.4145 8.97336 89.1476 8.97336 87.4955C8.97336 85.8434 9.38157 84.5824 10.1987 83.7111C11.0159 82.8397 12.1863 82.4041 13.7115 82.4041C15.2367 82.4041 16.4027 82.8434 17.2109 83.7207C18.0177 84.5987 18.4214 85.8619 18.4214 87.5088ZM11.1791 87.5088C11.1791 88.6177 11.3892 89.4526 11.8107 90.0137C12.2316 90.5748 12.8602 90.8554 13.6974 90.8554C15.3762 90.8554 16.2156 89.7398 16.2156 87.5088C16.2156 85.2734 15.3807 84.1556 13.7107 84.1556C12.8736 84.1556 12.242 84.4369 11.8167 85.001C11.3914 85.565 11.1791 86.4 11.1791 87.5088ZM29.4867 87.5088C29.4867 89.1513 29.0792 90.4145 28.265 91.297C27.4509 92.1794 26.2834 92.621 24.7627 92.621C23.2419 92.621 22.0745 92.1794 21.2603 91.297C20.4454 90.4145 20.0386 89.1476 20.0386 87.4955C20.0386 85.8434 20.4468 84.5824 21.264 83.7111C22.0811 82.8397 23.2516 82.4041 24.7768 82.4041C26.302 82.4041 27.4679 82.8434 28.2762 83.7207C29.0822 84.5987 29.4867 85.8619 29.4867 87.5088ZM22.2437 87.5088C22.2437 88.6177 22.4537 89.4526 22.8753 90.0137C23.2961 90.5748 23.9247 90.8554 24.7619 90.8554C26.4407 90.8554 27.2802 89.7398 27.2802 87.5088C27.2802 85.2734 26.4452 84.1556 24.7753 84.1556C23.9381 84.1556 23.3065 84.4369 22.8812 85.001C22.4559 85.565 22.2437 86.4 22.2437 87.5088ZM35.3715 92.4845H33.2674V84.3115H30.5725V82.5599H38.0664V84.3115H35.3715V92.4845ZM45.4511 89.7287C45.4511 90.6253 45.129 91.3311 44.4841 91.8469C43.8391 92.3627 42.9418 92.621 41.7929 92.621C40.7338 92.621 39.7972 92.4214 38.983 92.0236V90.0686C39.6524 90.367 40.2195 90.5778 40.6833 90.7002C41.1472 90.8227 41.571 90.8836 41.9562 90.8836C42.4178 90.8836 42.7718 90.7952 43.0182 90.6193C43.2654 90.4427 43.3886 90.1807 43.3886 89.8319C43.3886 89.6374 43.3344 89.4645 43.2261 89.3123C43.1177 89.1609 42.9581 89.0147 42.7473 88.8745C42.5366 88.7342 42.1083 88.51 41.4611 88.2028C40.8548 87.9178 40.3998 87.6439 40.097 87.3812C39.7934 87.1184 39.5515 86.8134 39.3704 86.4653C39.1893 86.1165 39.0988 85.709 39.0988 85.2437C39.0988 84.3657 39.3964 83.6754 39.9916 83.173C40.5868 82.6705 41.4092 82.4197 42.4594 82.4197C42.9752 82.4197 43.4673 82.4805 43.9356 82.603C44.4039 82.7254 44.8938 82.8969 45.4051 83.1188L44.726 84.7546C44.1968 84.5379 43.759 84.3857 43.4124 84.2996C43.0657 84.2135 42.7258 84.1705 42.3911 84.1705C41.9925 84.1705 41.6875 84.2632 41.4745 84.4488C41.2615 84.6343 41.1554 84.8763 41.1554 85.1754C41.1554 85.3609 41.1984 85.5227 41.2845 85.6608C41.3706 85.7988 41.5072 85.9324 41.6949 86.0616C41.8827 86.1907 42.3273 86.4223 43.0286 86.7577C43.9564 87.2016 44.5924 87.6461 44.9361 88.0914C45.2797 88.5368 45.4511 89.0815 45.4511 89.7287ZM51.0791 92.4845H48.975V84.3115H46.2802V82.5599H53.774V84.3115H51.0791V92.4845ZM57.4056 88.6763V92.4845H55.3014V82.5599H58.193C59.5416 82.5599 60.5391 82.8056 61.1863 83.2962C61.8334 83.7875 62.157 84.5334 62.157 85.5331C62.157 86.1172 61.9967 86.636 61.6754 87.091C61.354 87.5459 60.899 87.9022 60.3112 88.1597C61.8045 90.3907 62.7775 91.8321 63.2302 92.4837H60.8953L58.5263 88.6755H57.4056V88.6763ZM57.4056 86.9655H58.0847C58.7497 86.9655 59.241 86.855 59.5579 86.633C59.8748 86.4111 60.0329 86.0623 60.0329 85.5873C60.0329 85.1168 59.8711 84.782 59.5475 84.5824C59.2239 84.3835 58.7229 84.284 58.0438 84.284H57.4056V86.9655ZM70.5541 92.4845L69.8342 90.1221H66.2161L65.4961 92.4845H63.2288L66.7311 82.5198H69.3036L72.82 92.4845H70.5541ZM69.3318 88.3572C68.6668 86.2167 68.292 85.0062 68.2081 84.7256C68.1242 84.4451 68.0649 84.2232 68.0285 84.0606C67.8793 84.6395 67.4518 86.072 66.7452 88.3572H69.3318ZM80.9262 85.6556C80.9262 86.7236 80.5922 87.5407 79.925 88.1055C79.2578 88.6718 78.3085 88.9546 77.0772 88.9546H76.1747V92.4845H74.0706V82.5599H77.2405C78.4443 82.5599 79.3595 82.8189 79.9866 83.337C80.613 83.8558 80.9262 84.6284 80.9262 85.6556ZM76.1747 87.2305H76.8672C77.5144 87.2305 77.9983 87.1029 78.3197 86.8468C78.641 86.5907 78.8013 86.2189 78.8013 85.7305C78.8013 85.237 78.6663 84.8726 78.3976 84.6373C78.1282 84.402 77.7059 84.284 77.1314 84.284H76.174L76.1747 87.2305ZM47.8855 41.1258C46.4138 40.6412 44.2948 40.5625 41.5287 40.5625H31.5938V55.4062H42.2991C44.156 55.4062 45.46 55.2214 46.2111 55.0819C47.5345 54.8459 48.6411 54.3917 49.5302 53.838C50.4193 53.2858 51.1504 52.4509 51.7234 51.394C52.2956 50.3371 52.5828 49.1028 52.5828 47.7194C52.5828 46.0985 52.1679 44.7655 51.3382 43.5706C50.5091 42.3749 49.358 41.6097 47.8855 41.1258ZM46.3596 34.7341C47.8217 34.2992 48.9238 33.5125 49.6638 32.5053C50.4052 31.4982 50.7756 30.2023 50.7756 28.6801C50.7756 27.238 50.4297 25.9525 49.738 24.8548C49.0463 23.7579 48.0584 23.0135 46.7752 22.6082C45.4897 22.2045 43.2869 22.0078 40.1653 22.0078H31.5938V35.3672H40.8763C43.4257 35.3672 45.253 35.0711 46.3596 34.7341ZM79.8359 10.9685C79.8359 5.17797 75.1416 0.484375 69.3511 0.484375H11.6489C5.8584 0.484375 1.16406 5.17797 1.16406 10.9685V68.6721C1.16406 74.4627 5.8584 79.1562 11.6489 79.1562H69.3511C75.1416 79.1562 79.8359 74.4627 79.8359 68.6721V10.9685ZM57.2512 53.3801C56.3925 55.1287 55.3297 56.4772 54.0657 57.4257C52.801 58.3735 51.215 59.2411 49.3083 59.725C47.4016 60.2097 45.0652 60.6016 42.2991 60.6016H25.6563V16.8125H42.0326C45.3524 16.8125 48.0139 17.2727 50.0193 18.1514C52.0254 19.0309 53.5952 20.3936 54.7329 22.2208C55.8685 24.0488 56.437 25.9659 56.437 27.9616C56.437 29.8186 55.9323 31.5694 54.9259 33.2096C53.918 34.8499 52.3965 36.1747 50.3615 37.1818C52.9888 37.9522 55.0098 39.2681 56.4222 41.1251C57.8345 42.9828 58.5411 45.1759 58.5411 47.7053C58.5404 49.7404 58.1114 51.6322 57.2512 53.3801Z" fill="#5B4282"/>
</g>
<defs>
<clipPath id="clip0_291_597">
<rect width="81" height="93" fill="white"/>
</clipPath>
</defs>
</svg>
