<svg width="65" height="65" viewBox="0 0 65 65" fill="none" xmlns="http://www.w3.org/2000/svg">
<path d="M33 64C50.6731 64 65 49.6731 65 32C65 14.3269 50.6731 0 33 0C15.3269 0 1 14.3269 1 32C1 49.6731 15.3269 64 33 64Z" fill="#5C2D91"/>
<path opacity="0.1" d="M10.82 9C6.47099 12.8756 3.26239 17.8647 1.54014 23.4296C-0.1821 28.9944 -0.352648 34.9239 1.04689 40.5785C2.44643 46.2332 5.36296 51.3985 9.48201 55.5176C13.6011 59.6367 18.7664 62.5534 24.421 63.953C30.0757 65.3526 36.0052 65.1822 41.5702 63.4599C47.1351 61.7377 52.1244 58.5291 56 54.18L10.82 9Z" fill="white"/>
<path d="M8.39999 37.25C8.21332 37.253 8.02808 37.2172 7.85595 37.1449C7.68383 37.0726 7.52857 36.9654 7.39999 36.83C7.26788 36.6995 7.16347 36.5437 7.09302 36.3718C7.02257 36.2 6.98753 36.0157 6.98999 35.83C6.98866 35.6445 7.02421 35.4605 7.0946 35.2889C7.16499 35.1172 7.26879 34.9612 7.39999 34.83C7.52731 34.6924 7.6821 34.583 7.85436 34.5089C8.02661 34.4348 8.2125 34.3977 8.39999 34.4C8.58721 34.3996 8.77253 34.4375 8.94453 34.5114C9.11652 34.5854 9.27153 34.6938 9.39999 34.83C9.53345 34.96 9.6394 35.1156 9.71155 35.2874C9.7837 35.4592 9.82058 35.6437 9.81999 35.83C9.82173 36.0165 9.78538 36.2014 9.71316 36.3734C9.64094 36.5453 9.53438 36.7007 9.39999 36.83C9.27031 36.9639 9.11485 37.0702 8.94298 37.1424C8.77111 37.2146 8.5864 37.2512 8.39999 37.25ZM28.27 37H25.65L16.28 22.46C16.0466 22.1018 15.8521 21.7196 15.7 21.32H15.62C15.709 22.1502 15.7424 22.9854 15.72 23.82V37H13.6V18.77H16.37L25.49 33.05L26.23 34.27H26.28C26.1745 33.3808 26.131 32.4853 26.15 31.59V18.77H28.28V37H28.27ZM42.7 37H33V18.77H42.24V20.7H35.18V26.76H41.76V28.68H35.18V35H42.7V37ZM57 20.7H51.7V37H49.57V20.7H44.33V18.77H57V20.7Z" fill="white"/>
<path d="M27.12 49.4001C26.398 49.7497 25.6017 49.9179 24.8 49.8901C24.2673 49.9141 23.7356 49.8239 23.2406 49.6255C22.7456 49.4272 22.2987 49.1253 21.93 48.7401C21.1952 47.9176 20.8081 46.8422 20.85 45.7401C20.8231 45.1433 20.9163 44.5473 21.1242 43.9873C21.332 43.4273 21.6503 42.9147 22.06 42.4801C22.4593 42.071 22.9393 41.7495 23.4695 41.5361C23.9998 41.3226 24.5687 41.2218 25.14 41.2401C25.8237 41.2167 26.5048 41.3359 27.14 41.5901V42.5901C26.5285 42.2515 25.8389 42.0791 25.14 42.0901C24.6994 42.0776 24.2613 42.1606 23.8557 42.3332C23.4501 42.5058 23.0866 42.764 22.79 43.0901C22.1663 43.8006 21.8436 44.7258 21.89 45.6701C21.8433 46.5645 22.1443 47.4424 22.73 48.1201C23.0109 48.4222 23.3539 48.6599 23.7354 48.817C24.1168 48.9741 24.5278 49.0467 24.94 49.0301C25.7078 49.0502 26.4661 48.8563 27.13 48.4701L27.12 49.4001ZM31.2 49.9001C30.8019 49.9129 30.4057 49.8401 30.0382 49.6866C29.6708 49.533 29.3405 49.3023 29.07 49.0101C28.5232 48.3998 28.2393 47.5984 28.28 46.7801C28.255 46.3513 28.3155 45.9219 28.458 45.5167C28.6005 45.1116 28.8221 44.7388 29.11 44.4201C29.4038 44.1333 29.7532 43.91 30.1368 43.7638C30.5204 43.6176 30.9299 43.5516 31.34 43.5701C31.7276 43.5494 32.1151 43.6129 32.4759 43.7562C32.8366 43.8995 33.1621 44.1191 33.43 44.4001C33.9615 45.0406 34.2296 45.8592 34.18 46.6901C34.2219 47.5333 33.9311 48.3592 33.37 48.9901C33.0943 49.288 32.758 49.5234 32.3837 49.6804C32.0093 49.8373 31.6057 49.9123 31.2 49.9001ZM31.27 44.4301C30.9949 44.4185 30.7208 44.4691 30.468 44.5782C30.2152 44.6873 29.9903 44.852 29.81 45.0601C29.4252 45.5555 29.2333 46.1738 29.27 46.8001C29.2351 47.4077 29.4276 48.0066 29.81 48.4801C29.9921 48.6852 30.2177 48.8472 30.4702 48.9545C30.7227 49.0617 30.9959 49.1114 31.27 49.1001C31.5383 49.1159 31.8068 49.0701 32.0546 48.966C32.3025 48.862 32.5233 48.7026 32.7 48.5001C33.0635 48.0033 33.2406 47.3943 33.2 46.7801C33.2395 46.1628 33.0627 45.5511 32.7 45.0501C32.5257 44.8432 32.3059 44.6796 32.0578 44.5721C31.8097 44.4645 31.54 44.4159 31.27 44.4301ZM38.87 44.7301C38.654 44.5886 38.3976 44.5218 38.14 44.5401C37.9385 44.5474 37.742 44.6041 37.5676 44.7053C37.3932 44.8064 37.2464 44.9488 37.14 45.1201C36.8424 45.5913 36.699 46.1436 36.73 46.7001V49.7601H35.73V43.7601H36.73V45.0001C36.8399 44.6133 37.0586 44.2662 37.36 44.0001C37.6208 43.7737 37.9547 43.6494 38.3 43.6501C38.4933 43.6414 38.6865 43.6685 38.87 43.7301V44.7301ZM44.72 47.0001H40.5C40.4716 47.5591 40.6535 48.1085 41.01 48.5401C41.1953 48.7249 41.4176 48.8686 41.6623 48.9616C41.907 49.0547 42.1686 49.0951 42.43 49.0801C43.1079 49.0733 43.7635 48.8371 44.29 48.4101V49.3101C43.6717 49.7176 42.9395 49.9173 42.2 49.8801C41.8268 49.8989 41.4541 49.8352 41.1084 49.6934C40.7627 49.5517 40.4525 49.3354 40.2 49.0601C39.6794 48.4107 39.4192 47.5908 39.47 46.7601C39.434 45.9273 39.7165 45.1121 40.26 44.4801C40.5073 44.1943 40.8151 43.9672 41.1609 43.815C41.5068 43.6628 41.8822 43.5894 42.26 43.6001C42.6011 43.5809 42.942 43.6394 43.2573 43.771C43.5725 43.9027 43.8538 44.1041 44.08 44.3601C44.5404 44.9672 44.7675 45.7195 44.72 46.4801L44.73 47.0001H44.72ZM43.72 46.2001C43.7403 45.7367 43.5989 45.2807 43.32 44.9101C43.1831 44.7555 43.0131 44.6338 42.8226 44.5541C42.6322 44.4745 42.4261 44.4389 42.22 44.4501C42.0048 44.4474 41.7914 44.4896 41.5934 44.574C41.3954 44.6583 41.2171 44.783 41.07 44.9401C40.7409 45.2882 40.5338 45.734 40.48 46.2101H43.72V46.2001Z" fill="#F2F2F2"/>
</svg>
