<svg width="68" height="95" viewBox="0 0 68 95" fill="none" xmlns="http://www.w3.org/2000/svg">
<g clip-path="url(#clip0_291_588)">
<path d="M67.2171 18.6226L61.1041 87.1384L33.626 94.76L6.22369 87.1489L0.117065 18.6226H67.2171Z" fill="#E44D26"/>
<path d="M33.6671 88.9342L55.8707 82.7755L61.0944 24.2255H33.6671V88.9342Z" fill="#F16529"/>
<path d="M21.7837 41.0347H33.6671V32.6302H12.6033L12.8043 34.885L14.869 58.0455H33.6671V49.641H22.5514L21.7837 41.0347ZM23.6769 62.2479H15.2444L16.4211 75.4442L33.6284 80.2231L33.6671 80.2126V71.4684L33.6303 71.4781L24.275 68.9508L23.6769 62.2479Z" fill="#EBEBEB"/>
<path d="M6.35992 0H10.6288V4.21974H14.5339V0H18.8031V12.7784H14.5342V8.49947H10.6291V12.7784H6.36019L6.35992 0ZM24.4165 4.23763H20.659V0H32.4461V4.23763H28.6862V12.7784H24.4173V4.23763H24.4165ZM34.3167 0H38.7679L41.506 4.49L44.2414 0H48.6944V12.7784H44.4429V6.44474L41.506 10.9882H41.4323L38.4936 6.44474V12.7784H34.3167V0ZM50.8189 0H55.089V8.55474H61.0923V12.7784H50.8186V0H50.8189Z" fill="black"/>
<path d="M33.6381 58.0455H43.9821L43.0068 68.9455L33.6379 71.4755V80.2192L50.8588 75.4442L50.9851 74.0242L52.9593 51.8979L53.1642 49.641H33.6381V58.0455ZM33.6381 41.0142V41.0347H53.9286L54.0969 39.1458L54.4799 34.885L54.6806 32.6302H33.6381V41.0142Z" fill="white"/>
</g>
<defs>
<clipPath id="clip0_291_588">
<rect width="68" height="95" fill="white"/>
</clipPath>
</defs>
</svg>
