<svg width="95" height="95" viewBox="0 0 95 95" fill="none" xmlns="http://www.w3.org/2000/svg">
<g clip-path="url(#clip0_291_594)">
<path d="M0 0H95V95H0V0Z" fill="#F7DF1E"/>
<path d="M24.9791 79.3888L32.2488 74.9891C33.6515 77.4758 34.9274 79.5799 37.9878 79.5799C40.9213 79.5799 42.7712 78.4325 42.7712 73.969V43.6143H51.6986V74.0952C51.6986 83.3417 46.2784 87.5506 38.3704 87.5506C31.2287 87.5506 27.0832 83.852 24.9787 79.3881M56.5476 78.4321L63.8166 74.2236C65.7304 77.3485 68.2174 79.6441 72.6171 79.6441C76.3166 79.6441 78.6752 77.7946 78.6752 75.2437C78.6752 72.1829 76.252 71.0986 72.1707 69.3136L69.9393 68.3562C63.4982 65.6149 59.2258 62.1712 59.2258 54.9015C59.2258 48.2054 64.3273 43.1036 72.2987 43.1036C77.9742 43.1036 82.0555 45.0808 84.9886 50.2461L78.0373 54.7103C76.5065 51.9683 74.8492 50.8844 72.2983 50.8844C69.6836 50.8844 68.0256 52.5424 68.0256 54.7103C68.0256 57.3885 69.6836 58.4732 73.5096 60.1313L75.7413 61.0876C83.3302 64.3402 87.6026 67.6559 87.6026 75.1164C87.6026 83.1521 81.2896 87.5518 72.8082 87.5518C64.5184 87.5518 59.1616 83.5981 56.5473 78.4325" fill="black"/>
</g>
<defs>
<clipPath id="clip0_291_594">
<rect width="95" height="95" fill="white"/>
</clipPath>
</defs>
</svg>
