<svg width="94" height="54" viewBox="0 0 94 54" fill="none" xmlns="http://www.w3.org/2000/svg">
<path d="M13.047 41.6521C13.047 41.6521 10.987 42.8471 14.513 43.2521C18.785 43.7381 20.968 43.6681 25.675 42.7801C25.675 42.7801 26.913 43.5541 28.641 44.2251C18.088 48.7371 4.758 43.9651 13.047 41.6531V41.6521ZM11.757 35.7631C11.757 35.7631 9.457 37.4691 12.975 37.8331C17.538 38.3031 21.142 38.3411 27.377 37.1331C27.377 37.1331 28.24 38.0051 29.597 38.4831C16.837 42.2051 2.627 38.7771 11.757 35.7531" fill="#5382A1"/>
<path d="M22.63 25.775C25.23 28.762 21.947 31.45 21.947 31.45C21.947 31.45 28.549 28.05 25.517 23.79C22.685 19.82 20.513 17.846 32.27 11.043C32.27 11.043 13.816 15.641 22.63 25.775Z" fill="#E76F00"/>
<path d="M36.586 46.008C36.586 46.008 38.11 47.261 34.906 48.231C28.816 50.071 9.554 50.628 4.203 48.304C2.28 47.469 5.887 46.31 7.021 46.067C8.204 45.811 8.881 45.859 8.881 45.859C6.741 44.356 -4.945 48.811 2.945 50.087C24.461 53.567 42.167 48.519 36.585 46.007L36.586 46.008ZM14.038 29.662C14.038 29.662 4.241 31.984 10.568 32.827C13.24 33.184 18.566 33.103 23.528 32.687C27.583 32.347 31.654 31.62 31.654 31.62C31.654 31.62 30.224 32.23 29.19 32.935C19.24 35.545 0.0200009 34.331 5.554 31.661C10.234 29.404 14.038 29.661 14.038 29.661V29.662ZM31.613 39.463C41.727 34.219 37.051 29.18 33.787 29.859C32.987 30.025 32.63 30.159 32.63 30.159C32.63 30.159 32.927 29.695 33.494 29.494C39.951 27.229 44.917 36.174 31.41 39.717C31.41 39.717 31.567 39.577 31.613 39.453" fill="#5382A1"/>
<path d="M25.516 0.0579834C25.516 0.0579834 31.116 5.65798 20.204 14.245C11.452 21.141 18.208 25.072 20.2 29.565C15.092 24.965 11.343 20.918 13.858 17.151C17.548 11.621 27.776 8.93898 25.516 0.0589828" fill="#E76F00"/>
<path d="M15.032 53.673C24.74 54.293 39.647 53.329 40 48.746C40 48.746 39.32 50.483 31.977 51.863C23.691 53.419 13.472 53.237 7.41 52.24C7.41 52.24 8.65 53.264 15.03 53.673" fill="#5382A1"/>
<path d="M68.385 35.762C67.468 36.549 66.499 36.992 65.63 36.992C64.39 36.992 63.72 36.256 63.72 35.074C63.72 33.796 64.438 32.862 67.32 32.862H68.386V35.762H68.385ZM70.915 38.588V29.84C70.915 27.605 69.627 26.14 66.522 26.14C64.709 26.14 63.122 26.583 61.832 27.148L62.204 28.698C63.22 28.328 64.534 27.985 65.826 27.985C67.616 27.985 68.384 28.698 68.384 30.171V31.277H67.491C63.145 31.277 61.185 32.947 61.185 35.453C61.185 37.616 62.477 38.845 64.909 38.845C66.472 38.845 67.639 38.205 68.731 37.271L68.929 38.599H70.914L70.915 38.588ZM79.361 38.588H76.205L72.405 26.352H75.161L77.518 33.87L78.042 36.13C79.234 32.86 80.078 29.544 80.5 26.35H83.18C82.46 30.38 81.17 34.802 79.358 38.586L79.361 38.588ZM91.469 35.762C90.549 36.549 89.579 36.992 88.709 36.992C87.469 36.992 86.799 36.256 86.799 35.074C86.799 33.796 87.519 32.862 90.399 32.862H91.467V35.762H91.469ZM93.999 38.588V29.84C93.999 27.605 92.709 26.14 89.607 26.14C87.793 26.14 86.205 26.583 84.915 27.148L85.287 28.698C86.303 28.328 87.621 27.985 88.911 27.985C90.698 27.985 91.469 28.698 91.469 30.171V31.277H90.575C86.228 31.277 84.269 32.947 84.269 35.453C84.269 37.616 85.559 38.845 87.992 38.845C89.556 38.845 90.722 38.205 91.816 37.271L92.016 38.599H94L93.999 38.588ZM58.411 40.666C57.7 41.71 56.525 42.533 55.25 43L54 41.545C54.97 41.052 55.804 40.245 56.19 39.515C56.525 38.855 56.663 38.015 56.663 35.971V22H59.353V35.778C59.353 38.496 59.133 39.595 58.413 40.666H58.411Z" fill="#E76F00"/>
</svg>
