<svg width="87" height="92" viewBox="0 0 87 92" fill="none" xmlns="http://www.w3.org/2000/svg">
<g clip-path="url(#clip0_291_601)">
<path d="M31.5961 58.6477L31.7393 58.7174L31.9946 58.8406C32.3204 58.9957 32.6492 59.1494 32.981 59.2971L33.1895 59.3898C33.5703 59.5568 33.9532 59.7157 34.3407 59.8686L34.6212 59.9784C34.979 60.1179 35.3426 60.253 35.707 60.3814L35.8436 60.4282C36.2436 60.5677 36.6474 60.6976 37.0549 60.8245L37.348 60.9113C37.7622 61.0368 38.1711 61.1859 38.5986 61.2654C65.7285 66.212 73.6083 44.9617 73.6083 44.9617C66.9895 53.5845 55.2414 55.8593 44.1101 53.3269C43.6885 53.2319 43.2788 53.0998 42.8677 52.9781L42.5582 52.8846C42.1566 52.7614 41.7574 52.6315 41.3618 52.4957L41.1977 52.4363C40.843 52.3116 40.4919 52.1795 40.1431 52.0452L39.8477 51.9294C39.4647 51.7787 39.0847 51.6206 38.7092 51.4559L38.4813 51.3549C38.1585 51.2087 37.8386 51.061 37.5209 50.9081L37.2426 50.7745C36.9932 50.6528 36.7461 50.5229 36.4997 50.396L36.0039 50.1363C35.7033 49.9752 35.4079 49.8082 35.114 49.6368L34.8134 49.469C34.4223 49.2382 34.0356 49 33.6534 48.758L33.3409 48.5502C33.0634 48.3713 32.7873 48.1895 32.5156 48.0017L32.2499 47.8147C31.9872 47.6291 31.7274 47.4414 31.4699 47.2506L31.124 46.9886C30.888 46.8083 30.6527 46.6264 30.4204 46.4394L30.1065 46.1871C29.8111 45.9436 29.5187 45.6995 29.2292 45.4486L29.1335 45.3677C28.8195 45.0946 28.513 44.8133 28.2102 44.5313L27.9504 44.2811C27.7256 44.0681 27.5051 43.8529 27.2877 43.6325L27.0279 43.3727C26.7518 43.0899 26.4809 42.8034 26.2152 42.5132L26.1751 42.4702C25.8938 42.1629 25.6192 41.849 25.3506 41.5321L25.1346 41.2753C24.9342 41.0341 24.7353 40.7891 24.5416 40.542L24.3241 40.2718C24.0903 39.969 23.8625 39.667 23.6391 39.3597C17.4596 30.9299 15.239 19.3036 20.1782 9.75532L15.8001 15.3084C10.1899 23.3707 10.889 33.8608 15.1737 42.4286L15.4876 43.038L15.6888 43.4239L15.8134 43.6458L16.0368 44.0459C16.1697 44.2804 16.3055 44.5134 16.445 44.7465L16.6788 45.1317C16.8332 45.3811 16.9913 45.6275 17.1538 45.8739L17.3557 46.1871C17.5791 46.5196 17.8077 46.8521 18.043 47.1786L18.063 47.2046L18.1788 47.3612C18.3829 47.6425 18.5929 47.9201 18.8052 48.1947L19.0412 48.4945C19.2305 48.7328 19.4242 48.9703 19.6201 49.2063L19.8413 49.4698C20.1048 49.7807 20.3734 50.0895 20.6481 50.3916L20.6644 50.4086L20.6956 50.4428C20.9627 50.7352 21.2373 51.0202 21.5149 51.3067L21.7777 51.5716C21.9929 51.7884 22.2111 52.0014 22.4323 52.2136L22.7002 52.4682C22.9948 52.7458 23.2925 53.0182 23.5968 53.2854L23.6116 53.2965L23.7675 53.4301C24.0354 53.6616 24.3085 53.8925 24.5831 54.1188L24.9208 54.3875C25.145 54.5671 25.3721 54.7445 25.6007 54.9189L25.9636 55.195C26.2159 55.3806 26.4698 55.5631 26.7258 55.742L27.0041 55.9394L27.0806 55.9936C27.324 56.1613 27.5727 56.3216 27.8213 56.4827L28.1419 56.6965C28.5227 56.9377 28.9101 57.1759 29.3012 57.406L29.6218 57.5871C29.9098 57.7526 30.1985 57.9151 30.4917 58.074L30.9726 58.3233L31.5961 58.6477ZM34.337 31.3389C34.9448 32.2102 35.618 33.2463 36.4247 33.9469C36.7172 34.269 37.0229 34.5822 37.3347 34.8917L37.5751 35.1277C37.8787 35.4216 38.1867 35.7104 38.5043 35.9916L38.5429 36.0243L38.5518 36.0339C38.9044 36.3427 39.2681 36.6396 39.6377 36.932L39.8848 37.125C40.2559 37.4092 40.6337 37.6883 41.0211 37.9547L41.0545 37.9792L41.5725 38.3206L41.819 38.4839C42.0958 38.6606 42.3756 38.8342 42.6613 38.999L42.7801 39.068C43.0257 39.2098 43.2751 39.3493 43.5245 39.4844L43.7887 39.6232L44.3097 39.8926L44.3884 39.9282C44.7461 40.1041 45.1068 40.2733 45.475 40.4344L45.7147 40.5331C46.0086 40.6578 46.3062 40.7802 46.6046 40.8945L46.9861 41.0341C47.2577 41.135 47.5293 41.227 47.804 41.3183L48.1743 41.4371C48.5647 41.5581 48.9499 41.7109 49.3566 41.7785C70.3026 45.2497 75.1387 29.1212 75.1387 29.1212C70.7791 35.3994 62.3375 38.3941 53.3288 36.0562C52.9288 35.9508 52.5339 35.8373 52.1428 35.7133L51.7858 35.5983C51.5075 35.5085 51.2306 35.4127 50.956 35.3125L50.582 35.173C50.2814 35.0572 49.983 34.9377 49.6884 34.8131L49.4479 34.7106C49.0783 34.5496 48.7139 34.3804 48.3554 34.2022L47.8069 33.9232L47.4907 33.7606C47.2577 33.6345 47.0261 33.5023 46.7975 33.3695L46.632 33.2752C46.3478 33.1097 46.0687 32.939 45.7919 32.7639L45.5388 32.5939L44.9955 32.2347C44.6088 31.9682 44.2333 31.6899 43.8637 31.4072L43.6091 31.206C39.6659 28.094 36.5405 23.8383 35.0539 19.0134C33.4968 14.011 33.8323 8.39415 36.5301 3.83637L33.2155 8.51661C29.1587 14.3539 29.3791 22.1699 32.5438 28.3441C33.0738 29.378 33.6697 30.3829 34.337 31.3389ZM56.4148 24.1166L56.9351 24.297L57.1644 24.3697C57.4116 24.4469 57.6557 24.5375 57.9103 24.585C69.4758 26.8197 72.6138 18.6497 73.4488 17.4473C70.7004 21.4039 66.0825 22.3532 60.4159 20.9779C59.9684 20.8696 59.4763 20.7085 59.0444 20.5549C58.4914 20.3575 57.9467 20.1333 57.4168 19.8795C56.4104 19.3956 55.4514 18.81 54.5623 18.1376C49.4917 14.2893 46.3418 6.95133 49.6505 0.973755L47.8604 3.44079C45.469 6.96098 45.2338 11.3325 46.8933 15.2186C48.6434 19.3451 52.2296 22.5811 56.4148 24.1166ZM45.2508 71.469H42.1143C41.9407 71.469 41.7677 71.6085 41.7306 71.7784L40.6174 76.9292L39.5041 82.08C39.4677 82.25 39.2948 82.3895 39.1211 82.3895H36.9012C34.7051 82.3895 34.9589 80.8702 35.4087 78.7891L35.422 78.7261L35.471 78.4633L35.4799 78.4143L35.5801 77.88L35.6877 77.3077L35.802 76.7251L36.3082 74.2522L36.8151 71.7792C36.85 71.6085 36.7357 71.4682 36.562 71.4682H33.3432C33.1695 71.4682 32.9973 71.6077 32.9617 71.7784L32.2692 75.0619L31.5775 78.3461L31.576 78.3505L31.5122 78.6563C30.7151 82.2952 30.9259 85.7665 35.2588 85.8756L35.3849 85.8778H42.1856C42.3593 85.8778 42.5322 85.7382 42.5686 85.5683L44.0351 78.6741L45.5017 71.7792C45.5381 71.6085 45.4252 71.4697 45.2508 71.469ZM11.6624 71.4326H8.21864C8.04422 71.4326 7.87055 71.5721 7.83196 71.7413L7.5054 73.1827L7.17883 74.624C7.14098 74.794 7.25157 74.9327 7.42598 74.9327H10.8965C11.0709 74.9327 11.2438 74.7932 11.2809 74.6232L11.5963 73.1827L11.9118 71.7421C11.9481 71.5721 11.8368 71.4326 11.6624 71.4326ZM10.6634 75.9184H7.19219C7.01852 75.9184 6.84411 76.0579 6.80551 76.2271L6.3179 78.3869L5.83102 80.5459L5.6952 81.1649L5.22688 83.3692L4.7593 85.5742C4.72294 85.7442 4.64797 86.0188 4.59231 86.1836C4.59231 86.1836 3.94364 88.1133 2.85337 88.091L2.7168 88.088L1.77348 88.0709C1.59981 88.0687 1.42465 88.2045 1.38383 88.373L1.02387 89.8863L0.664654 91.3989C0.623834 91.5681 0.733678 91.7077 0.906608 91.7106C1.52485 91.7181 2.90977 91.7336 3.7477 91.7336C6.47079 91.7336 7.90692 90.2248 8.82649 85.883L9.9034 80.8999L10.9135 76.2264C10.9499 76.0579 10.8371 75.9184 10.6634 75.9184ZM74.5784 74.7502L74.4344 74.1557L74.2926 73.5471L74.2206 73.2398C73.9386 72.1436 73.1111 71.512 71.3135 71.512L68.5154 71.509L65.9386 71.5053H63.0388C62.8652 71.5053 62.693 71.6449 62.6566 71.8148L62.5282 72.4204L62.3768 73.1359L62.3345 73.337L61.029 79.4527L59.7895 85.2581C59.7524 85.4288 59.7406 85.6381 59.7613 85.7227C59.7821 85.808 60.1168 85.8778 60.2905 85.8778H62.906C63.0804 85.8778 63.3008 85.8466 63.3958 85.808C63.4908 85.7694 63.6311 85.4273 63.666 85.2573L64.1306 82.9573L64.5959 80.6565L64.5967 80.6528L64.659 80.3463L65.2231 77.7041L65.7211 75.3706C65.7582 75.2007 65.9297 75.0619 66.1033 75.0611L74.3334 75.0574C74.5079 75.0589 74.6177 74.9201 74.5784 74.7502ZM85.1731 69.3767L84.5393 69.379H81.9052C81.7308 69.379 81.5074 69.497 81.4102 69.6409L75.5848 78.1746C75.4868 78.3186 75.3747 78.2978 75.3361 78.1286L74.9072 76.2486C74.8686 76.0787 74.6941 75.9399 74.5197 75.9399H70.7754C70.601 75.9399 70.4978 76.0765 70.5453 76.2434L72.2234 82.1223C72.2709 82.29 72.2746 82.5647 72.2316 82.7339L71.5005 85.5787C71.4567 85.7479 71.5636 85.8852 71.738 85.8852H75.4393C75.613 85.8852 75.7911 85.7472 75.8341 85.5787L76.5659 82.7339C76.609 82.5639 76.73 82.3131 76.8354 82.1735L86.2923 69.6224C86.3977 69.4829 86.3406 69.3693 86.1669 69.3708L85.1731 69.3767ZM55.4218 76.7385V76.7355C55.4002 76.924 55.2258 77.0628 55.0514 77.0628H50.3036C50.1389 77.0628 50.0557 76.9515 50.0802 76.8134L50.0847 76.8023L50.0817 76.8038L50.084 76.7882L50.1055 76.7073C50.559 75.502 51.4822 74.7108 53.2182 74.7108C55.1731 74.7101 55.5546 75.6645 55.4218 76.7385ZM54.0287 71.2582C47.9346 71.2582 46.4903 74.9572 45.6798 78.6912C44.8701 82.4971 44.9391 86.0544 51.2462 86.0544H52.0107L52.2007 86.0537H52.2452L53.0022 86.0515H53.0156C54.6811 86.0448 56.3517 86.0322 57.0279 86.027C57.2008 86.024 57.37 85.8852 57.4056 85.7152L57.6609 84.4676L57.7107 84.2249L58.015 82.7361C58.0498 82.5661 57.9363 82.4259 57.7619 82.4259H52.0923C49.8368 82.4259 49.1673 81.8269 49.4145 80.065H58.4773L58.4766 80.0657L58.4825 80.065C58.6265 80.0627 58.7601 79.9633 58.8128 79.8312L58.8343 79.7525L58.8336 79.7533C60.1792 74.6774 59.7932 71.2589 54.0287 71.2582ZM25.2244 76.7192L25.1383 77.0227L24.454 79.449L23.7697 81.8737C23.7229 82.0422 23.5411 82.1787 23.3667 82.1787H19.7448C16.9972 82.1787 16.3278 80.0293 16.9972 76.8602C17.6659 73.6183 18.9774 71.6033 21.6819 71.3992C25.378 71.1201 26.1172 73.7193 25.2244 76.7192ZM27.7092 81.9924C27.7092 81.9924 29.417 77.8451 29.8044 75.4508C30.3336 72.2453 28.7282 67.5947 22.528 67.5947C16.3634 67.5947 13.6856 72.0338 12.6643 76.8602C11.6431 81.7215 12.9813 85.9839 19.111 85.949L23.9471 85.9312L28.4663 85.9149C28.6399 85.9134 28.8181 85.7754 28.8626 85.6076L29.65 82.6047C29.6938 82.4355 29.5877 82.2975 29.4133 82.296L28.6585 82.2915L27.9037 82.2871C27.756 82.2863 27.6714 82.1899 27.6892 82.0629L27.7092 81.9924ZM58.228 79.2159C58.228 79.3309 58.1352 79.4245 58.0202 79.4245C57.9059 79.4245 57.8123 79.3309 57.8123 79.2159C57.8123 79.1016 57.9051 79.0088 58.0202 79.0088C58.1352 79.0088 58.228 79.1016 58.228 79.2159Z" fill="#0868AC"/>
</g>
<defs>
<clipPath id="clip0_291_601">
<rect width="87" height="92" fill="white"/>
</clipPath>
</defs>
</svg>
