<svg width="179" height="95" viewBox="0 0 179 95" fill="none" xmlns="http://www.w3.org/2000/svg">
<g clip-path="url(#clip0_292_627)">
<path d="M0.00143929 85.5835H5.91447V62.2322L15.069 82.5895C16.1486 85.0538 17.6268 85.9246 20.5272 85.9246C23.4276 85.9246 24.8497 85.0538 25.9292 82.5895L35.0838 62.2322V85.5835H40.9968V62.271C40.9968 59.9968 40.0871 58.8957 38.2102 58.3285C33.7178 56.9266 30.7037 58.14 29.3392 61.1728L20.3559 81.2638L11.6577 61.1713C10.3492 58.14 7.27902 56.9266 2.78667 58.3271C0.909697 58.8957 0 59.9954 0 62.2696L0.00143929 85.5835ZM45.9152 66.5748H51.8268V79.4401C51.7721 80.1382 52.0514 81.7791 55.29 81.831C56.9424 81.8569 68.0459 81.831 68.1495 81.831V66.5115H74.0755C74.1029 66.5115 74.0698 87.4029 74.0698 87.4892C74.1014 92.6423 67.6774 93.7607 64.7152 93.847H46.0433V89.8685C46.075 89.8685 64.7022 89.8729 64.7483 89.8671C68.5555 89.4655 68.1049 87.5742 68.1035 86.9379V85.3863H55.5361C49.6893 85.333 45.9642 82.781 45.9167 79.8446C45.9138 79.5754 46.0448 66.7044 45.9152 66.5748Z" fill="#00618A"/>
<path d="M78.6341 85.5835H95.6362C97.6269 85.5835 99.5614 85.1675 101.096 84.4478C103.654 83.2733 104.904 81.6813 104.904 79.5942V75.2731C104.904 73.5674 103.484 71.974 100.697 70.9146C99.2189 70.3446 97.398 70.0438 95.6348 70.0438H88.4695C86.0815 70.0438 84.9444 69.3241 84.6608 67.7321C84.6047 67.5421 84.6047 67.391 84.6047 67.201V64.5093C84.6047 64.3582 84.6047 64.2056 84.6608 64.017C84.9444 62.8036 85.5705 62.4625 87.6749 62.2725L88.2435 62.2351H105.132V58.294H88.5285C86.1405 58.294 84.8897 58.4452 83.7526 58.7863C80.2275 59.886 78.6902 61.6291 78.6902 64.6619V68.1107C78.6902 70.7649 81.7058 73.0392 86.7652 73.5703C87.3352 73.6063 87.9024 73.6466 88.4709 73.6466H94.6128C94.8402 73.6466 95.0677 73.6466 95.2389 73.6826C97.1159 73.8337 97.9105 74.1763 98.4805 74.8571C98.8216 75.1983 98.9339 75.5408 98.9339 75.9179V79.3682C98.9339 79.7842 98.6503 80.3153 98.0817 80.7701C97.5708 81.225 96.7172 81.5287 95.5801 81.605L94.9539 81.6424H78.6341V85.5835ZM141.796 78.7233C141.796 82.7781 144.81 85.0523 150.893 85.5086C151.462 85.5461 152.03 85.5835 152.599 85.5835H168.009V81.6424H152.487C149.018 81.6424 147.711 80.7702 147.711 78.6845V58.2911H141.798L141.796 78.7233ZM108.679 78.9277V64.872C108.679 61.3023 111.186 59.1361 116.143 58.4523C116.656 58.3761 117.227 58.3386 117.738 58.3386H128.964C129.534 58.3386 130.046 58.3761 130.615 58.4523C135.572 59.1361 138.081 61.3009 138.081 64.872V78.9277C138.081 81.8267 137.016 83.3755 134.562 84.3859L140.388 89.644H133.521L128.808 85.3892L124.064 85.69H117.738C116.656 85.69 115.517 85.5389 114.263 85.1963C110.502 84.1714 108.679 82.1951 108.679 78.9277ZM115.061 78.5866C115.061 78.7766 115.117 78.968 115.175 79.1954C115.516 80.8292 117.056 81.7403 119.391 81.7403H124.762L119.828 77.2854H126.695L130.998 81.1717C131.792 80.7471 132.313 80.1023 132.496 79.2717C132.552 79.0817 132.552 78.8917 132.552 78.7017V65.2175C132.552 65.0664 132.552 64.8749 132.496 64.6849C132.154 63.1649 130.615 62.2927 128.336 62.2927H119.389C116.769 62.2927 115.059 63.4326 115.059 65.2175L115.061 78.5866Z" fill="#E48E00"/>
<path d="M173.211 51.7491C169.576 51.6498 166.8 51.988 164.425 52.9884C163.75 53.2734 162.675 53.2806 162.565 54.1255C162.935 54.5156 162.993 55.0957 163.288 55.5736C163.855 56.4905 164.812 57.7197 165.666 58.3631C166.597 59.067 167.558 59.8212 168.56 60.4315C170.338 61.5168 172.324 62.1357 174.039 63.2211C175.048 63.863 176.049 64.6691 177.035 65.3931C177.523 65.7486 177.849 66.3057 178.483 66.5288V66.4266C178.151 66.0034 178.065 65.4219 177.759 64.9786L176.415 63.6342C175.101 61.8896 173.434 60.3595 171.659 59.0871C170.246 58.0723 167.082 56.7006 166.492 55.0554L166.388 54.9532C167.39 54.8395 168.565 54.4767 169.489 54.2292C171.043 53.8117 172.432 53.9197 174.037 53.5051L176.208 52.8833V52.4717C175.397 51.6397 174.817 50.5371 173.933 49.7843C171.62 47.8138 169.093 45.8447 166.492 44.2009C165.05 43.2912 163.266 42.6996 161.736 41.9281C161.224 41.6676 160.32 41.5337 159.979 41.1005C159.174 40.077 158.738 38.7801 158.117 37.5869C156.822 35.0895 155.547 32.3604 154.397 29.7307C153.614 27.9386 153.101 26.1711 152.124 24.5633C147.43 16.8467 142.378 12.1888 134.552 7.61151C132.886 6.63704 130.881 6.25416 128.764 5.75181L125.352 5.54454C124.66 5.25523 123.938 4.40598 123.286 3.99432C120.692 2.35629 114.042 -1.20622 112.122 3.47901C110.91 6.43553 113.935 9.32007 115.016 10.8185C115.775 11.8692 116.748 13.0467 117.29 14.2284C117.647 15.0057 117.708 15.7844 118.014 16.6063C118.764 18.6301 119.419 20.8338 120.391 22.7036C120.882 23.6507 121.424 24.6482 122.045 25.4945C122.425 26.0127 123.078 26.243 123.18 27.0448C122.543 27.9372 122.505 29.3248 122.147 30.4547C120.532 35.5487 121.141 41.8806 123.491 45.6504C124.212 46.8091 125.911 49.2906 128.246 48.3377C130.288 47.5058 129.833 44.9278 130.418 42.6521C130.55 42.1383 130.468 41.7583 130.727 41.4128V41.5164L132.588 45.2373C133.966 47.4554 136.408 49.7714 138.48 51.336C139.554 52.1464 140.4 53.5498 141.787 54.0233V53.9183H141.685C141.415 53.4994 140.996 53.3267 140.65 52.9884C139.841 52.1953 138.942 51.2108 138.274 50.3011C136.39 47.7447 134.726 44.9451 133.209 42.0317C132.485 40.6413 131.856 39.1069 131.245 37.6905C131.009 37.145 131.012 36.3188 130.523 36.0381C129.852 37.0745 128.869 37.9136 128.351 39.1386C127.525 41.0961 127.418 43.4841 127.111 45.9598L126.904 46.062C125.463 45.7151 124.958 44.2326 124.423 42.9616C123.07 39.7474 122.818 34.5699 124.01 30.8692C124.318 29.9106 125.709 26.8951 125.145 26.0098C124.876 25.1275 123.988 24.6179 123.493 23.9414C122.878 23.108 122.264 22.0112 121.839 21.0468C120.731 18.5408 120.214 15.7268 119.049 13.192C118.491 11.9801 117.55 10.7551 116.775 9.67848C115.919 8.48378 114.959 7.60576 114.294 6.16348C114.058 5.65106 113.737 4.82916 114.086 4.30234C114.197 3.94681 114.357 3.79856 114.708 3.68196C115.307 3.21992 116.977 3.83598 117.601 4.09507C119.26 4.78454 120.643 5.43947 122.048 6.36931C122.721 6.81697 123.402 7.6806 124.218 7.91954H125.148C126.603 8.25348 128.234 8.02174 129.593 8.43485C131.997 9.16606 134.15 10.3017 136.105 11.5367C142.062 15.2993 146.932 20.6539 150.266 27.0419C150.801 28.0711 151.034 29.0513 151.505 30.1423C152.458 32.3417 153.658 34.6059 154.605 36.7578C155.551 38.9039 156.474 41.0702 157.811 42.8565C158.513 43.795 161.228 44.2988 162.462 44.8198C163.327 45.1855 164.743 45.5669 165.562 46.0592C167.127 47.0034 168.644 48.1276 170.11 49.1611C170.843 49.6821 173.099 50.8149 173.211 51.7491ZM127.008 12.3687C126.251 12.3543 125.714 12.4522 125.147 12.576V12.6782H125.25C125.612 13.4223 126.249 13.9002 126.697 14.5393L127.732 16.7099L127.834 16.6077C128.475 16.1572 128.767 15.4361 128.764 14.3335C128.506 14.0629 128.469 13.7246 128.247 13.4036C127.953 12.9718 127.381 12.73 127.008 12.3687Z" fill="#00618A"/>
</g>
<defs>
<clipPath id="clip0_292_627">
<rect width="178.485" height="95" fill="white"/>
</clipPath>
</defs>
</svg>
