<svg width="727" height="95" viewBox="0 0 727 95" fill="none" xmlns="http://www.w3.org/2000/svg">
<g clip-path="url(#clip0_292_616)">
<path d="M313.571 61.3998H361.542L336.177 20.5909L289.623 94.3747H268.436L325.061 5.74396C327.522 2.16373 331.625 0 336.177 0C340.578 0 344.682 2.08858 347.069 5.59508L403.918 94.3747H382.731L372.735 77.8872H324.167L313.573 61.3998H313.571ZM533.655 77.8858V0.894702H515.676V85.422C515.676 87.7346 516.571 89.9735 518.286 91.6892C520.002 93.4049 522.315 94.3747 524.851 94.3747H606.842L617.436 77.8872H533.654L533.655 77.8858ZM236.206 64.0839C253.664 64.0839 267.839 49.9842 267.839 32.5269C267.839 15.0681 253.664 0.893284 236.206 0.893284H157.55V94.3761H175.523V17.3836H235.013C243.369 17.3836 250.083 24.174 250.083 32.5297C250.083 40.884 243.369 47.673 235.013 47.673L184.327 47.5993L237.997 94.3761H264.109L228 64.0867H236.207L236.206 64.0839ZM46.9133 94.3747C21.1073 94.3761 0.164764 73.4861 0.164764 47.673C0.164764 21.8585 21.1073 0.89612 46.9133 0.89612H101.248C127.059 0.89612 147.986 21.8585 147.986 47.673C147.986 73.4861 127.059 94.3747 101.246 94.3747H46.9133ZM100.04 77.8872C116.758 77.8872 130.299 64.3831 130.299 47.6716C130.299 30.9615 116.758 17.3836 100.04 17.3836H48.1157C31.4028 17.3836 17.8546 30.9615 17.8546 47.673C17.8546 64.3831 31.4028 77.8872 48.1142 77.8872H100.038H100.04ZM441.444 94.3747C415.632 94.3747 394.667 73.4861 394.667 47.673C394.667 21.8585 415.632 0.89612 441.444 0.89612H505.979L495.458 17.3836H442.638C425.926 17.3836 412.348 30.9615 412.348 47.673C412.348 64.3831 425.926 77.8872 442.638 77.8872H507.469L496.874 94.3747H441.444ZM661.305 77.8872C647.503 77.8872 635.79 68.6368 632.21 55.8784H709.052L719.645 39.391H632.21C635.79 26.7078 647.503 17.3836 661.305 17.3836H714.051L724.717 0.893284H660.11C634.297 0.893284 613.333 21.8571 613.333 47.6702C613.333 73.4846 634.297 94.3733 660.11 94.3733H715.542L726.135 77.8872H661.304H661.305Z" fill="#EA1B22"/>
</g>
<defs>
<clipPath id="clip0_292_616">
<rect width="726.3" height="95" fill="white"/>
</clipPath>
</defs>
</svg>
