<svg width="97" height="95" viewBox="0 0 97 95" fill="none" xmlns="http://www.w3.org/2000/svg">
<path fill-rule="evenodd" clip-rule="evenodd" d="M47.8185 74.9246C49.2139 76.0786 50.8499 76.5708 52.616 76.6619C53.3464 76.7 54.0978 76.6642 54.8166 76.5334C55.9566 76.3263 57.0935 76.0662 58.2023 75.7321C60.4605 75.0508 62.4119 73.8734 63.8688 71.9718C64.6989 70.8879 65.3803 69.716 65.8179 68.4202C66.1792 67.3511 66.5187 66.2711 66.7889 65.177C67.0023 64.315 67.1082 63.425 67.2374 62.5443C67.3239 61.9618 67.376 61.3731 67.4298 60.7852C67.517 59.8313 67.6081 58.879 67.6712 57.9227C67.7155 57.2577 67.714 56.5896 67.7397 55.9239C67.7482 55.7206 67.781 55.5189 67.8004 55.3173C67.8168 55.1296 67.9118 55.065 68.1033 55.0681C68.7761 55.0782 69.4505 55.0953 70.1225 55.065C70.8755 55.0315 71.6339 54.9988 72.3752 54.875C73.4296 54.6982 74.4785 54.4747 75.5118 54.2053C76.7328 53.8852 77.8533 53.3129 78.9326 52.6619C80.1878 51.9027 81.334 51.0127 82.2614 49.8657C83.0705 48.8674 83.4536 47.7102 83.2582 46.448C82.9747 44.6142 81.4337 43.4127 79.6419 43.3309C78.9925 43.3013 78.3337 43.3698 77.6874 43.4516C76.9048 43.5513 76.1339 43.7273 75.3537 43.8433C74.8148 43.9243 74.269 43.9601 73.7317 44.0161L73.7169 43.9461C74.7214 42.0484 75.768 40.1725 76.718 38.2492C77.4476 36.7728 78.0705 35.2442 78.7145 33.7258C79.7813 31.2122 80.6324 28.6215 81.3379 25.9872C82.013 23.4658 82.5908 20.9171 82.7738 18.3007C82.847 17.2565 82.8976 16.2076 82.8906 15.1618C82.886 14.3271 82.7956 13.4916 82.7123 12.6599C82.6173 11.7068 82.3292 10.8035 81.9305 9.93451C81.4057 8.78828 80.5904 7.8484 79.733 6.95602C79.047 6.24119 78.2917 5.59021 77.5434 4.93922C76.4758 4.01102 75.2751 3.26893 74.0292 2.61094C72.6127 1.8634 71.1246 1.27783 69.5719 0.882254C68.6328 0.643197 67.6735 0.432172 66.7235 0.242951C66.384 0.174426 66.0414 0 65.6995 0H59.2613C59.0285 0 58.798 0.152623 58.5636 0.17832C57.0226 0.35041 55.4995 0.657213 54.02 1.11664C53.4671 1.28717 52.9625 1.1875 52.4369 1.13844C52.0335 1.10107 51.6372 0.9975 51.2338 0.977254C49.699 0.900943 48.1627 0.790369 46.6271 0.806721C45.1569 0.822295 43.7016 1.06525 42.2789 1.46861C41.0883 1.80811 39.9226 2.22004 38.8542 2.84689C38.3979 3.11475 38.0351 3.06414 37.5624 2.92865C35.9731 2.47 34.3737 2.04016 32.761 1.67963C31.7557 1.45459 30.7208 1.3409 29.6937 1.235C28.7087 1.13221 27.7182 1.07148 26.7277 1.05045C25.7606 1.02943 24.7872 1.0302 23.824 1.11586C22.2908 1.25213 20.7871 1.56361 19.3247 2.06664C17.7012 2.62574 16.2123 3.43479 14.8706 4.49693C13.5079 5.57541 12.4146 6.89061 11.5371 8.39426C10.6112 9.98045 9.97501 11.6788 9.581 13.4612C9.36686 14.4275 9.4455 15.4211 9.29833 16.4023C9.25317 16.706 9.34427 17.0112 9.34427 17.3165V21.5876C9.34427 21.871 9.26096 22.1552 9.29677 22.4402C9.38477 23.1247 9.3544 23.8146 9.47042 24.4944C9.65264 25.5706 9.81694 26.6428 10.0381 27.7112C10.3472 29.2039 10.6423 30.6951 10.985 32.1809C11.2342 33.2625 11.5044 34.3378 11.801 35.407C12.2527 37.0407 12.6934 38.6767 13.205 40.2909C13.6808 41.7914 14.2228 43.2702 14.7639 44.7497C15.513 46.7961 16.407 48.7763 17.4816 50.6732C18.4121 52.317 19.4735 53.8564 20.8985 55.1218C21.8383 55.9566 22.8826 56.5974 24.0981 56.9182C25.0543 57.169 26.0277 57.1993 27.0049 56.9992C28.1395 56.7672 29.1448 56.2782 30.0379 55.547C30.1407 55.4636 30.2521 55.399 30.3743 55.5532C30.8369 56.1388 31.4551 56.5297 32.1022 56.8668C33.848 57.7779 35.7504 58.0512 37.6823 58.1618C38.1511 58.1883 38.623 58.1213 39.0941 58.1089C40.0137 58.0832 40.9061 57.9041 41.7837 57.6502C42.2446 57.517 42.6939 57.3473 43.1627 57.19C43.1869 57.6891 43.218 58.1688 43.2336 58.6493L43.2982 61.268C43.3107 61.6667 43.3262 62.0654 43.3628 62.4625C43.4578 63.4857 43.5505 64.5089 43.6728 65.529C43.7569 66.2321 43.8456 66.94 44.0107 67.6268C44.344 69.0113 44.7941 70.3592 45.3672 71.6666C45.9286 72.9483 46.7377 74.0315 47.8185 74.9246ZM45.0222 61.8676C44.9669 60.638 44.9257 59.4077 44.8984 58.1774C44.8657 56.6652 44.8548 55.1522 44.8338 53.64L44.8299 53.5823C44.0613 54.0441 43.3037 54.5487 42.5024 54.9653C41.5625 55.4535 40.5424 55.7362 39.4858 55.8164C38.658 55.8787 37.8178 55.9355 36.9939 55.8701C35.6421 55.7603 34.2903 55.5493 33.0803 54.8827C32.5897 54.6125 32.0773 54.2832 31.7386 53.8525C30.928 52.8177 31.3165 51.5102 32.5391 50.8811C33.3839 50.445 34.3059 50.2636 35.2217 50.0518C36.0167 49.868 36.8094 49.6585 37.5858 49.4054C38.3535 49.1539 38.8379 48.531 39.3168 47.9197L40.0752 46.9448L39.1634 46.8498C38.2585 46.7657 37.395 46.5157 36.5696 46.1498C35.8641 45.8375 35.8532 45.8032 35.3346 46.3654C34.4702 47.3038 33.6292 48.2654 32.7812 49.2201C32.1575 49.9225 31.5385 50.6288 30.9163 51.3335C30.3027 52.0304 29.7264 52.7663 29.0638 53.4141C28.0811 54.3766 26.8959 54.9552 25.4818 54.8898C24.5746 54.8477 23.7446 54.53 22.997 54.0106C21.456 52.9376 20.418 51.4347 19.4719 49.8579C18.261 47.8364 17.3305 45.6833 16.5355 43.4718C15.9849 41.9425 15.4313 40.4124 14.9516 38.8612C14.4291 37.1754 13.9705 35.47 13.5196 33.7632C13.1785 32.476 12.8764 31.1779 12.5883 29.8775C12.2605 28.3988 11.9459 26.9161 11.6679 25.4273C11.4802 24.422 11.372 23.4019 11.2201 22.3904C11.0153 21.0254 10.978 19.6494 11.0527 18.2797C11.1189 17.0455 11.2957 15.8152 11.4717 14.5895C11.7154 12.8935 12.2745 11.2933 13.0781 9.78189C13.571 8.85602 14.1807 8.01426 14.887 7.23246C16.0472 5.9484 17.4512 5.02098 19.0133 4.32406C20.1042 3.83738 21.2574 3.54537 22.4325 3.31566C24.1767 2.97615 25.9366 2.99016 27.6964 3.02598C28.4658 3.04234 29.2328 3.18172 30.0013 3.25881C31.6568 3.42311 33.2788 3.77197 34.8806 4.20102C36.0486 4.51406 37.1925 4.92053 38.3496 5.2725C38.4649 5.30754 38.6354 5.30443 38.7312 5.24291C40.3003 4.21816 42.0142 3.54225 43.8386 3.15525C44.5309 3.00885 45.2457 2.94422 45.9535 2.89906C46.8132 2.84533 47.6814 2.79393 48.5396 2.84455C49.5713 2.90373 50.6 3.05557 51.6255 3.19574C52.1239 3.26426 52.6098 3.43635 53.1081 3.48307C53.348 3.50566 53.601 3.33201 53.8533 3.27283C55.1413 2.97459 56.4238 2.64365 57.7234 2.40926C58.6905 2.23484 59.6795 2.15229 60.6622 2.09623C61.7601 2.03316 62.8643 1.98721 63.9607 2.04016C65.3468 2.10713 66.7227 2.30414 68.0808 2.62029C69.7643 3.01197 71.3777 3.58041 72.9125 4.37C74.0595 4.96102 75.1489 5.64471 76.1308 6.4857C76.774 7.03779 77.4328 7.58209 78.0129 8.19725C78.7293 8.9557 79.4597 9.71336 79.9098 10.6844C80.2485 11.4171 80.4899 12.1756 80.5569 12.9768C80.6394 13.9743 80.7399 14.975 80.7313 15.974C80.7228 16.9287 80.5919 17.8826 80.5001 18.8357C80.289 21.0067 79.8179 23.1309 79.244 25.2272C78.7714 26.9582 78.2169 28.6705 77.6174 30.3634C77.0653 31.9231 76.4275 33.454 75.7835 34.9795C75.3078 36.107 74.7946 37.2229 74.2386 38.313C73.1843 40.3781 72.0879 42.4222 70.8194 44.3689C70.6006 44.7045 70.3927 45.0487 70.1793 45.3921C70.733 45.7651 71.3598 45.8967 71.9905 45.9652C72.5909 46.0298 73.203 46.0695 73.8026 46.0244C74.7627 45.9527 75.7197 45.8157 76.6744 45.6825C77.6197 45.5502 78.5455 45.2815 79.5173 45.3524C80.486 45.4232 81.1806 46.1599 81.1144 47.0678C81.0724 47.6425 80.8084 48.1354 80.4269 48.5567C78.6242 50.5455 76.3613 51.7509 73.773 52.345C72.7895 52.5708 71.7756 52.6868 70.7688 52.7811C69.9114 52.8605 69.0432 52.8737 68.1828 52.8418C67.5505 52.8184 66.9236 52.6736 66.2773 52.5802C66.2119 53.1712 66.1504 53.7871 66.0756 54.4007L65.7743 56.7547C65.6832 57.5007 65.6123 58.2498 65.5181 58.9958C65.4262 59.72 65.3117 60.4402 65.2152 61.1636C65.1256 61.8372 65.0594 62.5147 64.9582 63.1875C64.8048 64.2184 64.6576 65.2518 64.456 66.275C64.2146 67.4975 63.8455 68.6811 63.2404 69.7845C62.5038 71.1309 61.4596 72.1564 60.1296 72.9156C58.7591 73.6982 57.2601 74.1055 55.7424 74.4465C54.6663 74.6887 53.5598 74.7276 52.4704 74.6287C50.5821 74.4582 48.9702 73.6507 47.7515 72.186C46.589 70.7882 45.8017 69.1873 45.5206 67.3737C45.3851 66.5117 45.2885 65.6427 45.2122 64.7736C45.125 63.8057 45.0674 62.837 45.0222 61.8676ZM47.1449 49.4444C47.1566 50.0907 47.0896 50.737 47.0928 51.3833C47.106 54.3914 47.1278 57.4002 47.1535 60.4091C47.1582 60.9005 47.1823 61.3934 47.2174 61.8839C47.2913 62.9118 47.3645 63.9404 47.4642 64.9652C47.5358 65.6933 47.6332 66.419 47.7476 67.1416C47.9112 68.1641 48.3768 69.0751 48.9048 69.9465C49.3595 70.6956 49.9521 71.331 50.7316 71.7702C52.0569 72.5154 53.4827 72.5777 54.9201 72.3036C55.8912 72.119 56.8458 71.8208 57.788 71.5132C58.7178 71.2103 59.558 70.7158 60.2627 70.0329C60.9238 69.3928 61.3926 68.6118 61.7087 67.7498C62.3216 66.0787 62.5139 64.3181 62.767 62.5723C62.862 61.9182 62.9445 61.2625 63.031 60.6077C63.1298 59.8625 63.2295 59.118 63.3245 58.3728C63.3962 57.8168 63.46 57.2616 63.5278 56.7064C63.6251 55.9091 63.7271 55.1125 63.8198 54.3151C63.8906 53.6984 63.9498 53.0793 64.0137 52.461C64.0946 51.6707 64.1811 50.8826 64.2519 50.0907C64.3049 49.4911 64.2831 48.8798 64.3898 48.2904C64.5852 47.2103 65.096 46.2915 66.0538 45.6966C66.4541 45.4489 66.9073 45.2854 67.3511 45.0752L67.2748 44.9591C66.8644 44.4265 66.4439 43.9025 66.0414 43.3636C65.4091 42.5179 64.9543 41.575 64.4972 40.6273C64.0643 39.7287 63.5348 38.8784 63.0792 37.9899C62.2842 36.4403 61.4744 34.8946 60.7416 33.3162C59.8204 31.3305 59.0947 29.2764 58.8665 27.0773C58.7692 26.1476 58.7443 25.2178 58.9335 24.2966C59.2349 22.8249 60.0026 21.674 61.2953 20.8844C62.4944 20.1525 63.8299 19.9157 65.198 19.8418C66.0468 19.7958 66.901 19.8332 67.7817 19.8332L67.7529 19.6845C67.2047 18.5382 66.6931 17.3725 66.0928 16.2543C65.2471 14.6752 64.1632 13.2517 62.9578 11.9303C62.0654 10.953 61.0975 10.0466 60.0377 9.24381C58.9958 8.455 57.8978 7.75029 56.7259 7.17484C55.3289 6.48725 53.8728 5.95619 52.3466 5.61746C50.8787 5.29197 49.4031 5.09262 47.8971 5.07627C46.6139 5.06225 45.3384 5.12143 44.0878 5.41033C42.2003 5.84717 40.4739 6.6243 38.9734 7.88266C38.1347 8.58582 37.402 9.37463 36.7627 10.253C36.0097 11.2848 35.4039 12.4014 34.8853 13.5702C34.1735 15.1751 33.6853 16.8438 33.3505 18.56C33.1838 19.4166 33.053 20.2786 32.9198 21.1406C32.8731 21.4435 32.87 21.7511 32.842 22.0976L33.412 21.8009L33.968 21.5518C35.8501 20.6913 37.7991 20.1377 39.8938 20.2007C40.7846 20.2272 41.6349 20.404 42.4276 20.7941C43.9461 21.5432 44.8338 22.8164 45.22 24.4267C45.4863 25.5386 45.6693 26.6724 45.8469 27.8039C45.9855 28.6869 46.128 29.5793 46.1435 30.4701C46.1661 31.772 46.1007 33.0771 46.0299 34.3783C45.9699 35.4872 45.7386 36.5781 45.3508 37.613C44.6469 39.4943 43.862 41.3452 43.1292 43.2157C42.8871 43.8339 42.701 44.4732 42.4728 45.153L43.3979 45.1538C43.51 45.1561 43.6245 45.1593 43.7327 45.185C44.5745 45.3835 45.3057 45.7651 45.9045 46.4129C46.705 47.2726 47.1239 48.2787 47.1449 49.4444ZM31.0673 40.5245C30.5892 39.3923 30.3019 38.211 30.2155 36.9908C30.1345 35.843 30.2708 34.7015 30.3891 33.5584C30.5028 32.4518 30.5994 31.3399 30.6321 30.2295C30.6873 28.4019 30.5643 26.579 30.4771 24.7529C30.4249 23.6659 30.5511 22.5656 30.6476 21.4762C30.7349 20.4951 30.8439 19.5116 31.03 18.5445C31.3407 16.9217 31.7542 15.3223 32.3421 13.7719C32.8988 12.3017 33.5405 10.8713 34.4437 9.58254C35.0644 8.69795 35.7667 7.87332 36.4419 7.00898L36.241 6.93734C34.0427 6.23963 31.8079 5.69299 29.5084 5.45549C28.4221 5.34258 27.3312 5.27717 26.2418 5.21176C25.907 5.19229 25.5675 5.23746 25.2319 5.26939C24.401 5.34959 23.5592 5.38074 22.7416 5.53647C21.3501 5.80123 20.0146 6.24664 18.7789 6.9716C17.6685 7.62258 16.7364 8.46279 15.9553 9.47197C15.0933 10.5863 14.5117 11.8462 14.0951 13.1886C13.6029 14.7733 13.3678 16.4046 13.3047 18.05C13.2494 19.4929 13.2221 20.9436 13.4713 22.3811C13.6559 23.4502 13.7797 24.5318 13.9837 25.5978C14.2625 27.0501 14.5615 28.5 14.9072 29.9375C15.4001 31.9963 15.8938 34.0567 16.4786 36.0907C17.0377 38.0382 17.6677 39.9685 18.3529 41.8763C18.912 43.4329 19.5591 44.9607 20.2405 46.4675C20.6843 47.4494 21.2216 48.3947 21.7854 49.3136C22.3842 50.29 23.0663 51.2167 23.9898 51.9253C25.1571 52.8192 26.0596 52.9586 27.2463 51.9767C27.754 51.557 28.1831 51.0368 28.6254 50.5423C29.327 49.7574 30.0044 48.9491 30.7037 48.1603C31.5937 47.1566 32.4947 46.163 33.3894 45.1624C33.5786 44.9514 33.7616 44.7333 33.9454 44.52L33.6394 44.2529C32.5297 43.1845 31.6685 41.9464 31.0673 40.5245ZM64.8165 10.6205C65.5438 11.4732 66.2477 12.3508 66.8971 13.2634C68.1539 15.0295 69.1585 16.9357 69.899 18.9759C70.226 19.8752 70.4877 20.7832 70.3709 21.7667C70.2899 22.4558 70.2953 23.1543 70.2354 23.8473C70.1848 24.4236 70.0929 24.9967 70.0189 25.5714C69.9068 26.4373 69.7448 27.3016 69.6965 28.1714C69.6498 28.9999 69.6989 29.8362 69.751 30.6655C69.8032 31.5089 69.9169 32.3483 69.994 33.1893C70.0812 34.1447 70.1996 35.0978 70.226 36.0548C70.2478 36.8398 70.1778 37.6286 70.11 38.4135C70.0283 39.358 69.7892 40.2722 69.4326 41.1482C69.181 41.7665 68.8812 42.3645 68.5986 42.9828L68.7123 43.1027L68.8851 43.2367L69.0603 42.9252C70.5305 40.607 71.8387 38.2001 72.9701 35.7013C73.7005 34.0925 74.3811 32.4604 75.0368 30.8189C76.0576 28.2641 76.8667 25.6383 77.4904 22.9589C77.7708 21.7566 77.9857 20.5356 78.1757 19.3146C78.3244 18.3599 78.4474 17.3943 78.4755 16.4311C78.5043 15.4095 78.4482 14.38 78.354 13.3615C78.2831 12.5922 78.0931 11.8182 77.6119 11.1913C76.8363 10.1845 76 9.22201 74.9714 8.45967C74.1047 7.81881 73.2403 7.15926 72.3114 6.62041C70.8373 5.76463 69.2418 5.19619 67.5746 4.8084C65.9464 4.42918 64.2987 4.26566 62.6401 4.23061C61.662 4.20959 60.6793 4.31471 59.7036 4.40738C58.819 4.48992 57.9399 4.63164 57.0499 4.74844C58.0053 5.28574 58.9483 5.76385 59.836 6.32684C61.7049 7.51045 63.3806 8.93467 64.8165 10.6205ZM40.537 43.7639C41.1405 41.8327 41.9635 39.9872 42.7601 38.1324C43.4072 36.6272 43.76 35.0425 43.8776 33.4135C43.936 32.6107 43.9204 31.7977 43.8807 30.9926C43.8363 30.0986 43.7654 29.2008 43.6346 28.3154C43.4672 27.1832 43.2772 26.0502 43.0093 24.9391C42.7189 23.7368 41.9869 22.8989 40.7317 22.5898C39.9678 22.4021 39.2078 22.4099 38.4345 22.5321C36.5478 22.8288 34.8206 23.5242 33.2119 24.5427C32.8879 24.7475 32.7088 24.9134 32.7657 25.3767C32.884 26.3609 32.9097 27.3608 32.9051 28.3536C32.8988 29.7591 32.8389 31.1647 32.7859 32.5694C32.7688 33.0265 32.7026 33.4828 32.6528 33.9384C32.578 34.6361 32.4324 35.333 32.4371 36.0299C32.4417 36.7479 32.5149 37.4822 32.6894 38.1775C33.243 40.3828 34.4142 42.1862 36.3352 43.4594C37.5164 44.2427 38.8231 44.6368 40.2582 44.7123C40.3532 44.3829 40.4412 44.0722 40.537 43.7639ZM38.2819 24.8503C38.0288 24.32 38.1737 23.88 38.7592 23.676C38.9025 23.627 39.0489 23.5725 39.1969 23.5584C39.4017 23.5382 39.608 23.553 39.8144 23.553C40.558 23.5577 41.2728 23.6612 41.8857 24.1331C42.2797 24.4368 42.3856 24.8378 42.1302 25.2521C41.7681 25.8384 41.2176 26.1328 40.5401 26.1889C39.4741 26.2768 38.7258 25.78 38.2819 24.8503ZM67.8526 24.6564L68.0948 22.5345C68.1298 22.251 67.9811 22.1732 67.7428 22.1661C66.9929 22.1459 66.2438 22.1186 65.4939 22.1062C64.6498 22.0906 63.8268 22.2261 63.045 22.5469C62.1775 22.9043 61.5172 23.4759 61.247 24.4204C61.0453 25.1244 60.9916 25.8275 61.0632 26.5634C61.1714 27.6855 61.4206 28.7741 61.8131 29.8183C62.3379 31.2145 62.8861 32.6099 63.5426 33.9477C64.431 35.7582 65.4355 37.5118 66.3793 39.295C66.6308 39.7707 66.8442 40.2683 67.1066 40.8235C67.6571 39.6586 67.925 38.4921 67.9554 37.2898C67.9811 36.2768 67.9009 35.2613 67.8417 34.2483C67.8051 33.6284 67.7171 33.0117 67.6571 32.3934C67.5738 31.5322 67.4461 30.6702 67.4259 29.8066C67.4064 28.9283 67.4687 28.0452 67.5435 27.1677C67.6135 26.3282 67.7521 25.4943 67.8526 24.6564ZM66.1636 23.9758C65.8849 24.7444 65.2899 25.1789 64.5175 25.3058C63.798 25.425 63.1672 25.1594 62.6985 24.5848C62.3644 24.1759 62.4921 23.6924 62.9928 23.4152C63.5675 23.0975 64.199 23.0173 64.9442 22.969C65.1474 23.0056 65.4511 23.0375 65.7408 23.1193C66.1605 23.2376 66.3162 23.5553 66.1636 23.9758ZM43.8947 47.6503C43.4835 47.3139 42.9385 47.2944 42.5476 47.6635C42.0617 48.1229 41.6342 48.6478 41.2067 49.1648C40.7137 49.7629 40.2496 50.3843 39.6142 50.8476C38.6884 51.5211 37.6068 51.7999 36.5213 52.0639C35.6585 52.2741 34.791 52.4696 33.9259 52.6705L33.915 52.7826C34.172 52.901 34.4204 53.0497 34.689 53.1346C36.0089 53.552 37.3521 53.7607 38.7476 53.6423C39.7536 53.5559 40.713 53.3363 41.6217 52.9057C42.873 52.3131 43.8363 51.3732 44.6547 50.2815C44.7917 50.0993 44.854 49.8298 44.8696 49.5947C44.9249 48.7646 44.5036 48.1471 43.8947 47.6503ZM67.9912 47.2905C67.3441 47.5078 66.8177 47.8387 66.6612 48.5388C66.5545 49.0122 66.5156 49.502 66.4743 49.9871C66.4665 50.0728 66.5732 50.2301 66.6542 50.2519C67.1526 50.3835 67.654 50.5384 68.1633 50.5844C68.7901 50.6412 69.4271 50.6233 70.0578 50.5922C70.7384 50.5579 71.4237 50.5135 72.0949 50.4014C73.6748 50.1351 75.205 49.7037 76.563 48.8066C77.0536 48.4835 77.5379 48.1533 78.0254 47.8247L77.9849 47.7554C77.4655 47.8325 76.9477 47.9267 76.426 47.982C75.3638 48.0957 74.3009 48.2156 73.2349 48.2771C72.7202 48.3067 72.1985 48.2078 71.6799 48.1658C70.8093 48.0949 69.9589 47.9018 69.2231 47.4361C68.7987 47.1683 68.4436 47.1387 67.9912 47.2905Z" fill="#336791"/>
<path d="M0.650208 77.2334C1.50131 77.0917 2.61406 76.9702 4.03205 76.9702C5.77242 76.9702 7.04869 77.3751 7.85853 78.104C8.60763 78.7519 9.05304 79.7439 9.05304 80.9595C9.05304 82.1945 8.68783 83.1663 7.99947 83.8749C7.06816 84.8669 5.54972 85.3731 3.82881 85.3731C3.30242 85.3731 2.81652 85.3528 2.41238 85.2516V90.7188H0.650208V77.2334ZM2.41238 83.8133C2.79705 83.9146 3.28295 83.9551 3.87008 83.9551C5.99513 83.9551 7.29164 82.9225 7.29164 81.0397C7.29164 79.2378 6.01615 78.3672 4.07254 78.3672C3.3032 78.3672 2.71607 78.4279 2.41238 78.5089V83.8133ZM19.7226 85.7367C19.7226 89.3607 17.2114 90.9407 14.8426 90.9407C12.1904 90.9407 10.1455 88.9971 10.1455 85.8987C10.1455 82.6188 12.2916 80.6955 15.0046 80.6955C17.8195 80.6947 19.7226 82.7403 19.7226 85.7367ZM11.9482 85.8379C11.9482 87.984 13.1832 89.6037 14.9243 89.6037C16.625 89.6037 17.8997 88.0042 17.8997 85.7974C17.8997 84.1373 17.0704 82.0317 14.9641 82.0317C12.8577 82.0317 11.9482 83.9753 11.9482 85.8379ZM21.7262 88.8951C22.2526 89.2392 23.1839 89.6037 24.0747 89.6037C25.3705 89.6037 25.9778 88.9558 25.9778 88.146C25.9778 87.2956 25.4725 86.83 24.1557 86.3441C22.3943 85.7165 21.5642 84.7447 21.5642 83.5704C21.5642 81.9912 22.8397 80.6955 24.9453 80.6955C25.9373 80.6955 26.8087 80.9789 27.3553 81.3029L26.9099 82.5986C26.5252 82.3556 25.8166 82.0317 24.9056 82.0317C23.8528 82.0317 23.2657 82.6391 23.2657 83.3679C23.2657 84.1778 23.8536 84.5422 25.1291 85.0281C26.8297 85.676 27.7003 86.5263 27.7003 87.984C27.7003 89.7049 26.3641 90.9197 24.0358 90.9197C22.9628 90.9197 21.9707 90.6565 21.2823 90.2515L21.7262 88.8951ZM32.1334 78.1032V80.9174H34.6836V82.2739H32.1334V87.5581C32.1334 88.7728 32.4768 89.4612 33.4696 89.4612C33.9352 89.4612 34.2794 89.4004 34.5021 89.3397L34.5831 90.6759C34.2397 90.8176 33.6923 90.9189 33.0047 90.9189C32.1746 90.9189 31.5057 90.6557 31.0806 90.1698C30.5752 89.6434 30.3922 88.7728 30.3922 87.6188V82.2739H28.8738V80.9174H30.3922V78.5689L32.1334 78.1032ZM45.0098 80.9182C44.9685 81.6268 44.9288 82.4164 44.9288 83.6109V89.3C44.9288 91.5473 44.4834 92.924 43.5318 93.7751C42.5803 94.6659 41.2035 94.9494 39.9685 94.9494C38.7943 94.9494 37.4985 94.6659 36.7082 94.1395L37.1536 92.7831C37.8014 93.188 38.8137 93.5524 40.0285 93.5524C41.8506 93.5524 43.1868 92.6008 43.1868 90.1308V89.0376H43.1464C42.5997 89.9486 41.5469 90.6775 40.0285 90.6775C37.599 90.6775 35.8578 88.6124 35.8578 85.8987C35.8578 82.5783 38.0241 80.6955 40.2714 80.6955C41.9729 80.6955 42.9042 81.5863 43.3293 82.3961H43.3698L43.4508 80.9182H45.0098ZM43.1674 84.7851C43.1674 84.4815 43.1471 84.2183 43.0662 83.9753C42.7422 82.9428 41.8716 82.0924 40.5759 82.0924C38.8745 82.0924 37.6605 83.5299 37.6605 85.7974C37.6605 87.7208 38.6323 89.3202 40.5557 89.3202C41.6489 89.3202 42.641 88.6319 43.0257 87.4981C43.1269 87.1944 43.1682 86.8502 43.1682 86.5465L43.1674 84.7851ZM47.7624 83.9753C47.7624 82.8213 47.7422 81.8292 47.6814 80.9182H49.2412L49.3011 82.8415H49.3821C49.8275 81.5256 50.9005 80.6955 52.095 80.6955C52.2975 80.6955 52.4385 80.7157 52.6004 80.7562V82.4366C52.419 82.3961 52.236 82.3759 51.9938 82.3759C50.7386 82.3759 49.847 83.3274 49.6048 84.6637C49.5643 84.9066 49.5238 85.1901 49.5238 85.4938V90.7172H47.7624V83.9753ZM55.1732 86.1416C55.2137 88.5509 56.7516 89.5429 58.5332 89.5429C59.8095 89.5429 60.5781 89.3202 61.2462 89.0368L61.5499 90.3123C60.9223 90.5957 59.8492 90.9197 58.2903 90.9197C55.2737 90.9197 53.4718 88.9356 53.4718 85.9797C53.4718 83.0238 55.2129 80.6947 58.0676 80.6947C61.2664 80.6947 62.1168 83.5089 62.1168 85.3108C62.1168 85.6752 62.0763 85.9586 62.056 86.1408L55.1732 86.1416ZM60.3966 84.8661C60.4161 83.7324 59.9302 81.971 57.9266 81.971C56.1248 81.971 55.3352 83.6311 55.1927 84.8661H60.3966ZM64.1414 88.5711C64.9309 89.057 66.085 89.4619 67.2997 89.4619C69.1016 89.4619 70.1544 88.5104 70.1544 87.1337C70.1544 85.8582 69.4255 85.1293 67.5832 84.4207C65.3561 83.6311 63.9794 82.4771 63.9794 80.5538C63.9794 78.4279 65.7408 76.8488 68.393 76.8488C69.79 76.8488 70.8023 77.1727 71.4096 77.5169L70.9237 78.9543C70.4783 78.7114 69.5673 78.3065 68.3323 78.3065C66.4696 78.3065 65.761 79.42 65.761 80.3513C65.761 81.6268 66.5903 82.2544 68.474 82.9833C70.782 83.8749 71.9563 84.9876 71.9563 86.992C71.9563 89.0975 70.3973 90.9197 67.1782 90.9197C65.8623 90.9197 64.4248 90.535 63.6952 90.0491L64.1414 88.5711ZM85.6223 92.7215C83.7799 92.2356 81.978 91.689 80.3988 91.1424C80.1154 91.0411 79.8319 90.9399 79.5687 90.9399C76.3294 90.8184 73.5557 88.4294 73.5557 84.036C73.5557 79.6629 76.2282 76.8488 79.9129 76.8488C83.6179 76.8488 86.028 79.7237 86.028 83.7526C86.028 87.2551 84.4083 89.5024 82.1407 90.292V90.373C83.4972 90.7172 84.9752 91.0411 86.1292 91.2436L85.6223 92.7215ZM84.1646 83.8336C84.1646 81.1004 82.7481 78.2854 79.8522 78.2854C76.876 78.2854 75.4183 81.0389 75.4386 83.9956C75.4183 86.8907 77.0178 89.5024 79.7712 89.5024C82.5862 89.5024 84.1646 86.9515 84.1646 83.8336ZM88.3142 77.0715H90.0764V89.2392H95.9072V90.7172H88.3142V77.0715Z" fill="#336791"/>
</svg>
