<svg width="111" height="39" viewBox="0 0 111 39" fill="none" xmlns="http://www.w3.org/2000/svg">
<path d="M47.576 32.637C47.576 32.637 52.426 32.217 52.426 25.903C52.426 19.589 46.55 19 46.55 19H35.966V38.923H41.286V34.117L45.886 38.923H53.756L47.576 32.636V32.637ZM45.526 28.557H41.286V24.002H45.553C45.553 24.002 46.753 24.449 46.753 26.265C46.753 28.081 45.533 28.565 45.533 28.565L45.526 28.557ZM65.56 19.14H60.157C56.307 19.14 55.003 22.66 55.003 24.337V38.923H60.406V35.43H65.476V38.923H70.713V24.338C70.713 20.091 66.889 19.141 65.559 19.141L65.56 19.14ZM65.477 29.786H60.379V24.952C60.379 24.952 60.379 23.852 62.079 23.852H63.935C65.431 23.852 65.459 24.952 65.459 24.952V29.786H65.487H65.477ZM73.18 19.14H78.805V38.924H73.18V19.14ZM86.7 33.8V19.14H81.103V38.924H94.263V33.8H86.7ZM96.12 33.856V38.914H105.18C107.036 38.914 110.223 37.544 110.334 33.717V31.77C110.334 28.5 107.674 26.573 105.18 26.573H100.664V24.226H109.614V19.14H101.014C98.797 19.14 95.834 20.984 95.834 24.42V26.18C95.834 29.617 98.771 31.377 101.014 31.377C107.248 31.405 99.518 31.377 105.281 31.377V33.837L96.111 33.865L96.12 33.856ZM2.44001 38.886H24.34C24.34 38.886 20.156 19.633 34.01 11.836C37.03 10.356 46.645 4.822 62.383 16.558C62.883 16.138 63.353 15.804 63.353 15.804C63.353 15.804 48.953 1.302 32.91 2.924C24.847 3.651 14.928 11.054 9.11001 20.824C3.29201 30.594 2.46001 38.874 2.46001 38.874L2.44001 38.886ZM48.047 4.5L48.147 2.628C47.897 2.488 47.205 2.153 45.459 1.65L45.359 3.494C46.2657 3.80018 47.1621 4.13569 48.047 4.5ZM45.415 10.424L45.315 12.184C46.229 12.212 47.145 12.324 48.058 12.519L48.158 10.787C47.216 10.591 46.302 10.48 45.415 10.424ZM35.163 1.706H35.44L34.885 0C34.025 0 33.139 0.0559993 32.225 0.167999L32.751 1.818C33.5518 1.7388 34.3563 1.70142 35.161 1.706H35.163ZM36.493 11.989L37.13 13.917C37.934 13.517 38.737 13.19 39.53 12.939L38.93 11.095C38.0989 11.3402 37.2846 11.6388 36.492 11.989H36.493ZM23.913 4.639L22.666 2.699C21.9345 3.07932 21.2139 3.48015 20.505 3.901L21.78 5.857C22.5 5.41 23.193 4.991 23.914 4.627L23.913 4.639ZM29.593 17.213L30.923 19.225C31.393 18.525 31.948 17.885 32.558 17.241L31.311 15.341C30.6878 15.9166 30.1132 16.5428 29.593 17.213ZM25.576 26.2L27.82 28C27.9319 26.897 28.1265 25.8039 28.402 24.73L26.407 23.137C26.047 24.171 25.807 25.205 25.577 26.211L25.576 26.2ZM13.44 12.938L11.473 11.206C10.753 11.906 10.06 12.603 9.42301 13.302L11.557 15.146C12.139 14.392 12.777 13.646 13.441 12.939L13.44 12.938ZM5.07201 25.438L1.88601 24.264C1.36001 25.466 0.778007 26.864 0.501007 27.617L3.68701 28.791C4.04701 27.841 4.62901 26.471 5.07201 25.438ZM25.16 33.318C25.1981 34.4971 25.309 35.6726 25.492 36.838L28.817 38.04C28.567 36.94 28.317 35.72 28.152 34.407L25.16 33.307V33.318Z" fill="#CC0000"/>
</svg>
