<svg width="118" height="95" viewBox="0 0 118 95" fill="none" xmlns="http://www.w3.org/2000/svg">
<g clip-path="url(#clip0_292_621)">
<path d="M79.5154 30.2812L66.5631 34.5106L55.2947 39.4839L52.1422 40.3162C51.3393 41.0799 50.4975 41.8534 49.587 42.6366C48.5884 43.498 47.6584 44.2814 46.9436 44.8491C46.1507 45.4757 44.9758 46.6505 44.3787 47.3944C43.4877 48.5104 42.7829 49.695 42.4794 50.6056C41.9409 52.2504 42.2053 53.9147 43.243 55.4518C44.5745 57.4098 47.2277 59.4069 50.3212 60.7677C51.8975 61.463 54.5506 62.3538 56.5477 62.853C59.8665 63.695 66.2889 64.6055 69.823 64.7427C70.5376 64.772 71.4971 64.772 71.5362 64.7427C71.6146 64.6935 72.1629 63.6461 72.7993 62.3441C74.9727 57.9091 76.5391 53.7483 77.3908 50.1945C77.8998 48.0408 78.3012 45.1722 78.5654 41.7752C78.6341 40.8255 78.6633 37.6437 78.6046 36.5667C78.5164 34.8045 78.3598 33.3753 78.1152 31.9753C78.076 31.7696 78.0661 31.5836 78.0858 31.5738C78.1249 31.5445 78.2423 31.5053 79.8381 31.0451L79.5152 30.2816V30.2813H79.5154V30.2812ZM76.5588 32.0142C76.6763 32.0142 76.9894 35.0197 77.0677 36.9191C77.0874 37.3205 77.0775 37.5848 77.058 37.5848C76.9797 37.5848 75.4034 36.6548 74.2777 35.95C73.2987 35.3332 71.4386 34.0995 71.1449 33.8646C71.0468 33.7961 71.0566 33.7864 71.8595 33.5122C73.2202 33.0519 76.4511 32.0142 76.5588 32.0142ZM69.9602 34.1877C70.0484 34.1877 70.2734 34.3148 70.8119 34.6478C72.8286 35.9107 75.57 37.438 76.7447 37.9471C77.1069 38.1038 77.146 38.0449 76.314 38.6129C74.5321 39.8268 72.3097 41.0211 69.588 42.2253C69.1084 42.4407 68.707 42.6071 68.6973 42.6071C68.6778 42.6071 68.7363 42.3625 68.8146 42.0687C69.4705 39.6308 69.8426 37.1638 69.8623 35.1862C69.8721 34.2071 69.8721 34.2071 69.9602 34.1779C69.9405 34.1877 69.9503 34.1877 69.9602 34.1877ZM68.5994 34.7065C68.658 34.7651 68.619 36.9582 68.5406 37.5554C68.3644 38.9848 68.0902 40.3162 67.6401 41.8142C67.5323 42.1762 67.4343 42.4799 67.4149 42.4994C67.3755 42.5483 66.0343 41.2364 65.5938 40.7274C64.8301 39.8462 64.233 38.9651 63.7925 38.1036C63.5673 37.663 63.2149 36.8016 63.2442 36.7722C63.4008 36.6645 68.5603 34.6674 68.5994 34.7065ZM62.1966 37.2225C62.2064 37.2225 62.2161 37.2225 62.226 37.2323C62.2455 37.2519 62.3142 37.4086 62.3729 37.5847C62.6861 38.4365 63.3909 39.6896 63.9981 40.4924C64.6638 41.3736 65.5352 42.3133 66.2594 42.9301C66.4945 43.1259 66.7098 43.3119 66.7391 43.3413C66.7979 43.4001 66.8175 43.3902 65.2216 43.9973C63.3715 44.7021 61.3546 45.407 59.0441 46.151C58.4922 46.3289 57.9408 46.5084 57.3898 46.6895C57.3016 46.7189 57.331 46.6699 57.5855 46.2686C58.7309 44.4769 60.4735 40.9623 61.4526 38.4756C61.619 38.0448 61.7855 37.6141 61.8149 37.5162C61.8541 37.3791 61.9029 37.3302 62.0301 37.2616C62.0987 37.2422 62.1673 37.2225 62.1966 37.2225ZM60.2388 38.0351C60.2681 38.0548 59.7687 39.1022 59.2792 40.0616C58.3295 41.9119 57.2918 43.733 55.9016 45.9455C55.6667 46.3273 55.4416 46.6798 55.4122 46.719C55.3633 46.7875 55.3436 46.7679 55.187 46.4644C54.8541 45.8085 54.5799 44.9665 54.4331 44.193C54.2862 43.4293 54.3156 42.098 54.4821 41.2756C54.6093 40.6687 54.5996 40.6785 54.8933 40.5316C56.1464 39.8953 60.1996 37.9959 60.2388 38.0351ZM77.1266 38.7205V39.1316C77.1266 41.3148 76.8916 44.3106 76.5489 46.4939C76.4901 46.8756 76.441 47.1888 76.4314 47.1987C76.4314 47.1987 76.1475 47.1205 75.8146 47.0224C74.3462 46.5623 72.7504 45.8868 71.3112 45.0939C70.3614 44.575 68.9811 43.7231 69.0203 43.684C69.03 43.6742 69.4412 43.4589 69.9209 43.2043C71.84 42.2057 73.6803 41.1288 75.2761 40.0617C75.8734 39.6603 76.7739 39.0143 76.9699 38.838L77.1266 38.7205ZM52.8471 41.6182C52.8862 41.6182 52.8764 41.6965 52.8177 42.049C52.7785 42.3036 52.7296 42.7735 52.7102 43.0964C52.6316 44.5258 52.8668 45.5832 53.5716 47.0321C53.7674 47.4335 53.9242 47.7664 53.9142 47.7761C53.8457 47.8349 47.3648 49.7343 45.3283 50.2923C44.7213 50.4586 44.1928 50.6055 44.1534 50.6152C44.085 50.6349 44.0752 50.6251 44.1045 50.4585C44.3297 49.0195 45.4262 47.1398 46.9534 45.5537C47.9716 44.4964 48.7842 43.8797 50.1744 43.0866C51.173 42.5189 52.71 41.6672 52.8275 41.628C52.8276 41.6182 52.8373 41.6182 52.8471 41.6182ZM68.1197 44.3496C68.1294 44.3399 68.3644 44.4672 68.6483 44.6336C70.7434 45.8476 73.6608 46.9735 76.1473 47.5511L76.3727 47.6001L76.0593 47.7761C74.7573 48.5006 70.479 50.2824 66.1029 51.9174C65.4665 52.1523 64.84 52.3873 64.7223 52.4362C64.6049 52.4851 64.4971 52.5146 64.4971 52.5048C64.4971 52.4949 64.6735 52.1523 64.8985 51.7314C66.1222 49.4405 67.3559 46.6503 67.9824 44.7119C68.0609 44.5259 68.1098 44.3595 68.1197 44.3496ZM66.5631 44.8588C66.573 44.8688 66.4946 45.0742 66.3966 45.3091C65.5449 47.3748 64.4287 49.6267 62.9994 52.1524C62.6373 52.7987 62.3337 53.3176 62.3238 53.3176C62.3142 53.3176 62.0203 53.1412 61.6679 52.9259C59.5923 51.6531 57.7519 50.0868 56.5478 48.5693L56.3715 48.3539L57.2623 48.1091C60.4539 47.2379 63.1657 46.298 65.8581 45.1428C66.2399 44.9861 66.5533 44.8588 66.5631 44.8588ZM76.2357 48.2364C76.2454 48.4616 75.7461 50.4784 75.3349 51.9369C74.9923 53.1607 74.6984 54.1202 74.1601 55.8138C73.9252 56.558 73.7197 57.1746 73.7098 57.1746C73.7 57.1746 73.6413 57.1649 73.5826 57.1454C70.6749 56.6166 68.0707 55.8824 65.6232 54.9034C64.9378 54.6292 63.9589 54.1886 63.9001 54.1397C63.8806 54.1199 64.4681 53.846 65.2121 53.5229C69.6666 51.5747 74.2875 49.3621 75.8734 48.4126C76.0593 48.2951 76.2062 48.2364 76.2357 48.2364ZM53.9045 49C53.9241 49.0196 52.6807 50.8112 50.938 53.2489C50.3311 54.1007 49.6262 55.0992 49.3619 55.4712C49.0975 55.8432 48.6962 56.4307 48.471 56.7831L48.0596 57.4195L47.6191 57.0475C47.1002 56.6166 46.1996 55.6964 45.7982 55.1873C44.9562 54.1399 44.3885 53.0336 44.1633 52.0253C44.0556 51.5553 44.0556 51.3202 44.1534 51.291C44.3002 51.2519 46.9142 50.6351 49.3618 50.0671C50.7227 49.7539 52.2987 49.3819 52.8666 49.2449C53.4345 49.1076 53.8947 49 53.9045 49ZM55.1576 49.4798L55.4707 49.8322C56.8807 51.4084 58.3198 52.5736 60.0624 53.5916C60.3758 53.7679 60.6107 53.9244 60.591 53.9344C60.5226 53.9833 54.5407 56.1075 51.7702 57.067C50.2136 57.6152 48.931 58.0558 48.9214 58.0558C48.9116 58.0558 48.8235 57.9971 48.7254 57.9285L48.5493 57.8012L48.8332 57.3901C49.7534 56.0586 50.9088 54.6 53.4248 51.5651L55.1576 49.4798ZM62.9702 55.0698C62.9798 55.0601 63.4106 55.2166 63.9392 55.4126C65.2121 55.8923 66.2203 56.1957 67.5714 56.5384C69.2358 56.9594 71.6441 57.3706 73.0637 57.488C73.2791 57.5076 73.3966 57.5272 73.3574 57.5566C73.2887 57.5958 71.8498 58.0755 70.7924 58.4084C69.1084 58.937 63.9687 60.4544 59.7785 61.6587C59.0051 61.8838 58.3393 62.0699 58.3002 62.0796C58.2024 62.0992 57.8792 62.011 57.8792 61.9718C57.8792 61.9524 58.1142 61.6489 58.3981 61.316C59.8078 59.6321 61.2079 57.7524 62.3729 55.9706C62.6959 55.481 62.9702 55.0796 62.9702 55.0698ZM61.247 55.1189C61.2567 55.1286 60.5617 56.2446 59.3479 58.1635C58.8289 58.9761 58.2512 59.8963 58.0456 60.2194C57.8498 60.5327 57.5561 61.0223 57.3897 61.2963L57.1058 61.7957L56.959 61.7565C56.6064 61.6586 54.1296 60.7872 53.4736 60.5229C52.661 60.1998 51.8191 59.8083 51.1924 59.4754C50.4093 59.0544 49.4304 58.4278 49.5086 58.4083C49.5282 58.3986 50.8695 58.0362 52.4847 57.5957C56.7729 56.4306 59.1518 55.7551 60.7085 55.2657C60.9925 55.1775 61.2372 55.109 61.247 55.1189ZM73.4356 57.9774H73.4454C73.4846 58.0754 71.8987 62.4809 71.3208 63.8711C71.1937 64.1843 71.1449 64.2628 71.0763 64.2528C70.9098 64.2432 68.6092 63.9201 67.2091 63.7145C64.7715 63.3425 60.6792 62.6277 59.6513 62.3928L59.4163 62.3439L60.8749 62.0108C64.0078 61.306 65.5154 60.9242 67.0426 60.4543C68.9714 59.8669 70.8805 59.1326 72.8091 58.232C73.1125 58.0949 73.3671 57.9872 73.4356 57.9774Z" fill="url(#paint0_linear_292_621)"/>
<path d="M66.1617 0.0885752C65.9463 0.0593658 62.4707 1.31248 60.2289 2.22284C57.2037 3.45654 54.8542 4.63142 53.4052 5.64936C52.8668 6.03134 52.1912 6.70677 52.0836 6.97105C52.0445 7.06897 52.0248 7.18644 52.0248 7.30391L53.3367 8.54727L56.4597 9.54585L63.8904 10.8773L72.3881 12.3361L72.4763 11.6018C72.447 11.6018 72.4273 11.5921 72.3982 11.5921L71.2818 11.4158L71.0568 11.0144C69.9016 8.97805 68.6289 6.45219 67.8848 4.74871C67.3073 3.42702 66.759 1.89991 66.4554 0.803368C66.289 0.137648 66.2695 0.0985071 66.1619 0.0887556V0.0885297H66.1617V0.0885752ZM66.0049 0.588023H66.015C66.0246 0.597685 66.0638 0.87199 66.103 1.19487C66.2693 2.56568 66.573 3.88714 67.0526 5.31655C67.4148 6.3935 67.4148 6.33481 66.9939 6.20746C65.9953 5.93342 61.5213 5.15998 58.2808 4.70965C57.7618 4.64108 57.3213 4.57259 57.3213 4.56284C57.2821 4.5237 59.661 3.28025 60.7086 2.79087C62.0498 2.17395 65.7309 0.636916 66.0049 0.588023ZM56.5673 4.97394L56.9493 5.10107C59.0246 5.80606 64.2426 6.80469 67.1211 7.03963C67.444 7.06902 67.7183 7.09845 67.7279 7.09845C67.7377 7.10821 67.4637 7.25506 67.1112 7.42143C65.7211 8.11654 64.1938 8.9683 63.1365 9.62427C62.8233 9.81998 62.5392 9.97672 62.5002 9.97672C62.461 9.97672 62.2555 9.93754 62.0401 9.90815L61.6485 9.84932L60.6696 8.88984C58.9465 7.21583 57.5954 5.92358 57.0765 5.43397L56.5673 4.97394ZM56.1758 5.27736L57.5562 7.00049C58.31 7.95013 59.0736 8.88013 59.2402 9.08564C59.4065 9.29137 59.5436 9.45786 59.5339 9.46761C59.4947 9.49696 57.5368 9.11507 56.4989 8.88022C55.4318 8.6354 54.9913 8.51793 54.3353 8.31242L53.7968 8.13613V7.99898C53.8066 7.34301 54.6388 6.36407 56.0486 5.36558L56.1758 5.27736ZM67.9043 7.62702C67.9435 7.62702 67.9923 7.7151 68.1098 7.97943C68.4427 8.71364 69.4806 10.6913 69.7349 11.0731C69.8135 11.2005 69.9503 11.2102 68.5701 10.9851C65.2513 10.4465 64.1841 10.2704 64.1841 10.2508C64.1841 10.2411 64.282 10.1725 64.4093 10.1039C65.4373 9.53624 66.4749 8.81169 67.3953 8.03825C67.6205 7.85221 67.8261 7.676 67.8651 7.64657C67.8749 7.62702 67.8946 7.61727 67.9043 7.62702Z" fill="url(#paint1_linear_292_621)"/>
<path d="M52.1519 6.83398C52.1519 6.83398 51.9367 7.17678 52.1422 7.68589C52.2696 7.99906 52.6416 8.38081 53.0625 8.7725C53.0625 8.7725 57.419 13.0214 57.9477 13.6284C60.356 16.4087 61.4036 19.15 61.5015 22.929C61.5603 25.3569 61.1 27.4912 59.9547 29.9681C57.9183 34.4128 53.6204 39.3177 46.9925 44.761L47.9619 44.4379C48.5884 43.9679 49.4402 43.4688 51.4373 42.3722C56.0484 39.8462 61.2372 37.526 67.6008 35.1372C76.7641 31.691 91.8312 27.6574 100.407 26.3457L101.298 26.2086L101.161 25.9932C100.378 24.7792 99.8393 24.0254 99.1931 23.2226C97.3136 20.8926 95.0326 19.0032 92.2423 17.4367C88.4046 15.2928 83.4408 13.6187 77.1558 12.3753C75.9712 12.1402 73.367 11.69 71.2524 11.3669C66.7685 10.672 63.8706 10.1922 60.6791 9.6439C59.5338 9.44802 57.8203 9.15439 56.6847 8.9097C56.0973 8.7823 54.9715 8.51801 54.0904 8.21454C53.3856 7.94028 52.3673 7.66616 52.1519 6.83398ZM54.6779 9.28161C54.6876 9.27195 54.8442 9.3305 55.0499 9.39908C55.4219 9.52621 55.9016 9.67311 56.4696 9.82986C56.8993 9.94805 57.33 10.0623 57.7618 10.1725C58.3492 10.3192 58.8386 10.4563 58.8484 10.4563C58.9171 10.5249 59.9059 13.6869 60.2388 14.9009C60.3658 15.3612 60.4639 15.7527 60.4541 15.7527C60.4441 15.7626 60.3365 15.5961 60.2093 15.3709C59.0638 13.3541 57.2527 11.308 55.1575 9.66323C54.8836 9.46761 54.6779 9.29136 54.6779 9.28161ZM59.4946 10.613C59.5436 10.613 59.759 10.6424 60.0232 10.7011C61.6875 11.0731 64.6736 11.641 66.5826 11.9641C66.9057 12.013 67.1603 12.0718 67.1603 12.0913C67.1603 12.111 67.0427 12.1794 66.8958 12.2578C66.5728 12.4242 65.2707 13.1975 64.84 13.4913C63.7532 14.2157 62.7743 14.9989 62.0694 15.7038C61.7855 15.9877 61.5406 16.2227 61.5406 16.2227C61.5406 16.2227 61.4821 16.0563 61.4329 15.8506C61.0807 14.4898 60.3463 12.473 59.6806 11.0535C59.5729 10.8284 59.4847 10.6228 59.4847 10.6033C59.4847 10.6228 59.4847 10.613 59.4946 10.613ZM67.9728 12.2284C68.0315 12.2479 68.1294 12.5808 68.3252 13.315C68.6875 14.7347 68.8539 16.3207 68.7952 17.7989C68.7755 18.2101 68.756 18.5919 68.7363 18.641L68.707 18.7388L68.198 18.5724C67.1504 18.2395 65.447 17.7401 63.9883 17.329C63.156 17.1038 62.4807 16.8982 62.4807 16.8787C62.4807 16.8199 63.6947 15.6059 64.2135 15.1459C65.2021 14.2744 67.8846 12.199 67.9728 12.2284ZM68.6483 12.3262C68.6777 12.297 72.7014 12.9919 74.5322 13.3444C75.8931 13.6087 77.8706 14.0199 77.9881 14.069C78.0468 14.0885 77.8411 14.2059 77.1852 14.4996C74.6007 15.6647 72.6817 16.7121 70.7728 17.985C70.2735 18.3178 69.8525 18.5919 69.8428 18.5919C69.833 18.5919 69.8232 18.3081 69.8232 17.9654C69.8232 16.1053 69.4512 14.2256 68.7657 12.6396C68.6972 12.4829 68.6385 12.3361 68.6483 12.3262ZM79.0551 14.3822C79.0846 14.4116 78.9572 15.2046 78.8397 15.6745C78.4873 17.1332 77.5377 19.297 76.3728 21.3332C76.167 21.6954 75.9811 21.9892 75.9614 21.9989C75.942 22.0087 75.6776 21.8618 75.3741 21.6856C74.2385 21.0198 72.9462 20.3933 71.5364 19.8058C71.1449 19.6395 70.8021 19.5023 70.7923 19.4829C70.7237 19.4241 73.8762 17.3388 75.5405 16.3402C76.8622 15.5375 79.0159 14.343 79.0551 14.3822ZM79.7991 14.4997C79.8873 14.4997 81.6691 14.9892 82.599 15.2633C84.8998 15.9487 87.543 16.9178 89.2661 17.701L89.9807 18.0242L89.4815 18.1416C85.2719 19.1108 81.6691 20.227 78.1936 21.6367C77.9096 21.7542 77.6551 21.8521 77.6357 21.8521C77.616 21.8521 77.7139 21.627 77.8412 21.3527C78.8888 19.1304 79.5643 16.8102 79.7305 14.8325C79.7405 14.6464 79.7697 14.4997 79.7991 14.4997ZM62.0596 18.5724C62.0889 18.543 63.4498 18.8661 64.184 19.0715C65.3001 19.3849 67.6692 20.1778 67.6692 20.2366C67.6692 20.2464 67.405 20.4716 67.0918 20.7458C65.8093 21.8129 64.5756 22.9386 63.0972 24.368C62.6567 24.7891 62.2848 25.1318 62.2653 25.1318C62.2456 25.1318 62.236 25.0729 62.2456 24.9946C62.4707 23.3498 62.4219 21.2352 62.1086 19.0912C62.0791 18.817 62.0498 18.5821 62.0596 18.5724ZM90.6565 18.6018C90.6758 18.6213 90.0298 19.6395 89.6186 20.217C89.0313 21.0589 88.1696 22.1752 86.2213 24.6227C85.1936 25.9149 84.0382 27.3737 83.6565 27.8632C83.2647 28.3526 82.9418 28.7637 82.9319 28.7637C82.9221 28.7637 82.795 28.5876 82.6579 28.3723C81.5613 26.7275 80.2494 25.2883 78.6928 23.9961C78.3991 23.7512 78.0762 23.4869 77.9685 23.4086C77.8607 23.3303 77.7726 23.252 77.7726 23.2422C77.7726 23.2129 79.4367 22.4981 80.6999 21.9891C82.9125 21.0884 85.9275 20.0115 88.1892 19.3163C89.3738 18.9444 90.6368 18.5821 90.6565 18.6018ZM91.4102 18.7975C91.4493 18.7878 91.6843 18.9052 91.9683 19.0715C94.3473 20.4324 96.6772 22.1849 98.5179 23.9863C99.0367 24.4954 100.319 25.8269 100.3 25.8366C100.3 25.8366 99.8492 25.8758 99.3206 25.9149C95.199 26.2283 89.9223 27.0994 84.8509 28.3232C84.5083 28.4014 84.2049 28.47 84.1852 28.47C84.1658 28.47 84.5475 28.0882 85.0273 27.6281C88.0034 24.7597 89.3643 22.9485 90.9697 19.7177C91.1948 19.2381 91.3907 18.8269 91.4102 18.7975C91.4005 18.7975 91.4005 18.7975 91.4102 18.7975ZM69.6077 21.0298C69.7448 21.059 71.0175 21.6564 71.9769 22.136C72.858 22.5764 74.1798 23.2814 74.2483 23.3401C74.258 23.3498 73.788 23.5946 73.2106 23.8786C71.3699 24.7988 69.7938 25.67 68.149 26.6687C67.6791 26.9526 67.2875 27.1877 67.2777 27.1877C67.2386 27.1877 67.2483 27.1483 67.5127 26.6687C68.3938 25.0632 69.0986 23.1443 69.5001 21.2744C69.5392 21.1276 69.5784 21.0298 69.6077 21.0298ZM68.3349 21.2646C68.3644 21.294 68.0315 22.4981 67.826 23.1541C67.4245 24.3975 66.749 25.954 66.0932 27.1289C65.9363 27.4029 65.7014 27.8043 65.5742 28.0294L65.3295 28.421L64.7812 27.8925C64.1449 27.2757 63.626 26.8939 62.9604 26.5511C62.6959 26.4142 62.4904 26.2966 62.4904 26.2772C62.4904 26.1988 64.1645 24.6814 65.447 23.5849C66.3672 22.7918 68.3056 21.2353 68.3349 21.2646ZM76.1182 24.466L76.598 24.7792C77.6942 25.494 78.9865 26.4436 79.9755 27.2757C80.5334 27.7357 81.6102 28.7051 81.8258 28.94L81.9431 29.0674L81.1503 29.2925C76.6664 30.5358 73.2007 31.6421 69.1574 33.1302C68.707 33.2966 68.3252 33.4337 68.2957 33.4337C68.2372 33.4337 68.1881 33.4826 69.1966 32.5525C71.7812 30.1737 74.072 27.5498 75.7755 24.9946L76.1182 24.466ZM74.0721 24.9751C74.0916 24.9946 72.7504 26.884 71.9475 27.9512C70.9881 29.224 69.2846 31.3581 68.1098 32.7482C67.6204 33.3259 67.1995 33.8056 67.1798 33.8155C67.1504 33.8252 67.1406 33.6784 67.1406 33.4532C67.1406 32.2685 66.8372 31.0056 66.3085 29.9288C66.0833 29.4784 66.0441 29.3707 66.0932 29.3218C66.2792 29.1553 69.1281 27.5302 70.9294 26.561C72.1433 25.9149 74.0424 24.9555 74.0721 24.9751ZM61.6973 28.01C61.7267 28.01 61.9519 28.1274 62.2065 28.2646C62.833 28.6072 63.3911 28.989 63.8903 29.4002C63.9098 29.4198 63.6554 29.6254 63.3225 29.87C62.3924 30.5358 60.9827 31.603 60.1605 32.2589C59.2987 32.9442 59.2696 32.9638 59.3673 32.817C60.0136 31.8281 60.3365 31.2701 60.6793 30.5555C60.9827 29.9192 61.2861 29.1653 61.5015 28.5093C61.5798 28.2254 61.6778 28.01 61.6973 28.01ZM64.9967 30.5945C65.0455 30.5849 65.1044 30.6729 65.3686 31.0645C65.9266 31.8965 66.3574 33.0128 66.4653 33.9134L66.4846 34.1093L65.1436 34.6282C62.7448 35.5582 60.5324 36.4785 59.0344 37.1637C58.6135 37.3596 57.8792 37.712 57.3996 37.9471C56.9198 38.1917 56.5282 38.3777 56.5282 38.368C56.5282 38.3582 56.8316 38.133 57.2036 37.8588C60.1311 35.7345 62.6666 33.4043 64.5658 31.0743C64.7715 30.8295 64.9576 30.6043 64.977 30.5946L64.9967 30.5945ZM63.4792 30.9666C63.5184 31.0058 62.4024 32.2686 61.6387 33.042C59.7492 34.9708 57.8793 36.4785 55.559 37.9471C55.2653 38.133 55.001 38.2994 54.9716 38.3191C54.903 38.3582 54.9911 38.2602 56.0093 37.1539C56.6555 36.4588 57.145 35.8714 57.703 35.1471C58.075 34.6675 58.1436 34.5989 58.6821 34.2169C60.1213 33.1791 63.44 30.9274 63.4792 30.9666Z" fill="url(#paint2_radial_292_621)"/>
<path d="M21.085 71.5044C20.9044 71.5044 20.7237 71.5216 20.5447 71.5216C16.897 71.716 14.4367 73.3213 12.9982 76.4563C11.768 79.2916 11.9023 82.9977 13.0121 85.8504C14.3026 88.6378 16.3878 90.1089 19.8685 90.6645C20.605 90.7851 21.0988 91.1894 22.5251 92.8548L24.2802 94.911H27.4632L25.3467 92.7773C24.1767 91.6074 23.2304 90.5887 23.2304 90.4992C23.2304 90.4098 23.678 90.2137 24.2197 90.0486C26.0057 89.5081 27.4889 88.1283 28.5263 86.0137C29.366 84.3156 29.4865 83.7907 29.6069 81.6779C29.9218 75.3893 26.6062 71.4576 21.0848 71.5025L21.085 71.5044ZM23.8757 87.9496C22.3272 88.6997 20.0786 88.8494 18.6108 88.3109C17.0933 87.7535 15.6239 86.1774 14.9631 84.3932C14.2284 82.4421 14.3333 78.8427 15.173 77.2218C16.5237 74.6409 18.3097 73.4538 20.9198 73.4538C24.7911 73.4538 26.9934 75.8249 27.2807 80.281C27.5079 84.001 26.2621 86.7917 23.8774 87.9481L23.8757 87.9496ZM78.8619 76.876C77.5268 76.876 76.5047 77.4164 75.8164 78.4812L75.2761 79.3243V77.1323H72.9654V90.2775H75.2746V86.0759C75.2746 82.2338 75.3225 81.7847 75.8595 80.7334C76.5994 79.2916 77.8724 78.5726 79.1029 78.9167L79.9287 79.1576V76.8795H78.8619V76.876ZM65.2866 76.7555C64.834 76.7555 64.3539 76.8158 63.8758 76.9208C60.7838 77.7293 59.0409 80.6887 59.1475 83.7342C59.1475 86.2842 59.6429 87.559 60.8733 88.896C63.3941 90.964 65.6737 91.1291 68.7501 90.0195C69.2749 89.7959 69.8461 89.5378 69.8461 89.5378V87.4697L68.7501 88.0375C66.2604 89.1214 64.385 89.1214 62.8828 87.8447C61.9246 86.8691 61.5029 85.6991 61.3086 84.3641H70.6255V82.5917C70.6255 78.9785 68.4507 76.697 65.2847 76.7555H65.2866ZM61.5185 82.5195C61.5185 82.5195 61.8627 80.2656 63.1393 79.3811C63.7537 78.9475 64.459 78.7377 65.1489 78.7377C65.8407 78.7377 66.5305 78.9613 67.1001 79.3967C68.2702 80.2965 68.4663 82.5024 68.4663 82.5024H61.5186V82.5195H61.5185ZM5.81134 80.1486C3.30626 78.631 2.19475 77.5366 2.33067 76.2462C2.71944 72.676 7.13112 73.1698 9.57423 74.5206L9.5916 72.1187C9.5916 72.1187 8.24088 71.5337 6.30516 71.5027C3.33546 71.4579 1.41529 72.4317 0.515551 74.4138C-0.805975 77.3388 0.364166 79.5445 4.59343 82.0051C6.96775 83.3866 8.01721 84.5859 8.01721 85.8935C8.01721 88.5949 4.76021 89.5378 1.39998 87.8429C0.708433 87.4988 0.123362 87.2114 0.0924184 87.2114C-0.0281027 87.9772 0.0340224 89.8095 0.0340224 89.8095C0.0340224 89.8095 1.06643 90.2432 2.61479 90.5423C6.45496 91.308 9.94959 89.5066 10.2799 86.5816C10.5673 83.8357 9.57431 82.3954 5.81149 80.1466L5.81134 80.1486ZM99.3127 76.7246C98.8618 76.7246 98.3835 76.7865 97.8845 76.8915C94.7962 77.7001 93.0565 80.6596 93.1752 83.7051C93.1752 86.2516 93.6691 87.5144 94.8992 88.8495C97.42 90.9194 99.6998 91.0862 102.792 89.9749C103.315 89.7513 103.884 89.4967 103.884 89.4967V87.4252L102.79 87.9962C100.295 89.0768 98.4197 89.0768 96.9229 87.8002C95.9592 86.8263 95.5412 85.6701 95.3467 84.3193H104.648V82.5471C104.648 78.9513 102.473 76.668 99.3074 76.7283L99.3127 76.7246ZM95.5445 82.4885C95.5445 82.4885 95.8921 80.238 97.167 79.3363C97.7796 78.9011 98.485 78.6911 99.1749 78.6911C99.8631 78.6911 100.557 78.9148 101.126 79.3518C102.296 80.2517 102.492 82.473 102.492 82.473H95.5464L95.5445 82.4885ZM53.1909 80.1778C50.6858 78.6637 49.5776 77.5659 49.7119 76.2754C50.1006 72.7034 54.5124 73.199 56.9555 74.5497L56.9728 72.1479C56.9728 72.1479 55.6221 71.5628 53.6864 71.5352C50.7167 71.4905 48.7965 72.4644 47.8951 74.4464C46.5754 77.3713 47.7608 79.5772 51.9762 82.0377C54.3473 83.4177 55.3967 84.6014 55.3967 85.909C55.3967 88.6103 52.1414 89.5687 48.7811 87.8583C48.0929 87.5142 47.508 87.2302 47.4735 87.2302C47.353 87.9958 47.4151 89.8284 47.4151 89.8284C47.4151 89.8284 48.4353 90.2465 49.9787 90.5613C53.8224 91.3287 57.3187 89.5289 57.6474 86.6039C57.933 83.8716 56.9419 82.4315 53.1909 80.181V80.1778H53.1909ZM112.89 76.845C111.555 76.845 110.521 77.3869 109.844 78.452L109.304 79.2916V77.1031H106.993V90.2449H109.302V86.0434C109.302 82.203 109.349 81.7521 109.887 80.7026C110.627 79.2625 111.9 78.5417 113.131 78.8874L113.956 79.1282V76.8451L112.89 76.845ZM34.8152 80.102V71.7296H32.4856V90.2741H42.2826V88.084H34.8153V80.102H34.8152ZM88.6898 82.7121L86.7697 87.7087L84.9234 82.6846L83.0479 77.1169H80.6633C82.2085 81.4975 83.8892 85.9537 85.5841 90.2741C86.3188 90.2913 87.0552 90.2741 87.7898 90.2741L90.3828 83.7635L93.0239 77.1185H90.7442C90.7442 77.1185 89.7375 79.7579 88.6882 82.7138L88.6898 82.7121ZM40.1833 66.6763C40.5584 66.6763 40.8715 66.556 41.1296 66.2979C41.3842 66.0431 41.5184 65.7438 41.5184 65.3687C41.5184 64.9936 41.3842 64.6804 41.1296 64.4395C40.8715 64.1987 40.5738 64.0781 40.2005 64.0781C39.8221 64.0781 39.5088 64.1987 39.2541 64.4533C38.9961 64.708 38.8791 65.0212 38.8791 65.3825C38.8791 65.7611 38.9996 66.0741 39.2541 66.3117C39.4951 66.5524 39.8083 66.673 40.1833 66.673V66.6763ZM39.3575 64.5429C39.5811 64.3193 39.853 64.2159 40.2005 64.2159C40.5275 64.2159 40.7994 64.3193 41.0266 64.5429C41.2502 64.7665 41.3707 65.0383 41.3707 65.3687C41.3707 65.699 41.2502 65.9847 41.0266 66.2083C40.7995 66.4318 40.5275 66.5386 40.2005 66.5386C39.8685 66.5386 39.5983 66.4354 39.3747 66.2083C39.1511 65.9847 39.0306 65.699 39.0306 65.3687C39.0306 65.0383 39.1339 64.7666 39.3575 64.5429ZM39.9132 65.4892H40.0645C40.1713 65.4892 40.2762 65.5924 40.3656 65.7886L40.5465 66.1945H40.8303L40.6067 65.7436C40.5155 65.5631 40.4261 65.4581 40.3211 65.4287C40.4536 65.3978 40.5585 65.3531 40.6342 65.2635C40.7098 65.1862 40.7374 65.0812 40.7374 64.9624C40.7374 64.8248 40.6944 64.7217 40.6033 64.6459C40.5 64.5599 40.3348 64.5135 40.1214 64.5135H39.6432V66.1945H39.884V65.4891L39.9132 65.4892ZM39.9132 64.708H40.1232C40.2746 64.708 40.3813 64.739 40.4398 64.7837C40.4966 64.8284 40.512 64.887 40.512 64.9936C40.512 65.188 40.3914 65.2793 40.1679 65.2793H39.9099V64.708H39.9132ZM1.43069 65.3394C1.43069 64.7545 1.41355 64.3193 1.39974 64.0628H1.41355C1.47369 64.3654 1.54772 64.591 1.60794 64.7407L3.8446 69.7372H4.21973L6.45639 64.696C6.51677 64.5585 6.57699 64.3519 6.65094 64.0645H6.66807C6.6234 64.5636 6.60793 64.9971 6.60793 65.3429V69.7528H7.37343V63.1974H6.41339L4.35739 67.7569C4.28162 67.9374 4.17665 68.2078 4.04248 68.5656H4.01138C3.96671 68.3883 3.86174 68.1182 3.7121 67.7878L1.70235 63.1817H0.68217V69.7371H1.41855V65.3427L1.43069 65.3394ZM9.05112 65.3517H9.71196V69.4345H9.05112V65.3517ZM9.3815 63.8546C9.51924 63.8546 9.63619 63.8081 9.72561 63.7171C9.81686 63.6275 9.87716 63.5105 9.87716 63.373C9.87716 63.2387 9.83233 63.1182 9.72744 63.0288C9.63453 62.9376 9.51575 62.891 9.37984 62.891C9.24575 62.891 9.12531 62.9376 9.03565 63.0288C8.94472 63.1182 8.88434 63.2387 8.88434 63.373C8.88434 63.5227 8.93084 63.6275 9.03565 63.7171C9.13911 63.8081 9.24567 63.8546 9.37984 63.8546H9.3815ZM14.4229 69.524V68.8047C14.0615 69.0749 13.6727 69.2092 13.2701 69.2092C12.7885 69.2092 12.3977 69.0441 12.1121 68.7276C11.8283 68.4144 11.6769 67.9789 11.6769 67.437C11.6769 66.8692 11.8283 66.4183 12.1413 66.0742C12.4425 65.7439 12.8331 65.5787 13.3115 65.5787C13.702 65.5787 14.0769 65.6993 14.423 65.9402V65.1746C14.1082 65.0094 13.7486 64.9336 13.3424 64.9336C12.5922 64.9336 12.0073 65.1746 11.5703 65.6393C11.1366 66.1038 10.913 66.7352 10.913 67.4975C10.913 68.1753 11.1074 68.7449 11.5118 69.1803C11.9333 69.6275 12.472 69.8547 13.1327 69.8547C13.6435 69.8405 14.0615 69.7338 14.4229 69.524ZM16.3137 67.3474C16.3137 66.8089 16.4342 66.3737 16.6578 66.0741C16.8679 65.8041 17.1224 65.6682 17.4235 65.6682C17.6782 65.6682 17.8588 65.7146 17.9912 65.8196V65.0383C17.888 64.9937 17.7383 64.9782 17.5439 64.9782C17.2738 64.9782 17.033 65.0691 16.8214 65.2363C16.5977 65.4133 16.4188 65.6836 16.3138 66.0277H16.2967V65.0693H15.5482V69.7493H16.2983V67.3474H16.3137ZM20.6203 69.8422C21.3259 69.8422 21.8936 69.6151 22.3151 69.1644C22.7348 68.7168 22.9448 68.1148 22.9448 67.3644C22.9448 66.599 22.7522 66.0139 22.3599 65.5784C21.9711 65.1434 21.4307 64.9332 20.7252 64.9332C20.0196 64.9332 19.4519 65.1432 19.0304 65.5492C18.5797 65.9968 18.3422 66.6282 18.3422 67.4386C18.3422 68.144 18.5349 68.7291 18.9411 69.1644C19.3608 69.6151 19.9166 69.8405 20.6203 69.8405V69.8422ZM19.5536 66.0294C19.8392 65.7283 20.2144 65.5785 20.6788 65.5785C21.1608 65.5785 21.522 65.7283 21.7904 66.0294C22.0605 66.3443 22.1948 66.7935 22.1948 67.3939C22.1948 67.965 22.0743 68.4141 21.8196 68.7152C21.5651 69.0301 21.1899 69.1969 20.6943 69.1969C20.2126 69.1969 19.8392 69.03 19.5536 68.7152C19.2698 68.3987 19.1338 67.965 19.1338 67.3939C19.1046 66.8261 19.2543 66.3616 19.5536 66.0294ZM26.2295 69.4345C26.5151 69.1799 26.6666 68.8668 26.6666 68.4743C26.6666 68.1302 26.546 67.8446 26.3224 67.6192C26.14 67.4387 25.858 67.2751 25.4502 67.1099C25.0887 66.9587 24.8651 66.8243 24.7446 66.7193C24.6242 66.5989 24.5502 66.4494 24.5502 66.2376C24.5502 66.0432 24.6259 65.8935 24.774 65.7731C24.9254 65.6528 25.1181 65.5943 25.3762 65.5943C25.7805 65.5943 26.1263 65.7009 26.4428 65.9263V65.1761C26.14 65.0249 25.8114 64.9526 25.4363 64.9526C24.9546 64.9526 24.5485 65.0852 24.249 65.3413C23.9341 65.5961 23.7845 65.9264 23.7845 66.3151C23.7845 66.6592 23.8877 66.9449 24.0837 67.1547C24.2489 67.3337 24.5313 67.5162 24.9234 67.6795C25.2986 67.8448 25.5532 67.9943 25.6891 68.1147C25.8232 68.2353 25.8834 68.3848 25.8834 68.5623C25.8834 68.9991 25.5842 69.2247 24.9991 69.2247C24.5483 69.2247 24.1441 69.0766 23.7825 68.7774V69.5858C24.1095 69.7821 24.5019 69.8715 24.9354 69.8715C25.4912 69.8423 25.9264 69.7064 26.2258 69.4362L26.2295 69.4345ZM29.8015 64.9334C29.0959 64.9334 28.5282 65.1434 28.1066 65.5494C27.6593 65.997 27.4184 66.6284 27.4184 67.4388C27.4184 68.1442 27.613 68.7293 28.0172 69.1645C28.4387 69.6152 28.9927 69.8406 29.6982 69.8406C30.4208 69.8406 30.9715 69.6136 31.393 69.1626C31.8145 68.7154 32.0244 68.1132 32.0244 67.3629C32.0244 66.5973 31.8283 66.0124 31.4393 65.577C31.0335 65.1416 30.493 64.9317 29.8048 64.9317L29.8015 64.9334ZM31.257 67.3939C31.257 67.965 31.1365 68.4142 30.8819 68.7153C30.6272 69.0302 30.2521 69.197 29.7565 69.197C29.2746 69.197 28.9014 69.0301 28.6157 68.7153C28.3319 68.3987 28.196 67.965 28.196 67.3939C28.196 66.7917 28.3458 66.3273 28.6469 66.0139C28.9306 65.7146 29.3059 65.5631 29.7721 65.5631C30.2366 65.5631 30.61 65.7144 30.88 66.0139C31.121 66.3442 31.2552 66.7934 31.2552 67.3939H31.257ZM33.2839 69.7356H34.0324V65.6837H35.1283V65.0539H34.0323V64.3312C34.0323 63.6741 34.2868 63.3438 34.8134 63.3438C34.9907 63.3438 35.1713 63.3884 35.3056 63.4642V62.7881C35.1713 62.7279 34.9907 62.7142 34.7651 62.7142C34.3609 62.7142 34.0306 62.8347 33.7603 63.0892C33.4454 63.3886 33.2786 63.7774 33.2786 64.3041V65.0715H32.487V65.7012H33.2786V69.7378L33.2839 69.7356ZM36.3585 68.4589C36.3585 69.3743 36.7629 69.8405 37.5887 69.8405C37.8882 69.8405 38.1135 69.7925 38.2942 69.6857V69.0423C38.1566 69.1456 37.9931 69.1938 37.8125 69.1938C37.558 69.1938 37.379 69.1334 37.2739 68.9974C37.1672 68.8634 37.1071 68.6361 37.1071 68.323V65.682H38.2941V65.0522H37.1071V63.6724C36.849 63.7618 36.5961 63.8376 36.3568 63.9131V65.0521H35.5481V65.6819H36.3568V68.4572L36.3585 68.4589ZM116.881 77.0858C116.627 76.845 116.326 76.7245 115.952 76.7245C115.574 76.7245 115.261 76.845 115.006 77.1031C114.751 77.356 114.631 77.6708 114.631 78.0322C114.631 78.4074 114.751 78.7205 115.004 78.9613C115.259 79.2021 115.572 79.3227 115.951 79.3227C116.324 79.3227 116.639 79.2021 116.897 78.9475C117.15 78.6894 117.284 78.3918 117.284 78.0185C117.27 77.64 117.134 77.3267 116.88 77.0859L116.881 77.0858ZM116.761 78.8581C116.537 79.0817 116.265 79.1849 115.935 79.1849C115.608 79.1849 115.336 79.0817 115.109 78.8581C114.886 78.631 114.765 78.3471 114.765 78.0149C114.765 77.688 114.868 77.4163 115.096 77.1892C115.319 76.9656 115.589 76.8622 115.935 76.8622C116.262 76.8622 116.534 76.9656 116.761 77.1892C116.985 77.4163 117.105 77.688 117.105 78.0149C117.105 78.3626 117.002 78.631 116.761 78.8581ZM116.086 78.0924C116.221 78.0614 116.327 78.0012 116.401 77.9273C116.477 77.8498 116.505 77.7447 116.505 77.6246C116.505 77.4903 116.462 77.3836 116.371 77.3097C116.267 77.2236 116.101 77.1771 115.889 77.1771H115.411V78.8563H115.652V78.1509H115.801C115.905 78.1509 116.008 78.254 116.101 78.4502L116.279 78.8546H116.565L116.342 78.4036C116.264 78.2075 116.175 78.1179 116.084 78.0887L116.086 78.0924ZM115.921 77.9411H115.663V77.3734H115.875C116.025 77.3734 116.13 77.4008 116.19 77.4473C116.25 77.492 116.264 77.5506 116.264 77.6573C116.264 77.8517 116.143 77.9412 115.92 77.9412L115.921 77.9411ZM74.0616 64.8595H74.2715V63.1785H74.827V62.9685H73.5058V63.1785H74.0617V64.8595H74.0616ZM75.3348 63.5966C75.3348 63.433 75.3348 63.2988 75.3227 63.2233C75.3365 63.3127 75.3674 63.373 75.3813 63.4177L76.0265 64.8595H76.1298L76.7766 63.4038C76.7939 63.3591 76.8078 63.3006 76.8369 63.2233C76.8231 63.373 76.8231 63.4932 76.8231 63.5846V64.8578H77.0468V62.9685H76.7766L76.1917 64.2728C76.1779 64.3193 76.1313 64.4104 76.1022 64.5137H76.0849C76.0729 64.4534 76.042 64.3932 75.9989 64.2901L75.4139 62.9687H75.1112V64.8613H75.3227V63.5984L75.3348 63.5966Z" fill="#231F1F"/>
</g>
<defs>
<linearGradient id="paint0_linear_292_621" x1="51.9519" y1="58.3669" x2="56.6354" y2="55.5994" gradientUnits="userSpaceOnUse">
<stop stop-color="#909CA9"/>
<stop offset="1" stop-color="#EDEDEE"/>
</linearGradient>
<linearGradient id="paint1_linear_292_621" x1="52.0592" y1="6.19318" x2="55.8277" y2="6.19318" gradientUnits="userSpaceOnUse">
<stop stop-color="#939FAB"/>
<stop offset="1" stop-color="#DCDEE1"/>
</linearGradient>
<radialGradient id="paint2_radial_292_621" cx="0" cy="0" r="1" gradientUnits="userSpaceOnUse" gradientTransform="translate(71.075 23.4767) rotate(-171.457) scale(4.85865 9.7197)">
<stop stop-color="#EE352C"/>
<stop offset="1" stop-color="#A91D22"/>
</radialGradient>
<clipPath id="clip0_292_621">
<rect width="117.284" height="95" fill="white"/>
</clipPath>
</defs>
</svg>
