<svg width="546" height="68" viewBox="0 0 546 68" fill="none" xmlns="http://www.w3.org/2000/svg">
<g clip-path="url(#clip0_292_609)">
<mask id="mask0_292_609" style="mask-type:luminance" maskUnits="userSpaceOnUse" x="0" y="0" width="546" height="68">
<path d="M0 0H546V67.7455H0V0Z" fill="white"/>
</mask>
<g mask="url(#mask0_292_609)">
<path fill-rule="evenodd" clip-rule="evenodd" d="M56.2672 0C41.2626 0 31.8847 7.52727 28.1336 22.5818C33.7603 15.0545 40.3248 12.2318 47.8271 14.1136C52.1076 15.1863 55.1668 18.3038 58.5533 21.7517C64.0696 27.37 70.4548 33.8727 84.4008 33.8727C99.4053 33.8727 108.783 26.3455 112.534 11.2909C106.908 18.8182 100.343 21.6409 92.8408 19.7591C88.5604 18.6865 85.5011 15.5689 82.1146 12.121C76.5984 6.50273 70.2131 0 56.2672 0ZM28.1336 33.8727C13.129 33.8727 3.75114 41.4 0 56.4545C5.62672 48.9273 12.1912 46.1045 19.6935 47.9864C23.974 49.0611 27.0333 52.1765 30.4197 55.6245C35.936 61.2427 42.3212 67.7455 56.2672 67.7455C71.2718 67.7455 80.6496 60.2182 84.4008 45.1636C78.774 52.6909 72.2095 55.5136 64.7072 53.6318C60.4268 52.5592 57.3675 49.4416 53.9811 45.9937C48.4648 40.3755 42.0795 33.8727 28.1336 33.8727Z" fill="#38BDF8"/>
<path fill-rule="evenodd" clip-rule="evenodd" d="M168.793 28.5451H158.974V47.6142C158.974 52.6993 162.3 52.6198 168.793 52.302V60.0091C155.648 61.5982 150.421 57.9433 150.421 47.6142V28.5451H143.135V20.2818H150.421V9.60981L158.974 7.06726V20.2818H168.793V28.5451ZM206.225 20.2818H214.778V60.0091H206.225V54.2884C203.216 58.4994 198.544 61.042 192.367 61.042C181.597 61.042 172.649 51.9047 172.649 40.1454C172.649 28.3067 181.597 19.2489 192.367 19.2489C198.544 19.2489 203.216 21.7914 206.225 25.9231V20.2818ZM193.713 52.8582C200.84 52.8582 206.225 47.5347 206.225 40.1454C206.225 32.7562 200.84 27.4327 193.713 27.4327C186.586 27.4327 181.201 32.7562 181.201 40.1454C181.201 47.5347 186.586 52.8582 193.713 52.8582ZM229.032 14.3227C226.023 14.3227 223.568 11.7802 223.568 8.84035C223.571 7.38719 224.148 5.99433 225.172 4.96679C226.196 3.93925 227.584 3.36075 229.032 3.35799C230.481 3.36075 231.869 3.93925 232.893 4.96679C233.917 5.99433 234.494 7.38719 234.497 8.84035C234.497 11.7802 232.042 14.3227 229.032 14.3227ZM224.756 60.0091V20.2818H233.309V60.0091H224.756ZM243.208 60.0091V2.00726H251.76V60.0091H243.208ZM307.273 20.2818H316.301L303.868 60.0091H295.474L287.238 33.2329L278.923 60.0091H270.528L258.095 20.2818H267.123L274.805 47.6936L283.12 20.2818H291.276L299.512 47.6936L307.273 20.2818ZM326.912 14.3227C323.903 14.3227 321.448 11.7802 321.448 8.84035C321.451 7.38719 322.027 5.99433 323.052 4.96679C324.076 3.93925 325.464 3.36075 326.912 3.35799C328.361 3.36075 329.749 3.93925 330.773 4.96679C331.797 5.99433 332.374 7.38719 332.376 8.84035C332.376 11.7802 329.922 14.3227 326.912 14.3227ZM322.636 60.0091V20.2818H331.189V60.0091H322.636ZM361.915 19.2489C370.784 19.2489 377.119 25.2874 377.119 35.6165V60.0091H368.567V36.4905C368.567 30.452 365.082 27.2738 359.697 27.2738C354.075 27.2738 349.64 30.6109 349.64 38.7153V60.0091H341.087V20.2818H349.64V25.3669C352.253 21.2353 356.53 19.2489 361.915 19.2489ZM417.665 4.3909H426.218V60.0091H417.665V54.2884C414.656 58.4994 409.983 61.042 403.807 61.042C393.037 61.042 384.088 51.9047 384.088 40.1454C384.088 28.3067 393.037 19.2489 403.807 19.2489C409.983 19.2489 414.656 21.7914 417.665 25.9231V4.3909ZM405.153 52.8582C412.28 52.8582 417.665 47.5347 417.665 40.1454C417.665 32.7562 412.28 27.4327 405.153 27.4327C398.026 27.4327 392.641 32.7562 392.641 40.1454C392.641 47.5347 398.026 52.8582 405.153 52.8582ZM454.885 61.042C442.927 61.042 433.978 51.9047 433.978 40.1454C433.978 28.3067 442.927 19.2489 454.885 19.2489C462.645 19.2489 469.377 23.3011 472.544 29.4985L465.179 33.7891C463.437 30.0547 459.557 27.6711 454.805 27.6711C447.837 27.6711 442.531 32.9945 442.531 40.1454C442.531 47.2964 447.837 52.6198 454.805 52.6198C459.557 52.6198 463.437 50.1567 465.338 46.5018L472.703 50.7129C469.377 56.9898 462.645 61.042 454.885 61.042ZM486.799 31.2465C486.799 38.4769 508.101 34.1069 508.101 48.806C508.101 56.7514 501.211 61.042 492.659 61.042C484.74 61.042 479.038 57.4665 476.504 51.7458L483.869 47.4553C485.136 51.0307 488.303 53.176 492.659 53.176C496.46 53.176 499.39 51.9047 499.39 48.7265C499.39 41.6551 478.088 45.6278 478.088 31.4054C478.088 23.9367 484.502 19.2489 492.58 19.2489C499.073 19.2489 504.458 22.2682 507.23 27.5122L500.023 31.5644C498.598 28.4656 495.826 27.0354 492.58 27.0354C489.491 27.0354 486.799 28.3862 486.799 31.2465ZM523.306 31.2465C523.306 38.4769 544.608 34.1069 544.608 48.806C544.608 56.7514 537.718 61.042 529.166 61.042C521.247 61.042 515.545 57.4665 513.011 51.7458L520.375 47.4553C521.643 51.0307 524.81 53.176 529.166 53.176C532.967 53.176 535.897 51.9047 535.897 48.7265C535.897 41.6551 514.595 45.6278 514.595 31.4054C514.595 23.9367 521.009 19.2489 529.087 19.2489C535.58 19.2489 540.965 22.2682 543.737 27.5122L536.53 31.5644C535.105 28.4656 532.333 27.0354 529.087 27.0354C525.998 27.0354 523.306 28.3862 523.306 31.2465Z" fill="#0F172A"/>
</g>
</g>
<defs>
<clipPath id="clip0_292_609">
<rect width="546" height="68" fill="white"/>
</clipPath>
</defs>
</svg>
