<svg width="155" height="93" viewBox="0 0 155 93" fill="none" xmlns="http://www.w3.org/2000/svg">
<g clip-path="url(#clip0_291_599)">
<path d="M127.403 27.3909C121.648 25.4087 116.568 21.8446 112.746 17.1074C108.533 11.8292 103.168 7.58457 97.0631 4.69816C90.9577 1.81175 84.273 0.360035 77.5204 0.45408C68.4368 -0.189217 59.4442 2.61244 52.3333 8.30113C45.2225 13.9898 40.5152 22.1481 39.1488 31.1514C41.84 26.6484 45.8904 23.1153 50.717 21.0605C55.5437 19.0058 60.8978 18.5352 66.0089 19.7166C71.7546 21.7565 76.8265 25.3414 80.6669 30.077C84.9028 35.3129 90.2773 39.5137 96.3814 42.3596C102.485 45.2055 109.158 46.6216 115.892 46.5C124.976 47.1433 133.968 44.3416 141.079 38.653C148.19 32.9643 152.897 24.806 154.264 15.8027C151.621 20.3595 147.584 23.946 142.747 26.0326C137.911 28.1192 132.531 28.5954 127.403 27.3909ZM27.6373 65.6091C33.3927 67.5913 38.4728 71.1554 42.2953 75.8926C46.5081 81.1708 51.8724 85.4154 57.9778 88.3018C64.0831 91.1882 70.7678 92.64 77.5204 92.5459C86.604 93.1892 95.5966 90.3876 102.707 84.6989C109.818 79.0102 114.526 70.8519 115.892 61.8486C113.201 66.3516 109.15 69.8847 104.324 71.9395C99.4971 73.9942 94.143 74.4648 89.0319 73.2834C83.2862 71.2435 78.2143 67.6586 74.3739 62.923C70.1267 57.7 64.75 53.5085 58.6486 50.6638C52.5471 47.8191 45.88 46.3955 39.1488 46.5C30.0652 45.8567 21.0726 48.6584 13.9617 54.347C6.85089 60.0357 2.14357 68.194 0.777222 77.1973C3.41954 72.6405 7.45701 69.054 12.2936 66.9674C17.1301 64.8808 22.5094 64.4046 27.6373 65.6091Z" fill="#38BDF8"/>
</g>
<defs>
<clipPath id="clip0_291_599">
<rect width="155" height="93" fill="white"/>
</clipPath>
</defs>
</svg>
