<svg width="47" height="64" viewBox="0 0 47 64" fill="none" xmlns="http://www.w3.org/2000/svg">
<path fill-rule="evenodd" clip-rule="evenodd" d="M1.117 34.4621C0.127001 33.9921 1.117 32.7861 1.587 32.4191C2.577 31.6861 3.883 31.4241 5.083 31.5191L4.979 33.6671C4.927 34.7671 4.666 34.2971 3.883 34.8721C3.048 35.4481 1.223 36.2861 1.118 34.4521L1.117 34.4621ZM38.11 57.3001C39.52 58.2001 42.127 60.8621 39.988 62.1701C37.953 64.0561 36.805 60.0751 34.978 59.5501C35.761 58.5021 36.752 57.5071 38.108 57.2981L38.11 57.3001ZM12.65 60.3381C10.98 60.6001 10.04 62.1181 8.633 62.9051C7.329 63.6911 6.807 62.6431 6.703 62.4351C6.493 62.3301 6.493 62.5401 6.181 62.2351C4.981 60.2971 7.433 58.8831 8.738 57.9401C10.564 57.5201 11.712 59.0921 12.651 60.3401L12.65 60.3381ZM45.99 34.2001C45.886 36.0331 44.06 35.1951 43.225 34.6201C42.442 34.0441 42.182 34.5151 42.129 33.4151L42.025 31.2671C43.225 31.1621 44.529 31.4241 45.521 32.1671C46.043 32.5871 46.981 33.7371 45.991 34.2101L45.99 34.2001Z" fill="#F6D2A2"/>
<path d="M2.11 35.77C1.745 35.77 1.067 35.613 0.962002 34.565C0.649002 34.365 0.544999 34.095 0.544999 33.935C0.492999 33.305 1.171 32.573 1.535 32.311C2.37 31.681 3.465 31.368 4.613 31.368H5.291V31.525C5.343 32.101 5.291 32.677 5.239 33.201C5.239 33.358 5.239 33.515 5.187 33.671C5.135 34.457 4.977 34.571 4.613 34.719C4.456 34.771 4.3 34.824 4.039 35.033C3.779 35.19 2.891 35.766 2.109 35.766L2.11 35.77ZM4.614 31.684C3.518 31.684 2.527 31.998 1.744 32.584C1.379 32.846 0.857001 33.484 0.909001 33.884C0.909001 34.041 1.013 34.198 1.222 34.304L1.326 34.356V34.461C1.378 35.299 1.796 35.404 2.109 35.404C2.631 35.404 3.361 35.037 3.831 34.724C4.144 34.524 4.353 34.462 4.509 34.41C4.769 34.305 4.822 34.305 4.874 33.677C4.874 33.52 4.874 33.363 4.926 33.207C4.978 32.737 4.978 32.212 4.978 31.74C4.821 31.688 4.718 31.688 4.613 31.688L4.614 31.684Z" fill="black"/>
<path fill-rule="evenodd" clip-rule="evenodd" d="M1.117 34.4621C1.377 34.3571 1.691 34.3051 1.847 34.0421L1.117 34.4621Z" fill="#C6B198"/>
<path d="M1.117 34.6201C1.065 34.6201 0.959998 34.5681 0.959998 34.5151C0.907998 34.4101 0.959998 34.3151 1.064 34.3151C1.116 34.3151 1.168 34.2631 1.168 34.2631C1.378 34.1581 1.585 34.1061 1.69 33.9491C1.742 33.8971 1.847 33.8441 1.95 33.8971C2.002 33.9491 2.054 34.0541 2.002 34.1591C1.8298 34.3713 1.59083 34.519 1.324 34.5781L1.22 34.6301H1.116L1.117 34.6201Z" fill="black"/>
<path fill-rule="evenodd" clip-rule="evenodd" d="M5.396 12.305C-1.7 10.305 3.57 1.253 9.256 4.972L5.396 12.305Z" fill="#6AD7E5"/>
<path d="M5.5 12.5141L5.343 12.4621C1.691 11.4141 1.743 8.79507 1.847 8.01007C2.107 6.01007 3.987 3.92407 6.49 3.92407C7.48 3.92407 8.42 4.23807 9.36 4.86707L9.517 4.97207L5.5 12.5141ZM6.49 4.29007C4.142 4.29007 2.42 6.22807 2.16 8.06007C1.9 9.94607 3.047 11.4121 5.29 12.0931L8.994 5.02307C8.211 4.55307 7.377 4.29007 6.49 4.29007Z" fill="black"/>
<path fill-rule="evenodd" clip-rule="evenodd" d="M36.857 4.3C42.44 0.370003 47.553 9.276 41.031 11.53L36.857 4.3Z" fill="#6AD7E5"/>
<path d="M40.978 11.73L36.648 4.23003L36.805 4.12503C37.805 3.44503 38.788 3.07703 39.779 3.07703C42.179 3.07703 43.901 5.07703 44.266 7.00703C44.423 7.79303 44.579 10.464 41.136 11.607L40.979 11.712L40.978 11.73ZM37.118 4.39703L41.135 11.364C43.17 10.631 44.213 9.05903 43.9 7.16403C43.587 5.38403 41.97 3.55003 39.778 3.55003C38.891 3.49803 38.004 3.75003 37.118 4.38803V4.39703ZM38.9 62.852C38.065 62.852 37.335 62.014 36.7 61.228C36.126 60.598 35.552 59.928 34.926 59.708L34.666 59.656L34.823 59.456C35.449 58.556 36.493 57.413 38.058 57.151H38.11L38.162 57.203C39.049 57.779 40.979 59.403 40.927 60.923C40.927 61.499 40.614 61.971 40.04 62.337C39.675 62.704 39.31 62.861 38.892 62.861L38.9 62.852ZM35.248 59.447C35.874 59.709 36.396 60.39 36.918 60.967C37.544 61.753 38.17 62.434 38.848 62.434C39.161 62.434 39.474 62.277 39.788 61.964H39.84C40.31 61.65 40.57 61.284 40.57 60.812C40.57 59.607 39.057 58.088 38.013 57.407C37.073 57.669 36.135 58.307 35.248 59.45V59.447ZM39.996 62.327C39.944 62.327 39.892 62.275 39.839 62.222C39.7274 62.0057 39.6402 61.7776 39.579 61.542C39.422 61.122 39.266 60.704 38.953 60.39C38.901 60.338 38.901 60.233 38.953 60.128C39.005 60.076 39.11 60.076 39.213 60.128C39.578 60.495 39.787 60.966 39.943 61.428L40.203 62.058C40.255 62.163 40.203 62.258 40.151 62.32H39.994L39.996 62.327Z" fill="black"/>
<path d="M7.74299 63.324C7.06499 63.324 6.7 62.748 6.595 62.538H6.543C6.386 62.538 6.283 62.486 6.073 62.276V62.224C4.925 60.391 6.90799 58.976 8.21299 58.024L8.683 57.71H8.787C8.987 57.658 9.152 57.658 9.361 57.658C10.926 57.658 11.918 59.02 12.761 60.12L13.021 60.487L12.708 60.539C11.708 60.696 10.986 61.325 10.256 61.953C9.78599 62.373 9.316 62.739 8.796 63.053C8.379 63.21 8.066 63.315 7.753 63.315L7.74299 63.324ZM6.595 62.224C6.647 62.224 6.699 62.224 6.795 62.276H6.847L6.899 62.328C7.003 62.485 7.264 62.958 7.786 62.958C8.046 62.958 8.308 62.853 8.569 62.696C9.091 62.434 9.569 62.016 9.969 61.648C10.647 61.072 11.369 60.443 12.317 60.181C11.534 59.133 10.595 57.981 9.291 57.981C9.134 57.981 8.978 57.981 8.821 58.033L8.404 58.347C7.047 59.29 5.378 60.495 6.369 62.067C6.421 62.172 6.473 62.224 6.569 62.224H6.595ZM6.69899 62.591C6.59499 62.591 6.499 62.486 6.542 62.391C6.594 61.867 6.85499 61.491 7.11599 61.091C7.25694 60.8931 7.37914 60.6826 7.481 60.462C7.533 60.357 7.638 60.357 7.681 60.357C7.785 60.409 7.785 60.514 7.785 60.557C7.681 60.819 7.52499 61.027 7.36799 61.237C7.10799 61.604 6.898 61.917 6.846 62.337C6.846 62.537 6.794 62.599 6.689 62.599L6.69899 62.591ZM5.709 9.84301C4.769 9.37301 4.092 8.69101 4.666 7.59101C5.188 6.59601 6.17899 6.69101 7.11799 7.17101L5.718 9.84101L5.709 9.84301ZM39.569 8.90001C40.509 8.43001 41.186 7.74801 40.612 6.64801C40.09 5.65301 39.099 5.74801 38.16 6.22801L39.56 8.89801L39.569 8.90001ZM45.047 35.5C44.264 35.5 43.377 34.924 43.117 34.767C42.857 34.61 42.7 34.505 42.543 34.453C42.126 34.296 42.021 34.191 41.969 33.405C41.969 33.248 41.969 33.091 41.917 32.935C41.865 32.411 41.813 31.835 41.865 31.259V31.099H42.543C43.691 31.099 44.786 31.413 45.621 32.042C45.986 32.304 46.664 33.037 46.621 33.666C46.621 33.866 46.517 34.136 46.204 34.296C46.1 35.344 45.421 35.501 45.056 35.501L45.047 35.5ZM42.177 31.467L42.229 32.934C42.229 33.091 42.229 33.248 42.281 33.404C42.333 34.034 42.385 34.034 42.646 34.137C42.803 34.189 43.011 34.294 43.324 34.451C43.794 34.765 44.524 35.131 45.046 35.131C45.359 35.131 45.776 35.026 45.829 34.188V34.083L45.933 34.031C46.133 33.926 46.246 33.831 46.246 33.611C46.298 33.191 45.776 32.563 45.411 32.311C44.628 31.735 43.585 31.411 42.541 31.411C42.437 31.463 42.341 31.463 42.176 31.463L42.177 31.467Z" fill="black"/>
<path fill-rule="evenodd" clip-rule="evenodd" d="M45.987 34.2C45.727 34.095 45.413 34.043 45.257 33.78L45.987 34.2Z" fill="#C6B198"/>
<path d="M45.987 34.4001H45.935L45.831 34.3481C45.571 34.2431 45.309 34.1911 45.153 33.9281C45.101 33.8761 45.101 33.7281 45.205 33.6661C45.257 33.6141 45.415 33.6141 45.465 33.7181C45.569 33.8751 45.778 33.9181 45.987 34.0321C46.039 34.0321 46.091 34.0841 46.091 34.0841C46.195 34.1361 46.248 34.2411 46.195 34.2841C46.142 34.3271 46.038 34.3891 45.985 34.3891L45.987 34.4001Z" fill="black"/>
<path fill-rule="evenodd" clip-rule="evenodd" d="M22.874 0.570091C29.97 0.570091 36.596 1.56509 40.091 8.42709C43.221 16.0751 42.074 24.3511 42.595 32.4701C43.012 39.4371 43.899 47.4501 40.717 53.8941C37.327 60.6511 28.874 62.3801 21.934 62.1181C16.456 61.9181 9.882 60.1181 6.751 55.0981C3.151 49.2311 4.821 40.4841 5.081 33.9361C5.394 26.1841 2.99401 18.3791 5.55101 10.8361C8.10801 2.93609 15.203 1.13609 22.873 0.569092" fill="#6AD7E5"/>
<path d="M23.135 62.3301H21.83C19.69 62.2781 16.456 61.9101 13.273 60.6001C10.195 59.3431 7.951 57.5621 6.49 55.2051C3.568 50.4381 4.09 43.8911 4.56 38.0751L4.82 33.9371C4.924 31.2131 4.716 28.3851 4.455 25.7131C4.038 20.7891 3.62 15.7081 5.238 10.7831C6.49 7.11606 8.734 4.49706 12.125 2.82106C14.785 1.52106 18.073 0.778057 22.768 0.421057C29.758 0.369057 36.698 1.36406 40.194 8.32106C42.49 13.9261 42.49 19.9511 42.542 25.7641C42.542 27.9641 42.542 30.2161 42.699 32.4161C42.751 33.0961 42.803 33.7781 42.803 34.4591C43.22 40.8591 43.69 48.0791 40.768 53.9451C39.308 56.9311 36.751 59.1311 33.255 60.5451C30.438 61.6971 26.89 62.3251 23.133 62.3251L23.135 62.3301ZM22.875 0.730057C15.518 1.30606 8.318 2.93006 5.658 10.8921C4.041 15.7621 4.458 20.7921 4.875 25.6621C5.085 28.3861 5.345 31.1621 5.24 33.9381C5.188 35.2381 5.083 36.6081 4.98 38.0761C4.51 43.8381 3.99 50.3331 6.858 54.9961C8.058 56.9341 11.918 61.5441 21.884 61.9101H23.188C34.718 61.9101 38.998 56.7771 40.562 53.7401C43.432 47.9781 42.962 40.7401 42.597 34.4101C42.545 33.7301 42.493 33.0481 42.493 32.3671C42.389 30.1671 42.336 27.9151 42.336 25.7151C42.284 19.9531 42.284 13.9291 40.04 8.37706C38.475 5.27706 36.127 3.19106 32.892 1.97706C29.552 0.877057 25.796 0.720058 22.875 0.720058V0.730057Z" fill="black"/>
<path fill-rule="evenodd" clip-rule="evenodd" d="M24.126 10.1051C23.709 3.24309 34.196 1.35709 35.761 8.06209C37.483 15.5621 25.378 17.5421 24.126 10.1051ZM9.67401 11.3001C8.05701 3.33809 20.787 1.87009 21.257 9.62409C21.622 16.1191 11.344 17.7441 9.67401 11.3001Z" fill="white"/>
<path d="M29.865 14.976C27.517 14.976 24.543 13.719 23.917 10.156C23.813 8.48002 24.334 6.96102 25.43 5.80802C26.63 4.50802 28.456 3.76501 30.334 3.76501C32.534 3.76501 35.134 4.91702 35.864 8.11302C36.281 9.89302 35.968 11.465 34.977 12.713C33.881 14.075 31.951 14.965 29.864 14.965L29.865 14.976ZM24.282 10.106C24.542 11.573 25.222 12.726 26.317 13.563C27.257 14.296 28.56 14.663 29.865 14.663C31.795 14.663 33.665 13.825 34.717 12.515C35.657 11.363 35.917 9.84502 35.552 8.16702C34.874 5.18102 32.422 4.13402 30.335 4.13402C28.561 4.13402 26.839 4.86702 25.692 6.07202C24.692 7.12002 24.179 8.53401 24.292 10.105L24.282 10.106ZM28.822 9.79202C28.822 10.84 28.039 11.678 27.1 11.678C26.161 11.678 25.378 10.84 25.378 9.79202C25.378 8.74402 26.161 7.90602 27.1 7.90602C28.039 7.90602 28.822 8.74402 28.822 9.79202ZM15.152 15.605C12.909 15.605 10.3 14.505 9.465 11.362C9.1 9.52901 9.46501 7.86201 10.508 6.59501C11.656 5.18101 13.534 4.34302 15.568 4.34302C18.281 4.34302 21.151 5.96701 21.368 9.64301C21.472 11.163 21.003 12.523 19.968 13.623C18.872 14.828 17.046 15.623 15.168 15.623L15.152 15.605ZM15.57 4.70002C13.64 4.70002 11.866 5.48602 10.77 6.79502C9.77 8.00002 9.466 9.51901 9.83 11.247C10.56 14.18 13.065 15.227 15.152 15.227C16.926 15.227 18.648 14.547 19.752 13.341C20.2198 12.8482 20.5778 12.2619 20.8026 11.6207C21.0273 10.9795 21.1137 10.298 21.056 9.62102C20.952 7.36902 19.439 4.69702 15.578 4.69702L15.57 4.70002ZM14.266 10.252C14.266 11.3 13.483 12.138 12.544 12.138C11.605 12.138 10.822 11.3 10.822 10.252C10.822 9.20402 11.605 8.36601 12.544 8.36601C13.483 8.36601 14.266 9.20402 14.266 10.252Z" fill="black"/>
<path fill-rule="evenodd" clip-rule="evenodd" d="M25.587 19C25.587 19.943 25.797 21.043 25.639 22.1C25.379 22.57 24.909 22.624 24.491 22.78C23.917 22.675 23.448 22.31 23.187 21.785C23.03 20.633 23.239 19.48 23.291 18.328L25.587 19.008V19Z" fill="white"/>
<path d="M24.49 23.0001C23.812 22.8951 23.29 22.4761 23.03 21.9001C22.926 21.0621 22.978 20.2761 23.03 19.5001C23.082 19.1331 23.082 18.7671 23.082 18.4001V18.2001L25.742 19.0381V19.1431C25.742 19.4571 25.794 19.7731 25.794 20.1381C25.846 20.8181 25.898 21.5521 25.794 22.2331V22.2851C25.584 22.7051 25.22 22.8091 24.854 22.9651C24.75 22.9131 24.644 22.9651 24.489 23.0171L24.49 23.0001ZM23.342 21.7431C23.552 22.2131 23.968 22.5291 24.438 22.6431C24.542 22.5911 24.648 22.5911 24.698 22.5381C25.011 22.4331 25.272 22.3381 25.428 22.0681C25.532 21.4381 25.48 20.7681 25.428 20.0681C25.428 19.7541 25.376 19.4381 25.376 19.1681L23.393 18.5381C23.393 18.8521 23.341 19.1681 23.341 19.4381C23.289 20.2761 23.237 21.0081 23.341 21.7431H23.342Z" fill="black"/>
<path fill-rule="evenodd" clip-rule="evenodd" d="M13.7 10.6801C13.7 10.9421 13.5 11.1501 13.283 11.1501C13.066 11.1501 12.866 10.9501 12.866 10.6801C12.866 10.4101 13.066 10.2101 13.283 10.2101C13.543 10.2101 13.7 10.4101 13.7 10.6801ZM28.3 10.2001C28.3 10.4621 28.143 10.6701 27.883 10.6701C27.683 10.6701 27.466 10.4701 27.466 10.2001C27.466 9.9301 27.623 9.7301 27.883 9.7301C28.083 9.7301 28.3 9.9301 28.3 10.2001ZM20.578 18.9051C19.795 20.7381 20.995 24.4571 23.082 21.7351C22.925 20.5831 23.134 19.4301 23.186 18.2781L20.586 18.9081L20.578 18.9051Z" fill="white"/>
<path d="M21.674 22.8861C21.309 22.8861 20.944 22.6861 20.684 22.2561C20.11 21.4181 20.006 19.8561 20.424 18.8511L20.476 18.7461L23.346 18.0131V18.2131L23.294 19.3651C23.242 20.1511 23.19 20.8851 23.294 21.6701V21.7221L23.242 21.7741C22.72 22.5071 22.199 22.8741 21.677 22.8741L21.674 22.8861ZM20.734 19.0621C20.421 19.9621 20.524 21.3671 20.994 22.0481C21.204 22.3621 21.411 22.5181 21.672 22.5181C22.037 22.5181 22.455 22.2041 22.872 21.6801C22.768 20.8941 22.82 20.1101 22.924 19.3751L22.976 18.4751L20.733 19.0511L20.734 19.0621Z" fill="black"/>
<path fill-rule="evenodd" clip-rule="evenodd" d="M20.84 15.3431C19.43 15.4481 18.283 17.1761 19.014 18.4861C20.004 20.2661 22.144 18.3291 23.501 18.4861C25.066 18.5381 26.318 20.1621 27.571 18.8001C28.981 17.2801 26.945 15.8141 25.431 15.1331L20.841 15.3331L20.84 15.3431Z" fill="#F6D2A2"/>
<path d="M26.474 19.5331C26.004 19.5331 25.534 19.3331 25.064 19.1131C24.594 18.8931 24.074 18.6931 23.499 18.6931H23.342C22.925 18.6931 22.455 18.8501 21.932 19.0601C21.358 19.2601 20.784 19.4271 20.262 19.4271C19.636 19.4271 19.166 19.1651 18.852 18.5891C18.487 17.9591 18.539 17.2271 18.904 16.5461C19.321 15.7601 20.052 15.2891 20.834 15.1841L25.53 14.9841C26.678 15.4541 27.982 16.3461 28.243 17.3841C28.347 17.9081 28.191 18.4321 27.773 18.9041C27.355 19.3761 26.938 19.5341 26.469 19.5341L26.474 19.5331ZM23.552 18.3811C24.126 18.3811 24.7 18.6431 25.222 18.8511C25.692 19.0511 26.109 19.2181 26.526 19.2181C26.891 19.2181 27.204 19.0611 27.516 18.7481C27.6766 18.5951 27.7983 18.4059 27.8708 18.1963C27.9434 17.9866 27.9647 17.7627 27.933 17.5431C27.723 16.6431 26.473 15.8131 25.481 15.3951L20.941 15.5951C20.263 15.6471 19.637 16.1191 19.271 16.7471C18.958 17.3231 18.958 17.9521 19.219 18.4771C19.479 18.9471 19.793 19.1571 20.315 19.1571C20.785 19.1571 21.305 18.9571 21.828 18.7901C22.402 18.5901 22.871 18.4231 23.393 18.4231C23.393 18.3181 23.445 18.3181 23.55 18.3711L23.552 18.3811Z" fill="#231F20"/>
<path d="M20.683 15.3001C20.579 12.8381 25.273 12.5241 25.796 14.5671C26.37 16.6621 20.892 17.1341 20.683 15.3001Z" fill="black"/>
</svg>
