<svg width="34" height="28" viewBox="0 0 34 28" fill="none" xmlns="http://www.w3.org/2000/svg">
<g clip-path="url(#clip0_243_604)">
<path d="M16.9628 20.4885C16.49 20.3162 15.9959 20.1438 15.5231 19.9338C15.2628 19.8208 15.0025 19.7562 14.7422 19.7238V18.7277C15.3467 17.9177 15.6882 16.9375 15.7197 15.9223C16.0969 15.4377 16.4209 14.9477 16.6759 14.4523C16.9734 13.8762 17.1381 13.2515 17.17 12.5946L17.2869 9.99923V9.92385C17.1753 8.77693 16.1713 8.27616 15.4806 8.12539C14.8963 7.21 12.4738 4.04923 7.74032 5.93385C6.96232 6.24341 6.27012 6.73983 5.72322 7.38044C5.17633 8.02105 4.79109 8.78669 4.60063 9.61154C4.20219 11.3185 4.6325 14.0646 6.01907 15.8092C6.02969 16.9023 6.39094 17.9146 7.00188 18.7277V19.4815C6.94875 19.5085 6.89563 19.5408 6.8425 19.5731C6.63532 19.6969 6.27938 19.9015 6.19969 19.9392C5.73219 20.1438 5.24875 20.3162 4.78125 20.4831C3.02813 21.1131 1.21125 21.7592 0.398441 24.0315C0.132816 24.85 -0.0637465 25.6038 0.0318785 27.2085C0.047816 27.4831 0.276254 27.6985 0.547191 27.6985H21.2075C21.4784 27.6985 21.7069 27.4831 21.7228 27.2085C21.8184 25.6038 21.6219 24.85 21.3509 24.0154C20.5328 21.77 18.7213 21.1185 16.9628 20.4885ZM6.52907 11.8354C6.24219 11.8354 6.01375 12.0669 6.01375 12.3577V13.7254C5.49313 12.4008 5.36563 10.8823 5.59938 9.85923C5.91282 8.51308 6.84782 7.41462 8.11219 6.91385C12.7022 5.08846 14.62 8.69616 14.6997 8.85231C14.7794 9.00846 14.9334 9.11616 15.1088 9.13231C15.1194 9.13231 16.1447 9.24 16.2509 10.0046L16.1341 12.5569C16.1128 13.0577 15.9853 13.5369 15.7569 13.9785C15.7463 14 15.7303 14.0215 15.7197 14.0377V11.6038C15.7197 11.4154 15.6241 11.2431 15.4647 11.1515C15.3861 11.1065 15.2973 11.0829 15.207 11.0829C15.1167 11.0829 15.028 11.1065 14.9494 11.1515C14.5934 11.3615 13.6266 10.5538 13.0953 9.88077C13.0365 9.80672 12.9591 9.75013 12.8712 9.71696C12.7833 9.68379 12.6882 9.67527 12.5959 9.69231C12.41 9.73 12.2559 9.86462 12.1975 10.0477C11.8522 11.1731 10.6516 11.7169 10.3488 11.8408H6.52907V11.8354ZM10.8694 19.6538C8.76032 19.6538 7.04438 17.9146 7.04438 15.7769V12.88H10.4444C10.4975 12.88 10.5559 12.8692 10.6038 12.8531C10.6728 12.8315 12.0594 12.3523 12.8297 11.13C13.3025 11.5985 13.9984 12.1585 14.6944 12.2177V15.7769C14.6944 17.9146 12.9784 19.6538 10.8694 19.6538ZM13.7116 19.7562V20.1169C13.4088 21.4523 11.9744 22.3946 10.8853 22.3569C9.11625 22.2869 8.17594 20.65 8.02188 20.1115V19.7508C8.84735 20.3612 9.84227 20.691 10.8641 20.6931C11.888 20.6997 12.8867 20.3711 13.7116 19.7562ZM20.7081 26.6646H1.03063C1.00938 25.5769 1.15813 25.0169 1.36 24.3869C2.00282 22.5938 3.4425 22.0769 5.11063 21.4792C5.59407 21.3069 6.09344 21.1292 6.58219 20.9138C6.6725 20.8762 6.82657 20.79 7.10282 20.6285C7.50657 21.7108 8.80813 23.3315 10.8428 23.4069H10.9491C12.3516 23.4069 14.0197 22.3785 14.5934 20.7523C14.7634 20.7738 14.9334 20.8115 15.1141 20.8923C15.6188 21.1131 16.1288 21.2962 16.6175 21.4685C18.2856 22.0662 19.7253 22.5831 20.3681 24.36C20.5806 25.0115 20.7294 25.5769 20.7081 26.6646ZM31.875 0.290771H20.9153C19.7413 0.290771 18.7903 1.26 18.7903 2.44462V9.55769C18.7903 10.7477 19.7466 11.7115 20.9153 11.7115H21.3988V13.0469C21.3988 13.2408 21.505 13.4185 21.6697 13.51C21.7441 13.5531 21.8291 13.5692 21.9141 13.5692C22.015 13.5692 22.1159 13.5369 22.2009 13.4831L24.8147 11.7169H31.875C33.0491 11.7169 34 10.7477 34 9.56308V2.45C34 1.26 33.0438 0.290771 31.875 0.290771ZM32.9694 9.55769C32.9694 10.1715 32.4753 10.6669 31.875 10.6669H24.6553C24.5544 10.6669 24.4534 10.6992 24.3684 10.7531L22.4294 12.0669V11.1892C22.4294 10.8985 22.2009 10.6669 21.9141 10.6669H20.9153C20.3097 10.6669 19.8209 10.1662 19.8209 9.55769V2.45C19.8209 1.83616 20.315 1.34077 20.9153 1.34077H31.875C32.4806 1.34077 32.9694 1.84154 32.9694 2.45V9.55769Z" fill="#3146CC"/>
<path d="M30.2494 3.40845H22.5409C22.2541 3.40845 22.0256 3.63999 22.0256 3.93076C22.0256 4.22152 22.2541 4.45306 22.5409 4.45306H30.2494C30.3861 4.45306 30.5171 4.39803 30.6138 4.30008C30.7104 4.20213 30.7647 4.06928 30.7647 3.93076C30.7647 3.79223 30.7104 3.65938 30.6138 3.56143C30.5171 3.46348 30.3861 3.40845 30.2494 3.40845ZM23.3219 6.40768H22.7959C22.5091 6.40768 22.2806 6.63922 22.2806 6.92999C22.2806 7.22076 22.5091 7.45229 22.7959 7.45229H23.3219C23.6088 7.45229 23.8372 7.22076 23.8372 6.92999C23.8372 6.6446 23.6034 6.40768 23.3219 6.40768ZM26.6581 6.40768H26.1322C25.8453 6.40768 25.6169 6.63922 25.6169 6.92999C25.6169 7.22076 25.8453 7.45229 26.1322 7.45229H26.6581C26.945 7.45229 27.1734 7.22076 27.1734 6.92999C27.1734 6.6446 26.9397 6.40768 26.6581 6.40768ZM29.9944 6.40768H29.4684C29.1816 6.40768 28.9531 6.63922 28.9531 6.92999C28.9531 7.22076 29.1816 7.45229 29.4684 7.45229H29.9944C30.2813 7.45229 30.5097 7.22076 30.5097 6.92999C30.5078 6.79207 30.4529 6.66035 30.3566 6.56281C30.2604 6.46528 30.1305 6.40963 29.9944 6.40768Z" fill="#3146CC"/>
</g>
<defs>
<clipPath id="clip0_243_604">
<rect width="34" height="28" fill="white"/>
</clipPath>
</defs>
</svg>
