<svg width="94" height="57" viewBox="0 0 94 57" fill="none" xmlns="http://www.w3.org/2000/svg">
<path d="M46.47 56.8359C46.152 56.8359 45.855 56.7519 45.58 56.6059L42.758 54.9489C42.334 54.7189 42.546 54.6339 42.673 54.5919C43.246 54.4019 43.353 54.3619 43.946 54.0259C44.01 53.9839 44.096 54.0059 44.158 54.0459L46.322 55.3259C46.407 55.3679 46.512 55.3679 46.576 55.3259L55.042 50.4799C55.127 50.4379 55.169 50.3539 55.169 50.2499V40.5779C55.169 40.4729 55.126 40.3879 55.042 40.3479L46.576 35.5229C46.491 35.4809 46.386 35.4809 46.322 35.5229L37.856 40.3479C37.771 40.3899 37.729 40.4949 37.729 40.5779V50.2499C37.729 50.3339 37.772 50.4399 37.856 50.4799L40.169 51.8019C41.421 52.4319 42.206 51.6969 42.206 50.9619V41.4159C42.206 41.2899 42.312 41.1639 42.461 41.1639H43.543C43.67 41.1639 43.798 41.2689 43.798 41.4159V50.9619C43.798 52.6189 42.886 53.5849 41.294 53.5849C40.806 53.5849 40.424 53.5849 39.342 53.0599L37.114 51.7999C36.562 51.4849 36.224 50.8979 36.224 50.2679V40.5959C36.224 39.9659 36.564 39.3789 37.114 39.0639L45.58 34.2179C46.11 33.9239 46.832 33.9239 47.363 34.2179L55.829 39.0639C56.381 39.3789 56.719 39.9659 56.719 40.5959V50.2679C56.719 50.8979 56.379 51.4849 55.829 51.7999L47.363 56.6459C47.0825 56.7707 46.779 56.8351 46.472 56.8349L46.47 56.8359ZM49.07 50.1859C45.357 50.1859 44.593 48.5079 44.593 47.0809C44.593 46.9549 44.699 46.8289 44.848 46.8289H45.951C46.078 46.8289 46.184 46.9129 46.184 47.0289C46.354 48.1409 46.842 48.6859 49.091 48.6859C50.873 48.6859 51.637 48.2859 51.637 47.3429C51.637 46.7979 51.425 46.3989 48.645 46.1259C46.332 45.8959 44.889 45.3919 44.889 43.5659C44.889 41.8659 46.332 40.8589 48.751 40.8589C51.467 40.8589 52.804 41.7819 52.974 43.7959C52.974 43.8589 52.954 43.9219 52.91 43.9859C52.867 44.0279 52.804 44.0699 52.74 44.0699H51.637C51.531 44.0699 51.425 43.9859 51.404 43.8799C51.149 42.7259 50.492 42.3479 48.752 42.3479C46.8 42.3479 46.566 43.0179 46.566 43.5229C46.566 44.1309 46.842 44.3199 49.473 44.6559C52.073 44.9919 53.313 45.4739 53.313 47.2789C53.293 49.1249 51.763 50.1739 49.069 50.1739L49.07 50.1859Z" fill="#539E43"/>
<path d="M20.2 19.008C20.2 18.63 19.988 18.274 19.648 18.085L10.651 12.965C10.501 12.881 10.333 12.839 10.163 12.818H10.078C9.90802 12.818 9.73802 12.881 9.59002 12.965L0.593016 18.085C0.253016 18.275 0.0410156 18.63 0.0410156 19.008L0.0610156 32.771C0.0605054 32.8658 0.0859522 32.959 0.134601 33.0405C0.18325 33.1219 0.253247 33.1885 0.337016 33.233C0.507016 33.338 0.719016 33.338 0.867016 33.233L6.21402 30.213C6.55402 30.023 6.76602 29.668 6.76602 29.29V22.85C6.76602 22.472 6.97802 22.116 7.31802 21.927L9.58802 20.627C9.75802 20.522 9.94802 20.48 10.14 20.48C10.3279 20.4736 10.5132 20.5249 10.671 20.627L12.941 21.927C13.281 22.117 13.493 22.472 13.493 22.85V29.29C13.493 29.668 13.705 30.024 14.045 30.213L19.392 33.233C19.562 33.338 19.774 33.338 19.944 33.233C20.0278 33.1885 20.0978 33.1219 20.1464 33.0405C20.1951 32.959 20.2205 32.8658 20.22 32.771L20.2 19.008ZM63.445 0.0629911C63.3627 0.0214938 63.2717 -0.00012207 63.1795 -0.00012207C63.0873 -0.00012207 62.9964 0.0214938 62.914 0.0629911C62.744 0.167991 62.638 0.335991 62.638 0.522991V14.16C62.638 14.286 62.574 14.412 62.448 14.496C62.3891 14.527 62.3236 14.5432 62.257 14.5432C62.1905 14.5432 62.1249 14.527 62.066 14.496L59.816 13.216C59.481 13.026 59.069 13.026 58.734 13.216L49.737 18.356C49.397 18.546 49.185 18.901 49.185 19.279V29.539C49.185 29.917 49.397 30.273 49.737 30.462L58.734 35.602C59.069 35.792 59.481 35.792 59.816 35.602L68.813 30.462C69.153 30.272 69.365 29.917 69.365 29.539V3.96499C69.365 3.56499 69.153 3.20999 68.813 3.02099L63.445 0.0629911ZM62.618 26.163C62.618 26.268 62.576 26.353 62.491 26.393L59.414 28.155C59.327 28.197 59.224 28.197 59.138 28.155L56.061 26.393C55.976 26.351 55.934 26.246 55.934 26.163V22.638C55.934 22.533 55.976 22.448 56.061 22.408L59.138 20.646C59.225 20.604 59.328 20.604 59.414 20.646L62.491 22.408C62.576 22.45 62.618 22.555 62.618 22.638V26.163ZM93.385 22.553C93.725 22.363 93.915 22.008 93.915 21.63V19.133C93.9128 18.9466 93.8629 18.7638 93.7699 18.6022C93.6769 18.4406 93.5441 18.3056 93.384 18.21L84.451 13.09C84.116 12.9 83.704 12.9 83.369 13.09L74.372 18.23C74.032 18.42 73.82 18.775 73.82 19.153V29.413C73.82 29.791 74.032 30.147 74.372 30.336L83.305 35.371C83.645 35.561 84.048 35.561 84.365 35.371L89.775 32.391C89.8588 32.3465 89.9288 32.2799 89.9774 32.1985C90.0261 32.117 90.0515 32.0238 90.051 31.929C90.0515 31.8341 90.0261 31.7409 89.9774 31.6595C89.9288 31.5781 89.8588 31.5115 89.775 31.467L80.735 26.327C80.565 26.222 80.459 26.054 80.459 25.867V22.667C80.4585 22.5721 80.4839 22.4789 80.5326 22.3975C80.5813 22.3161 80.6512 22.2495 80.735 22.205L83.557 20.61C83.727 20.505 83.94 20.505 84.109 20.61L86.931 22.205C87.101 22.31 87.207 22.478 87.207 22.667V25.185C87.2067 25.2797 87.2322 25.3727 87.2809 25.4539C87.3295 25.5351 87.3994 25.6016 87.483 25.646C87.653 25.751 87.865 25.751 88.035 25.646L93.382 22.562L93.385 22.553Z" fill="#333333"/>
<path d="M83.773 22.07C83.837 22.028 83.921 22.028 83.985 22.07L85.705 23.056C85.769 23.098 85.811 23.161 85.811 23.246V25.218C85.8112 25.2559 85.8015 25.2933 85.7829 25.3264C85.7643 25.3595 85.7375 25.3873 85.705 25.407L83.985 26.393C83.921 26.435 83.837 26.435 83.773 26.393L82.053 25.407C82.0205 25.3873 81.9937 25.3595 81.9751 25.3264C81.9566 25.2933 81.9469 25.2559 81.947 25.218V23.246C81.947 23.162 81.989 23.099 82.053 23.056L83.773 22.07Z" fill="#539E43"/>
<path d="M35.244 13.133C34.909 12.943 34.497 12.943 34.162 13.133L25.229 18.231C24.889 18.421 24.699 18.776 24.699 19.154V29.372C24.7012 29.5584 24.7512 29.7411 24.8441 29.9027C24.9371 30.0643 25.07 30.1994 25.23 30.295L34.163 35.393C34.498 35.583 34.91 35.583 35.245 35.393L44.178 30.295C44.518 30.105 44.708 29.75 44.708 29.372V19.154C44.7058 18.9676 44.6559 18.7848 44.5629 18.6232C44.4699 18.4616 44.3371 18.3266 44.177 18.231L35.244 13.133Z" fill="url(#paint0_linear_130_1634)"/>
<mask id="mask0_130_1634" style="mask-type:alpha" maskUnits="userSpaceOnUse" x="24" y="12" width="21" height="24">
<path d="M35.244 13.133C34.909 12.943 34.497 12.943 34.162 13.133L25.229 18.231C24.889 18.421 24.699 18.776 24.699 19.154V29.372C24.7012 29.5584 24.7512 29.7411 24.8441 29.9027C24.9371 30.0643 25.07 30.1994 25.23 30.295L34.163 35.393C34.498 35.583 34.91 35.583 35.245 35.393L44.178 30.295C44.518 30.105 44.708 29.75 44.708 29.372V19.154C44.7058 18.9676 44.6559 18.7848 44.5629 18.6232C44.4699 18.4616 44.3371 18.3266 44.177 18.231L35.244 13.133Z" fill="white"/>
</mask>
<g mask="url(#mask0_130_1634)">
<path d="M44.199 18.2309L35.214 13.1329C35.134 13.0789 35.044 13.0539 34.948 13.0289L24.89 30.0639C24.973 30.1639 25.074 30.2499 25.187 30.3159L34.163 35.4139C34.418 35.5609 34.715 35.6039 34.99 35.5189L44.434 18.4409C44.3664 18.3602 44.2876 18.2895 44.2 18.2309H44.199Z" fill="url(#paint1_linear_130_1634)"/>
</g>
<mask id="mask1_130_1634" style="mask-type:alpha" maskUnits="userSpaceOnUse" x="24" y="12" width="21" height="24">
<path d="M35.244 13.133C34.909 12.943 34.497 12.943 34.162 13.133L25.229 18.231C24.889 18.421 24.699 18.776 24.699 19.154V29.372C24.7012 29.5584 24.7512 29.7411 24.8441 29.9027C24.9371 30.0643 25.07 30.1994 25.23 30.295L34.163 35.393C34.498 35.583 34.91 35.583 35.245 35.393L44.178 30.295C44.518 30.105 44.708 29.75 44.708 29.372V19.154C44.7058 18.9676 44.6559 18.7848 44.5629 18.6232C44.4699 18.4616 44.3371 18.3266 44.177 18.231L35.244 13.133Z" fill="white"/>
</mask>
<g mask="url(#mask1_130_1634)">
<path fill-rule="evenodd" clip-rule="evenodd" d="M44.22 30.295C44.475 30.148 44.666 29.895 44.75 29.625L34.904 13.009C34.649 12.967 34.374 12.989 34.14 13.135L25.229 18.211L34.841 35.541C34.9806 35.5184 35.1163 35.476 35.244 35.415L44.22 30.295Z" fill="url(#paint2_linear_130_1634)"/>
<path d="M44.22 30.295L35.266 35.393C35.1395 35.4569 35.0033 35.4994 34.863 35.519L35.033 35.834L44.963 30.149V30.023L44.708 29.603C44.666 29.897 44.475 30.148 44.22 30.295Z" fill="url(#paint3_linear_130_1634)"/>
<path d="M44.22 30.295L35.266 35.393C35.1395 35.4569 35.0033 35.4994 34.863 35.519L35.033 35.834L44.963 30.149V30.023L44.708 29.603C44.666 29.897 44.475 30.148 44.22 30.295Z" fill="url(#paint4_linear_130_1634)"/>
</g>
<defs>
<linearGradient id="paint0_linear_130_1634" x1="37.5708" y1="16.9329" x2="29.8306" y2="32.5431" gradientUnits="userSpaceOnUse">
<stop stop-color="#41873F"/>
<stop offset="0.3288" stop-color="#418B3D"/>
<stop offset="0.6352" stop-color="#419637"/>
<stop offset="0.9319" stop-color="#3FA92D"/>
<stop offset="1" stop-color="#3FAE2A"/>
</linearGradient>
<linearGradient id="paint1_linear_130_1634" x1="33.6737" y1="25.4603" x2="52.6748" y2="11.578" gradientUnits="userSpaceOnUse">
<stop offset="0.1376" stop-color="#41873F"/>
<stop offset="0.4032" stop-color="#54A044"/>
<stop offset="0.7136" stop-color="#66B848"/>
<stop offset="0.9081" stop-color="#6CC04A"/>
</linearGradient>
<linearGradient id="paint2_linear_130_1634" x1="24.3722" y1="24.2649" x2="45.0426" y2="24.2649" gradientUnits="userSpaceOnUse">
<stop offset="0.09192" stop-color="#6CC04A"/>
<stop offset="0.2864" stop-color="#66B848"/>
<stop offset="0.5968" stop-color="#54A044"/>
<stop offset="0.8624" stop-color="#41873F"/>
</linearGradient>
<linearGradient id="paint3_linear_130_1634" x1="24.373" y1="32.7357" x2="45.0435" y2="32.7357" gradientUnits="userSpaceOnUse">
<stop offset="0.09192" stop-color="#6CC04A"/>
<stop offset="0.2864" stop-color="#66B848"/>
<stop offset="0.5968" stop-color="#54A044"/>
<stop offset="0.8624" stop-color="#41873F"/>
</linearGradient>
<linearGradient id="paint4_linear_130_1634" x1="48.0549" y1="26.5271" x2="41.645" y2="39.4563" gradientUnits="userSpaceOnUse">
<stop stop-color="#41873F"/>
<stop offset="0.3288" stop-color="#418B3D"/>
<stop offset="0.6352" stop-color="#419637"/>
<stop offset="0.9319" stop-color="#3FA92D"/>
<stop offset="1" stop-color="#3FAE2A"/>
</linearGradient>
</defs>
</svg>
