<svg width="100" height="56" viewBox="0 0 100 56" fill="none" xmlns="http://www.w3.org/2000/svg">
<mask id="mask0_130_1654" style="mask-type:alpha" maskUnits="userSpaceOnUse" x="2" y="2" width="96" height="52">
<path d="M2.09021 27.9724C2.09021 41.8204 23.5402 53.0474 50.0142 53.0474C76.4882 53.0474 97.9482 41.8204 97.9482 27.9714C97.9482 14.1224 76.4882 2.89536 50.0142 2.89536C23.5402 2.89536 2.09021 14.1244 2.09021 27.9724Z" fill="white"/>
</mask>
<g mask="url(#mask0_130_1654)">
<path d="M2.09021 27.9724C2.09021 41.8204 23.5402 53.0474 50.0142 53.0474C76.4882 53.0474 97.9482 41.8204 97.9482 27.9714C97.9482 14.1224 76.4882 2.89536 50.0142 2.89536C23.5402 2.89536 2.09021 14.1244 2.09021 27.9724Z" fill="url(#paint0_radial_130_1654)"/>
</g>
<mask id="mask1_130_1654" style="mask-type:alpha" maskUnits="userSpaceOnUse" x="0" y="0" width="100" height="56">
<path d="M0.0832214 0.0413208H99.9432V55.9033H0.0832214V0.0413208Z" fill="white"/>
</mask>
<g mask="url(#mask1_130_1654)">
<path d="M50.0132 51.1863C75.4512 51.1863 96.0732 40.7933 96.0732 27.9723C96.0732 15.1513 75.4532 4.75828 50.0132 4.75828C24.5732 4.75828 3.95322 15.1533 3.95322 27.9733C3.95322 40.7933 24.5752 51.1863 50.0132 51.1863Z" fill="#777BB3"/>
</g>
<mask id="mask2_130_1654" style="mask-type:alpha" maskUnits="userSpaceOnUse" x="0" y="0" width="100" height="56">
<path d="M0.0832214 0.0413208H99.9432V55.9033H0.0832214V0.0413208Z" fill="white"/>
</mask>
<g mask="url(#mask2_130_1654)">
<path d="M28.1232 30.8504C30.2152 30.8504 31.7762 30.4664 32.7632 29.7104C33.7402 28.9624 34.4162 27.6654 34.7692 25.8564C35.0992 24.1664 34.9732 22.9864 34.3962 22.3484C33.8062 21.6984 32.5282 21.3684 30.6002 21.3684H27.2572L25.4042 30.8514H28.1212L28.1232 30.8504ZM17.1902 42.5304C17.1136 42.5305 17.038 42.5137 16.9687 42.4812C16.8994 42.4487 16.8381 42.4013 16.7892 42.3424C16.6892 42.2224 16.6492 42.0664 16.6792 41.9144L21.5892 16.7844C21.6128 16.6663 21.6767 16.5601 21.7699 16.4839C21.8631 16.4077 21.9798 16.3661 22.1002 16.3664H32.6852C36.0122 16.3664 38.4882 17.2644 40.0452 19.0364C41.6102 20.8164 42.0932 23.3064 41.4812 26.4364C41.2473 27.6698 40.8175 28.8578 40.2082 29.9554C39.6122 31.0154 38.8242 31.9984 37.8662 32.8754C36.7192 33.9434 35.4212 34.7174 34.0112 35.1724C32.6242 35.6224 30.8412 35.8494 28.7152 35.8494H24.4292L23.2052 42.1114C23.1818 42.2295 23.1182 42.3358 23.0252 42.4122C22.9322 42.4886 22.8156 42.5304 22.6952 42.5304H17.1902Z" fill="black"/>
<path d="M27.6882 21.8834H30.6022C32.9292 21.8834 33.7372 22.3914 34.0022 22.6834C34.4582 23.1854 34.5442 24.2454 34.2522 25.7464C33.9222 27.4264 33.3122 28.6194 32.4392 29.2884C31.5442 29.9734 30.0892 30.3204 28.1152 30.3204H26.0292L27.6792 21.8724L27.6882 21.8834ZM32.6862 15.8494H22.1012C21.8605 15.8491 21.6271 15.9324 21.4409 16.0851C21.2547 16.2377 21.1272 16.4502 21.0802 16.6864L16.1702 41.8164C16.1409 41.9661 16.1453 42.1205 16.183 42.2684C16.2207 42.4163 16.2908 42.5539 16.3882 42.6714C16.4861 42.7893 16.6088 42.8842 16.7476 42.9492C16.8865 43.0142 17.0379 43.0477 17.1912 43.0474H22.6962C22.937 43.0476 23.1704 42.9643 23.3566 42.8116C23.5428 42.659 23.6702 42.4465 23.7172 42.2104L24.8592 36.3664H28.7162C30.8962 36.3664 32.7342 36.1294 34.1742 35.6634C35.6542 35.1854 37.0172 34.3634 38.2242 33.2534C39.2212 32.3414 40.0442 31.3164 40.6642 30.2094C41.2842 29.1024 41.7342 27.8654 41.9942 26.5364C42.6382 23.2424 42.1142 20.6064 40.4392 18.6964C38.7792 16.8064 36.1722 15.8494 32.6892 15.8494H32.6862ZM24.7762 31.3664H28.1242C30.3442 31.3664 31.9962 30.9504 33.0842 30.1194C34.1722 29.2884 34.9042 27.8994 35.2842 25.9544C35.6482 24.0864 35.4822 22.7684 34.7862 22.0014C34.0902 21.2344 32.6962 20.8494 30.6042 20.8494H26.8342L24.7792 31.3664H24.7762ZM32.6862 16.8834C35.8702 16.8834 38.1932 17.7134 39.6532 19.3764C41.1132 21.0394 41.5532 23.3584 40.9702 26.3364C40.7302 27.5634 40.3252 28.6864 39.7542 29.7014C39.1832 30.7164 38.4362 31.6484 37.5142 32.5014C36.4142 33.5244 35.1942 34.2534 33.8502 34.6874C32.5062 35.1214 30.7952 35.3394 28.7152 35.3394H24.0002L22.6932 42.0034H17.1882L22.0982 16.8734H32.6832L32.6862 16.8834Z" fill="white"/>
<path d="M54.1032 35.8503C54.0266 35.8505 53.951 35.8337 53.8817 35.8012C53.8124 35.7687 53.7511 35.7213 53.7022 35.6623C53.6022 35.5423 53.5622 35.3863 53.5922 35.2343L55.7652 24.1143C55.9722 23.0573 55.9212 22.2983 55.6222 21.9773C55.4392 21.7813 54.8892 21.4523 53.2622 21.4523H49.3262L46.5962 35.4303C46.5728 35.5486 46.509 35.655 46.4158 35.7314C46.3226 35.8079 46.2057 35.8495 46.0852 35.8493H40.6252C40.5486 35.8495 40.473 35.8327 40.4037 35.8002C40.3344 35.7677 40.2731 35.7203 40.2242 35.6613C40.1242 35.5413 40.0842 35.3853 40.1142 35.2333L45.0242 10.1033C45.0478 9.98528 45.1117 9.87908 45.2049 9.80285C45.2981 9.72662 45.4148 9.68509 45.5352 9.68534H50.9952C51.0718 9.68523 51.1474 9.70202 51.2167 9.73452C51.286 9.76702 51.3473 9.81442 51.3962 9.87334C51.4962 9.99334 51.5362 10.1493 51.5062 10.3013L50.3212 16.3663H54.5552C57.7812 16.3663 59.9682 16.9323 61.2422 18.0963C62.5422 19.2833 62.9462 21.1813 62.4462 23.7363L60.1612 35.4303C60.1378 35.5486 60.074 35.655 59.9808 35.7314C59.8876 35.8079 59.7707 35.8495 59.6502 35.8493H54.1032V35.8503Z" fill="black"/>
<path d="M50.9952 9.1693H45.5352C45.2944 9.16907 45.0611 9.25238 44.8749 9.40502C44.6887 9.55766 44.5612 9.77017 44.5142 10.0063L39.6042 35.1363C39.5749 35.2861 39.5793 35.4405 39.617 35.5883C39.6547 35.7362 39.7248 35.8738 39.8222 35.9913C39.9201 36.1093 40.0428 36.2042 40.1816 36.2692C40.3204 36.3342 40.4719 36.3677 40.6252 36.3673H46.0832C46.324 36.3675 46.5574 36.2842 46.7435 36.1316C46.9297 35.979 47.0572 35.7664 47.1042 35.5303L49.7542 21.9703H53.2612C54.8842 21.9703 55.2252 22.3153 55.2392 22.3303C55.3372 22.4353 55.4672 22.9233 55.2532 24.0163L53.0802 35.1363C53.0509 35.2861 53.0553 35.4405 53.093 35.5883C53.1307 35.7362 53.2008 35.8738 53.2982 35.9913C53.3961 36.1093 53.5188 36.2042 53.6576 36.2692C53.7964 36.3342 53.9479 36.3677 54.1012 36.3673H59.6492C59.89 36.3675 60.1234 36.2842 60.3095 36.1316C60.4957 35.979 60.6232 35.7664 60.6702 35.5303L62.9552 23.8363C63.4912 21.0913 63.0322 19.0323 61.5922 17.7163C60.2182 16.4613 57.9152 15.8503 54.5522 15.8503H50.9532L52.0182 10.4003C52.0475 10.2505 52.0431 10.0961 52.0054 9.94828C51.9677 9.80042 51.8976 9.66277 51.8002 9.5453C51.6022 9.3073 51.3082 9.1683 50.9972 9.1683L50.9952 9.1693ZM50.9972 10.2023L49.6912 16.8823H54.5562C57.6162 16.8823 59.7292 17.4123 60.8912 18.4753C62.0532 19.5383 62.3912 21.2583 61.9372 23.6373L59.6502 35.3333H54.1032L56.2762 24.2133C56.5232 22.9483 56.4322 22.0853 56.0032 21.6253C55.5742 21.1653 54.6602 20.9253 53.2632 20.9253H48.8982L46.0832 35.3333H40.6232L45.5332 10.2033H50.9932" fill="white"/>
<path d="M71.0872 30.8503C73.1792 30.8503 74.7402 30.4663 75.7272 29.7103C76.7042 28.9623 77.3802 27.6653 77.7342 25.8563C78.0642 24.1663 77.9382 22.9863 77.3602 22.3483C76.7702 21.6983 75.4922 21.3683 73.5642 21.3683H70.2232L68.3702 30.8513H71.0872V30.8503ZM60.1532 42.5313C60.0767 42.5315 60.001 42.5147 59.9317 42.4822C59.8624 42.4497 59.8011 42.4023 59.7522 42.3433C59.6522 42.2233 59.6122 42.0673 59.6422 41.9153L64.5522 16.7853C64.5758 16.6673 64.6397 16.5611 64.7329 16.4849C64.8261 16.4086 64.9428 16.3671 65.0632 16.3673H75.6482C78.9752 16.3673 81.4512 17.2653 83.0082 19.0373C84.5732 20.8173 85.0562 23.3074 84.4442 26.4373C84.1942 27.7123 83.7672 28.8973 83.1712 29.9573C82.5752 31.0173 81.7872 32.0003 80.8292 32.8773C79.6822 33.9453 78.3842 34.7193 76.9742 35.1743C75.5872 35.6243 73.8042 35.8513 71.6782 35.8513H67.3932L66.1702 42.1133C66.1468 42.2316 66.083 42.338 65.9898 42.4145C65.8966 42.4909 65.7798 42.5326 65.6592 42.5323H60.1532V42.5313Z" fill="black"/>
<path d="M70.6532 21.8834H73.5672C75.8942 21.8834 76.7022 22.3914 76.9672 22.6834C77.4232 23.1854 77.5092 24.2454 77.2172 25.7464C76.8872 27.4264 76.2772 28.6194 75.4042 29.2884C74.5092 29.9734 73.0542 30.3204 71.0802 30.3204H68.9942L70.6442 21.8724L70.6532 21.8834ZM75.6512 15.8494H65.0652C64.8244 15.8491 64.5911 15.9324 64.4049 16.0851C64.2187 16.2377 64.0912 16.4502 64.0442 16.6864L59.1342 41.8164C59.1049 41.9661 59.1093 42.1205 59.147 42.2684C59.1847 42.4163 59.2548 42.5539 59.3522 42.6714C59.4501 42.7893 59.5728 42.8842 59.7116 42.9492C59.8504 43.0142 60.0019 43.0477 60.1552 43.0474H65.6602C65.901 43.0476 66.1344 42.9643 66.3205 42.8116C66.5067 42.659 66.6342 42.4465 66.6812 42.2104L67.8232 36.3664H71.6802C73.8602 36.3664 75.6982 36.1294 77.1382 35.6634C78.6182 35.1854 79.9812 34.3634 81.1882 33.2534C82.1585 32.3749 82.9825 31.3473 83.6292 30.2094C84.2522 29.1014 84.6992 27.8654 84.9592 26.5364C85.6032 23.2424 85.0792 20.6044 83.4042 18.6964C81.7442 16.8064 79.1372 15.8494 75.6542 15.8494H75.6512ZM67.7412 31.3664H71.0892C73.3092 31.3664 74.9612 30.9504 76.0492 30.1194C77.1372 29.2884 77.8692 27.8994 78.2492 25.9544C78.6132 24.0864 78.4492 22.7684 77.7512 22.0014C77.0532 21.2344 75.6612 20.8494 73.5692 20.8494H69.7992L67.7442 31.3664H67.7412ZM75.6512 16.8834C78.8352 16.8834 81.1582 17.7134 82.6182 19.3764C84.0782 21.0394 84.5182 23.3584 83.9352 26.3364C83.6952 27.5634 83.2902 28.6864 82.7192 29.7014C82.1482 30.7164 81.4012 31.6484 80.4792 32.5014C79.3792 33.5244 78.1592 34.2534 76.8152 34.6874C75.4712 35.1214 73.7602 35.3394 71.6802 35.3394H66.9632L65.6582 42.0194H60.1532L65.0632 16.8894H75.6482L75.6512 16.8834Z" fill="white"/>
</g>
<defs>
<radialGradient id="paint0_radial_130_1654" cx="0" cy="0" r="1" gradientUnits="userSpaceOnUse" gradientTransform="translate(17.2398 11.7113) scale(62.9376 62.9442)">
<stop stop-color="#AEB2D5"/>
<stop offset="0.3" stop-color="#AEB2D5"/>
<stop offset="0.75" stop-color="#484C89"/>
<stop offset="1" stop-color="#484C89"/>
</radialGradient>
</defs>
</svg>
