<svg width="649" height="480" viewBox="0 0 649 480" fill="none" xmlns="http://www.w3.org/2000/svg">
<g clip-path="url(#clip0_130_1935)">
<path opacity="0.37" d="M56.4009 402.965C57.8165 405.708 59.3812 408.451 61.0948 411.078C86.5758 450.24 138.283 474.928 193.417 479.364C237.524 482.866 280.44 471.601 317.32 453.217C354.126 434.89 383.63 409.093 424.534 395.67C482.201 376.818 546.5 361.935 591.725 322.014C643.134 276.665 662.953 207.912 638.738 149.898C615.194 93.2849 537.038 74.9585 476.315 50.037C367.165 5.15497 215.992 -24.6691 102.371 28.0337C-33.7511 91.1254 -9.01514 234.351 34.1237 333.745C43.9585 356.391 45.1506 380.787 56.4009 402.965Z" fill="#CCE9FF"/>
<path d="M416.589 412.256C411.085 399.404 421.662 375.25 435.213 365.085C451.96 352.522 482.046 362.678 484.583 364.258C485.543 362.036 500.765 328.415 531.758 327.161C555.74 326.191 566.813 334.639 576.152 366.327C576.945 365.976 588.85 366.745 596.513 374.801C605.703 384.464 604.84 406.627 596.478 420.781H426.311C420.262 418.669 417.748 414.961 416.589 412.256Z" fill="#2A94F4" stroke="#1A1A1A" stroke-width="5.52102" stroke-linecap="round" stroke-linejoin="round"/>
<path d="M503.364 373.086C484.495 358.607 462.773 363.326 459.814 364.022C457.187 343.596 442.557 327.472 424.222 324.009C403.597 320.113 387.987 334.072 386.198 335.725C380.017 322.964 366.265 299.126 339.332 281.343C309.198 261.445 253.634 243.233 213.324 272.058C191.784 287.461 182.748 310.47 178.838 325.114C152.91 314.599 122.946 324.546 108.539 348.326C94.3074 371.816 99.0424 402.552 119.813 420.781H523.039C523.209 419.325 526.083 390.52 503.364 373.086Z" fill="#2A94F4" stroke="#1A1A1A" stroke-width="3.68068" stroke-linecap="round" stroke-linejoin="round"/>
<path d="M494.665 42.5474H211.854C205.341 42.5474 200.06 47.8276 200.06 54.3411V239.661C200.06 246.175 205.341 251.455 211.854 251.455H494.665C501.178 251.455 506.459 246.175 506.459 239.661V54.3411C506.459 47.8276 501.178 42.5474 494.665 42.5474Z" fill="white" stroke="#1A1A1A" stroke-width="3.68068" stroke-linecap="round" stroke-linejoin="round"/>
<path d="M499.481 66.2059C499.481 61.193 497.49 56.3854 493.945 52.8407C490.4 49.2961 485.593 47.3047 480.58 47.3047H225.939C220.926 47.3047 216.119 49.2961 212.574 52.8407C209.029 56.3854 207.038 61.193 207.038 66.2059V69.0753H499.481V66.2059Z" fill="#1C0311" stroke="#1A1A1A" stroke-width="1.84034" stroke-linecap="round" stroke-linejoin="round"/>
<path d="M207.038 69.0752V227.797C207.038 232.809 209.029 237.617 212.574 241.162C216.119 244.706 220.926 246.698 225.939 246.698H480.58C485.593 246.698 490.4 244.706 493.945 241.162C497.49 237.617 499.481 232.809 499.481 227.797V69.0752H207.038Z" fill="white" stroke="#1A1A1A" stroke-width="3.68068" stroke-linecap="round" stroke-linejoin="round"/>
<path d="M207.038 92.9507H499.481" stroke="#1A1A1A" stroke-width="3.68068" stroke-linecap="round" stroke-linejoin="round" stroke-dasharray="22.08 22.08"/>
<path d="M389.736 77.0337H359.892V85.6553H389.736V77.0337Z" fill="#1C0311" stroke="#1A1A1A" stroke-width="1.84034" stroke-linecap="round" stroke-linejoin="round"/>
<path d="M430.191 77.0337H400.347V85.6553H430.191V77.0337Z" fill="white" stroke="#1A1A1A" stroke-width="3.68068" stroke-linecap="round" stroke-linejoin="round"/>
<path d="M470.646 77.0337H440.802V85.6553H470.646V77.0337Z" fill="white" stroke="#1A1A1A" stroke-width="3.68068" stroke-linecap="round" stroke-linejoin="round"/>
<path d="M277.857 77.0337H221.283V147.001H277.857V77.0337Z" fill="white" stroke="#1A1A1A" stroke-width="3.68068" stroke-linecap="round" stroke-linejoin="round"/>
<path d="M265.535 114.408H234.543V117.247H265.535V114.408Z" fill="white" stroke="#1A1A1A" stroke-width="3.68068" stroke-linecap="round" stroke-linejoin="round"/>
<path d="M270.03 122.688H230.048V125.527H270.03V122.688Z" fill="white" stroke="#1A1A1A" stroke-width="3.68068" stroke-linecap="round" stroke-linejoin="round"/>
<path d="M270.03 130.022H230.048V132.861H270.03V130.022Z" fill="white" stroke="#1A1A1A" stroke-width="3.68068" stroke-linecap="round" stroke-linejoin="round"/>
<path d="M249.57 105.386C255.018 105.386 259.435 100.969 259.435 95.5208C259.435 90.0722 255.018 85.6553 249.57 85.6553C244.121 85.6553 239.704 90.0722 239.704 95.5208C239.704 100.969 244.121 105.386 249.57 105.386Z" fill="#1C0311" stroke="#1A1A1A" stroke-width="1.84034" stroke-linecap="round" stroke-linejoin="round"/>
<path d="M268.075 232.618H230.048V239.324H268.075V232.618Z" fill="#1C0311" stroke="#1A1A1A" stroke-width="1.84034" stroke-linecap="round" stroke-linejoin="round"/>
<path d="M478.273 246.698H289.592V232.618H498.86C494.993 243.842 487.296 246.716 478.273 246.698Z" fill="#1C0311" stroke="#1A1A1A" stroke-width="1.84034" stroke-linecap="round" stroke-linejoin="round"/>
<path d="M289.592 69.0752V246.698" stroke="#1A1A1A" stroke-width="3.68068" stroke-linecap="round" stroke-linejoin="round" stroke-dasharray="22.08 22.08"/>
<path d="M347.3 112.018H301.198V157.887H347.3V112.018Z" stroke="#1A1A1A" stroke-width="3.68068" stroke-linecap="round" stroke-linejoin="round" stroke-dasharray="22.08 22.08"/>
<path d="M412.786 112.018H366.685V157.887H412.786V112.018Z" stroke="#1A1A1A" stroke-width="3.68068" stroke-linecap="round" stroke-linejoin="round" stroke-dasharray="22.08 22.08"/>
<path d="M478.273 112.018H432.171V157.887H478.273V112.018Z" stroke="#1A1A1A" stroke-width="3.68068" stroke-linecap="round" stroke-linejoin="round" stroke-dasharray="22.08 22.08"/>
<path d="M347.3 172.222H301.198V218.091H347.3V172.222Z" stroke="#1A1A1A" stroke-width="3.68068" stroke-linecap="round" stroke-linejoin="round" stroke-dasharray="22.08 22.08"/>
<path d="M412.786 172.222H366.685V218.091H412.786V172.222Z" stroke="#1A1A1A" stroke-width="3.68068" stroke-linecap="round" stroke-linejoin="round" stroke-dasharray="22.08 22.08"/>
<path d="M478.273 172.222H432.171V218.091H478.273V172.222Z" stroke="#1A1A1A" stroke-width="3.68068" stroke-linecap="round" stroke-linejoin="round" stroke-dasharray="22.08 22.08"/>
<path d="M344.436 154.391C331.529 155.127 315.928 153.973 312.142 150.487C308.357 147.001 307.773 145.094 306.68 139.989C305.157 132.872 304.695 123.839 304.453 114.408H344.436V154.391Z" fill="white" stroke="#1A1A1A" stroke-width="3.68068" stroke-linecap="round" stroke-linejoin="round"/>
<path d="M306.367 138.417C307.927 144.92 316.874 145.046 316.874 145.046C316.874 145.046 317.055 150.568 321.155 153.536" fill="white"/>
<path d="M306.367 138.417C307.927 144.92 316.874 145.046 316.874 145.046C316.874 145.046 317.055 150.568 321.155 153.536" stroke="#1A1A1A" stroke-width="3.68068" stroke-linecap="round" stroke-linejoin="round"/>
<path d="M409.727 154.391C396.82 155.127 381.218 153.973 377.433 150.487C373.648 147.001 373.064 145.094 371.971 139.989C370.448 132.872 369.986 123.839 369.744 114.408H409.727V154.391Z" fill="white" stroke="#1A1A1A" stroke-width="3.68068" stroke-linecap="round" stroke-linejoin="round"/>
<path d="M371.658 138.417C373.218 144.92 382.165 145.046 382.165 145.046C382.165 145.046 382.346 150.568 386.446 153.536" fill="white"/>
<path d="M371.658 138.417C373.218 144.92 382.165 145.046 382.165 145.046C382.165 145.046 382.346 150.568 386.446 153.536" stroke="#1A1A1A" stroke-width="3.68068" stroke-linecap="round" stroke-linejoin="round"/>
<path d="M475.018 154.391C462.111 155.127 446.509 153.973 442.724 150.487C438.939 147.001 438.355 145.094 437.262 139.989C435.739 132.872 435.277 123.839 435.035 114.408H475.018V154.391Z" fill="white" stroke="#1A1A1A" stroke-width="3.68068" stroke-linecap="round" stroke-linejoin="round"/>
<path d="M436.949 138.417C438.509 144.92 447.456 145.046 447.456 145.046C447.456 145.046 447.637 150.568 451.737 153.536" fill="white"/>
<path d="M436.949 138.417C438.509 144.92 447.456 145.046 447.456 145.046C447.456 145.046 447.637 150.568 451.737 153.536" stroke="#1A1A1A" stroke-width="3.68068" stroke-linecap="round" stroke-linejoin="round"/>
<path d="M344.436 215.041C331.529 215.778 315.928 214.624 312.142 211.138C308.357 207.652 307.773 205.745 306.68 200.639C305.157 193.522 304.695 184.49 304.453 175.059H344.436V215.041Z" fill="white" stroke="#1A1A1A" stroke-width="3.68068" stroke-linecap="round" stroke-linejoin="round"/>
<path d="M306.367 199.068C307.927 205.57 316.874 205.696 316.874 205.696C316.874 205.696 317.055 211.218 321.155 214.187" fill="white"/>
<path d="M306.367 199.068C307.927 205.57 316.874 205.696 316.874 205.696C316.874 205.696 317.055 211.218 321.155 214.187" stroke="#1A1A1A" stroke-width="3.68068" stroke-linecap="round" stroke-linejoin="round"/>
<path d="M409.727 215.041C396.82 215.778 381.218 214.624 377.433 211.138C373.648 207.652 373.064 205.745 371.971 200.639C370.448 193.522 369.986 184.49 369.744 175.059H409.727V215.041Z" fill="white" stroke="#1A1A1A" stroke-width="3.68068" stroke-linecap="round" stroke-linejoin="round"/>
<path d="M371.658 199.068C373.218 205.57 382.165 205.696 382.165 205.696C382.165 205.696 382.346 211.218 386.446 214.187" fill="white"/>
<path d="M371.658 199.068C373.218 205.57 382.165 205.696 382.165 205.696C382.165 205.696 382.346 211.218 386.446 214.187" stroke="#1A1A1A" stroke-width="3.68068" stroke-linecap="round" stroke-linejoin="round"/>
<path d="M475.018 215.041C462.111 215.778 446.509 214.624 442.724 211.138C438.939 207.652 438.355 205.745 437.262 200.639C435.739 193.522 435.277 184.49 435.035 175.059H475.018V215.041Z" fill="white" stroke="#1A1A1A" stroke-width="3.68068" stroke-linecap="round" stroke-linejoin="round"/>
<path d="M436.949 199.068C438.509 205.57 447.456 205.696 447.456 205.696C447.456 205.696 447.637 211.218 451.737 214.187" fill="white"/>
<path d="M436.949 199.068C438.509 205.57 447.456 205.696 447.456 205.696C447.456 205.696 447.637 211.218 451.737 214.187" stroke="#1A1A1A" stroke-width="3.68068" stroke-linecap="round" stroke-linejoin="round"/>
<path d="M91.2957 420.781H570.126" stroke="#1A1A1A" stroke-width="3.68068" stroke-linecap="round" stroke-linejoin="round"/>
<path d="M466.556 269.24C469.098 264.045 468.104 260.729 464.456 261.392C460.808 262.055 439.254 271.782 437.044 274.324C435.679 275.894 437.179 283.002 438.527 288.213C438.653 288.149 438.778 288.09 438.902 288.041C443.47 286.613 448.222 285.494 453.001 284.971C452.751 284 452.493 282.981 452.238 281.951C452.952 280.514 464.014 274.435 466.556 269.24Z" fill="#00D6C4" stroke="#1A1A1A" stroke-width="3.68068" stroke-linecap="round" stroke-linejoin="round"/>
<path d="M438.526 288.213C439.362 291.443 440.139 293.944 440.139 293.944L454.84 291.899C454.84 291.899 453.986 288.809 453 284.972C448.222 285.495 443.47 286.613 438.902 288.041C438.778 288.09 438.653 288.149 438.526 288.213Z" fill="#1C0311" stroke="#1A1A1A" stroke-width="1.84034" stroke-linecap="round" stroke-linejoin="round"/>
<path d="M446.771 373.031C446.771 373.031 433.728 356.008 439.033 292.562C439.254 289.467 447.434 287.036 454.287 287.036C460.698 296.099 475.509 355.787 476.173 364.188C476.836 372.588 473.962 383.234 473.299 383.217C472.635 383.2 446.771 373.031 446.771 373.031Z" fill="#0E538C" stroke="#1A1A1A" stroke-width="3.68068" stroke-linecap="round" stroke-linejoin="round"/>
<path d="M446.683 296.933C446.683 296.933 458.351 375.824 465.922 384.405" stroke="#1A1A1A" stroke-width="3.68068" stroke-linecap="round" stroke-linejoin="round" stroke-dasharray="22.08 22.08"/>
<path d="M520.287 299.233C519.419 300.548 518.902 301.405 518.902 301.405C518.902 301.405 529.339 310.358 529.671 310.358C529.921 310.358 532.251 306.263 534.425 304.256C531.099 300.162 525.772 297.858 520.287 299.233Z" fill="#1C0311" stroke="#1A1A1A" stroke-width="1.84034" stroke-linecap="round" stroke-linejoin="round"/>
<path d="M560.952 304.611C558.078 301.184 540.503 285.599 534.534 285.488C529.945 285.403 523.172 294.858 520.287 299.233C525.772 297.858 531.099 300.162 534.425 304.257C535.13 303.606 535.818 303.174 536.413 303.174C538.845 303.174 545.919 309.142 554.651 311.353C563.383 313.564 563.826 308.037 560.952 304.611Z" fill="#00D6C4" stroke="#1A1A1A" stroke-width="3.68068" stroke-linecap="round" stroke-linejoin="round"/>
<path d="M520.165 300.521C475.73 331.249 469.983 376.405 469.983 376.405C469.983 376.405 443.676 365.293 419.58 362.641C395.483 359.988 368.955 378.631 368.955 378.631L369.067 381.3L370.724 420.781H427.096C436.602 420.781 480.815 424.76 490.1 412.38C499.385 400.001 532.766 309.585 532.766 307.595C532.766 305.605 530.113 300.3 520.165 300.521Z" fill="#0E538C" stroke="#1A1A1A" stroke-width="3.68068" stroke-linecap="round" stroke-linejoin="round"/>
<path d="M388.795 400.32C388.795 400.32 456.932 395.588 474.202 400.32C487.687 373.113 515.957 315.716 526.664 307.98" stroke="#1A1A1A" stroke-width="3.68068" stroke-linecap="round" stroke-linejoin="round" stroke-dasharray="22.08 22.08"/>
<path d="M369.869 381.984C369.869 381.984 371.88 378.685 376.02 387.018C380.16 395.351 382.999 415.372 375.31 421.39L369.395 420.967L369.869 381.984Z" fill="#1C0311" stroke="#1A1A1A" stroke-width="1.84034" stroke-linecap="round" stroke-linejoin="round"/>
<path d="M239.531 396.11C239.531 396.11 261.737 374.328 266.573 366.505C271.533 361.56 268.521 344.359 284.704 342.394C284.704 342.394 302.892 336.534 337.193 356.421C365.425 373.892 370.835 380.648 373.318 384.699C375.801 388.749 381.886 408.421 371.925 420.926C338.93 421.562 286.15 418.388 279.285 418.216" fill="#54CAFA"/>
<path d="M239.531 396.11C239.531 396.11 261.737 374.328 266.573 366.505C271.533 361.56 268.521 344.359 284.704 342.394C284.704 342.394 302.892 336.534 337.193 356.421C365.425 373.892 370.835 380.648 373.318 384.699C375.801 388.749 381.886 408.421 371.925 420.926C338.93 421.562 286.15 418.388 279.285 418.216" stroke="#1A1A1A" stroke-width="3.68068" stroke-linecap="round" stroke-linejoin="round"/>
<path d="M241.069 355.121C241.069 355.121 245.659 348.081 241.818 343.255C237.977 338.428 235.626 332.105 238.023 328.36C240.42 324.615 244.29 324.574 246.528 328.025C248.765 331.477 259.52 343.332 255.404 348.361C251.288 353.391 247.58 361.28 247.58 361.28L241.069 355.121Z" fill="#FFE3CA" stroke="#1A1A1A" stroke-width="3.68068" stroke-linecap="round" stroke-linejoin="round"/>
<path d="M251.492 402.774C236.764 397.464 248.157 366.567 249.277 362.706C250.397 358.846 243.907 355.562 242.408 354.017C240.909 352.472 239.371 354.136 239.371 354.136C239.371 354.136 207.943 394.534 212.705 410.11C217.467 425.685 259.53 419.382 259.53 419.382C259.53 419.382 283.687 421.326 284.915 420.449C286.143 419.572 284.915 409.504 284.915 409.504" fill="#54CAFA"/>
<path d="M251.492 402.774C236.764 397.464 248.157 366.567 249.277 362.706C250.397 358.846 243.907 355.562 242.408 354.017C240.909 352.472 239.371 354.136 239.371 354.136C239.371 354.136 207.943 394.534 212.705 410.11C217.467 425.685 259.53 419.382 259.53 419.382C259.53 419.382 283.687 421.326 284.915 420.449C286.143 419.572 284.915 409.504 284.915 409.504" stroke="#1A1A1A" stroke-width="3.68068" stroke-linecap="round" stroke-linejoin="round"/>
<path d="M260.606 300C260.606 300 238.984 321.287 248.355 338.865C257.725 356.443 286 343.243 286 343.243" fill="#FFE3CA"/>
<path d="M260.606 300C260.606 300 238.984 321.287 248.355 338.865C257.725 356.443 286 343.243 286 343.243" stroke="#1A1A1A" stroke-width="3.68068" stroke-linecap="round" stroke-linejoin="round"/>
<path d="M262.631 344.644C262.631 344.644 266.014 363.892 269.336 368.498C280.919 371.138 286.407 357.537 286.093 343.943C281.328 340.923 276.912 329.925 276.912 329.925" fill="#FFE3CA"/>
<path d="M262.631 344.644C262.631 344.644 266.014 363.892 269.336 368.498C280.919 371.138 286.407 357.537 286.093 343.943C281.328 340.923 276.912 329.925 276.912 329.925" stroke="#1A1A1A" stroke-width="3.68068" stroke-linecap="round" stroke-linejoin="round"/>
<path d="M267.221 342.386L262.874 346.763L262.631 344.486L267.221 342.386Z" fill="#1C0311" stroke="#1A1A1A" stroke-width="1.84034" stroke-linecap="round" stroke-linejoin="round"/>
<path d="M251.704 288.856C249.88 288.181 241.103 305.451 256.959 312.017C261.596 314.6 263.014 314.101 261.586 317.144C260.157 320.187 260.483 323.272 262.442 323.637C264.4 324.002 267.728 321.438 269.094 319.614C270.46 317.79 275.123 321.008 274.254 324.236C273.386 327.465 270.074 329.033 270.234 330.299C272.033 333.823 272.945 337.327 280.158 335.107C287.372 332.887 286.807 319.967 285.926 315.853C285.045 311.74 283.046 304.518 272.553 302.11C262.06 299.703 253.528 289.53 251.704 288.856Z" fill="#1C0311" stroke="#1A1A1A" stroke-width="1.84034" stroke-linecap="round" stroke-linejoin="round"/>
<path d="M260.032 409.341C253.659 411.832 249.206 420.717 252.287 421.01C254.465 421.218 265.293 421.155 271.455 421.1C270.925 416.712 270.016 412.475 267.337 408.786C265.202 408.373 262.631 408.325 260.032 409.341Z" fill="#FFE3CA" stroke="#1A1A1A" stroke-width="3.68068" stroke-linecap="round" stroke-linejoin="round"/>
<path d="M310.679 357.3C310.679 357.3 354.569 388.922 348.998 407.56C343.427 426.197 277.963 421.053 275.472 421.01C272.89 418.648 268.675 404.419 270.403 403.356C272.131 402.292 299.87 403.024 302.098 400.613C304.326 398.203 305.102 396.845 297.551 390.505C290.001 384.165 281.588 368.568 294.369 360.266C297.815 359.3 298.644 359.267 298.644 359.267" fill="#54CAFA"/>
<path d="M310.679 357.3C310.679 357.3 354.569 388.922 348.998 407.56C343.427 426.197 277.963 421.053 275.472 421.01C272.89 418.648 268.675 404.419 270.403 403.356C272.131 402.292 299.87 403.024 302.098 400.613C304.326 398.203 305.102 396.845 297.551 390.505C290.001 384.165 281.588 368.568 294.369 360.266C297.815 359.3 298.644 359.267 298.644 359.267" stroke="#1A1A1A" stroke-width="3.68068" stroke-linecap="round" stroke-linejoin="round"/>
<path d="M267.463 374.877C267.463 374.877 264.535 386.165 269.538 393.932L267.463 374.877Z" fill="#54CAFA"/>
<path d="M267.463 374.877C267.463 374.877 264.535 386.165 269.538 393.932" stroke="#1A1A1A" stroke-width="3.68068" stroke-linecap="round" stroke-linejoin="round"/>
<path d="M272.615 410.753C270.978 409.807 269.194 409.142 267.337 408.786C270.016 412.475 270.925 416.712 271.455 421.1C274.011 421.078 275.765 421.056 275.765 421.056C275.765 421.056 273.867 411.41 272.615 410.753Z" fill="#1C0311" stroke="#1A1A1A" stroke-width="3.68068" stroke-linecap="round" stroke-linejoin="round"/>
<path d="M202.934 414.259H157.173V420.449H202.934V414.259Z" fill="#1C0311" stroke="#1A1A1A" stroke-width="1.84034" stroke-linecap="round" stroke-linejoin="round"/>
<path d="M139.892 372.444C140.223 373.107 161.484 412.021 161.484 412.021L156.952 413.983L135.73 375.195L139.892 372.444Z" fill="white" stroke="#1A1A1A" stroke-width="3.68068" stroke-linecap="round" stroke-linejoin="round"/>
<path d="M157.174 219.565C170.654 219.565 181.582 208.637 181.582 195.156C181.582 181.676 170.654 170.748 157.174 170.748C143.693 170.748 132.765 181.676 132.765 195.156C132.765 208.637 143.693 219.565 157.174 219.565Z" fill="white" stroke="#1A1A1A" stroke-width="3.68068" stroke-linecap="round" stroke-linejoin="round"/>
<path d="M160.763 190.174C161.848 189.541 162.696 188.568 163.173 187.406C163.651 186.244 163.732 184.956 163.404 183.743C163.077 182.53 162.358 181.458 161.361 180.694C160.363 179.93 159.141 179.516 157.884 179.516C156.628 179.516 155.406 179.93 154.408 180.694C153.411 181.458 152.692 182.53 152.365 183.743C152.037 184.956 152.118 186.244 152.596 187.406C153.073 188.568 153.92 189.541 155.006 190.174C152.513 190.814 150.304 192.264 148.726 194.298C147.149 196.331 146.292 198.832 146.292 201.406V207.005H169.477V201.406C169.477 198.832 168.62 196.331 167.043 194.298C165.465 192.264 163.256 190.814 160.763 190.174Z" fill="#1C0311" stroke="#1A1A1A" stroke-width="1.84034" stroke-linecap="round" stroke-linejoin="round"/>
<path d="M537.37 180.93C543.642 180.93 548.726 175.846 548.726 169.574C548.726 163.303 543.642 158.218 537.37 158.218C531.098 158.218 526.014 163.303 526.014 169.574C526.014 175.846 531.098 180.93 537.37 180.93Z" fill="#1C0311" stroke="#1A1A1A" stroke-width="1.84034" stroke-linecap="round" stroke-linejoin="round"/>
<path d="M550.341 232.696C562.993 232.696 573.249 222.44 573.249 209.788C573.249 197.137 562.993 186.881 550.341 186.881C537.69 186.881 527.434 197.137 527.434 209.788C527.434 222.44 537.69 232.696 550.341 232.696Z" fill="#0E538C" stroke="#1A1A1A" stroke-width="3.68068" stroke-linecap="round" stroke-linejoin="round"/>
<path d="M161.114 116.193H113.164C110.946 116.193 108.819 117.074 107.25 118.643C105.682 120.211 104.801 122.338 104.801 124.556V134.628C104.801 136.846 105.682 138.973 107.25 140.542C108.819 142.11 110.946 142.991 113.164 142.991H151.458C153.138 145.434 155.973 149.421 158.422 152.845C159.661 154.576 162.39 153.517 162.139 151.403L161.141 142.991C163.354 142.983 165.474 142.099 167.037 140.532C168.6 138.964 169.477 136.841 169.477 134.628V124.556C169.477 123.458 169.261 122.371 168.84 121.356C168.42 120.341 167.804 119.419 167.027 118.643C166.251 117.866 165.329 117.25 164.314 116.83C163.299 116.409 162.212 116.193 161.114 116.193Z" fill="white" stroke="#1A1A1A" stroke-width="3.68068" stroke-linecap="round" stroke-linejoin="round"/>
<path d="M157.396 121.623H114.574V125.408H157.396V121.623Z" fill="white" stroke="#1A1A1A" stroke-width="3.68068" stroke-linecap="round" stroke-linejoin="round"/>
<path d="M157.396 131.167H114.574V134.952H157.396V131.167Z" fill="white" stroke="#1A1A1A" stroke-width="3.68068" stroke-linecap="round" stroke-linejoin="round"/>
<path d="M260.22 211.241V207.644H256.509C256.364 207.119 256.155 206.613 255.886 206.139L258.509 203.515L255.965 200.972L253.342 203.595C252.868 203.326 252.362 203.117 251.837 202.972V199.263H248.241V202.972C247.716 203.117 247.21 203.326 246.736 203.595L244.113 200.972L241.569 203.515L244.192 206.139C243.923 206.613 243.714 207.119 243.569 207.644H239.858V211.241H243.569C243.714 211.766 243.923 212.272 244.192 212.746L241.569 215.37L244.113 217.914L246.736 215.29C247.21 215.559 247.716 215.768 248.241 215.913V219.622H251.837V215.913C252.362 215.768 252.868 215.559 253.342 215.29L255.965 217.914L258.509 215.37L255.886 212.746C256.155 212.272 256.364 211.766 256.509 211.241H260.22ZM253.153 211.241C252.837 211.788 252.383 212.242 251.837 212.558C251.565 212.716 251.273 212.837 250.969 212.917C250.359 213.08 249.717 213.08 249.107 212.917C248.804 212.837 248.513 212.716 248.241 212.558C247.416 212.079 246.813 211.294 246.563 210.373C246.483 210.07 246.443 209.757 246.443 209.443C246.443 209.128 246.484 208.815 246.565 208.512C246.646 208.208 246.767 207.916 246.925 207.644C247.241 207.098 247.695 206.644 248.241 206.328C248.513 206.169 248.804 206.048 249.107 205.968C249.717 205.805 250.359 205.805 250.969 205.968C251.273 206.048 251.565 206.169 251.837 206.328C252.383 206.644 252.837 207.098 253.153 207.644C253.311 207.916 253.432 208.208 253.513 208.512C253.594 208.815 253.635 209.128 253.635 209.443C253.635 209.757 253.594 210.07 253.514 210.373C253.433 210.677 253.311 210.969 253.153 211.241Z" fill="#1C0311" stroke="#1A1A1A" stroke-width="1.84034" stroke-linecap="round" stroke-linejoin="round"/>
</g>
<defs>
<clipPath id="clip0_130_1935">
<rect width="649" height="480" fill="white"/>
</clipPath>
</defs>
</svg>
