<svg width="131" height="32" viewBox="0 0 131 32" fill="none" xmlns="http://www.w3.org/2000/svg">
<path fill-rule="evenodd" clip-rule="evenodd" d="M52.26 16.18C52.26 18.158 51.786 19.8 50.832 21.105C49.768 22.583 48.294 23.345 46.409 23.385C44.989 23.429 43.525 22.985 42.009 22.082V30.528L39.573 29.678V10.93C39.973 10.45 40.487 10.03 41.111 9.68998C42.561 8.86398 44.323 8.43999 46.397 8.41798L46.432 8.45198C48.327 8.42798 49.788 9.18898 50.814 10.732C51.771 12.147 52.251 13.96 52.251 16.178L52.26 16.18ZM49.449 16.016C49.449 12.123 48.314 10.124 46.043 10.016C45.139 9.97398 44.257 10.116 43.399 10.441C42.714 10.681 42.253 10.918 41.999 11.158V20.45C43.452 21.35 44.742 21.755 45.867 21.69C48.247 21.536 49.439 19.647 49.439 16.017L49.449 16.016ZM67.139 21.722C67.139 24.375 66.867 26.222 66.323 27.222C65.779 28.222 64.737 29.059 63.203 29.666C61.958 30.146 60.603 30.406 59.167 30.45L58.764 28.95C60.234 28.755 61.267 28.55 61.867 28.363C63.047 27.963 63.867 27.363 64.303 26.57C64.66 25.916 64.836 24.668 64.836 22.82V22.2C63.188 22.9356 61.4027 23.3132 59.598 23.308C58.398 23.308 57.34 22.94 56.428 22.2C55.404 21.395 54.893 20.373 54.893 19.136V9.22598L57.329 8.40998V18.388C57.329 19.454 57.681 20.275 58.385 20.85C59.089 21.425 60 21.702 61.117 21.68C62.234 21.658 63.431 21.234 64.702 20.408V8.77998H67.138V21.723L67.139 21.722ZM76.651 23.254L75.848 23.288C74.47 23.288 73.396 22.968 72.628 22.324C71.86 21.68 71.48 20.792 71.48 19.658V10.278H69.81V8.77998H71.48V4.79998L73.914 3.95298V8.77998H76.651V10.278H73.914V19.594C73.914 20.488 74.159 21.121 74.65 21.491C75.07 21.796 75.75 21.971 76.652 22.015V23.255L76.651 23.254ZM91.403 23.06H88.967V13.867C88.967 12.932 88.743 12.127 88.297 11.454C88.0693 11.0937 87.7516 10.7991 87.3753 10.5992C86.9989 10.3993 86.577 10.301 86.151 10.314C85.034 10.314 83.637 10.89 81.951 12.041V23.061H79.515V1.08398L81.951 0.333984V10.334C83.519 9.22398 85.219 8.66998 87.066 8.66998C88.366 8.66998 89.401 9.09499 90.201 9.94199C91.001 10.789 91.403 11.844 91.403 13.105V23.049V23.06ZM107.021 15.658C107.021 17.788 106.464 19.558 105.351 20.974C104.128 22.559 102.438 23.354 100.281 23.354C98.143 23.354 96.477 22.559 95.275 20.974C94.175 19.559 93.641 17.787 93.641 15.658C93.641 13.658 94.241 11.973 95.408 10.603C96.664 9.14998 98.3 8.41998 100.324 8.41998C102.348 8.41998 103.994 9.14998 105.264 10.603C106.442 11.973 107.031 13.657 107.031 15.658H107.021ZM104.363 15.642C104.363 14.146 104.063 12.912 103.493 11.934C102.805 10.734 101.737 10.114 100.291 10.05C97.621 10.2 96.287 12.072 96.287 15.658C96.287 17.302 96.565 18.676 97.124 19.778C97.838 21.183 98.91 21.876 100.339 21.852C103.021 21.832 104.361 19.752 104.361 15.652L104.363 15.642ZM121.001 23.06H118.565V13.346C118.565 12.28 118.237 11.449 117.582 10.85C116.927 10.251 116.052 9.96399 114.962 9.98699C113.805 10.007 112.704 10.387 111.659 11.095V23.06H109.223V10.8C110.625 9.80198 111.916 9.14998 113.093 8.84598C114.193 8.56198 115.185 8.42098 116.031 8.42098C116.609 8.42098 117.153 8.47499 117.665 8.58498C118.623 8.80098 119.401 9.20199 120 9.79099C120.322 10.0908 120.577 10.4545 120.75 10.8589C120.922 11.2633 121.008 11.6994 121.002 12.139V23.059L121.001 23.06Z" fill="#646464"/>
<mask id="mask0_130_1689" style="mask-type:alpha" maskUnits="userSpaceOnUse" x="0" y="1" width="24" height="23">
<path d="M15.52 1.17201C14.267 1.17801 13.07 1.27201 12.016 1.46401C8.913 2.00001 8.35 3.12201 8.35 5.19001V7.92201H15.683V8.83201H5.597C3.467 8.83201 1.6 10.084 1.017 12.466C0.678 13.84 0.502 14.952 0.5 16.083V16.121C0.502 17.226 0.67 18.351 1.016 19.751C1.536 21.873 2.782 23.385 4.913 23.385H7.433V20.11C7.433 17.744 9.527 15.657 12.013 15.657H19.337C21.377 15.657 23.003 14.017 23.003 12.014V5.19001C23.003 3.24801 21.327 1.78801 19.337 1.46401C18.1111 1.2682 16.8715 1.17056 15.63 1.17201H15.516H15.52ZM10.178 4.74001C10.178 3.98401 10.794 3.37001 11.554 3.37001C12.314 3.37001 12.93 3.98401 12.93 4.74001C12.9279 5.10301 12.7818 5.45033 12.5238 5.7057C12.2658 5.96107 11.917 6.10361 11.554 6.10201C10.794 6.10201 10.178 5.49201 10.178 4.74001Z" fill="white"/>
</mask>
<g mask="url(#mask0_130_1689)">
<path fill-rule="evenodd" clip-rule="evenodd" d="M15.52 1.17201C14.267 1.17801 13.07 1.27201 12.016 1.46401C8.913 2.00001 8.35 3.12201 8.35 5.19001V7.92201H15.683V8.83201H5.597C3.467 8.83201 1.6 10.084 1.017 12.466C0.678 13.84 0.502 14.952 0.5 16.083V16.121C0.502 17.226 0.67 18.351 1.016 19.751C1.536 21.873 2.782 23.385 4.913 23.385H7.433V20.11C7.433 17.744 9.527 15.657 12.013 15.657H19.337C21.377 15.657 23.003 14.017 23.003 12.014V5.19001C23.003 3.24801 21.327 1.78801 19.337 1.46401C18.1111 1.2682 16.8715 1.17056 15.63 1.17201H15.516H15.52ZM10.178 4.74001C10.178 3.98401 10.794 3.37001 11.554 3.37001C12.314 3.37001 12.93 3.98401 12.93 4.74001C12.9279 5.10301 12.7818 5.45033 12.5238 5.7057C12.2658 5.96107 11.917 6.10361 11.554 6.10201C10.794 6.10201 10.178 5.49201 10.178 4.74001Z" fill="url(#paint0_linear_130_1689)"/>
</g>
<mask id="mask1_130_1689" style="mask-type:alpha" maskUnits="userSpaceOnUse" x="8" y="8" width="23" height="24">
<path d="M23.921 8.83301V12.017C23.921 14.485 21.781 16.562 19.341 16.562H12.015C10.009 16.562 8.349 18.242 8.349 20.205V27.031C8.349 28.973 10.077 30.116 12.015 30.673C14.335 31.34 16.562 31.461 19.339 30.673C21.185 30.151 23.005 29.099 23.005 27.031V24.307H15.683V23.407H26.673C28.803 23.407 29.598 21.954 30.339 19.773C31.105 17.528 31.072 15.368 30.339 12.488C29.813 10.393 28.807 8.83301 26.673 8.83301H23.921ZM18.426 27.48C18.4281 27.117 18.5742 26.7697 18.8322 26.5143C19.0902 26.2589 19.439 26.1164 19.802 26.118C20.562 26.118 21.178 26.728 21.178 27.48C21.178 28.232 20.562 28.85 19.802 28.85C19.042 28.85 18.426 28.235 18.426 27.48Z" fill="white"/>
</mask>
<g mask="url(#mask1_130_1689)">
<path fill-rule="evenodd" clip-rule="evenodd" d="M23.921 8.83301V12.017C23.921 14.485 21.781 16.562 19.341 16.562H12.015C10.009 16.562 8.349 18.242 8.349 20.205V27.031C8.349 28.973 10.077 30.116 12.015 30.673C14.335 31.34 16.562 31.461 19.339 30.673C21.185 30.151 23.005 29.099 23.005 27.031V24.307H15.683V23.407H26.673C28.803 23.407 29.598 21.954 30.339 19.773C31.105 17.528 31.072 15.368 30.339 12.488C29.813 10.393 28.807 8.83301 26.673 8.83301H23.921ZM18.426 27.48C18.4281 27.117 18.5742 26.7697 18.8322 26.5143C19.0902 26.2589 19.439 26.1164 19.802 26.118C20.562 26.118 21.178 26.728 21.178 27.48C21.178 28.232 20.562 28.85 19.802 28.85C19.042 28.85 18.426 28.235 18.426 27.48Z" fill="url(#paint1_linear_130_1689)"/>
</g>
<mask id="mask2_130_1689" style="mask-type:alpha" maskUnits="userSpaceOnUse" x="124" y="3" width="7" height="4">
<path d="M124.732 3.724H130.35V6.654H124.732V3.724Z" fill="white"/>
</mask>
<g mask="url(#mask2_130_1689)">
<path fill-rule="evenodd" clip-rule="evenodd" d="M127.562 6.655H127.927V4.263L128.72 6.655H129.126L129.95 4.271V6.655H130.348V3.724H129.821L128.92 6.235L128.15 3.724H127.56V6.654L127.562 6.655ZM125.744 6.655H126.171V4.037H127.183V3.724H124.732V4.037H125.744V6.657V6.655Z" fill="#646464"/>
</g>
<defs>
<linearGradient id="paint0_linear_130_1689" x1="-0.245492" y1="2.28975" x2="16.3437" y2="16.3778" gradientUnits="userSpaceOnUse">
<stop stop-color="#599ED4"/>
<stop offset="1" stop-color="#2F6997"/>
</linearGradient>
<linearGradient id="paint1_linear_130_1689" x1="23.0096" y1="24.8182" x2="17.0787" y2="16.5357" gradientUnits="userSpaceOnUse">
<stop stop-color="#FFD43B"/>
<stop offset="1" stop-color="#FFE872"/>
</linearGradient>
</defs>
</svg>
