<svg width="34" height="29" viewBox="0 0 34 29" fill="none" xmlns="http://www.w3.org/2000/svg">
<g clip-path="url(#clip0_243_651)">
<path d="M31.8065 0H2.19355C1.74265 0.0158833 1.31641 0.209729 1.00809 0.539119C0.699766 0.868509 0.534477 1.30662 0.548389 1.75758V20.1806C0.535216 20.6311 0.700835 21.0685 1.00908 21.3973C1.31732 21.7261 1.74314 21.9196 2.19355 21.9355H14.2581V24.129H10.4194C10.2739 24.129 10.1344 24.1868 10.0316 24.2897C9.92875 24.3925 9.87097 24.532 9.87097 24.6774V27.4194H8.7742V28.5161H25.2258V27.4194H24.129V24.6774C24.129 24.532 24.0713 24.3925 23.9684 24.2897C23.8656 24.1868 23.7261 24.129 23.5806 24.129H19.7419V21.9355H31.8065C32.2569 21.9196 32.6827 21.7261 32.9909 21.3973C33.2992 21.0685 33.4648 20.6311 33.4516 20.1806V1.75758C33.4655 1.30662 33.3002 0.868509 32.9919 0.539119C32.6836 0.209729 32.2574 0.0158833 31.8065 0ZM2.19355 1.09677H31.8065C31.9661 1.1133 32.113 1.19174 32.2155 1.31528C32.318 1.43881 32.368 1.59759 32.3548 1.75758V17.5484H1.64516V1.75758C1.63197 1.59759 1.682 1.43881 1.78452 1.31528C1.88703 1.19174 2.03387 1.1133 2.19355 1.09677ZM23.0323 27.4194H10.9677V25.2258H23.0323V27.4194ZM18.6452 24.129H15.3548V21.9355H18.6452V24.129ZM31.8065 20.8387H2.19355C2.03439 20.8222 1.88798 20.7441 1.78554 20.6212C1.68309 20.4983 1.63272 20.3402 1.64516 20.1806V18.6452H32.3548V20.1806C32.3673 20.3402 32.3169 20.4983 32.2145 20.6212C32.112 20.7441 31.9656 20.8222 31.8065 20.8387Z" fill="#3146CC"/>
<path d="M29.6129 19.1936H30.7097V20.2903H29.6129V19.1936ZM18.0968 10.9678H19.4798C19.5378 11.1306 19.6041 11.2904 19.6783 11.4465L18.7 12.4248C18.5972 12.5277 18.5395 12.6671 18.5395 12.8125C18.5395 12.9579 18.5972 13.0974 18.7 13.2002L20.2514 14.7516C20.3542 14.8544 20.4937 14.9122 20.6391 14.9122C20.7845 14.9122 20.924 14.8544 21.0268 14.7516L22.0051 13.7738C22.1612 13.8481 22.321 13.9144 22.4839 13.9724V15.3548C22.4839 15.5003 22.5417 15.6398 22.6445 15.7426C22.7473 15.8455 22.8868 15.9032 23.0323 15.9032H25.2258C25.3713 15.9032 25.5107 15.8455 25.6136 15.7426C25.7164 15.6398 25.7742 15.5003 25.7742 15.3548V13.9718C25.9371 13.9138 26.0969 13.8476 26.253 13.7733L27.2313 14.7516C27.3341 14.8544 27.4736 14.9122 27.619 14.9122C27.7644 14.9122 27.9039 14.8544 28.0067 14.7516L29.5581 13.2002C29.6609 13.0974 29.7186 12.9579 29.7186 12.8125C29.7186 12.6671 29.6609 12.5277 29.5581 12.4248L28.5803 11.4465C28.6544 11.2904 28.7205 11.1306 28.7783 10.9678H30.1613C30.3067 10.9678 30.4462 10.91 30.5491 10.8071C30.6519 10.7043 30.7097 10.5648 30.7097 10.4194V8.22581C30.7097 8.08037 30.6519 7.94089 30.5491 7.83805C30.4462 7.7352 30.3067 7.67743 30.1613 7.67743H28.7783C28.7203 7.51457 28.654 7.35479 28.5798 7.19869L29.5581 6.22036C29.6609 6.11753 29.7186 5.97807 29.7186 5.83265C29.7186 5.68724 29.6609 5.54778 29.5581 5.44494L28.0067 3.89356C27.9039 3.79075 27.7644 3.733 27.619 3.733C27.4736 3.733 27.3341 3.79075 27.2313 3.89356L26.253 4.87133C26.0968 4.79724 25.9371 4.73117 25.7742 4.67336V3.29033C25.7742 3.14489 25.7164 3.0054 25.6136 2.90256C25.5107 2.79972 25.3713 2.74194 25.2258 2.74194H23.0323C22.8868 2.74194 22.7473 2.79972 22.6445 2.90256C22.5417 3.0054 22.4839 3.14489 22.4839 3.29033V4.67336C22.321 4.73135 22.1612 4.79761 22.0051 4.87188L21.0268 3.89356C20.924 3.79075 20.7845 3.733 20.6391 3.733C20.4937 3.733 20.3542 3.79075 20.2514 3.89356L18.7 5.44494C18.5972 5.54778 18.5395 5.68724 18.5395 5.83265C18.5395 5.97807 18.5972 6.11753 18.7 6.22036L19.6778 7.19869C19.6035 7.35479 19.5373 7.51457 19.4793 7.67743H18.0968C17.9513 7.67743 17.8119 7.7352 17.709 7.83805C17.6062 7.94089 17.5484 8.08037 17.5484 8.22581V10.4194C17.5484 10.5648 17.6062 10.7043 17.709 10.8071C17.8119 10.91 17.9513 10.9678 18.0968 10.9678ZM18.6452 8.7742H19.8856C20.0072 8.77417 20.1253 8.73376 20.2214 8.65931C20.3174 8.58486 20.3861 8.4806 20.4165 8.36291C20.506 8.01645 20.6435 7.6842 20.825 7.37581C20.8869 7.27105 20.9122 7.14867 20.8969 7.02794C20.8816 6.90721 20.8266 6.795 20.7406 6.70898L19.8631 5.83156L20.6386 5.05614L21.516 5.93356C21.602 6.01963 21.7142 6.07464 21.8349 6.08992C21.9557 6.10521 22.0781 6.07991 22.1828 6.01801C22.4912 5.83648 22.8235 5.69897 23.1699 5.60946C23.2876 5.57907 23.3919 5.51044 23.4663 5.41436C23.5408 5.31827 23.5812 5.20017 23.5812 5.07862V3.83872H24.678V5.07917C24.678 5.20072 24.7184 5.31882 24.7929 5.4149C24.8673 5.51099 24.9716 5.57962 25.0893 5.61001C25.4357 5.69952 25.768 5.83703 26.0764 6.01856C26.1811 6.08046 26.3035 6.10576 26.4242 6.09047C26.545 6.07518 26.6572 6.02017 26.7432 5.9341L27.6206 5.05669L28.396 5.8321L27.5186 6.70952C27.4326 6.79555 27.3775 6.90776 27.3623 7.02849C27.347 7.14921 27.3723 7.2716 27.4342 7.37636C27.6157 7.68474 27.7532 8.01699 27.8427 8.36346C27.8731 8.48115 27.9417 8.58541 28.0378 8.65986C28.1339 8.73431 28.252 8.77472 28.3736 8.77475H29.6129V9.87152H28.3725C28.2509 9.87155 28.1328 9.91197 28.0367 9.98641C27.9406 10.0609 27.872 10.1651 27.8416 10.2828C27.7521 10.6293 27.6146 10.9615 27.4331 11.2699C27.3712 11.3747 27.3459 11.4971 27.3612 11.6178C27.3765 11.7385 27.4315 11.8507 27.5175 11.9368L28.3949 12.8142L27.6195 13.5896L26.7421 12.7122C26.6561 12.6261 26.5439 12.5711 26.4231 12.5558C26.3024 12.5405 26.18 12.5658 26.0753 12.6277C25.7669 12.8092 25.4346 12.9468 25.0882 13.0363C24.9705 13.0667 24.8662 13.1353 24.7918 13.2314C24.7173 13.3275 24.6769 13.4456 24.6769 13.5671V14.8065H23.5807V13.566C23.5806 13.4445 23.5402 13.3264 23.4658 13.2303C23.3913 13.1342 23.2871 13.0656 23.1694 13.0352C22.8229 12.9457 22.4907 12.8081 22.1823 12.6266C22.0775 12.5647 21.9551 12.5394 21.8344 12.5547C21.7137 12.57 21.6015 12.625 21.5154 12.7111L20.638 13.5885L19.8626 12.8131L20.74 11.9357C20.8261 11.8496 20.8811 11.7374 20.8964 11.6167C20.9117 11.496 20.8864 11.3736 20.8245 11.2688C20.6429 10.9604 20.5054 10.6282 20.4159 10.2817C20.3855 10.164 20.3169 10.0598 20.2208 9.98532C20.1247 9.91087 20.0066 9.87046 19.8851 9.87043H18.6452V8.7742Z" fill="#3146CC"/>
<path d="M24.129 12.0645C24.6713 12.0645 25.2015 11.9037 25.6524 11.6024C26.1033 11.3011 26.4547 10.8729 26.6622 10.3718C26.8698 9.87083 26.9241 9.31951 26.8183 8.78763C26.7125 8.25575 26.4513 7.76718 26.0679 7.38371C25.6844 7.00025 25.1958 6.7391 24.664 6.63331C24.1321 6.52751 23.5808 6.58181 23.0797 6.78934C22.5787 6.99687 22.1505 7.34831 21.8492 7.79922C21.5479 8.25013 21.3871 8.78025 21.3871 9.32256C21.388 10.0495 21.6771 10.7464 22.1911 11.2604C22.7052 11.7745 23.4021 12.0636 24.129 12.0645ZM24.129 7.67739C24.4544 7.67739 24.7725 7.77388 25.043 7.95465C25.3136 8.13543 25.5244 8.39237 25.649 8.69298C25.7735 8.99359 25.8061 9.32438 25.7426 9.64351C25.6791 9.96264 25.5224 10.2558 25.2923 10.4859C25.0623 10.7159 24.7691 10.8726 24.45 10.9361C24.1309 10.9996 23.8001 10.967 23.4995 10.8425C23.1988 10.718 22.9419 10.5071 22.7611 10.2366C22.5804 9.96601 22.4839 9.64794 22.4839 9.32256C22.4839 8.88623 22.6572 8.46778 22.9657 8.15925C23.2743 7.85072 23.6927 7.67739 24.129 7.67739ZM4.54777 5.87156L5.32319 5.09614L4.61412 4.38707L5.32319 3.67801L4.54777 2.90259L3.451 3.99936C3.34819 4.1022 3.29044 4.24166 3.29044 4.38707C3.29044 4.53248 3.34819 4.67194 3.451 4.77478L4.54777 5.87156ZM6.14193 5.15481L7.78709 2.96126L8.66451 3.61933L7.01935 5.81288L6.14193 5.15481ZM10.2587 5.87156L11.3554 4.77478C11.4583 4.67194 11.516 4.53248 11.516 4.38707C11.516 4.24166 11.4583 4.1022 11.3554 3.99936L10.2587 2.90259L9.48325 3.67801L10.1923 4.38707L9.48325 5.09614L10.2587 5.87156ZM12.6129 4.93546H13.7097V6.03223H12.6129V4.93546ZM4.38709 7.12901H6.58064V8.22578H4.38709V7.12901ZM7.67742 7.12901H8.77419V8.22578H7.67742V7.12901ZM9.87096 7.12901H13.1613V8.22578H9.87096V7.12901ZM14.2581 7.12901H15.3548V8.22578H14.2581V7.12901ZM5.48387 9.32256H6.58064V10.4193H5.48387V9.32256ZM7.67742 9.32256H9.87096V10.4193H7.67742V9.32256ZM10.9677 9.32256H12.0645V10.4193H10.9677V9.32256ZM13.1613 9.32256H15.3548V10.4193H13.1613V9.32256ZM4.38709 12.6129H6.58064V13.7097H4.38709V12.6129ZM7.67742 12.6129H8.77419V13.7097H7.67742V12.6129ZM9.87096 12.6129H13.1613V13.7097H9.87096V12.6129ZM14.2581 12.6129H15.3548V13.7097H14.2581V12.6129ZM5.48387 14.8064H6.58064V15.9032H5.48387V14.8064ZM7.67742 14.8064H9.87096V15.9032H7.67742V14.8064ZM10.9677 14.8064H12.0645V15.9032H10.9677V14.8064ZM13.1613 14.8064H15.3548V15.9032H13.1613V14.8064Z" fill="#3146CC"/>
</g>
<defs>
<clipPath id="clip0_243_651">
<rect width="34" height="28.5161" fill="white"/>
</clipPath>
</defs>
</svg>
