<svg width="487" height="423" viewBox="0 0 487 423" fill="none" xmlns="http://www.w3.org/2000/svg">
<g clip-path="url(#clip0_254_1144)">
<path opacity="0.37" d="M389.078 68.3248C388.15 65.991 387.123 63.6573 385.999 61.4228C369.283 28.1045 335.363 7.1006 299.195 3.32684C270.26 0.347565 242.107 9.93089 217.913 25.5721C193.768 41.1637 149.062 -9.3517 122.228 2.06887C84.398 18.1073 67.569 103.232 37.901 137.196C4.17627 175.777 -8.82487 234.271 7.05997 283.627C22.5049 331.792 73.7764 347.384 113.611 368.586C185.215 406.771 284.385 432.144 358.922 387.306C448.219 333.63 431.992 211.777 403.692 127.215C397.241 107.949 396.459 87.1935 389.078 68.3248Z" fill="#CCE9FF"/>
<path d="M73.6967 379.854H269.784C269.784 379.854 263.701 423.799 167.83 420.175C71.9589 416.551 73.6967 379.854 73.6967 379.854Z" fill="#2A94F4" stroke="#1A1A1A" stroke-width="3.91024" stroke-linecap="round" stroke-linejoin="round"/>
<path d="M166.563 379.261C164.745 374.663 152.313 341.619 172.598 313.993C193.912 284.967 242.859 273.474 287.587 291.859C289.642 289.045 310.241 261.688 340.634 261.779C373.345 261.877 407.501 293.738 406.705 338.397C403.952 351.735 401.738 366.699 398.985 380.037C321.691 380.32 243.857 378.977 166.563 379.261Z" fill="#2A94F4" stroke="#1A1A1A" stroke-width="5.86537" stroke-linecap="round" stroke-linejoin="round"/>
<path d="M73.3391 380.037H376.424C390.606 361.595 386.149 334.724 367.256 321.976C348.475 309.303 322.068 315.065 310.167 334.893C299.005 316.494 278.825 305.877 258.496 307.808C233.899 310.143 213.174 330.46 209.741 356.979C205.876 353.788 174.16 328.508 131.817 337.81C94.5541 345.997 76.4062 374.958 73.3391 380.037Z" fill="#2A94F4" stroke="#1A1A1A" stroke-width="3.91024" stroke-linecap="round" stroke-linejoin="round"/>
<path d="M188.11 59.0222V189.902C188.11 193.493 189.536 196.937 192.075 199.476C194.615 202.015 198.058 203.442 201.649 203.442H383.678C387.269 203.442 390.712 202.015 393.252 199.476C395.791 196.937 397.217 193.493 397.217 189.902V59.0222H188.11Z" fill="white" stroke="#1A1A1A" stroke-width="3.91024" stroke-linecap="round" stroke-linejoin="round"/>
<path d="M224.591 59.0222V203.442" stroke="#1A1A1A" stroke-width="3.91024" stroke-linecap="round" stroke-linejoin="round"/>
<path d="M359.984 59.0222V203.442" stroke="#1A1A1A" stroke-width="3.91024" stroke-linecap="round" stroke-linejoin="round"/>
<path d="M397.217 54.8853C397.217 51.2944 395.791 47.8506 393.252 45.3115C390.712 42.7724 387.269 41.3459 383.678 41.3459H201.649C198.058 41.3459 194.615 42.7724 192.075 45.3115C189.536 47.8506 188.11 51.2944 188.11 54.8853V59.0223H397.217V54.8853Z" fill="#1C0311" stroke="#1A1A1A" stroke-width="1.95512" stroke-linecap="round" stroke-linejoin="round"/>
<path d="M215.314 56.2016C218.637 56.2016 221.331 53.5075 221.331 50.1841C221.331 46.8607 218.637 44.1666 215.314 44.1666C211.991 44.1666 209.296 46.8607 209.296 50.1841C209.296 53.5075 211.991 56.2016 215.314 56.2016Z" fill="white" stroke="#1A1A1A" stroke-width="3.91024" stroke-linecap="round" stroke-linejoin="round"/>
<path d="M270.098 46.7992H233.241V53.5689H270.098V46.7992Z" fill="white" stroke="#1A1A1A" stroke-width="3.91024" stroke-linecap="round" stroke-linejoin="round"/>
<path d="M216.943 66.9202H196.258V72.3108H216.943V66.9202Z" fill="white" stroke="#1A1A1A" stroke-width="3.91024" stroke-linecap="round" stroke-linejoin="round"/>
<path d="M216.943 81.0864H196.258V86.4771H216.943V81.0864Z" fill="white" stroke="#1A1A1A" stroke-width="3.91024" stroke-linecap="round" stroke-linejoin="round"/>
<path d="M216.943 95.2526H196.258V100.643H216.943V95.2526Z" fill="white" stroke="#1A1A1A" stroke-width="3.91024" stroke-linecap="round" stroke-linejoin="round"/>
<path d="M216.943 109.419H196.258V114.809H216.943V109.419Z" fill="#1C0311" stroke="#1A1A1A" stroke-width="1.95512" stroke-linecap="round" stroke-linejoin="round"/>
<path d="M346.445 100.241V102.148H344.538" stroke="#1A1A1A" stroke-width="3.91024" stroke-linecap="round" stroke-linejoin="round"/>
<path d="M340.77 102.148H244.679" stroke="#1A1A1A" stroke-width="3.91024" stroke-linecap="round" stroke-linejoin="round" stroke-dasharray="23.19 23.19"/>
<path d="M242.795 102.148H240.888V100.241" stroke="#1A1A1A" stroke-width="3.91024" stroke-linecap="round" stroke-linejoin="round"/>
<path d="M240.888 96.1382V73.5734" stroke="#1A1A1A" stroke-width="3.91024" stroke-linecap="round" stroke-linejoin="round" stroke-dasharray="25.24 25.24"/>
<path d="M240.888 71.5219V69.6155H242.795" stroke="#1A1A1A" stroke-width="3.91024" stroke-linecap="round" stroke-linejoin="round"/>
<path d="M246.563 69.6155H342.654" stroke="#1A1A1A" stroke-width="3.91024" stroke-linecap="round" stroke-linejoin="round" stroke-dasharray="23.19 23.19"/>
<path d="M344.538 69.6155H346.445V71.5219" stroke="#1A1A1A" stroke-width="3.91024" stroke-linecap="round" stroke-linejoin="round"/>
<path d="M346.445 75.6248V98.1896" stroke="#1A1A1A" stroke-width="3.91024" stroke-linecap="round" stroke-linejoin="round" stroke-dasharray="25.24 25.24"/>
<path d="M346.445 143.366V145.273H344.538" stroke="#1A1A1A" stroke-width="3.91024" stroke-linecap="round" stroke-linejoin="round"/>
<path d="M340.77 145.273H244.679" stroke="#1A1A1A" stroke-width="3.91024" stroke-linecap="round" stroke-linejoin="round" stroke-dasharray="23.19 23.19"/>
<path d="M242.795 145.273H240.888V143.366" stroke="#1A1A1A" stroke-width="3.91024" stroke-linecap="round" stroke-linejoin="round"/>
<path d="M240.888 139.264V116.699" stroke="#1A1A1A" stroke-width="3.91024" stroke-linecap="round" stroke-linejoin="round" stroke-dasharray="25.24 25.24"/>
<path d="M240.888 114.647V112.741H242.795" stroke="#1A1A1A" stroke-width="3.91024" stroke-linecap="round" stroke-linejoin="round"/>
<path d="M246.563 112.741H342.654" stroke="#1A1A1A" stroke-width="3.91024" stroke-linecap="round" stroke-linejoin="round" stroke-dasharray="23.19 23.19"/>
<path d="M344.538 112.741H346.445V114.647" stroke="#1A1A1A" stroke-width="3.91024" stroke-linecap="round" stroke-linejoin="round"/>
<path d="M346.445 118.75V141.315" stroke="#1A1A1A" stroke-width="3.91024" stroke-linecap="round" stroke-linejoin="round" stroke-dasharray="25.24 25.24"/>
<path d="M346.445 185.355V187.261H344.538" stroke="#1A1A1A" stroke-width="3.91024" stroke-linecap="round" stroke-linejoin="round"/>
<path d="M340.77 187.261H244.679" stroke="#1A1A1A" stroke-width="3.91024" stroke-linecap="round" stroke-linejoin="round" stroke-dasharray="23.19 23.19"/>
<path d="M242.795 187.261H240.888V185.355" stroke="#1A1A1A" stroke-width="3.91024" stroke-linecap="round" stroke-linejoin="round"/>
<path d="M240.888 181.252V158.687" stroke="#1A1A1A" stroke-width="3.91024" stroke-linecap="round" stroke-linejoin="round" stroke-dasharray="25.24 25.24"/>
<path d="M240.888 156.636V154.729H242.795" stroke="#1A1A1A" stroke-width="3.91024" stroke-linecap="round" stroke-linejoin="round"/>
<path d="M246.563 154.729H342.654" stroke="#1A1A1A" stroke-width="3.91024" stroke-linecap="round" stroke-linejoin="round" stroke-dasharray="23.19 23.19"/>
<path d="M344.538 154.729H346.445V156.636" stroke="#1A1A1A" stroke-width="3.91024" stroke-linecap="round" stroke-linejoin="round"/>
<path d="M346.445 160.738V183.303" stroke="#1A1A1A" stroke-width="3.91024" stroke-linecap="round" stroke-linejoin="round" stroke-dasharray="25.24 25.24"/>
<path d="M301.634 166.492L308.703 152.328L294.869 129.319L279.044 128.919L289.489 146.291C290.136 147.362 290.559 148.554 290.732 149.794C291.161 152.915 289.9 156.004 287.247 157.599C284.591 159.196 281.273 158.859 278.718 157.017C277.704 156.283 276.85 155.35 276.207 154.276L265.763 136.904L258.692 151.069L272.526 174.079L288.353 174.477L293.017 182.209L306.476 174.518L301.634 166.492Z" fill="#00D6C4" stroke="#1A1A1A" stroke-width="3.91024" stroke-linecap="round" stroke-linejoin="round"/>
<path d="M306.476 174.518L293.018 182.208L343.595 266.038L357.071 258.375L306.476 174.518Z" fill="#00D6C4" stroke="#1A1A1A" stroke-width="3.91024" stroke-linecap="round" stroke-linejoin="round"/>
<path d="M357.071 258.375L343.595 266.038L348.171 273.621C350.6 277.661 355.541 279.15 359.21 276.944C362.877 274.74 363.881 269.676 361.452 265.636L357.071 258.375Z" fill="#1C0311" stroke="#1A1A1A" stroke-width="1.95512" stroke-linecap="round" stroke-linejoin="round"/>
<path d="M419.235 145.821H459.72L439.477 110.759L419.235 145.821Z" fill="#F47458" stroke="#1A1A1A" stroke-width="3.91024" stroke-linecap="round" stroke-linejoin="round"/>
<path d="M437.765 139.375C437.765 138.33 438.49 137.575 439.477 137.575C440.522 137.575 441.19 138.33 441.19 139.375C441.19 140.391 440.522 141.175 439.477 141.175C438.461 141.175 437.765 140.391 437.765 139.375ZM438.49 135.224L438.084 121.289H440.871L440.464 135.224H438.49Z" fill="black"/>
<path d="M14.1982 380.037H483.252" stroke="#1A1A1A" stroke-width="5.86537" stroke-linecap="round" stroke-linejoin="round"/>
<path d="M158.641 271.3C158.641 271.3 165.077 293.434 166.49 300.184C167.902 306.934 170.179 334.915 170.179 339.624C170.179 344.333 174.497 377.092 175.085 381.919C175.674 386.746 187.212 387.099 194.158 388.041C201.104 388.983 212.524 390.513 208.992 383.449C205.46 376.385 194.04 370.205 192.804 369.734C191.568 369.263 191.528 369.125 191.058 364.259C190.587 359.393 192.391 296.73 195.059 263.922C197.728 231.114 191.135 210.394 191.135 210.394L167.278 213.062L160.631 213.847" fill="#0E538C"/>
<path d="M158.641 271.3C158.641 271.3 165.077 293.434 166.49 300.184C167.902 306.934 170.179 334.915 170.179 339.624C170.179 344.333 174.497 377.092 175.085 381.919C175.674 386.746 187.212 387.099 194.158 388.041C201.104 388.983 212.524 390.513 208.992 383.449C205.46 376.385 194.04 370.205 192.804 369.734C191.568 369.263 191.528 369.125 191.058 364.259C190.587 359.393 192.391 296.73 195.059 263.922C197.728 231.114 191.135 210.394 191.135 210.394L167.278 213.062L160.631 213.847" stroke="#1A1A1A" stroke-width="3.91024" stroke-linecap="round" stroke-linejoin="round"/>
<path d="M166.961 233.469C166.961 233.469 168.373 253.248 165.234 263.608C163.886 268.057 149.459 324.073 147.104 340.87C144.75 357.666 141.924 374.306 143.18 378.701C144.436 383.096 145.69 389.283 148.516 394.57C151.342 399.857 150.949 400.3 146.397 400.927C141.845 401.555 127.796 399.422 125.599 392.986C123.401 386.55 127.169 373.835 126.384 365.672C118.692 321.876 126.304 307.091 128.188 297.201C130.071 287.312 119.083 264.079 117.984 247.283C116.885 230.487 125.676 213.062 125.676 213.062L166.019 220.597" fill="#0E538C"/>
<path d="M166.961 233.469C166.961 233.469 168.373 253.248 165.234 263.608C163.886 268.057 149.459 324.073 147.104 340.87C144.75 357.666 141.924 374.306 143.18 378.701C144.436 383.096 145.69 389.283 148.516 394.57C151.342 399.857 150.949 400.3 146.397 400.927C141.845 401.555 127.796 399.422 125.599 392.986C123.401 386.55 127.169 373.835 126.384 365.672C118.692 321.876 126.304 307.091 128.188 297.201C130.071 287.312 119.083 264.079 117.984 247.283C116.885 230.487 125.676 213.062 125.676 213.062L166.019 220.597" stroke="#1A1A1A" stroke-width="3.91024" stroke-linecap="round" stroke-linejoin="round"/>
<path d="M133 244C133 244 140.522 242.716 144 234Z" fill="white"/>
<path d="M133 244C133 244 140.522 242.716 144 234" stroke="#1A1A1A" stroke-width="3.91024" stroke-linecap="round" stroke-linejoin="round"/>
<path d="M124.97 216.089C124.97 216.089 136.35 224.722 155.737 225.036C175.123 225.35 187.76 220.17 190.899 215.461L192.152 214.266L190.978 211.85L124.97 212.714V216.089Z" fill="#1C0311" stroke="#1A1A1A" stroke-width="1.95512" stroke-linecap="round" stroke-linejoin="round"/>
<path d="M194.157 388.039C187.21 387.098 175.673 386.744 175.085 381.919C174.649 378.345 172.168 359.455 170.913 347.98C172.525 349.14 175.402 350.702 179.128 350.603C184.628 350.454 189.562 349.519 191.243 345.295C190.986 355.504 190.91 362.731 191.058 364.257C191.528 369.126 191.567 369.262 192.802 369.734C194.041 370.203 205.46 376.386 208.991 383.448C212.525 390.513 201.103 388.984 194.157 388.039Z" fill="#1C0311" stroke="#1A1A1A" stroke-width="1.95512" stroke-linecap="round" stroke-linejoin="round"/>
<path d="M151.343 408.525C146.791 409.156 127.796 399.422 125.599 392.987C123.403 386.55 127.168 373.833 126.385 365.671C125.893 362.867 125.463 360.178 125.094 357.605C126.468 358.603 128.872 359.795 132.466 359.726C137.804 359.623 142.762 358.841 144.843 356.578C143.356 367.075 142.326 375.716 143.181 378.702C144.436 383.095 152.048 390.567 154.326 400.472C155.668 406.312 155.895 407.897 151.343 408.525Z" fill="#1C0311" stroke="#1A1A1A" stroke-width="1.95512" stroke-linecap="round" stroke-linejoin="round"/>
<path d="M239.954 125.529C239.954 125.529 242.662 114.246 247.685 112.127C252.708 110.008 253.532 113.069 251.688 113.815C250.607 114.239 249.649 114.927 248.902 115.816C248.902 115.816 253.572 118.445 251.649 122.88C249.726 127.314 246.508 127.118 244.585 126.647C243.918 129.237 243.918 129.708 243.918 129.708L239.954 125.529Z" fill="#FAE0B2" stroke="#1A1A1A" stroke-width="3.91024" stroke-linecap="round" stroke-linejoin="round"/>
<path d="M180.556 123.645C180.556 123.645 190.551 130.867 200.906 139.833C208.58 146.478 219.39 153.608 228.102 139.833C236.815 126.059 238.698 124.41 238.698 124.41C238.698 124.41 244.82 126.647 244.938 129.473C243.761 138.42 237.521 173.858 219.39 174.917C201.26 175.977 189.486 162.438 188.898 161.731C188.309 161.025 179.479 124.999 179.479 124.999" fill="#2A94F4"/>
<path d="M180.556 123.645C180.556 123.645 190.551 130.867 200.906 139.833C208.58 146.478 219.39 153.608 228.102 139.833C236.815 126.059 238.698 124.41 238.698 124.41C238.698 124.41 244.82 126.647 244.938 129.473C243.761 138.42 237.521 173.858 219.39 174.917C201.26 175.977 189.486 162.438 188.898 161.731C188.309 161.025 179.479 124.999 179.479 124.999" stroke="#1A1A1A" stroke-width="3.91024" stroke-linecap="round" stroke-linejoin="round"/>
<path d="M186.971 129.188C177.947 119.092 166.333 118.023 160.211 118.406C152.676 118.877 139.848 122.746 136.507 127.118C133.167 131.49 126.265 200.109 126.265 200.109L124.263 214.122C124.263 214.122 146.044 226.248 172.062 221.657C188.309 218.478 193.607 211.402 193.607 211.402C193.607 211.402 197.169 168.17 192.464 145.544" fill="#2A94F4"/>
<path d="M186.971 129.188C177.947 119.092 166.333 118.023 160.211 118.406C152.676 118.877 139.848 122.746 136.507 127.118C133.167 131.49 126.265 200.109 126.265 200.109L124.263 214.122C124.263 214.122 146.044 226.248 172.062 221.657C188.309 218.478 193.607 211.402 193.607 211.402C193.607 211.402 197.169 168.17 192.464 145.544" stroke="#1A1A1A" stroke-width="3.91024" stroke-linecap="round" stroke-linejoin="round"/>
<path d="M132.089 149.601C129.256 170.755 126.265 200.109 126.265 200.109L124.263 214.122C124.263 214.122 146.044 226.248 172.062 221.657C188.309 218.478 193.607 211.402 193.607 211.402C193.607 211.402 197.841 172.785 193.136 150.159" fill="#54CAFA"/>
<path d="M132.089 149.601C129.256 170.755 126.265 200.109 126.265 200.109L124.263 214.122C124.263 214.122 146.044 226.248 172.062 221.657C188.309 218.478 193.607 211.402 193.607 211.402C193.607 211.402 197.841 172.785 193.136 150.159" stroke="#1A1A1A" stroke-width="3.91024" stroke-linecap="round" stroke-linejoin="round"/>
<path d="M166.097 113.461C184.463 120.761 179.519 93.8393 179.519 93.8393C176.379 89.2085 162.016 88.5806 159.504 97.3713C157.803 103.935 160.839 111.578 160.839 111.578L156.208 121.467C156.208 121.467 157.817 125.529 162.938 125.529C168.059 125.529 170.414 123.056 170.414 123.056L170.781 114.672" fill="#FAE0B2"/>
<path d="M166.097 113.461C184.463 120.761 179.519 93.8393 179.519 93.8393C176.379 89.2085 162.016 88.5806 159.504 97.3713C157.803 103.935 160.839 111.578 160.839 111.578L156.208 121.467C156.208 121.467 157.817 125.529 162.938 125.529C168.059 125.529 170.414 123.056 170.414 123.056L170.781 114.672" stroke="#1A1A1A" stroke-width="3.91024" stroke-linecap="round" stroke-linejoin="round"/>
<path d="M192.783 164.086L215.623 160.436L212.209 197.286L191.37 199.288L192.783 164.086Z" fill="white" stroke="#1A1A1A" stroke-width="3.91024" stroke-linecap="round" stroke-linejoin="round"/>
<path d="M186.072 185.356C186.072 185.356 189.26 181.765 191.704 182.177C193.117 182.354 191.866 183.629 192.661 183.437C194.949 182.885 197.293 182.473 198.709 182.648C202.201 183.08 202.555 185.827 199.847 188.417C197.139 191.007 189.016 191.439 187.407 191.439C185.798 191.439 186.072 185.356 186.072 185.356Z" fill="#FAE0B2" stroke="#1A1A1A" stroke-width="3.91024" stroke-linecap="round" stroke-linejoin="round"/>
<path d="M136.507 127.118C136.507 127.118 102.13 168.324 119.554 195.638C136.96 222.922 188.309 193.754 188.309 193.754L186.897 184.022C186.897 184.022 147.851 197.429 143.493 174.682C141.766 165.669 149.85 151.449 149.85 151.449C149.85 151.449 151.342 144.484 148.398 138.891C145.455 133.299 139.215 126.942 136.507 127.118Z" fill="#2A94F4" stroke="#1A1A1A" stroke-width="3.91024" stroke-linecap="round" stroke-linejoin="round"/>
<path d="M158.229 110.106C158.229 110.106 152.401 111.283 152.754 104.985C153.107 98.6859 151.224 88.8553 161.643 88.8553C161.643 88.8553 163.527 82.9687 169.06 83.0865C174.593 83.2042 177.36 87.9135 181.245 87.0305C185.13 86.1475 186.013 85.2056 186.013 85.2056C186.013 85.2056 188.133 87.3837 186.013 91.0333C183.894 94.683 179.42 98.7448 172.827 96.9788C171.415 99.0391 167.795 97.8454 166.176 94.8008C166.47 99.2746 164.233 100.57 164.233 100.57C164.233 100.57 161.194 94.397 159.398 99.0943C157.934 102.924 161.878 103.219 161.878 103.219C161.878 103.219 159.995 108.809 159.995 110.193C158.759 110.282 158.229 110.106 158.229 110.106Z" fill="#1C0311" stroke="#1A1A1A" stroke-width="1.95512" stroke-linecap="round" stroke-linejoin="round"/>
<path d="M193.136 150.159C189.054 147.747 184.66 147.957 184.66 147.957C184.66 147.957 185.366 140.363 186.367 136.183C187.367 132.004 189.369 128.379 189.369 128.379C189.369 128.379 185.621 124.807 182.599 123.081C178.067 126.848 175.359 145.955 175.359 145.955C175.359 145.955 163.115 145.602 158.288 145.955C157.581 138.774 154.446 135.207 152.739 131.675C151.032 128.143 145.043 121.602 143.22 121.424C141.396 121.246 136.802 124.057 135.507 125.529C134.212 127 136.507 127.118 136.507 127.118C136.507 127.118 151.467 132.97 149.85 151.449" fill="#54CAFA"/>
<path d="M193.136 150.159C189.054 147.747 184.66 147.957 184.66 147.957C184.66 147.957 185.366 140.363 186.367 136.183C187.367 132.004 189.369 128.379 189.369 128.379C189.369 128.379 185.621 124.807 182.599 123.081C178.067 126.848 175.359 145.955 175.359 145.955C175.359 145.955 163.115 145.602 158.288 145.955C157.581 138.774 154.446 135.207 152.739 131.675C151.032 128.143 145.043 121.602 143.22 121.424C141.396 121.246 136.802 124.057 135.507 125.529C134.212 127 136.507 127.118 136.507 127.118C136.507 127.118 151.467 132.97 149.85 151.449" stroke="#1A1A1A" stroke-width="3.91024" stroke-linecap="round" stroke-linejoin="round"/>
<path d="M166.232 113.62L170.75 116.316V114.968L166.232 113.62Z" fill="#1C0311" stroke="#1A1A1A" stroke-width="1.95512" stroke-linecap="round" stroke-linejoin="round"/>
<path d="M443 219.56C443 219.56 441.267 220.773 441.276 220.914L438.5 222.5H437.5C437.5 222.5 437.411 221.849 437.5 220.5C437.589 219.151 439 216.5 439 216.5C439.855 215.453 442 213.5 442 213.5C443.304 213.143 444.731 212.033 446 212.5C447.269 212.966 445.237 211.884 446 213V213.5C446 213.5 444.938 216.934 444 218L443 219.56Z" fill="#A1CD96"/>
<path d="M435.962 223.022C435.962 223.33 435.975 223.632 435.994 223.934C433.178 224.564 430.235 224.301 427.575 223.181C424.916 222.061 422.672 220.139 421.156 217.683C419.64 215.227 418.927 212.36 419.118 209.48C419.308 206.601 420.391 203.852 422.217 201.617C424.043 199.382 426.521 197.772 429.305 197.012C432.089 196.251 435.04 196.377 437.749 197.373C440.458 198.369 442.788 200.185 444.417 202.568C446.045 204.95 446.889 207.782 446.833 210.667C443.828 211.052 441.067 212.519 439.066 214.793C437.066 217.067 435.962 219.993 435.962 223.022Z" fill="#A1CD96" stroke="#1A1A1A" stroke-width="3.91024" stroke-linecap="round" stroke-linejoin="round"/>
<path d="M460.875 223.022C460.875 226.246 459.624 229.345 457.386 231.667C455.148 233.988 452.097 235.351 448.874 235.47C445.652 235.588 442.509 234.452 440.107 232.3C437.705 230.149 436.23 227.15 435.994 223.934C439.025 223.254 441.739 221.577 443.704 219.172C445.669 216.767 446.771 213.772 446.833 210.667C448.588 210.441 450.372 210.592 452.064 211.11C453.756 211.628 455.319 212.5 456.648 213.669C457.976 214.838 459.04 216.277 459.769 217.89C460.498 219.502 460.875 221.252 460.875 223.022Z" fill="#1C0311" stroke="#1A1A1A" stroke-width="1.95512" stroke-linecap="round" stroke-linejoin="round"/>
<path d="M276.417 306.692H258.478L255.509 318.04H279.385L276.417 306.692Z" fill="#FFBE55" stroke="#1A1A1A" stroke-width="3.91024" stroke-linecap="round" stroke-linejoin="round"/>
<path d="M279.385 318.266H255.509L252.046 331.504H282.848L279.385 318.266Z" fill="#1C0311" stroke="#1A1A1A" stroke-width="1.95512" stroke-linecap="round" stroke-linejoin="round"/>
<path d="M282.848 331.504H252.046L248.831 343.798H286.064L282.848 331.504Z" fill="#FFBE55" stroke="#1A1A1A" stroke-width="3.91024" stroke-linecap="round" stroke-linejoin="round"/>
<path d="M286.064 343.798H248.831L245.368 357.037H289.527L286.064 343.798Z" fill="#1C0311" stroke="#1A1A1A" stroke-width="1.95512" stroke-linecap="round" stroke-linejoin="round"/>
<path d="M245.368 357.037L241.158 373.132H293.737L289.527 357.037H245.368Z" fill="#FFBE55" stroke="#1A1A1A" stroke-width="3.91024" stroke-linecap="round" stroke-linejoin="round"/>
<path d="M272.835 293.226H262.059L258.478 306.918H276.417L272.835 293.226Z" fill="#1C0311" stroke="#1A1A1A" stroke-width="1.95512" stroke-linecap="round" stroke-linejoin="round"/>
<path d="M303.125 371.951H231.091V379.2H303.125V371.951Z" fill="#1C0311" stroke="#1A1A1A" stroke-width="1.95512" stroke-linecap="round" stroke-linejoin="round"/>
<path d="M128.949 99.2699L130.463 104.489C130.946 106.155 128.931 107.402 127.656 106.225L120.119 99.2699H88.2543C86.6859 99.2699 85.1329 98.961 83.6839 98.3608C82.2349 97.7606 80.9183 96.8809 79.8093 95.7719C78.7003 94.6629 77.8206 93.3463 77.2204 91.8973C76.6202 90.4483 76.3113 88.8953 76.3113 87.3269V78.209C76.3113 75.0416 77.5696 72.0038 79.8093 69.764C82.0491 67.5243 85.0868 66.266 88.2543 66.266H128.949C132.117 66.266 135.154 67.5243 137.394 69.764C139.634 72.0038 140.892 75.0416 140.892 78.209V87.3269C140.892 88.8953 140.583 90.4483 139.983 91.8973C139.383 93.3463 138.503 94.6629 137.394 95.7719C136.285 96.8809 134.969 97.7606 133.52 98.3608C132.071 98.961 130.518 99.2699 128.949 99.2699Z" fill="#00D6C4" stroke="#1A1A1A" stroke-width="3.91024" stroke-linecap="round" stroke-linejoin="round"/>
<path d="M130.178 73.4442H87.2896V75.5584H130.178V73.4442Z" fill="white" stroke="#1A1A1A" stroke-width="3.91024" stroke-linecap="round" stroke-linejoin="round"/>
<path d="M130.178 82.0277H87.2896V84.1419H130.178V82.0277Z" fill="white" stroke="#1A1A1A" stroke-width="3.91024" stroke-linecap="round" stroke-linejoin="round"/>
<path d="M130.178 90.611H87.2896V92.7252H130.178V90.611Z" fill="white" stroke="#1A1A1A" stroke-width="3.91024" stroke-linecap="round" stroke-linejoin="round"/>
<path d="M82.795 225.687L80.5472 228.895C77.8363 226.996 74.5936 226.004 71.2842 226.062C67.9748 226.119 64.7686 227.223 62.1253 229.215L59.7693 226.086C63.0729 223.595 67.0806 222.215 71.2173 222.143C75.3541 222.072 79.4072 223.312 82.795 225.687Z" fill="#00D6C4" stroke="#1A1A1A" stroke-width="2.91" stroke-linecap="round" stroke-linejoin="round"/>
<path d="M88.6295 217.194L85.2426 222.028C81.1579 219.166 76.2719 217.672 71.2854 217.758C66.2988 217.845 61.4678 219.509 57.4851 222.51L53.9351 217.795C58.9128 214.042 64.9515 211.962 71.1846 211.855C77.4177 211.747 83.5248 213.616 88.6295 217.194Z" fill="#00D6C4" stroke="#1A1A1A" stroke-width="3.91024" stroke-linecap="round" stroke-linejoin="round"/>
<path d="M78.2985 232.105L76.0485 235.316C74.6937 234.365 73.0725 233.869 71.4177 233.897C69.763 233.926 68.16 234.478 66.8387 235.475L64.4827 232.344C66.465 230.85 68.8696 230.022 71.3516 229.979C73.8337 229.936 76.2656 230.68 78.2985 232.105Z" fill="#00D6C4" stroke="#1A1A1A" stroke-width="2.91" stroke-linecap="round" stroke-linejoin="round"/>
<path d="M75.2972 242.88C75.1163 243.471 74.798 244.011 74.3685 244.456C73.9389 244.9 73.4102 245.237 72.8256 245.438C72.241 245.639 71.6171 245.699 71.0049 245.613C70.3928 245.526 69.8097 245.296 69.3034 244.942C68.7971 244.587 68.3819 244.117 68.0918 243.572C67.8017 243.026 67.645 242.419 67.6344 241.801C67.6237 241.183 67.7596 240.571 68.0307 240.015C68.3019 239.46 68.7007 238.976 69.1945 238.604H69.1956C69.8564 238.106 70.6578 237.831 71.4849 237.816C72.3121 237.802 73.1225 238.05 73.8 238.525C74.4775 239 74.9872 239.677 75.2562 240.459C75.5252 241.241 75.5395 242.089 75.2972 242.88Z" fill="#00D6C4" stroke="#1A1A1A" stroke-width="3.91024" stroke-linecap="round" stroke-linejoin="round"/>
<path d="M341.038 309.801L325.16 379.628H335.923L351.683 309.801H341.038Z" fill="#FFBE55" stroke="#1A1A1A" stroke-width="3.91024" stroke-linecap="round" stroke-linejoin="round"/>
<path d="M418.178 309.801L402.299 379.628H413.063L428.823 309.801H418.178Z" fill="#FFBE55" stroke="#1A1A1A" stroke-width="3.91024" stroke-linecap="round" stroke-linejoin="round"/>
<path d="M440.573 309.801L456.452 379.628H445.688L429.928 309.801H440.573Z" fill="#FFBE55" stroke="#1A1A1A" stroke-width="3.91024" stroke-linecap="round" stroke-linejoin="round"/>
<path d="M363.434 309.801L379.313 379.628H368.549L352.789 309.801H363.434Z" fill="#FFBE55" stroke="#1A1A1A" stroke-width="3.91024" stroke-linecap="round" stroke-linejoin="round"/>
<path d="M322.376 293.226V310.808L339.958 293.226H322.376Z" fill="#1C0311" stroke="#1A1A1A" stroke-width="1.95512" stroke-linecap="round" stroke-linejoin="round"/>
<path d="M339.957 293L322.376 310.582V312.907H335.165L355.072 293H339.957Z" fill="#FFBE55" stroke="#1A1A1A" stroke-width="3.91024" stroke-linecap="round" stroke-linejoin="round"/>
<path d="M355.072 293.226L335.165 313.133H359.312L379.219 293.226H355.072Z" fill="#1C0311" stroke="#1A1A1A" stroke-width="1.95512" stroke-linecap="round" stroke-linejoin="round"/>
<path d="M379.219 293L359.312 312.907H376.085L395.992 293H379.219Z" fill="#FFBE55" stroke="#1A1A1A" stroke-width="3.91024" stroke-linecap="round" stroke-linejoin="round"/>
<path d="M416.452 293L396.545 312.907H412.028L431.935 293H416.452Z" fill="#FFBE55" stroke="#1A1A1A" stroke-width="3.91024" stroke-linecap="round" stroke-linejoin="round"/>
<path d="M447.971 293.226H431.935L412.028 313.133H428.065L447.971 293.226Z" fill="#1C0311" stroke="#1A1A1A" stroke-width="1.95512" stroke-linecap="round" stroke-linejoin="round"/>
<path d="M454.674 293.226H447.971L428.064 313.133H444.285L454.674 302.744V293.226Z" fill="#FFBE55" stroke="#1A1A1A" stroke-width="3.91024" stroke-linecap="round" stroke-linejoin="round"/>
<path d="M454.674 302.744L444.285 313.133H454.674V302.744Z" fill="#1C0311" stroke="#1A1A1A" stroke-width="1.95512" stroke-linecap="round" stroke-linejoin="round"/>
<path d="M395.992 293.226L376.085 313.133H396.545L416.452 293.226H395.992Z" fill="#1C0311" stroke="#1A1A1A" stroke-width="1.95512" stroke-linecap="round" stroke-linejoin="round"/>
</g>
<defs>
<clipPath id="clip0_254_1144">
<rect width="487" height="423" fill="white"/>
</clipPath>
</defs>
</svg>
