<svg width="34" height="32" viewBox="0 0 34 32" fill="none" xmlns="http://www.w3.org/2000/svg">
<g clip-path="url(#clip0_243_594)">
<path d="M26.7123 4.27239V29.3429C26.7123 30.5573 25.7265 31.543 24.507 31.543H9.95967C8.74017 31.543 7.75443 30.5573 7.75443 29.3429V4.27239C7.75443 3.05802 8.74017 2.07227 9.95967 2.07227H24.507C25.7265 2.07227 26.7123 3.05802 26.7123 4.27239Z" fill="white"/>
<path d="M7.75443 27.6551V29.3429C7.75443 30.5573 8.74017 31.543 9.95967 31.543H24.507C25.7265 31.543 26.7123 30.5573 26.7123 29.3429V27.6551H7.75443ZM26.7123 5.32134V4.27242C26.7123 3.05801 25.7265 2.07227 24.507 2.07227H9.95967C8.74017 2.07227 7.75443 3.05801 7.75443 4.27242V5.32134H26.7123Z" fill="#8F9FFF"/>
<path d="M16.9792 8.62817H2.39725V12.9619H16.9792V8.62817Z" fill="white"/>
<path d="M29.0335 13.7637H20.84V20.3653H29.0335V13.7637Z" fill="white"/>
<path d="M26.316 17.0667L23.9502 18.5606V15.5681L26.316 17.0667Z" fill="#8F9FFF"/>
<path d="M12.7389 21.2122C12.6538 21.5611 12.5148 21.8902 12.3332 22.1881L12.8921 23.0108L12.0013 23.9016L11.1786 23.3427C10.8807 23.5243 10.5517 23.6633 10.2027 23.7455L10.0155 24.7243H8.75588L8.56865 23.7484C8.2197 23.6633 7.89346 23.5243 7.59559 23.3427L6.77288 23.9016L5.88208 23.0108L6.44096 22.1881C6.2594 21.8902 6.12039 21.5611 6.03811 21.2122L5.05939 21.0249V19.7653L6.03811 19.5781C6.12039 19.2292 6.2594 18.9029 6.44096 18.605L5.88208 17.7823L6.77288 16.8915L7.59559 17.4504C7.89346 17.2689 8.2197 17.1299 8.56865 17.0447L8.75588 16.0688H10.0155L10.2027 17.0476C10.5517 17.1299 10.8807 17.2689 11.1786 17.4504L12.0013 16.8915L12.8921 17.7823L12.3332 18.6051C12.5148 18.9029 12.6538 19.232 12.7361 19.581L13.712 19.7653V21.0249L12.7389 21.2122Z" fill="white"/>
<path d="M30.583 8.39159C30.657 8.51068 30.8133 8.54679 30.9323 8.4731C31.0518 8.39901 31.088 8.24242 31.0141 8.12348C30.6999 7.61874 30.3535 7.12343 29.9843 6.65164C29.8976 6.54088 29.7385 6.52205 29.628 6.60828C29.518 6.69451 29.4987 6.85408 29.5849 6.96435C29.9427 7.42201 30.2787 7.90221 30.583 8.39159ZM32.1257 10.2386C32.0697 10.11 31.9205 10.0522 31.7917 10.1072C31.6633 10.1632 31.6048 10.3129 31.6608 10.4413C32.5395 12.4562 32.985 14.5981 32.985 16.8076C32.985 18.993 32.5484 21.1151 31.6871 23.1147C31.6316 23.2433 31.6911 23.3927 31.8194 23.448C31.9478 23.5034 32.0976 23.4443 32.1529 23.3154C33.042 21.2521 33.4924 19.0624 33.4924 16.8076C33.4924 14.528 33.0326 12.3177 32.1257 10.2386ZM1.69228 21.5393C1.6509 21.4057 1.51115 21.3319 1.37462 21.3723C1.24082 21.4139 1.16599 21.5559 1.20761 21.6899C2.11128 24.6009 3.80985 27.2086 6.11994 29.231C6.22541 29.3235 6.38592 29.3128 6.47799 29.2075C6.57042 29.1019 6.55976 28.9416 6.45445 28.8494C4.21473 26.8885 2.56795 24.3608 1.69228 21.5393ZM1.26015 19.8083C1.14022 19.1789 1.0577 18.5349 1.01459 17.8939C1.00518 17.7541 0.893919 17.6543 0.744259 17.6577C0.604508 17.6671 0.498702 17.7881 0.508121 17.9281C0.552722 18.5894 0.63796 19.254 0.761604 19.9034C0.787317 20.0375 0.916395 20.1313 1.05845 20.1051C1.19597 20.0788 1.28641 19.946 1.26015 19.8083ZM26.9658 6.34104C26.9658 6.2861 26.9658 4.13575 26.9658 4.27241C26.9658 2.91926 25.8627 1.8186 24.5068 1.8186H9.95961C8.60373 1.8186 7.5006 2.91926 7.5006 4.27241C7.5006 4.32452 7.5006 5.94066 7.5006 5.88125C6.64946 6.6207 5.88715 7.45762 5.22724 8.37449H2.39748C2.25723 8.37449 2.14374 8.48797 2.14374 8.62822V12.9622C2.14374 13.1025 2.25723 13.216 2.39748 13.216H2.95986C2.66431 14.3657 2.49833 15.5668 2.49833 16.8076C2.49833 21.1687 4.44037 25.0813 7.5006 27.7379V29.343C7.5006 30.6961 8.60374 31.7968 9.95961 31.7968H24.5068C25.8627 31.7968 26.9658 30.6961 26.9658 29.343C26.9658 29.2483 26.9658 27.2174 26.9658 27.2742C29.7311 24.6359 31.4601 20.9214 31.4601 16.8076C31.4601 12.6939 29.7311 8.97933 26.9658 6.34104ZM21.0938 20.1115V14.0175H28.7796V20.1115L21.0938 20.1115ZM20.8401 13.5101C20.6998 13.5101 20.5863 13.6236 20.5863 13.7638V20.3653C20.5863 20.5055 20.6998 20.619 20.8401 20.619H26.4583V27.4014H8.00806V23.8315C8.12018 23.8768 8.23361 23.9184 8.34926 23.9522L8.5066 24.7721C8.52964 24.8916 8.63421 24.978 8.75587 24.978H10.0154C10.137 24.978 10.2416 24.8916 10.2646 24.7719L10.4217 23.9505C10.6792 23.8769 10.9292 23.7736 11.1678 23.642L11.8586 24.1115C11.9597 24.1804 12.095 24.1675 12.1807 24.0811L13.0715 23.1903C13.1578 23.1043 13.1704 22.969 13.102 22.8684L12.6327 22.1773C12.7633 21.9399 12.8671 21.6902 12.9429 21.4312L13.7601 21.2741C13.8796 21.2511 13.9658 21.1465 13.9658 21.0249V19.7654C13.9658 19.6435 13.8791 19.5387 13.7591 19.5161L12.941 19.3615C12.8671 19.1041 12.764 18.8543 12.6327 18.6157L13.102 17.9251C13.1704 17.8242 13.1578 17.689 13.0715 17.603L12.1807 16.7122C12.0945 16.626 11.9595 16.6133 11.8589 16.6817L11.1681 17.151C10.9292 17.0194 10.6792 16.9161 10.4217 16.8425L10.2646 16.0211C10.2416 15.9017 10.137 15.8152 10.0154 15.8152H8.75587C8.63421 15.8152 8.52964 15.9017 8.5066 16.0211L8.34926 16.8408C8.2336 16.8746 8.12018 16.9162 8.00806 16.9615V13.2159H16.9793C17.1196 13.2159 17.2331 13.1025 17.2331 12.9622V8.62821C17.2331 8.48797 17.1196 8.37448 16.9793 8.37448H8.00806V5.57501H26.4583V13.5101H20.8401ZM6.65763 22.0559C6.48468 21.7722 6.3593 21.4687 6.28521 21.154C6.26217 21.0566 6.18412 20.9818 6.08574 20.9629L5.31315 20.815V19.9753L6.08574 19.8273C6.18412 19.8085 6.26217 19.7337 6.28521 19.6363C6.35856 19.3246 6.48394 19.022 6.65763 18.7371C6.70942 18.6521 6.70694 18.5448 6.65095 18.4623L6.20989 17.8134L6.80383 17.2194L7.45303 17.6602C7.53529 17.7162 7.64258 17.7189 7.72757 17.6669C8.01079 17.4945 8.31383 17.3678 8.62852 17.2913C8.72515 17.2677 8.799 17.1902 8.81783 17.0926L8.96551 16.3227H9.8055L9.95342 17.0953C9.97226 17.1934 10.0471 17.2715 10.1445 17.2945C10.4591 17.3686 10.7627 17.494 11.0466 17.6669C11.1319 17.719 11.2392 17.7162 11.3212 17.6602L11.9704 17.2194L12.5643 17.8134L12.1233 18.4623C12.0673 18.5448 12.0648 18.6521 12.1166 18.7371C12.2895 19.0208 12.4149 19.3243 12.489 19.6393C12.512 19.7369 12.5904 19.8117 12.689 19.8303L13.4583 19.9758V20.8153L12.6909 20.9629C12.5936 20.9818 12.516 21.0556 12.4925 21.152C12.4149 21.4702 12.2883 21.7742 12.1166 22.0559C12.0648 22.1409 12.0673 22.2482 12.1233 22.3305L12.5643 22.9799L11.9704 23.5739L11.3214 23.1328C11.2387 23.0768 11.1319 23.0741 11.0466 23.1261C10.7627 23.299 10.4591 23.4244 10.1445 23.4985C10.0471 23.5216 9.97225 23.5996 9.95342 23.698L9.8055 24.4706H8.96551L8.81783 23.7005C8.799 23.6028 8.72515 23.5253 8.62852 23.5017C8.31383 23.4252 8.01079 23.2986 7.72757 23.1261C7.64308 23.0748 7.53579 23.077 7.45278 23.1328L6.80383 23.5738L6.2099 22.9799L6.65095 22.3305C6.70695 22.2482 6.70942 22.1409 6.65763 22.0559ZM8.00806 4.27241C8.00806 3.19926 8.88348 2.32607 9.95961 2.32607H24.5068C25.5827 2.32607 26.4583 3.19926 26.4583 4.27241V5.06755H8.00806V4.27241ZM7.5006 6.5616V8.37449H5.85822C6.35298 7.72346 6.9017 7.11649 7.5006 6.5616ZM2.65121 8.88195H16.7256V12.7085H2.65121V8.88195ZM3.00579 16.8076C3.00579 15.5649 3.17728 14.3632 3.48367 13.216H7.5006V17.0791L6.91533 16.6817C6.81473 16.6136 6.67993 16.626 6.59346 16.7122L5.70267 17.603C5.61644 17.689 5.60381 17.8243 5.67219 17.9251L6.14149 18.6157C6.00992 18.8545 5.9066 19.1033 5.83325 19.359L5.01185 19.5161C4.89217 19.5392 4.80569 19.6437 4.80569 19.7654V21.0249C4.80569 21.1465 4.89217 21.2511 5.01185 21.2741L5.83325 21.4312C5.90684 21.6889 6.01017 21.9387 6.14149 22.1773L5.67219 22.8684C5.6038 22.969 5.61644 23.1043 5.70267 23.1903L6.59346 24.0811C6.67993 24.1673 6.81497 24.1802 6.91558 24.1115L7.5006 23.714V27.0538C4.74112 24.5002 3.00579 20.855 3.00579 16.8076ZM26.4583 29.343C26.4583 30.4162 25.5827 31.2894 24.5068 31.2894H9.95961C8.88348 31.2894 8.00806 30.4162 8.00806 29.343V27.9088H26.4583V29.343ZM26.9658 26.5595V20.619H29.0333C29.1736 20.619 29.2871 20.5055 29.2871 20.3653V13.7638C29.2871 13.6236 29.1736 13.5101 29.0333 13.5101H26.9658V7.05708C29.4281 9.57668 30.9527 13.0155 30.9527 16.8076C30.9527 20.6001 29.4284 24.0397 26.9658 26.5595Z" fill="#3146CC"/>
<path d="M17.2334 30.3278C17.6359 30.3278 17.9621 30.0015 17.9621 29.5991C17.9621 29.1966 17.6359 28.8704 17.2334 28.8704C16.831 28.8704 16.5047 29.1966 16.5047 29.5991C16.5047 30.0015 16.831 30.3278 17.2334 30.3278Z" fill="#2A44E2"/>
<path d="M17.0983 3.44316H15.3467C15.2065 3.44316 15.093 3.55664 15.093 3.69689C15.093 3.83714 15.2065 3.95062 15.3467 3.95062H17.0983C17.2385 3.95062 17.352 3.83714 17.352 3.69689C17.352 3.55664 17.2385 3.44316 17.0983 3.44316ZM19.12 3.44316H18.442C18.3018 3.44316 18.1883 3.55664 18.1883 3.69689C18.1883 3.83714 18.3018 3.95062 18.442 3.95062H19.12C19.2602 3.95062 19.3737 3.83714 19.3737 3.69689C19.3737 3.55664 19.2602 3.44316 19.12 3.44316ZM24.0861 15.3537C24.0078 15.3039 23.9087 15.3014 23.8279 15.3457C23.7471 15.3903 23.6966 15.4756 23.6966 15.568V18.5607C23.6966 18.6532 23.7466 18.7384 23.8279 18.783C23.9086 18.8275 24.0076 18.8246 24.0856 18.7753L26.4514 17.2814C26.6095 17.1817 26.6087 16.9521 26.4519 16.8525L24.0861 15.3537ZM24.204 18.1003V16.0291L25.8414 17.0666L24.204 18.1003ZM6.19628 10.2431C6.06842 10.1859 5.91826 10.2443 5.86152 10.3722L5.58424 10.9979L5.23165 10.3534C5.14295 10.1903 4.87533 10.1903 4.78663 10.3534L4.41025 11.0415L4.03361 10.3534C3.96622 10.23 3.81259 10.1844 3.68944 10.2525C3.56629 10.3197 3.5212 10.4738 3.58859 10.5967L4.18773 11.6919C4.27644 11.8549 4.54405 11.8549 4.63275 11.6919L5.00914 11.0038L5.38577 11.6919C5.43037 11.7737 5.51586 11.824 5.60828 11.824C5.61175 11.824 5.61522 11.824 5.61894 11.8237C5.71533 11.8198 5.80106 11.7613 5.84021 11.6731L6.32537 10.5779C6.38211 10.4498 6.32438 10.2998 6.19628 10.2431ZM9.63528 10.2431C9.50742 10.1859 9.35727 10.2443 9.30052 10.3722L9.02325 10.9979L8.67065 10.3534C8.58195 10.1903 8.31434 10.1903 8.22563 10.3534L7.84925 11.0415L7.47262 10.3534C7.40522 10.23 7.25134 10.1844 7.12844 10.2525C7.00529 10.3197 6.9602 10.4738 7.0276 10.5967L7.62674 11.6919C7.71544 11.8549 7.98305 11.8549 8.07176 11.6919L8.44814 11.0038L8.82478 11.6919C8.86938 11.7737 8.95486 11.824 9.04729 11.824C9.05076 11.824 9.05422 11.824 9.05794 11.8237C9.15433 11.8198 9.24007 11.7613 9.27922 11.6731L9.76438 10.5779C9.82112 10.4498 9.76338 10.2998 9.63528 10.2431ZM13.0743 10.2431C12.9464 10.1859 12.7963 10.2443 12.7395 10.3722L12.4622 10.9979L12.1097 10.3534C12.0209 10.1903 11.7533 10.1903 11.6646 10.3534L11.2882 11.0415L10.9116 10.3534C10.8445 10.23 10.6906 10.1844 10.5674 10.2525C10.4443 10.3197 10.3992 10.4738 10.4666 10.5967L11.0657 11.6919C11.1544 11.8549 11.422 11.8549 11.5108 11.6919L11.8871 11.0038L12.2638 11.6919C12.3084 11.7737 12.3939 11.824 12.4863 11.824C12.4898 11.824 12.4932 11.824 12.4969 11.8237C12.5933 11.8198 12.6791 11.7613 12.7182 11.6731L13.2034 10.5779C13.2601 10.4498 13.2024 10.2998 13.0743 10.2431ZM9.38576 22.3025C10.4366 22.3025 11.2915 21.4474 11.2915 20.3966C11.2915 19.3457 10.4366 18.4909 9.38576 18.4909C8.33491 18.4909 7.4798 19.3457 7.4798 20.3966C7.4798 21.4474 8.33491 22.3025 9.38576 22.3025ZM9.38576 18.9983C10.1569 18.9983 10.784 19.6255 10.784 20.3966C10.784 21.1677 10.1569 21.7951 9.38576 21.7951C8.61465 21.7951 7.98726 21.1677 7.98726 20.3966C7.98726 19.6255 8.61465 18.9983 9.38576 18.9983ZM17.2333 0.710588H20.8252C20.9655 0.710588 21.079 0.597104 21.079 0.456856C21.079 0.316609 20.9655 0.203125 20.8252 0.203125H17.2333C17.0931 0.203125 16.9796 0.316609 16.9796 0.456856C16.9796 0.597104 17.0931 0.710588 17.2333 0.710588ZM14.8856 0.710588H15.8078C15.9481 0.710588 16.0616 0.597104 16.0616 0.456856C16.0616 0.316609 15.9481 0.203125 15.8078 0.203125H14.8856C14.7453 0.203125 14.6319 0.316609 14.6319 0.456856C14.6319 0.597104 14.7453 0.710588 14.8856 0.710588Z" fill="#3146CC"/>
</g>
<defs>
<clipPath id="clip0_243_594">
<rect width="34" height="32" fill="white"/>
</clipPath>
</defs>
</svg>
