<svg width="34" height="34" viewBox="0 0 34 34" fill="none" xmlns="http://www.w3.org/2000/svg">
<g clip-path="url(#clip0_243_636)">
<path d="M3.14128 20.4647V22.7745C2.83498 22.7745 2.54123 22.6528 2.32465 22.4362C2.10806 22.2196 1.98639 21.9259 1.98639 21.6196C1.98639 21.3133 2.10806 21.0195 2.32465 20.803C2.54123 20.5864 2.83498 20.4647 3.14128 20.4647ZM11.2255 22.7745V20.4647C11.5318 20.4647 11.8256 20.5864 12.0422 20.803C12.2587 21.0195 12.3804 21.3133 12.3804 21.6196C12.3804 21.9259 12.2587 22.2196 12.0422 22.4362C11.8256 22.6528 11.5318 22.7745 11.2255 22.7745ZM10.4789 2.73307L11.2255 3.47971V0.831543H8.91574V3.47971L9.66237 2.73307C9.77066 2.62482 9.91751 2.564 10.0706 2.564C10.2237 2.564 10.3706 2.62482 10.4789 2.73307ZM30.6681 13.9742L30.2697 15.9606C30.2498 16.0575 30.2054 16.1477 30.1407 16.2226C30.076 16.2974 29.9932 16.3543 29.9001 16.3879C29.8373 16.4111 29.7708 16.4228 29.7038 16.4226C29.5735 16.4218 29.4474 16.377 29.3458 16.2955L27.8386 15.0887L27.3305 16.105C27.282 16.1996 27.2084 16.2789 27.1177 16.3344C27.027 16.3898 26.9228 16.4191 26.8166 16.4191C26.7103 16.4191 26.6061 16.3898 26.5154 16.3344C26.4247 16.2789 26.3511 16.1996 26.3026 16.105L25.7945 15.0887L24.2873 16.2955C24.1857 16.377 24.0596 16.4218 23.9293 16.4226C23.8623 16.4228 23.7959 16.4111 23.733 16.3879C23.6399 16.3543 23.5571 16.2974 23.4924 16.2226C23.4277 16.1477 23.3833 16.0575 23.3634 15.9606L22.965 13.9742C22.2133 14.3623 21.5826 14.9493 21.1417 15.6712C20.7008 16.3932 20.4666 17.2224 20.4647 18.0683V18.1549H33.1685V18.0683C33.1665 17.2224 32.9323 16.3932 32.4914 15.6712C32.0505 14.9493 31.4198 14.3623 30.6681 13.9742ZM4.67729 29.8135L5.63007 29.0455L5.17966 28.1447L4.41166 28.4854L4.67729 29.8135ZM6.02851 26.0717V27.2555L7.1834 29.5652L8.33829 27.2555V26.0717C7.58455 26.295 6.78225 26.295 6.02851 26.0717Z" fill="#3146CC"/>
<path d="M28.3699 14.032L29.3227 14.8L29.5883 13.4718L28.8203 13.1311L28.3699 14.032ZM24.3105 14.8L25.2633 14.032L24.8128 13.1311L24.0448 13.4718L24.3105 14.8ZM23.9294 4.82169C24.1196 4.85826 24.3131 4.87567 24.5068 4.87366C25.2321 4.85061 25.9435 4.66929 26.5914 4.34241C27.3802 3.95048 28.2458 3.73754 29.1264 3.71877C29.3195 3.71972 29.5124 3.73322 29.7038 3.75919V3.71877C29.7038 2.95303 29.3996 2.21865 28.8582 1.67719C28.3167 1.13573 27.5823 0.831543 26.8166 0.831543C26.0508 0.831543 25.3165 1.13573 24.775 1.67719C24.2335 2.21865 23.9294 2.95303 23.9294 3.71877V4.82169ZM9.68954 29.8135L9.95517 28.4854L9.18716 28.1447L8.73676 29.0455L9.68954 29.8135Z" fill="#3146CC"/>
<path d="M29.7038 4.92566C29.5136 4.88909 29.3201 4.87168 29.1264 4.87369C28.4011 4.89675 27.6896 5.07806 27.0418 5.40494C26.253 5.79687 25.3874 6.00982 24.5068 6.02858C24.3137 6.02764 24.1208 6.01413 23.9294 5.98816V7.18347C23.9294 7.94921 24.2336 8.68359 24.775 9.22505C25.3165 9.76651 26.0509 10.0707 26.8166 10.0707C27.5823 10.0707 28.3167 9.76651 28.8582 9.22505C29.3996 8.68359 29.7038 7.94921 29.7038 7.18347V4.92566ZM25.6617 11.0581V12.2419L26.8166 14.5517L27.9715 12.2419V11.0581C27.2177 11.2814 26.4154 11.2814 25.6617 11.0581ZM11.035 28.9878L10.6366 30.9742C10.6167 31.0712 10.5723 31.1613 10.5076 31.2362C10.4429 31.311 10.36 31.3679 10.267 31.4015C10.2041 31.4247 10.1377 31.4364 10.0707 31.4362C9.94042 31.4354 9.81425 31.3907 9.71266 31.3092L8.20552 30.1023L7.69737 31.1186C7.64891 31.2132 7.57529 31.2926 7.48461 31.348C7.39394 31.4034 7.28972 31.4327 7.18344 31.4327C7.07717 31.4327 6.97295 31.4034 6.88228 31.348C6.7916 31.2926 6.71798 31.2132 6.66952 31.1186L6.16137 30.1023L4.65423 31.3092C4.55264 31.3907 4.42647 31.4354 4.29622 31.4362C4.22923 31.4364 4.16274 31.4247 4.09989 31.4015C4.00684 31.3679 3.92399 31.311 3.85928 31.2362C3.79456 31.1613 3.75016 31.0712 3.73032 30.9742L3.33188 28.9878C2.58021 29.3759 1.94953 29.9629 1.50862 30.6849C1.06771 31.4068 0.833503 32.236 0.831543 33.0819V33.1685H13.5353V33.0819C13.5334 32.236 13.2992 31.4068 12.8583 30.6849C12.4174 29.9629 11.7867 29.3759 11.035 28.9878ZM7.18344 25.0843C7.94919 25.0843 8.68356 24.7801 9.22502 24.2386C9.76648 23.6972 10.0707 22.9628 10.0707 22.1971V19.9392C9.88041 19.9027 9.68696 19.8853 9.49323 19.8873C8.76796 19.9103 8.05649 20.0916 7.40865 20.4185C6.61985 20.8105 5.75426 21.0234 4.87366 21.0422C4.68051 21.0412 4.48762 21.0277 4.29622 21.0017V22.1971C4.29622 22.9628 4.60041 23.6972 5.14187 24.2386C5.68333 24.7801 6.4177 25.0843 7.18344 25.0843Z" fill="#3146CC"/>
<path d="M19.8873 19.3098C19.7341 19.3098 19.5872 19.249 19.4789 19.1407C19.3706 19.0324 19.3098 18.8855 19.3098 18.7324V18.0683C19.3099 16.9518 19.6333 15.8593 20.241 14.9227C20.8486 13.9861 21.7145 13.2455 22.7341 12.7904L24.5068 12.0051V10.498C23.9319 10.0959 23.472 9.55045 23.1729 8.91578H22.7745C22.1619 8.91578 21.5744 8.67243 21.1412 8.23926C20.708 7.80609 20.4647 7.21859 20.4647 6.606C20.4647 5.99341 20.708 5.4059 21.1412 4.97274C21.5744 4.53957 22.1619 4.29622 22.7745 4.29622V3.71877C22.7733 3.17984 22.8812 2.64624 23.0915 2.15007C23.3019 1.65389 23.6105 1.20539 23.9987 0.831543H12.3805V4.87366C12.3809 4.98789 12.347 5.09962 12.2832 5.19435C12.2193 5.28908 12.1285 5.36244 12.0224 5.40491C11.9539 5.43728 11.8788 5.4531 11.803 5.45111C11.6496 5.45155 11.5023 5.39136 11.393 5.28365L10.0707 3.95552L8.74832 5.28365C8.66712 5.36377 8.56401 5.41805 8.45199 5.43963C8.33997 5.46121 8.22407 5.44913 8.11891 5.40491C8.01287 5.36244 7.92204 5.28908 7.8582 5.19435C7.79436 5.09962 7.76046 4.98789 7.76089 4.87366V0.889287C7.10959 1.02411 6.52452 1.37893 6.10392 1.89416C5.68332 2.4094 5.45281 3.05366 5.45111 3.71877V15.0829C6.0669 14.7894 6.74701 14.6568 7.42795 14.6973C8.10889 14.7378 8.76846 14.9502 9.34509 15.3147C9.92173 15.6791 10.3966 16.1837 10.7255 16.7813C11.0543 17.379 11.2264 18.0502 11.2256 18.7324V19.3098C11.8382 19.3098 12.4257 19.5532 12.8588 19.9863C13.292 20.4195 13.5353 21.007 13.5353 21.6196C13.5353 22.2322 13.292 22.8197 12.8588 23.2528C12.4257 23.686 11.8382 23.9294 11.2256 23.9294H10.8271C10.528 24.564 10.0682 25.1095 9.49323 25.5116V27.0187L11.2602 27.804C12.2812 28.2576 13.1488 28.9977 13.7576 29.9345C14.3664 30.8713 14.6904 31.9646 14.6902 33.0819V33.1685H25.6617C26.4274 33.1685 27.1618 32.8643 27.7033 32.3228C28.2447 31.7814 28.5489 31.047 28.5489 30.2813V19.3098H19.8873ZM10.0707 7.18344H18.1549V8.33834H10.0707V7.18344ZM7.76089 7.18344H8.91578V8.33834H7.76089V7.18344ZM7.76089 9.49323H18.1549V10.6481H7.76089V9.49323ZM7.76089 12.9579V11.803H18.1549V12.9579H7.76089ZM17 22.7745V23.9294H15.8451V22.7745H17ZM26.2392 28.5489H15.8451V27.394H26.2392V28.5489ZM26.2392 26.2392H15.8451V25.0843H26.2392V26.2392ZM26.2392 23.9294H18.1549V22.7745H26.2392V23.9294Z" fill="#3146CC"/>
<path d="M6.95823 19.3561C7.74702 18.9641 8.61262 18.7512 9.49321 18.7324C9.68637 18.7334 9.87926 18.7469 10.0707 18.7728V18.7324C10.0707 17.9667 9.76647 17.2323 9.22501 16.6908C8.68355 16.1494 7.94917 15.8452 7.18343 15.8452C6.41769 15.8452 5.68331 16.1494 5.14185 16.6908C4.60039 17.2323 4.2962 17.9667 4.2962 18.7324V19.8353C4.48647 19.8719 4.67991 19.8893 4.87365 19.8873C5.59892 19.8643 6.31039 19.6829 6.95823 19.3561ZM22.7745 5.45117V7.76095C22.4682 7.76095 22.1744 7.63928 21.9578 7.42269C21.7412 7.20611 21.6196 6.91236 21.6196 6.60606C21.6196 6.29977 21.7412 6.00602 21.9578 5.78943C22.1744 5.57285 22.4682 5.45117 22.7745 5.45117ZM30.8587 7.76095V5.45117C31.165 5.45117 31.4588 5.57285 31.6753 5.78943C31.8919 6.00602 32.0136 6.29977 32.0136 6.60606C32.0136 6.91236 31.8919 7.20611 31.6753 7.42269C31.4588 7.63928 31.165 7.76095 30.8587 7.76095Z" fill="#3146CC"/>
</g>
<defs>
<clipPath id="clip0_243_636">
<rect width="34" height="34" fill="white"/>
</clipPath>
</defs>
</svg>
