<svg width="24" height="20" viewBox="0 0 24 20" fill="none" xmlns="http://www.w3.org/2000/svg">
<g clip-path="url(#clip0_254_638)">
<path d="M12.375 1.01562H15C15.4135 1.01562 15.75 1.366 15.75 1.79688V4.53125C15.7571 5.04289 16.492 5.04595 16.5 4.53123C16.5 4.53125 16.5 1.79688 16.5 1.79688C16.5 0.935324 15.8273 0.234375 15 0.234375H12.375C11.8833 0.243195 11.881 1.00652 12.375 1.01562ZM2.25 15.8594H4.875C5.08227 15.8594 5.25 15.6847 5.25 15.4688C5.25 15.2528 5.08227 15.0781 4.875 15.0781H2.25C1.83655 15.0781 1.5 14.7276 1.5 14.2969V11.5625C1.49295 11.0508 0.757875 11.0478 0.75 11.5625C0.75 11.5625 0.75 14.2969 0.75 14.2969C0.75 15.1586 1.42273 15.8594 2.25 15.8594ZM6.375 6.09356C5.88387 6.10202 5.88128 6.86236 6.37207 6.87481C6.4828 9.97599 10.7686 9.97732 10.875 6.87495C10.875 6.875 10.875 6.09375 10.875 6.09375C10.7697 2.99216 6.48038 2.99226 6.375 6.09356ZM9.54684 4.87042C9.89621 5.15676 10.125 5.59586 10.125 6.09375V6.875C10.0525 8.9871 7.10573 8.91462 7.125 6.80113C8.18491 6.63329 9.26798 5.92228 9.54684 4.87042ZM8.10095 5.60394C7.8262 5.79141 7.49066 5.92321 7.1337 6.00434C7.17471 5.10977 7.98326 4.39623 8.84454 4.55438C8.76997 4.94679 8.50708 5.32623 8.10095 5.60394Z" fill="white"/>
<path d="M4.5 14.2969H10.5C10.9922 14.2886 10.9936 13.5241 10.5 13.5156H5.06287C5.03742 12.016 6.08469 10.6988 7.61096 10.2754C8.23792 10.6123 9.01941 10.6107 9.64197 10.2758C10.0393 10.3223 10.5485 10.8749 10.8355 10.3739C11.0714 9.74634 10.0743 9.6284 9.67383 9.47886C9.57898 9.45526 9.47681 9.47281 9.39295 9.52622C8.93335 9.81957 8.32508 9.82338 7.86109 9.52622C7.77759 9.47319 7.67798 9.45488 7.58167 9.47853C5.64569 9.93823 4.29479 11.594 4.31319 13.496C3.57482 13.3989 3 12.7482 3 11.9531V4.14062C3 3.27907 3.67273 2.57812 4.5 2.57812H12.75C13.5773 2.57812 14.25 3.27907 14.25 4.14062V7.26562C14.2553 7.7772 14.9933 7.77977 15 7.2656C15 7.26563 15 4.14062 15 4.14062C15 2.84821 13.9907 1.79688 12.75 1.79688H4.5C3.25928 1.79688 2.25 2.84821 2.25 4.14062V11.9531C2.25 13.2455 3.25928 14.2969 4.5 14.2969Z" fill="white"/>
<path d="M21.375 8.04688H13.125C12.0912 8.04688 11.25 8.92311 11.25 10V17.8125C11.25 18.8894 12.0912 19.7656 13.125 19.7656H21.375C22.4088 19.7656 23.25 18.8894 23.25 17.8125V10C23.25 8.92311 22.4088 8.04688 21.375 8.04688ZM22.5 17.8125C22.5 18.4587 21.9954 18.9844 21.375 18.9844H13.125C12.5046 18.9844 12 18.4587 12 17.8125V10C12 9.35379 12.5046 8.82812 13.125 8.82812H21.375C21.9954 8.82812 22.5 9.35379 22.5 10V17.8125Z" fill="white"/>
<path d="M21 10.3906H15C14.509 10.3985 14.5056 11.1632 15 11.1719H21C21.4911 11.164 21.4945 10.3992 21 10.3906ZM21 12.3438H15C14.509 12.3516 14.5056 13.1164 15 13.125H21C21.4911 13.1171 21.4945 12.3524 21 12.3438ZM19.5 14.2969H15C14.7928 14.2969 14.625 14.4716 14.625 14.6875C14.625 14.9034 14.7928 15.0781 15 15.0781H19.5C19.9916 15.0701 19.9941 14.3054 19.5 14.2969ZM19.5 16.25H15C14.7928 16.25 14.625 16.4247 14.625 16.6406C14.625 16.8565 14.7928 17.0312 15 17.0312H19.5C19.9916 17.0232 19.9941 16.2586 19.5 16.25ZM13.5 12.3438C13.0074 12.3537 13.0075 13.1151 13.5 13.125C13.9926 13.1151 13.9926 12.3536 13.5 12.3438ZM13.5 10.3906C13.0074 10.4006 13.0075 11.162 13.5 11.1719C13.9926 11.1619 13.9926 10.4005 13.5 10.3906ZM13.5 16.25C13.0074 16.2599 13.0075 17.0214 13.5 17.0312C13.9926 17.0213 13.9926 16.2599 13.5 16.25ZM13.5 14.2969C13.0074 14.3068 13.0075 15.0683 13.5 15.0781C13.9926 15.0682 13.9926 14.3067 13.5 14.2969Z" fill="white"/>
</g>
<defs>
<clipPath id="clip0_254_638">
<rect width="24" height="20" fill="white"/>
</clipPath>
</defs>
</svg>
