<svg width="500" height="385" viewBox="0 0 500 385" fill="none" xmlns="http://www.w3.org/2000/svg">
<g clip-path="url(#clip0_135_3245)">
<path opacity="0.37" d="M43.4522 321.533C44.5428 323.721 45.7482 325.91 47.0684 328.006C66.6994 359.254 106.535 378.953 149.012 382.492C182.993 385.287 216.055 376.299 244.469 361.629C272.824 347.006 295.555 326.422 327.068 315.711C371.496 300.669 421.032 288.794 455.874 256.94C495.481 220.756 510.749 165.897 492.094 119.606C473.956 74.4335 413.742 59.8106 366.961 39.9254C282.869 4.11324 166.404 -19.6839 78.8683 22.3686C-26.0024 72.7105 -6.94541 186.993 26.2894 266.301C33.8663 284.37 34.7847 303.836 43.4522 321.533Z" fill="#CCE9FF"/>
<path d="M403.191 297.856C405.576 287.178 416.305 293.717 422.566 296.422C427.309 298.341 432.838 296.148 433.644 290.859C434.545 285.827 433.871 280.385 436.255 275.692C441.059 264.672 456.267 268.01 456.057 279.956C453.158 291.725 464.757 293.291 466.14 285.253C466.63 275.465 478.025 272.089 483.344 280.363C488.09 287.358 486.077 300.475 477.256 302.744C474.728 303.321 472.097 302.771 469.504 302.724C455.587 303.468 465.527 313.446 463.077 320.541C461.809 323.258 458.301 324.323 455.368 323.699C448.773 322.859 443.054 310.984 436.227 316.995C434.647 318.976 435.267 321.844 434.89 324.35C434.18 329.064 429.688 332.487 425.02 333.471C415.591 335.443 406.116 329.703 396.677 331.45C392.166 332.29 387.387 334.796 383.288 332.735C376.407 329.643 377.152 312.249 381.047 307.191C383.699 303.744 388.216 302.429 392.421 301.316C396.308 300.286 399.304 298.885 403.191 297.856Z" fill="#1C0311" stroke="#1A1A1A" stroke-width="1.82184" stroke-linecap="round" stroke-linejoin="round"/>
<path d="M379.569 307.725C383.157 308.49 386.783 309.259 390.452 309.199C394.121 309.139 397.89 308.176 400.707 305.825C403.523 303.474 405.192 299.572 404.258 296.025C403.345 292.555 400.144 289.587 400.699 286.042C401.276 282.355 405.621 280.545 409.354 280.474C413.086 280.402 416.934 281.348 420.489 280.209C423.957 279.098 426.673 275.921 427.23 272.324C427.788 268.727 426.16 264.878 423.191 262.77C421.588 261.633 419.686 260.999 417.98 260.022C416.275 259.045 414.673 257.55 414.387 255.606C413.877 252.143 417.486 249.686 419.538 246.849C422.601 242.616 422.105 236.311 418.719 232.33C415.334 228.349 409.5 226.805 404.456 228.172C399.411 229.539 395.278 233.583 393.368 238.446C391.91 242.155 391.662 246.233 390.398 250.012C387.375 259.05 378.072 265.586 368.539 265.367C364.498 265.274 360.208 264.139 356.57 265.903C351.971 268.132 350.499 274.215 351.596 279.205C352.735 284.269 355.833 288.677 360.213 291.467C363.606 293.604 365.658 297.281 369.273 299.018C372.068 300.362 375.179 301.28 377.392 303.452C378.59 304.627 379.147 306.102 379.569 307.725Z" fill="#00D6C4" fill-opacity="0.63" stroke="#1A1A1A" stroke-width="3.64368" stroke-linecap="round" stroke-linejoin="round"/>
<path d="M410.869 264.61C410.869 264.61 403.252 269.33 396.48 267.178L410.869 264.61Z" fill="white"/>
<path d="M410.869 264.61C410.869 264.61 403.252 269.33 396.48 267.178" stroke="#1A1A1A" stroke-width="3.64368" stroke-linecap="round" stroke-linejoin="round"/>
<path d="M386.618 320.486C386.618 320.486 431.499 313.357 452.262 296.09" stroke="white" stroke-width="5.46552" stroke-linecap="round" stroke-linejoin="round"/>
<path d="M447.452 286.599C447.452 286.599 449.362 296.998 443.575 302.041" stroke="white" stroke-width="5.46552" stroke-linecap="round" stroke-linejoin="round"/>
<path d="M452.528 307.434C452.528 307.434 448.149 310.198 436.495 305.717" stroke="white" stroke-width="5.46552" stroke-linecap="round" stroke-linejoin="round"/>
<path d="M423.305 303.37C423.305 303.37 423.976 309.942 419.703 312.296" stroke="white" stroke-width="5.46552" stroke-linecap="round" stroke-linejoin="round"/>
<path d="M420.292 321.268C420.292 321.268 410.447 320.09 409.986 315.231" stroke="white" stroke-width="5.46552" stroke-linecap="round" stroke-linejoin="round"/>
<path d="M406.173 234.969C406.173 234.969 402.655 256.727 396.481 267.178C390.306 277.628 374.739 288.376 375.124 294.251" fill="#00D6C4"/>
<path d="M406.173 234.969C406.173 234.969 402.655 256.727 396.481 267.178C390.306 277.628 374.739 288.376 375.124 294.251" stroke="#1A1A1A" stroke-width="3.64368" stroke-linecap="round" stroke-linejoin="round"/>
<path d="M394.353 285.814C394.385 286.291 390.085 291.994 379.239 286.805L394.353 285.814Z" fill="#00D6C4"/>
<path d="M394.353 285.814C394.385 286.291 390.085 291.994 379.239 286.805" stroke="#1A1A1A" stroke-width="3.64368" stroke-linecap="round" stroke-linejoin="round"/>
<path d="M379.578 269.733C379.578 269.733 378.355 280.429 382.012 283.805L379.578 269.733Z" fill="white"/>
<path d="M379.578 269.733C379.578 269.733 378.355 280.429 382.012 283.805" stroke="#1A1A1A" stroke-width="3.64368" stroke-linecap="round" stroke-linejoin="round"/>
<path d="M409.898 238.393C409.898 238.393 409.125 242.409 404.525 243.359L409.898 238.393Z" fill="white"/>
<path d="M409.898 238.393C409.898 238.393 409.125 242.409 404.525 243.359" stroke="#1A1A1A" stroke-width="3.64368" stroke-linecap="round" stroke-linejoin="round"/>
<path d="M135.122 382.682C175.022 382.682 207.367 374.3 207.367 363.961C207.367 353.622 175.022 345.24 135.122 345.24C95.2226 345.24 62.8774 353.622 62.8774 363.961C62.8774 374.3 95.2226 382.682 135.122 382.682Z" fill="white" stroke="#1A1A1A" stroke-width="3.64368" stroke-linecap="round" stroke-linejoin="round"/>
<path d="M51.7213 335.09H396.788C397.378 334.239 403.603 324.94 399.723 314.777C396.285 305.772 386.382 299.935 375.595 301.09C378.449 281.762 373.908 262.424 361.575 253.836C343.354 241.15 305.66 250.21 285.606 286.425C287.562 262.635 271.912 244.06 251.371 234.935C223.874 225.159 209.243 246.734 202.79 252.533C194.813 243.762 182.115 232.799 163.99 226.788C143.071 219.85 106.061 216.569 91.9338 237.216C86.92 244.544 86.0714 253.011 86.391 259.702C66.5626 253.309 45.0794 262.145 35.8536 279.907C25.9716 298.933 32.6667 323.361 51.7213 335.09Z" fill="#2A94F4" stroke="#1A1A1A" stroke-width="3.64368" stroke-linecap="round" stroke-linejoin="round"/>
<path d="M256.479 202.781H233.004V251.664H256.479V202.781Z" fill="white" stroke="#1A1A1A" stroke-width="3.64368" stroke-linecap="round" stroke-linejoin="round"/>
<path d="M259.609 246.884H229.874L144.029 285.773H169.717L244.742 260.354L319.767 285.773H345.454L259.609 246.884Z" fill="#1C0311" stroke="#1A1A1A" stroke-width="1.82184" stroke-linecap="round" stroke-linejoin="round"/>
<path d="M371.9 285.773H94.1074V330.017H371.9V285.773Z" fill="#00D6C4" stroke="#1A1A1A" stroke-width="3.64368" stroke-linecap="round" stroke-linejoin="round"/>
<path d="M316.764 291.135V325.08" stroke="#1A1A1A" stroke-width="3.64368" stroke-linecap="round" stroke-linejoin="round"/>
<path d="M371.9 330.017H94.1074V335.09H371.9V330.017Z" fill="#1C0311" stroke="#1A1A1A" stroke-width="1.82184" stroke-linecap="round" stroke-linejoin="round"/>
<path d="M184.315 291.135V325.08" stroke="#1A1A1A" stroke-width="3.64368" stroke-linecap="round" stroke-linejoin="round"/>
<path d="M137.386 291.135V325.08" stroke="#1A1A1A" stroke-width="3.64368" stroke-linecap="round" stroke-linejoin="round"/>
<path d="M35.8645 335.09H414.08" stroke="#1A1A1A" stroke-width="5.46552" stroke-linecap="round" stroke-linejoin="round"/>
<path d="M371.99 38.3179H114.45C111.018 38.3179 108.236 41.0985 108.236 44.5285V198.526C108.236 201.956 111.018 204.736 114.45 204.736H371.99C375.422 204.736 378.204 201.956 378.204 198.526V44.5285C378.204 41.0985 375.422 38.3179 371.99 38.3179Z" fill="white" stroke="#1A1A1A" stroke-width="3.64368" stroke-linecap="round" stroke-linejoin="round"/>
<path d="M370.814 57.2333V185.819C370.814 188.988 369.554 192.028 367.312 194.269C365.07 196.51 362.029 197.769 358.858 197.769H315.167V45.2866H358.858C362.029 45.2865 365.069 46.545 367.311 48.7854C369.553 51.0258 370.813 54.0645 370.814 57.2333Z" fill="white" stroke="#1A1A1A" stroke-width="3.64368" stroke-linecap="round" stroke-linejoin="round"/>
<path d="M315.167 76.3784H115.628V146.513H315.167V76.3784Z" fill="white" stroke="#1A1A1A" stroke-width="3.64368" stroke-linecap="round" stroke-linejoin="round"/>
<path d="M308.737 80.8281H122.258V141.311H308.737V80.8281Z" stroke="#1A1A1A" stroke-width="3.64368" stroke-linecap="round" stroke-linejoin="round" stroke-dasharray="21.86 21.86"/>
<path d="M315.167 45.2866V76.3785H115.628V57.2333C115.628 55.6645 115.937 54.1109 116.537 52.6615C117.138 51.212 118.019 49.895 119.128 48.7857C120.238 47.6763 121.556 46.7963 123.006 46.196C124.456 45.5956 126.011 45.2866 127.58 45.2866L315.167 45.2866Z" fill="white" stroke="#1A1A1A" stroke-width="3.64368" stroke-linecap="round" stroke-linejoin="round"/>
<path d="M315.167 146.514V197.769H127.58C126.01 197.769 124.456 197.459 123.006 196.859C121.555 196.258 120.238 195.378 119.128 194.268C118.018 193.159 117.137 191.841 116.537 190.392C115.936 188.942 115.627 187.388 115.628 185.819V146.514H315.167Z" fill="white" stroke="#1A1A1A" stroke-width="3.64368" stroke-linecap="round" stroke-linejoin="round"/>
<path d="M343.86 109.143C349.382 109.143 353.859 104.669 353.859 99.1496C353.859 93.6301 349.382 89.1558 343.86 89.1558C338.338 89.1558 333.861 93.6301 333.861 99.1496C333.861 104.669 338.338 109.143 343.86 109.143Z" fill="white" stroke="#1A1A1A" stroke-width="3.64368" stroke-linecap="round" stroke-linejoin="round"/>
<path d="M274.508 124.658C280.03 124.658 284.506 120.184 284.506 114.665C284.506 109.145 280.03 104.671 274.508 104.671C268.985 104.671 264.509 109.145 264.509 114.665C264.509 120.184 268.985 124.658 274.508 124.658Z" fill="white" stroke="#1A1A1A" stroke-width="3.64368" stroke-linecap="round" stroke-linejoin="round"/>
<path d="M235.886 71.5516C241.408 71.5516 245.885 67.0772 245.885 61.5578C245.885 56.0383 241.408 51.564 235.886 51.564C230.364 51.564 225.887 56.0383 225.887 61.5578C225.887 67.0772 230.364 71.5516 235.886 71.5516Z" fill="white" stroke="#1A1A1A" stroke-width="3.64368" stroke-linecap="round" stroke-linejoin="round"/>
<path d="M263.23 183.533C268.752 183.533 273.228 179.059 273.228 173.539C273.228 168.02 268.752 163.545 263.23 163.545C257.707 163.545 253.231 168.02 253.231 173.539C253.231 179.059 257.707 183.533 263.23 183.533Z" fill="white" stroke="#1A1A1A" stroke-width="3.64368" stroke-linecap="round" stroke-linejoin="round"/>
<path d="M233.665 65.0945V64.5166L234.403 63.7998C236.18 62.109 236.983 61.2103 236.994 60.1617C236.994 59.4554 236.651 58.8027 235.613 58.8027C235.067 58.823 234.545 59.0308 234.135 59.3912L233.836 58.7278C234.389 58.2679 235.086 58.0178 235.805 58.0215C237.304 58.0215 237.936 59.0488 237.936 60.044C237.936 61.328 237.005 62.3659 235.538 63.7784L234.981 64.292V64.3134H238.107V65.0945H233.665Z" fill="black"/>
<path d="M272.591 117.062C273.059 117.338 273.59 117.489 274.133 117.5C275.343 117.5 275.717 116.73 275.707 116.152C275.696 115.178 274.818 114.761 273.908 114.761H273.384V114.055H273.908C274.593 114.055 275.461 113.702 275.461 112.878C275.461 112.321 275.107 111.829 274.24 111.829C273.741 111.843 273.257 112.003 272.848 112.289L272.602 111.604C273.143 111.252 273.776 111.066 274.422 111.069C275.792 111.069 276.413 111.883 276.413 112.728C276.413 113.445 275.985 114.055 275.129 114.365V114.387C275.985 114.558 276.681 115.2 276.681 116.174C276.681 117.286 275.814 118.26 274.144 118.26C273.509 118.268 272.884 118.105 272.334 117.789L272.591 117.062Z" fill="black"/>
<path d="M344.112 96.5493H344.09L342.88 97.202L342.698 96.4851L344.219 95.6719H345.022V102.627H344.112V96.5493Z" fill="black"/>
<path d="M263.914 177.017V175.123H260.681V174.502L263.786 170.062H264.803V174.384H265.777V175.123H264.803V177.017H263.914ZM263.914 174.384V172.062C263.914 171.699 263.925 171.335 263.946 170.971H263.914C263.7 171.378 263.529 171.677 263.336 171.998L261.634 174.363V174.384H263.914Z" fill="black"/>
<path d="M308.737 152.957H122.258V191.731H308.737V152.957Z" stroke="#1A1A1A" stroke-width="3.64368" stroke-linecap="round" stroke-linejoin="round" stroke-dasharray="21.86 21.86"/>
<path d="M179.399 111.215C179.399 111.215 177.274 110.345 181.066 108.463C184.857 106.581 189.108 112.953 188.963 115.198C188.818 117.443 182.37 121.209 182.37 121.209L179.399 111.215Z" fill="#54CAFA" stroke="#1A1A1A" stroke-width="3.64368" stroke-linecap="round" stroke-linejoin="round"/>
<path d="M191.052 98.4971C191.052 98.4971 187.502 95.3838 185.473 100.236C183.445 105.088 180.673 111.153 180.673 111.153C180.673 111.153 183.823 116.099 185.852 115.665C195.345 111.446 191.052 98.4971 191.052 98.4971Z" fill="#FFE3CA" stroke="#1A1A1A" stroke-width="3.64368" stroke-linecap="round" stroke-linejoin="round"/>
<path d="M192.147 79.3071L242.713 83.6523L236.192 121.165L187.357 114.068L192.147 79.3071Z" fill="white" stroke="#1A1A1A" stroke-width="3.64368" stroke-linecap="round" stroke-linejoin="round"/>
<path d="M217.333 98.2447L230.287 91.0752L231.301 92.4874L216.991 100.2C216.991 100.2 216.551 99.2947 217.333 98.2447Z" fill="white" stroke="#1A1A1A" stroke-width="3.64368" stroke-linecap="round" stroke-linejoin="round"/>
<path d="M145.732 106.102C145.732 106.102 112.475 138.473 119.974 154.333C124.756 163.349 139.211 153.79 139.211 153.79L145.732 106.102Z" fill="#54CAFA" stroke="#1A1A1A" stroke-width="3.64368" stroke-linecap="round" stroke-linejoin="round"/>
<path d="M159.419 352.211L159.897 349.864C159.897 349.864 147.942 348.376 146.42 349.12C146.42 349.12 145.812 350.382 145.075 352.254C149.425 353.719 154.708 353.236 159.419 352.211Z" fill="#1C0311" stroke="#1A1A1A" stroke-width="1.82184" stroke-linecap="round" stroke-linejoin="round"/>
<path d="M169.316 354.643C164.896 354.281 159.027 354.136 159.027 354.136L159.419 352.211C154.708 353.235 149.425 353.718 145.075 352.254C143.154 357.134 140.351 366.169 145.116 367.896C151.709 370.286 168.374 365.216 173.736 361.378C175.474 359.713 173.736 355.005 169.316 354.643Z" fill="#54CAFA" stroke="#1A1A1A" stroke-width="3.64368" stroke-linecap="round" stroke-linejoin="round"/>
<path d="M106.249 350.194L107.062 346.543C107.062 346.543 97.1144 343.058 95.4366 343.29C94.2538 344.687 93.1506 346.149 92.1323 347.669C96.1785 350.887 101.282 351.192 106.249 350.194Z" fill="#1C0311" stroke="#1A1A1A" stroke-width="1.82184" stroke-linecap="round" stroke-linejoin="round"/>
<path d="M115.467 355.676C111.38 353.954 105.849 351.987 105.849 351.987L106.249 350.195C101.282 351.193 96.1783 350.887 92.1322 347.669C89.3563 351.81 86.3461 357.779 89.772 360.464C95.2909 364.79 111.273 365.428 117.565 363.452C119.737 362.412 119.553 357.397 115.467 355.676Z" fill="#54CAFA" stroke="#1A1A1A" stroke-width="3.64368" stroke-linecap="round" stroke-linejoin="round"/>
<path d="M188.661 181.49C188.661 181.49 143.015 177.797 134.863 183.771C126.712 189.746 112.801 221.465 120.409 266.655C105.41 292.074 93.4553 344.65 93.4553 344.65C93.4553 344.65 103.092 350.226 107.149 348.923C113.018 340.232 140.624 292.726 152.361 242.974C161.925 212.123 168.229 198.002 168.229 198.002" fill="#0E538C"/>
<path d="M188.661 181.49C188.661 181.49 143.015 177.797 134.863 183.771C126.712 189.746 112.801 221.465 120.409 266.655C105.41 292.074 93.4553 344.65 93.4553 344.65C93.4553 344.65 103.092 350.226 107.149 348.923C113.018 340.232 140.624 292.726 152.361 242.974C161.925 212.123 168.229 198.002 168.229 198.002" stroke="#1A1A1A" stroke-width="3.64368" stroke-linecap="round" stroke-linejoin="round"/>
<path d="M161.165 178.123C161.599 178.123 194.113 180.825 194.865 182.515C195.617 184.206 196.487 229.721 190.618 258.182C184.749 286.642 162.722 351.312 162.722 351.312C162.722 351.312 146.348 353.195 144.029 349.864C144.609 340.449 155.477 279.618 160.984 270.638C159.1 260.934 146.27 230.999 152.142 209.28" fill="#0E538C"/>
<path d="M161.165 178.123C161.599 178.123 194.113 180.825 194.865 182.515C195.617 184.206 196.487 229.721 190.618 258.182C184.749 286.642 162.722 351.312 162.722 351.312C162.722 351.312 146.348 353.195 144.029 349.864C144.609 340.449 155.477 279.618 160.984 270.638C159.1 260.934 146.27 230.999 152.142 209.28" stroke="#1A1A1A" stroke-width="3.64368" stroke-linecap="round" stroke-linejoin="round"/>
<path d="M134.779 186.148C134.779 186.148 139.753 189.097 152.206 189.303C164.658 189.508 180.61 186.285 186.167 186.148C191.724 186.011 195.12 184.77 195.12 184.77V180.361L134.779 182.308L133.625 184.837L134.779 186.148Z" fill="#1C0311" stroke="#1A1A1A" stroke-width="1.82184" stroke-linecap="round" stroke-linejoin="round"/>
<path d="M154.861 102.3C154.861 102.3 145.623 99.6929 136.385 116.204C127.147 132.716 129.864 180.078 134.863 183.771C139.863 187.465 159.534 188.334 166.816 186.921C174.098 185.509 188.009 185.292 192.465 184.314C196.921 183.337 198.117 172.8 197.573 163.24C197.03 153.681 197.101 117.043 174.098 105.342C162.36 99.9102 154.861 102.3 154.861 102.3Z" fill="#54CAFA" stroke="#1A1A1A" stroke-width="3.64368" stroke-linecap="round" stroke-linejoin="round"/>
<path d="M162.034 123.157C162.034 123.157 168.3 165.591 200.508 157.049C228.222 149.698 221.556 107.985 221.556 107.985C221.556 107.985 221.484 107.261 219.455 107.261C217.426 107.261 211.919 105.16 211.919 108.347C211.919 111.533 210.475 130.023 202.211 131.949C193.946 133.874 190.128 122.151 188.751 120.051" fill="#54CAFA"/>
<path d="M162.034 123.157C162.034 123.157 168.3 165.591 200.508 157.049C228.222 149.698 221.556 107.985 221.556 107.985C221.556 107.985 221.484 107.261 219.455 107.261C217.426 107.261 211.919 105.16 211.919 108.347C211.919 111.533 210.475 130.023 202.211 131.949C193.946 133.874 190.128 122.151 188.751 120.051" stroke="#1A1A1A" stroke-width="3.64368" stroke-linecap="round" stroke-linejoin="round"/>
<path d="M219.817 108.528C219.817 108.528 224.961 101.54 223.875 99.1862C222.788 96.8326 217.571 94.3703 216.267 94.1168C214.963 93.8634 211.05 96.8326 210.724 97.8102C210.398 98.7879 211.086 102.011 211.666 102.771C212.245 103.531 213.441 107.442 213.441 107.84C213.441 108.239 219.817 108.528 219.817 108.528Z" fill="#FFE3CA" stroke="#1A1A1A" stroke-width="3.64368" stroke-linecap="round" stroke-linejoin="round"/>
<path d="M216.412 97.6289C216.412 97.6289 214.057 99.9825 215.506 101.54C216.955 103.097 214.528 104.183 214.528 104.183" fill="white"/>
<path d="M216.412 97.6289C216.412 97.6289 214.057 99.9825 215.506 101.54C216.955 103.097 214.528 104.183 214.528 104.183" stroke="#1A1A1A" stroke-width="3.64368" stroke-linecap="round" stroke-linejoin="round"/>
<path d="M210.935 100.746L208.007 102.336L206.413 103.676H208.731L211.666 102.771L210.935 100.746Z" fill="white" stroke="#1A1A1A" stroke-width="3.64368" stroke-linecap="round" stroke-linejoin="round"/>
<path d="M159.534 94.162C159.534 94.162 164.28 94.7775 167.251 93.0395C173.41 88.115 161.346 68.3809 161.346 68.3809C161.346 68.3809 140.551 79.0264 140.551 79.2437C140.551 79.4609 144.971 93.1481 145.261 93.2205C145.551 93.2929 149.246 94.5965 149.246 94.5965C149.246 94.5965 150.115 100.028 149.029 103.721C151.13 106.328 160.549 107.27 165.621 104.083C167.07 103.069 166.092 102.191 166.092 102.191C166.092 102.191 163.806 95.8174 163.555 94.1518" fill="#FFE3CA"/>
<path d="M159.534 94.162C159.534 94.162 164.28 94.7775 167.251 93.0395C173.41 88.115 161.346 68.3809 161.346 68.3809C161.346 68.3809 140.551 79.0264 140.551 79.2437C140.551 79.4609 144.971 93.1481 145.261 93.2205C145.551 93.2929 149.246 94.5965 149.246 94.5965C149.246 94.5965 150.115 100.028 149.029 103.721C151.13 106.328 160.549 107.27 165.621 104.083C167.07 103.069 166.092 102.191 166.092 102.191C166.092 102.191 163.806 95.8174 163.555 94.1518" stroke="#1A1A1A" stroke-width="3.64368" stroke-linecap="round" stroke-linejoin="round"/>
<path d="M163.826 95.3125C163.826 95.3125 159.95 95.1325 159.178 94.2324C163.681 94.3867 163.552 94.361 163.552 94.361L163.826 95.3125Z" fill="#1C0311" stroke="#1A1A1A" stroke-width="1.82184" stroke-linecap="round" stroke-linejoin="round"/>
<path d="M152.434 82.4301C152.434 82.4301 145.623 76.2021 144.826 83.0818C144.029 89.9616 149.536 87.7891 151.492 87.6442C151.492 87.6442 152.506 90.9755 151.492 93.2205C150.478 95.4655 144.174 100.318 141.348 97.7829C138.522 95.2482 133.306 85.0822 133.74 79.8455C134.175 74.6088 136.349 70.2637 139.972 68.236C143.594 66.2083 156.926 63.1667 158.158 58.7491C158.737 56.3593 161.636 58.0249 163.012 61.0665C164.389 64.1081 166.852 65.1944 164.606 67.4394C162.36 69.6844 153.231 72.7984 152.144 73.088C152.361 78.1574 155.477 82.5025 154.97 82.6473C154.463 82.7922 153.086 83.6612 152.434 82.4301Z" fill="#1C0311" stroke="#1A1A1A" stroke-width="1.82184" stroke-linecap="round" stroke-linejoin="round"/>
<path d="M187.357 102.211C187.357 102.211 190.911 102.192 190.547 104.962C190.183 107.732 187.357 108.528 187.357 108.528" fill="white"/>
<path d="M187.357 102.211C187.357 102.211 190.911 102.192 190.547 104.962C190.183 107.732 187.357 108.528 187.357 108.528" stroke="#1A1A1A" stroke-width="3.64368" stroke-linecap="round" stroke-linejoin="round"/>
<path d="M48.4516 193.201C48.4516 193.449 48.4618 193.691 48.4771 193.933C46.2144 194.44 43.8499 194.229 41.713 193.329C39.576 192.429 37.773 190.886 36.5549 188.914C35.3369 186.942 34.7644 184.639 34.9173 182.326C35.0702 180.014 35.9408 177.806 37.4079 176.011C38.875 174.217 40.8656 172.924 43.1024 172.313C45.3392 171.702 47.7109 171.804 49.8873 172.603C52.0637 173.403 53.9363 174.861 55.2446 176.775C56.5528 178.688 57.2314 180.962 57.1859 183.279C54.7719 183.589 52.5535 184.767 50.9458 186.593C49.3381 188.419 48.4514 190.768 48.4516 193.201Z" fill="white" stroke="#1A1A1A" stroke-width="3.64368" stroke-linecap="round" stroke-linejoin="round"/>
<path d="M68.4684 193.201C68.4682 195.791 67.4633 198.279 65.665 200.144C63.8667 202.008 61.4152 203.103 58.826 203.198C56.2368 203.292 53.7117 202.38 51.7816 200.652C49.8516 198.925 48.6672 196.516 48.4773 193.933C50.9122 193.387 53.0935 192.041 54.6723 190.109C56.2511 188.178 57.1362 185.773 57.1861 183.279C58.5964 183.098 60.0292 183.219 61.389 183.635C62.7488 184.051 64.0043 184.752 65.0718 185.69C66.1394 186.629 66.9945 187.785 67.5802 189.08C68.1659 190.375 68.4687 191.78 68.4684 193.201Z" fill="#1C0311" stroke="#1A1A1A" stroke-width="1.82184" stroke-linecap="round" stroke-linejoin="round"/>
<path d="M344.234 156.584C350.283 156.584 355.187 151.682 355.187 145.636C355.187 139.59 350.283 134.689 344.234 134.689C338.185 134.689 333.281 139.59 333.281 145.636C333.281 151.682 338.185 156.584 344.234 156.584Z" fill="white" stroke="#1A1A1A" stroke-width="3.64368" stroke-linecap="round" stroke-linejoin="round"/>
<path d="M350.117 150.521H338.351C338.351 150.521 338.242 149.16 338.95 148.832C339.659 148.506 340.202 141.81 342.219 140.994C342.534 140.866 342.799 140.758 343.023 140.668C342.959 140.512 342.926 140.345 342.926 140.177C342.925 139.984 342.968 139.793 343.05 139.619C343.132 139.444 343.252 139.29 343.401 139.167C343.55 139.045 343.724 138.956 343.912 138.909C344.099 138.861 344.294 138.856 344.483 138.893C344.673 138.93 344.852 139.008 345.008 139.122C345.163 139.236 345.291 139.384 345.383 139.553C345.475 139.723 345.529 139.911 345.539 140.104C345.55 140.296 345.518 140.489 345.445 140.668C345.668 140.758 345.934 140.866 346.249 140.994C348.265 141.81 348.809 148.506 349.517 148.832C350.225 149.16 350.117 150.521 350.117 150.521Z" fill="white" stroke="#1A1A1A" stroke-width="3.64368" stroke-linecap="round" stroke-linejoin="round"/>
<path d="M346.116 150.521C346.116 151.019 345.917 151.498 345.564 151.85C345.211 152.203 344.733 152.401 344.233 152.401C343.734 152.401 343.256 152.203 342.902 151.85C342.549 151.498 342.351 151.019 342.35 150.521H346.116Z" fill="#1A1A1A" stroke="#1A1A1A" stroke-width="3.64368" stroke-linecap="round" stroke-linejoin="round"/>
<path d="M325.099 303.685H323.178V312.736H325.099V303.685Z" fill="white" stroke="#1A1A1A" stroke-width="3.64368" stroke-linecap="round" stroke-linejoin="round"/>
<path d="M190.582 303.685H188.661V312.736H190.582V303.685Z" fill="white" stroke="#1A1A1A" stroke-width="3.64368" stroke-linecap="round" stroke-linejoin="round"/>
<path d="M142.019 303.685H140.098V312.736H142.019V303.685Z" fill="white" stroke="#1A1A1A" stroke-width="3.64368" stroke-linecap="round" stroke-linejoin="round"/>
<path d="M360.28 58.0215H325.701V66.36H360.28V58.0215Z" fill="#1C0311" stroke="#1A1A1A" stroke-width="1.82184" stroke-linecap="round" stroke-linejoin="round"/>
<path d="M360.28 183.393H325.701V191.731H360.28V183.393Z" fill="#1C0311" stroke="#1A1A1A" stroke-width="1.82184" stroke-linecap="round" stroke-linejoin="round"/>
<path d="M360.28 165.893H325.701V174.231H360.28V165.893Z" fill="#1C0311" stroke="#1A1A1A" stroke-width="1.82184" stroke-linecap="round" stroke-linejoin="round"/>
<path d="M426.908 197.605L422.234 196.283C421.99 196.214 421.733 196.206 421.485 196.258C421.236 196.311 421.005 196.423 420.809 196.585L417.071 199.683C416.846 199.87 416.574 199.989 416.284 200.029C415.995 200.069 415.7 200.026 415.434 199.907C415.167 199.788 414.939 199.597 414.775 199.355C414.612 199.114 414.519 198.831 414.508 198.539L414.321 193.689C414.312 193.435 414.24 193.188 414.114 192.968C413.987 192.748 413.809 192.563 413.594 192.427L409.491 189.831C409.244 189.675 409.046 189.453 408.919 189.19C408.792 188.927 408.741 188.634 408.771 188.344C408.802 188.054 408.914 187.778 409.093 187.548C409.273 187.317 409.513 187.142 409.787 187.041L414.345 185.365C414.583 185.277 414.796 185.133 414.966 184.945C415.136 184.757 415.258 184.53 415.321 184.284L416.523 179.581C416.595 179.298 416.745 179.041 416.956 178.839C417.167 178.637 417.43 178.498 417.716 178.438C418.001 178.377 418.298 178.398 418.573 178.497C418.847 178.597 419.089 178.771 419.269 179.001L422.273 182.815C422.43 183.015 422.633 183.173 422.864 183.276C423.096 183.38 423.35 183.425 423.603 183.409L428.45 183.098C428.741 183.08 429.032 183.143 429.289 183.281C429.547 183.419 429.76 183.626 429.906 183.879C430.052 184.132 430.124 184.42 430.114 184.712C430.104 185.004 430.013 185.287 429.85 185.529L427.149 189.563C427.007 189.774 426.92 190.016 426.893 190.268C426.866 190.52 426.901 190.775 426.995 191.011L428.788 195.522C428.896 195.794 428.926 196.09 428.874 196.377C428.822 196.664 428.691 196.931 428.495 197.148C428.3 197.364 428.047 197.522 427.767 197.603C427.486 197.684 427.189 197.684 426.908 197.605Z" fill="#FFBE55" stroke="#1A1A1A" stroke-width="3.64368" stroke-linecap="round" stroke-linejoin="round"/>
<path d="M96.79 122.188H71.7766V147.189H96.79V122.188Z" fill="white" stroke="#1A1A1A" stroke-width="3.64368" stroke-linecap="round" stroke-linejoin="round"/>
<path d="M84.2834 126.46V142.918" stroke="#1A1A1A" stroke-width="3.64368" stroke-linecap="round" stroke-linejoin="round"/>
<path d="M76.0798 134.689H92.281" stroke="#1A1A1A" stroke-width="3.64368" stroke-linecap="round" stroke-linejoin="round"/>
<path d="M421.523 100.314C430.346 100.314 437.498 93.1655 437.498 84.3474C437.498 75.5293 430.346 68.3809 421.523 68.3809C412.701 68.3809 405.549 75.5293 405.549 84.3474C405.549 93.1655 412.701 100.314 421.523 100.314Z" fill="white" stroke="#1A1A1A" stroke-width="3.64368" stroke-linecap="round" stroke-linejoin="round"/>
<path d="M430.471 82.5904H428.909V92.3156H423.899V87.4828C423.899 87.1963 423.843 86.9126 423.733 86.6479C423.624 86.3832 423.463 86.1426 423.261 85.94C423.058 85.7373 422.818 85.5766 422.553 85.4669C422.288 85.3572 422.004 85.3008 421.718 85.3008C421.431 85.3008 421.147 85.3572 420.882 85.4669C420.618 85.5766 420.377 85.7373 420.175 85.94C419.972 86.1426 419.811 86.3832 419.702 86.6479C419.592 86.9126 419.536 87.1963 419.536 87.4828V92.3156H414.525V82.5904H412.576L421.371 73.9863L430.471 82.5904Z" fill="white" stroke="#1A1A1A" stroke-width="3.64368" stroke-linecap="round" stroke-linejoin="round"/>
</g>
<defs>
<clipPath id="clip0_135_3245">
<rect width="500" height="385" fill="white"/>
</clipPath>
</defs>
</svg>
