<svg width="16" height="20" viewBox="0 0 16 20" fill="none" xmlns="http://www.w3.org/2000/svg">
<g clip-path="url(#clip0_254_630)">
<path d="M15.7895 7.89474C15.7895 3.52632 12.2632 0 7.89474 0C3.52632 0 0 3.52632 0 7.89474C0 11.1579 1.94737 13.9474 4.73684 15.1579C4.73684 15.2105 4.73684 15.2632 4.73684 15.2632V19.4737C4.73684 19.6316 4.84211 19.7895 4.94737 19.8947C5.10526 20 5.26316 20 5.42105 19.9474L7.47368 19.1053C7.73684 19 8 19 8.26316 19.1053L10.3158 19.9474C10.3684 19.9474 10.4211 20 10.5263 20C10.6316 20 10.7368 19.9474 10.8421 19.8947C11 19.7895 11.0526 19.6316 11.0526 19.4737V15.2632C11.0526 15.2105 11.0526 15.1579 11.0526 15.1579C13.8421 13.9474 15.7895 11.1579 15.7895 7.89474ZM10 18.6842L8.68421 18.1579C8.21053 17.9474 7.63158 17.9474 7.10526 18.1579L5.78947 18.6842V15.4737C6.47368 15.6842 7.1579 15.7895 7.89474 15.7895C8.63158 15.7895 9.31579 15.6842 10 15.4737V18.6842ZM7.89474 14.7368C4.10526 14.7368 1.05263 11.6842 1.05263 7.89474C1.05263 4.10526 4.10526 1.05263 7.89474 1.05263C11.6842 1.05263 14.7368 4.10526 14.7368 7.89474C14.7368 11.6842 11.6842 14.7368 7.89474 14.7368Z" fill="white"/>
<path d="M13.0525 6.36819C12.842 5.78924 12.3683 5.31556 11.7368 5.26293L10.421 5.0524C10.2104 4.99977 10.0525 4.89451 9.99991 4.73661L9.42097 3.52608C9.10518 2.99977 8.52623 2.63135 7.89465 2.63135C7.26307 2.63135 6.68412 2.99977 6.42097 3.52608L5.84202 4.73661C5.73676 4.89451 5.57886 5.0524 5.42097 5.0524L4.05255 5.26293C3.42097 5.36819 2.89465 5.78924 2.73676 6.36819C2.52623 6.94714 2.68412 7.63135 3.15781 8.0524L4.10518 8.99977C4.26307 9.15766 4.3157 9.31556 4.26307 9.52608L4.05255 10.8419C3.94728 11.4735 4.21044 12.105 4.68412 12.4735C4.94728 12.684 5.3157 12.7892 5.63149 12.7892C5.89465 12.7892 6.15781 12.7366 6.42097 12.5787L7.63149 11.9471C7.78939 11.8419 7.99991 11.8419 8.15781 11.9471L9.36834 12.5787C9.94728 12.8945 10.5789 12.8419 11.1052 12.4735C11.6315 12.105 11.842 11.4735 11.7368 10.8419L11.5262 9.52608C11.4736 9.31556 11.5789 9.15766 11.6841 8.99977L12.6315 8.0524C13.1052 7.63135 13.2631 6.99977 13.0525 6.36819ZM11.8947 7.31556L10.9473 8.26293C10.5789 8.63135 10.3683 9.2103 10.4736 9.73661L10.6841 11.0524C10.7368 11.2629 10.6315 11.4735 10.4736 11.6313C10.2631 11.7892 10.0525 11.7892 9.84202 11.684L8.68412 11.0524C8.21044 10.7892 7.63149 10.7892 7.15781 11.0524L5.94728 11.684C5.73676 11.7892 5.52623 11.7892 5.3157 11.6313C5.10518 11.4735 5.05255 11.2629 5.10518 11.0524L5.3157 9.73661C5.42097 9.2103 5.21044 8.68398 4.84202 8.26293L3.89465 7.31556C3.73676 7.15766 3.68412 6.94714 3.73676 6.68398C3.78939 6.47345 3.99991 6.31556 4.21044 6.26293L5.52623 6.0524C6.05255 5.99977 6.52623 5.63135 6.78939 5.15766L7.36834 3.94714C7.4736 3.73661 7.68412 3.63135 7.89465 3.63135C8.10518 3.63135 8.3157 3.73661 8.42097 3.94714L8.99991 5.15766C9.26307 5.63135 9.68412 5.99977 10.2631 6.0524L11.5789 6.31556C11.7894 6.36819 11.9999 6.47345 12.0525 6.73661C12.1578 6.94714 12.0525 7.15766 11.8947 7.31556Z" fill="white"/>
</g>
<defs>
<clipPath id="clip0_254_630">
<rect width="15.7895" height="20" fill="white"/>
</clipPath>
</defs>
</svg>
