<svg width="539" height="564" viewBox="0 0 539 564" fill="none" xmlns="http://www.w3.org/2000/svg">
<g clip-path="url(#clip0_101_1689)">
<path opacity="0.37" d="M46.9152 458.614C48.0897 461.592 49.3877 464.571 50.8094 467.423C71.9491 509.944 114.847 536.75 160.587 541.566C197.18 545.369 232.784 533.138 263.381 513.176C293.916 493.278 318.393 465.268 352.328 450.693C400.17 430.224 453.514 414.064 491.034 370.719C533.684 321.48 550.126 246.829 530.037 183.838C510.505 122.369 445.664 102.47 395.287 75.4109C304.733 26.6787 179.316 -5.70375 85.0532 51.5201C-27.8772 120.024 -7.35562 275.536 28.4335 383.456C36.5927 408.044 37.5816 434.533 46.9152 458.614Z" fill="#CCE9FF"/>
<path d="M104.524 167.235L104.339 166.031H103.164C80.2937 166.031 72.8763 158.49 72.8144 158.427L71.8255 157.286L70.8365 158.427C70.7747 158.49 63.419 166.031 40.4868 166.031H39.3124L39.127 167.235C39.0651 167.616 34.2438 205.385 71.2074 224.776L71.8255 225.093L72.4436 224.776C109.531 205.385 104.524 167.616 104.524 167.235ZM98.9609 190.619C94.3868 204.181 85.2387 214.7 71.7637 221.924C58.2887 214.7 49.1405 204.181 44.5664 190.619C41.2286 180.67 41.414 171.988 41.6612 168.883C60.6993 168.63 69.1676 163.433 71.7637 161.279C74.3598 163.37 82.828 168.63 101.866 168.883C102.113 172.052 102.299 180.67 98.9609 190.619ZM140.808 118.693L139.51 115.208C138.335 115.081 137.222 114.764 136.11 114.384L133.452 116.919L125.787 111.279L127.271 107.857C126.529 106.906 125.911 105.892 125.416 104.815L121.77 104.688L120.224 95.1195L123.624 93.7887C123.747 92.5846 124.057 91.444 124.427 90.3033L121.955 87.5783L127.456 79.657L130.794 81.1779C131.721 80.4174 132.71 79.7837 133.761 79.2768L133.885 75.5379L143.218 73.9536L144.516 77.439C145.691 77.5657 146.803 77.8826 147.916 78.2628L150.574 75.728L158.239 81.368L156.755 84.79C157.497 85.7406 158.115 86.7545 158.609 87.8318L162.256 87.9586L163.802 97.5275L160.402 98.8583C160.217 100.062 159.969 101.203 159.598 102.344L162.071 105.069L156.57 112.99L153.232 111.469C152.305 112.23 151.316 112.863 150.265 113.37L150.141 117.109L140.808 118.693ZM135.492 111.342L136.233 111.659C137.593 112.23 139.077 112.546 140.56 112.673L141.364 112.737L142.476 115.715L147.607 114.828L147.731 111.659L148.472 111.342C149.832 110.709 151.068 109.885 152.243 108.934L152.861 108.427L155.704 109.758L158.733 105.449L156.57 103.104L156.879 102.344C157.435 100.95 157.744 99.4287 157.868 97.9078L157.929 97.084L160.835 95.9433L159.969 90.6835L156.879 90.5568L156.57 89.7963C155.951 88.4022 155.148 87.1347 154.221 85.9307L153.726 85.297L155.024 82.3819L150.821 79.2768L148.534 81.4314L147.792 81.1145C146.432 80.5442 144.949 80.2273 143.465 80.1006L142.662 80.0372L141.549 77.0588L136.419 77.946L136.295 81.1145L135.554 81.4314C134.194 82.0651 132.957 82.8889 131.783 83.8395L131.165 84.3464L128.322 83.0156L125.293 87.3249L127.456 89.6696L127.147 90.43C126.591 91.8242 126.282 93.3451 126.158 94.866L126.096 95.6898L123.191 96.8305L124.057 102.09L127.147 102.217L127.456 102.977C128.074 104.372 128.878 105.639 129.805 106.843L130.3 107.477L129.002 110.392L133.205 113.497L135.492 111.342ZM141.92 106.906C139.819 106.906 137.717 106.209 135.986 104.942C131.35 101.583 130.3 94.9927 133.576 90.2399C136.852 85.4871 143.28 84.4098 147.916 87.7684C150.141 89.4161 151.625 91.8242 152.119 94.6125C152.552 97.4008 151.934 100.189 150.388 102.47C148.781 104.752 146.432 106.273 143.713 106.78C143.033 106.843 142.477 106.906 141.92 106.906ZM141.92 88.4655C139.51 88.4655 137.161 89.6062 135.677 91.7608C134.503 93.4718 134.008 95.5631 134.379 97.6543C134.75 99.7455 135.801 101.52 137.47 102.724C139.139 103.928 141.178 104.435 143.218 104.055C145.258 103.675 146.989 102.597 148.163 100.886C149.338 99.1752 149.832 97.0839 149.461 94.9927C149.09 92.9015 148.04 91.1271 146.371 89.923C145.011 88.9725 143.465 88.4655 141.92 88.4655ZM437.134 221.988L434.229 214.193C431.138 213.813 428.048 213.116 425.142 212.039L419.209 217.742L403.137 206.018L406.475 198.414C404.559 195.942 402.89 193.217 401.53 190.302L393.433 190.049L390.157 170.087L397.76 167.109C398.131 163.94 398.811 160.772 399.861 157.793L394.298 151.71L405.734 135.233L413.151 138.655C415.562 136.691 418.22 134.98 421.063 133.586L421.31 125.284L440.781 121.925L443.686 129.72C446.777 130.1 449.867 130.797 452.772 131.875L458.706 126.171L474.777 137.895L471.44 145.499C473.356 147.971 475.025 150.696 476.385 153.611L484.482 153.864L487.758 173.826L480.155 176.804C479.784 179.973 479.104 183.141 478.053 186.12L483.617 192.203L472.181 208.68L464.764 205.258C462.353 207.222 459.695 208.933 456.852 210.328L456.605 218.629L437.134 221.988ZM424.277 207.983L425.266 208.363C428.542 209.63 432.004 210.454 435.527 210.771L436.639 210.898L439.297 217.995L453.143 215.587L453.39 207.983L454.379 207.539C457.594 206.082 460.622 204.117 463.342 201.772L464.146 201.075L470.945 204.181L479.104 192.457L474.036 186.88L474.407 185.866C475.643 182.508 476.446 178.959 476.755 175.347L476.817 174.206L483.74 171.481L481.391 157.286L473.974 157.033L473.541 156.019C472.119 152.724 470.203 149.618 467.916 146.83L467.236 146.006L470.265 139.035L458.83 130.67L453.39 135.867L452.402 135.487C449.125 134.219 445.664 133.395 442.141 133.079L441.028 133.015L438.37 125.918L424.524 128.326L424.277 135.93L423.288 136.374C420.074 137.831 417.045 139.796 414.325 142.141L413.522 142.838L406.722 139.732L398.687 151.456L403.756 157.033L403.385 158.047C402.148 161.405 401.345 164.954 401.036 168.566L400.974 169.707L394.051 172.432L396.4 186.627L403.817 186.88L404.25 187.894C405.672 191.19 407.588 194.295 409.875 197.083L410.555 197.907L407.526 204.878L418.961 213.243L424.277 207.983ZM438.865 194.928C434.352 194.928 429.84 193.534 425.884 190.683C415.809 183.332 413.46 168.946 420.63 158.617C427.8 148.288 441.832 145.879 451.907 153.23C461.982 160.581 464.331 174.967 457.161 185.296C452.772 191.57 445.849 194.928 438.865 194.928ZM438.926 152.533C432.993 152.533 427.12 155.385 423.474 160.708C420.507 164.954 419.394 170.087 420.197 175.22C421.063 180.353 423.783 184.789 427.924 187.831C436.454 194.041 448.322 192.013 454.379 183.268C457.285 179.022 458.459 173.889 457.656 168.756C456.79 163.623 454.07 159.187 449.929 156.146C446.529 153.674 442.697 152.533 438.926 152.533ZM136.172 364.572C133.205 356.017 129.805 346.385 133.576 336.499C138.644 323.191 127.889 316.347 118.432 310.2C110.272 305.003 102.608 300.061 105.204 291.886C108.047 283.014 107.862 276.17 104.648 271.67C101.928 267.868 97.1065 265.84 90.6781 265.904C85.5477 265.967 80.9736 259.503 76.0905 252.723C70.342 244.738 64.4698 236.5 57.0524 238.337C55.7544 238.654 54.7036 239.415 54.0854 240.619C51.4893 245.625 55.5689 257.539 59.9576 270.213C64.6553 283.901 70.0329 299.363 66.5096 305.954C62.6773 313.178 69.6002 319.769 76.9559 326.803C84.7442 334.217 93.5833 342.646 91.2344 353.229C89.0092 363.115 88.5147 366.79 89.8745 368.945C90.9253 370.656 93.0888 371.036 96.3648 371.67C98.59 372.113 101.433 372.62 104.895 373.761C119.792 378.514 124.118 388.399 124.18 388.526L124.366 388.97L124.798 388.906C131.968 387.766 136.172 385.675 138.15 382.316C138.273 382.126 138.335 381.936 138.459 381.746C140.56 377.246 138.521 371.353 136.172 364.572Z" fill="#00D6C4"/>
<path d="M98.0955 345.687C100.568 349.616 102.361 353.038 102.175 357.855C102.051 362.354 101.372 366.79 101.001 371.226C100.939 372.176 100.877 373.064 100.815 373.951C99.579 372.873 98.4046 371.796 97.1684 370.719C96.6121 370.655 96.0557 370.655 95.4376 370.655C97.1683 372.113 98.9609 373.697 100.692 375.282C100.506 378.387 100.444 381.492 100.444 384.597C100.444 386.435 100.383 388.399 100.506 390.237C98.8991 389.223 97.2302 388.209 95.6849 387.195C90.8635 384.153 86.3513 381.302 82.8898 379.781C80.2319 378.64 77.2649 377.626 74.4216 376.676C67.0041 374.204 59.4013 371.669 56.867 366.283C55.5689 363.495 55.6926 360.136 57.2379 356.08C61.132 345.624 57.4851 343.85 51.3657 340.808C46.9153 338.59 40.8577 335.611 34.8001 328.07C32.1422 324.775 29.7934 321.923 27.6917 319.452C21.4487 311.911 17.9873 307.792 18.42 305.384C18.5436 304.813 18.8526 304.306 19.4708 303.799C19.7798 303.546 20.1507 303.292 20.6452 303.039C22.994 301.708 25.3429 302.722 28.0008 303.863C31.5859 305.384 35.9746 307.348 42.0939 304.116C46.9153 301.581 52.2929 299.237 55.5071 301.138C57.7323 302.405 59.0304 305.7 59.4631 311.087C59.5867 312.798 60.143 314.002 61.0702 314.699C62.4301 315.713 64.5317 315.586 66.9423 315.079C68.6112 317.424 70.7747 318.565 73.3708 319.515C77.0177 320.846 79.7374 322.05 82.3953 325.092C88.082 331.682 93.5833 338.4 98.0955 345.687Z" fill="#2A94F4"/>
<path d="M78.3775 356.144C74.6688 353.609 71.4546 347.462 68.364 341.505C64.1608 333.394 59.7721 325.029 53.7764 325.219C44.1337 325.472 35.5419 313.812 35.4182 313.749L34.6147 314.382C34.9855 314.889 43.6392 326.549 53.7764 326.296C59.154 326.169 63.419 334.217 67.4368 342.075C70.5892 348.096 73.8652 354.369 77.7594 357.094C80.1082 358.678 84.4351 361.91 89.5655 366.029V364.699C85.0532 360.833 81.0354 357.918 78.3775 356.144Z" fill="white"/>
<path d="M404.126 434.66C404.126 434.66 409.689 420.465 399.552 400.313C389.353 380.161 381.132 383.266 405.672 367.74C430.211 352.215 405.795 303.419 426.688 297.209C447.58 290.998 465.691 211.975 481.577 222.051C497.462 232.127 476.261 270.846 487.634 282.507C498.946 294.167 500.491 308.932 477.064 320.909C453.638 332.886 493.692 378.64 461.921 392.582C430.149 406.523 439.297 461.212 404.126 434.66Z" fill="#00D6C4"/>
<path d="M413.831 449.679C413.769 449.489 410.369 431.365 421.186 407.918C432.189 384.027 437.443 357.918 435.28 338.02C434.105 327.247 440.843 323.064 447.333 319.008C453.761 315.016 460.375 310.834 460.004 300.251C459.695 290.682 463.651 268.248 463.775 267.298L465.197 267.551C465.135 267.805 461.117 290.808 461.426 300.187C461.797 311.657 454.812 316.03 448.075 320.212C441.646 324.205 435.65 328.007 436.701 337.83C438.926 357.918 433.611 384.344 422.484 408.488C411.915 431.492 415.191 449.172 415.252 449.362L413.831 449.679Z" fill="white"/>
<path d="M498.204 331.936C507.043 327.627 516.439 329.591 511.555 338.653C506.672 347.715 499.379 348.413 500.738 355.573C502.098 362.734 505.683 370.529 494.186 375.092C482.689 379.591 477.312 378.831 470.327 392.075C463.28 405.32 460.87 415.142 448.816 411.973C436.763 408.742 446.777 392.455 453.02 385.611C453.02 385.611 461.488 378.26 461.364 365.016C461.241 351.771 455.925 342.899 472.614 343.786C489.303 344.547 492.208 334.851 498.204 331.936Z" fill="#0E538C"/>
<path d="M446.9 421.225C447.395 419.514 459.015 378.514 468.534 374.078C478.239 369.515 483.493 357.601 485.78 350.947C488.747 342.265 501.418 340.554 501.913 340.491L502.098 341.949C501.975 341.949 489.798 343.596 487.14 351.391C484.296 359.819 478.857 370.846 469.153 375.408C460.252 379.591 448.446 421.225 448.322 421.669L446.9 421.225ZM140.746 388.209C121.708 383.33 121.46 372.81 121.213 362.671C121.028 354.369 120.842 346.511 110.52 341.695C96.8593 335.295 96.5502 323.444 96.2412 312.988C95.9939 305.194 95.8085 297.843 90.1218 293.85C76.4613 284.281 64.9025 261.087 64.7789 260.834L65.8297 260.264C65.9533 260.517 77.3267 283.394 90.8017 292.836C96.9829 297.145 97.2302 304.813 97.4156 312.925C97.7247 323.508 98.0337 334.534 111.014 340.554C121.955 345.687 122.202 354.306 122.388 362.607C122.635 372.747 122.882 382.379 141.055 387.005L140.746 388.209Z" fill="white"/>
<path d="M115.094 378.83H427.8V147.4C427.8 144.105 425.204 141.38 421.928 141.38H120.966C117.752 141.38 115.094 144.041 115.094 147.4V378.83Z" fill="#F7F7F7"/>
<path d="M416.161 335.684L126.14 335.684V152.986L416.161 152.986V335.684Z" fill="#0B4870" stroke="white" stroke-width="0.5" stroke-miterlimit="10"/>
<path d="M427.8 344.547H115.217L80.9736 475.661H461.982L427.8 344.547Z" fill="#F2F2F2"/>
<path d="M127.024 367.55H146.247C147.051 367.55 147.669 368.184 147.483 368.881L145.629 377.436C145.505 377.943 145.011 378.323 144.393 378.323H124.86C124.057 378.323 123.438 377.69 123.624 376.929L125.787 368.374C125.911 367.93 126.405 367.55 127.024 367.55ZM155.024 367.55H169.55L167.634 378.387H152.799L155.024 367.55ZM176.782 367.55H191.308L189.824 378.387H174.99L176.782 367.55ZM198.602 367.55H213.128L212.015 378.387H197.18L198.602 367.55ZM220.36 367.55H234.885L234.205 378.387H219.371L220.36 367.55ZM242.117 367.55H256.643L256.396 378.387H241.561L242.117 367.55ZM416.427 367.55H394.607L396.956 378.387H419.147L416.427 367.55ZM387.375 367.55H372.85L374.766 378.387H389.601L387.375 367.55ZM365.618 367.55H351.092L352.575 378.387H367.41L365.618 367.55ZM343.798 367.55H329.272L330.385 378.387H345.22L343.798 367.55ZM322.04 367.55H307.514L308.194 378.387H323.029L322.04 367.55ZM300.282 367.55H285.757L286.004 378.387H300.839L300.282 367.55ZM263.937 367.55H278.463L278.648 378.387H263.937V367.55ZM120.657 386.435H150.945L149.214 397.588H118.308L120.657 386.435ZM421.125 386.435H383.667L385.768 397.588H424.03L421.125 386.435ZM376.126 386.435H361.167L362.836 397.588H378.165L376.126 386.435ZM353.626 386.435H338.668L339.904 397.588H355.233L353.626 386.435ZM331.127 386.435H316.168L317.033 397.588H332.301L331.127 386.435ZM308.627 386.435H293.668L294.101 397.588H309.369L308.627 386.435ZM116.083 406.27H147.112L144.825 417.36H113.239L116.083 406.27ZM154.839 406.27H170.354L168.561 417.36H152.737L154.839 406.27ZM178.142 406.27H294.41L294.843 417.36H176.411L178.142 406.27ZM302.199 406.27H317.713L318.579 417.36H302.755L302.199 406.27ZM325.44 406.27H340.955L342.253 417.36H326.429L325.44 406.27ZM348.743 406.27H364.258L365.927 417.36H350.165L348.743 406.27ZM371.984 406.27H387.499L389.601 417.36H373.839L371.984 406.27ZM395.225 406.27H426.255L429.098 417.36H397.512L395.225 406.27ZM286.189 386.435H271.293V397.588H286.436L286.189 386.435ZM263.69 386.435H248.669L248.237 397.588H263.566L263.69 386.435ZM241.19 386.435H226.17L225.304 397.588H240.634L241.19 386.435ZM218.691 386.435H203.67L202.372 397.588H217.702L218.691 386.435ZM196.191 386.435H181.171L179.44 397.588H194.769L196.191 386.435ZM173.692 386.435H158.671L156.57 397.588H171.837L173.692 386.435ZM127.703 360.77L130.176 351.137H137.222L134.935 360.77H127.703ZM144.269 351.137H158.362L156.446 360.77H142.044L144.269 351.137ZM165.471 351.137H179.564L177.957 360.77H163.616L165.471 351.137ZM186.61 351.137H200.703L199.467 360.77H185.127L186.61 351.137ZM207.75 351.137H221.843L220.978 360.77H206.637L207.75 351.137ZM228.89 351.137H242.983L242.488 360.77H228.148L228.89 351.137ZM250.029 351.137H264.122L263.999 360.77H249.658L250.029 351.137ZM271.169 351.137H285.262L285.509 360.77H271.169V351.137ZM292.309 351.137H306.402L307.02 360.77H292.679L292.309 351.137ZM313.448 351.137H327.603L328.53 360.77H314.19L313.448 351.137ZM334.65 351.137H348.743L350.103 360.77H335.762L334.65 351.137ZM355.789 351.137H369.883L371.613 360.77H357.273L355.789 351.137ZM376.929 351.137H391.022L393.124 360.77H378.783L376.929 351.137ZM398.069 351.137H412.162L414.634 360.77H400.294L398.069 351.137Z" fill="#0B4870" stroke="white" stroke-width="0.5" stroke-miterlimit="10"/>
<path d="M452.031 485.864H90.9253C85.4241 485.864 80.9736 481.301 80.9736 475.661H461.982C461.982 481.301 457.532 485.864 452.031 485.864ZM315.797 433.266C315.426 430.984 313.448 429.273 311.223 429.273H231.795C229.508 429.273 227.591 430.984 227.221 433.266L222.276 464.001C221.781 466.916 224.006 469.577 226.85 469.577H316.106C319.011 469.577 321.175 466.916 320.68 464.001L315.797 433.266Z" fill="#D3D3D3"/>
<path d="M145.691 168.503H178.018V171.925H145.691V168.503ZM187.105 194.041H210.408V197.463H187.105V194.041ZM214.055 194.041H229.508V197.463H214.055V194.041ZM146.062 258.299H161.515V261.721H146.062V258.299ZM232.598 194.041H269.994V197.463H232.598V194.041ZM146.062 245.435H170.106V248.857H146.062V245.435ZM179.564 271.037H194.213V274.459H179.564V271.037ZM146.062 271.037H175.113V274.459H146.062V271.037ZM146.062 283.838H162.071V287.26H146.062V283.838ZM184.323 168.503H207.255V171.925H184.323V168.503ZM184.323 206.842H207.255V210.264H184.323V206.842ZM172.826 219.58H182.654V223.002H172.826V219.58ZM163.06 232.571H185.065V235.993H163.06V232.571ZM188.403 232.571H218.814V235.993H188.403V232.571ZM146.062 219.707H168.994V223.129H146.062V219.707ZM146.062 232.571H159.66V235.993H146.062V232.571ZM187.29 219.707H200.147V223.129H187.29V219.707ZM146.494 296.575H159.351V299.997H146.494V296.575ZM146 194.041H168.932V197.463H146V194.041ZM166.274 258.299H189.206V261.721H166.274V258.299ZM166.583 283.838H189.515V287.26H166.583V283.838ZM207.317 283.838H230.249V287.26H207.317V283.838ZM146 206.842H178.698V210.264H146V206.842ZM299.232 168.503H322.164V171.925H299.232V168.503ZM217.516 296.575H240.448V299.997H217.516V296.575ZM329.272 168.503H344.602V171.925H329.272V168.503ZM381.256 181.304H396.585V184.726H381.256V181.304ZM213.437 168.503H242.674V171.925H213.437V168.503ZM327.294 181.304H356.531V184.726H327.294V181.304ZM291.443 194.041H320.68V197.463H291.443V194.041ZM253.429 206.842H282.666V210.264H253.429V206.842ZM324.327 194.041H345.096V197.463H324.327V194.041ZM264.246 168.503H293.483V171.925H264.246V168.503ZM230.929 206.842H248.051V210.264H230.929V206.842ZM217.516 258.489H234.638V261.911H217.516V258.489ZM248.051 168.503H258.745V171.925H248.051V168.503ZM213.437 206.842H224.13V210.264H213.437V206.842ZM363.578 181.304H374.271V184.726H363.578V181.304ZM145.691 181.304H162.442V184.726H145.691V181.304ZM190.381 245.498H203.608V248.92H190.381V245.498ZM166.583 181.304H171.961V184.726H166.583V181.304ZM277.474 181.304H322.164V184.726H277.474V181.304ZM234.638 283.838H279.328V287.26H234.638V283.838ZM175.917 181.304H181.418V184.726H175.917V181.304ZM258.745 181.304H273.332V184.726H258.745V181.304ZM273.394 194.041H287.982V197.463H273.394V194.041ZM198.231 296.575H212.818V299.997H198.231V296.575ZM223.821 181.304H254.912V184.726H223.821V181.304ZM194.831 258.489H213.004V261.911H194.831V258.489ZM193.719 283.838H202.805V287.26H193.719V283.838ZM208.677 181.304H219.371V184.726H208.677V181.304ZM172.703 194.041H183.396V197.463H172.703V194.041ZM174.804 245.498H185.498V248.92H174.804V245.498ZM185.992 181.304H204.659V184.726H185.992V181.304Z" fill="#F7F7F7"/>
<path d="M342.5 206.969C342.5 206.969 347.939 216.411 350.226 217.932C353.317 220.023 351.401 222.114 349.917 222.178C348.434 222.178 340.893 222.748 339.224 220.784C337.555 218.819 336.751 213.052 335.206 211.532C333.661 210.011 332.054 203.99 335.948 202.533C339.347 201.202 342.5 206.969 342.5 206.969Z" fill="#00D6C4"/>
<path d="M340.089 202.85C340.089 202.85 346.332 213.94 347.383 215.524C348.434 217.171 345.343 217.171 343.427 216.411C341.511 215.651 336.69 207.729 336.01 206.272C335.206 204.561 335.886 202.596 335.886 202.596L340.089 202.85Z" fill="#FFE3CA"/>
<path d="M333.784 208.743L335.268 220.086L336.01 220.15L335.762 211.975L333.784 208.743ZM288.538 206.969C288.538 206.969 293.977 216.411 296.265 217.932C299.355 220.023 297.439 222.114 295.955 222.178C294.472 222.178 286.931 222.748 285.262 220.784C283.593 218.819 282.79 213.052 281.244 211.531C279.699 210.01 278.03 203.8 281.986 202.533C285.447 201.392 288.538 206.969 288.538 206.969Z" fill="#00D6C4"/>
<path d="M286.498 202.85C286.498 202.85 292.37 213.876 293.483 215.524C294.534 217.171 291.443 217.171 289.527 216.411C287.611 215.651 282.79 207.729 282.11 206.272C281.306 204.561 281.986 202.596 281.986 202.596L286.498 202.85Z" fill="#FFE3CA"/>
<path d="M279.884 208.743L281.306 220.087L282.11 220.15L281.862 211.975L279.884 208.743Z" fill="#00D6C4"/>
<path d="M264.431 120.975L313.634 143.978C313.634 143.978 319.135 145.816 319.753 152.09C321.669 171.608 335.886 202.533 335.886 202.533C340.46 204.814 340.089 202.85 340.089 202.85C337.184 193.344 333.723 154.308 332.425 138.655C332.177 135.36 331.992 133.079 331.93 132.318C331.93 131.811 331.374 131.178 330.447 130.417C323.709 124.777 295.894 113.18 295.894 113.18C275.187 112.61 264.431 120.975 264.431 120.975Z" fill="#FFE3CA"/>
<path d="M255.16 130.86C256.705 144.485 275.681 142.964 275.681 142.964H298.675C298.675 142.964 292.618 156.779 290.269 168.376C287.796 180.733 281.924 202.533 281.924 202.533C281.924 202.533 282.295 203.293 286.498 202.85C286.498 202.85 304.547 165.968 311.47 156.652C312.954 154.688 317.219 143.788 317.961 137.324C318.208 135.17 318.084 133.459 317.281 132.762C316.477 132.065 314.623 130.797 312.212 129.213C304.98 124.523 292.494 117.362 285.509 115.778C276.176 113.624 261.403 109.568 261.403 109.568C261.403 109.568 253.614 117.236 255.16 130.86Z" fill="#FFE3CA"/>
<path d="M270.798 25.7917C270.798 25.7917 267.337 19.0744 269.005 11.9769C270.674 4.81596 277.165 -2.28157 286.622 1.01371C296.079 4.30899 303.744 11.7867 298.057 20.5319C292.37 29.2137 303.187 33.2061 300.406 37.3252C297.624 41.4443 298.675 45.8169 299.85 46.7674C301.024 47.718 304.795 51.14 304.362 55.2591C303.929 59.3148 286.004 43.4088 286.004 43.4088C286.004 43.4088 276.299 23.1935 270.798 25.7917Z" fill="#0E538C"/>
<path d="M299.664 111.469C299.664 111.469 298.243 118.566 261.464 109.631C261.464 109.631 273.765 105.449 299.664 111.469Z" fill="#EB4747"/>
<path d="M261.032 111.596C260.475 112.736 259.919 113.814 259.301 114.954C272.714 115.335 286.189 115.778 299.602 116.158C297.501 108.871 298.181 98.985 298.552 91.5072C298.984 82.3185 303.929 75.9814 303.435 66.7293C306.093 67.1728 306.525 67.2362 309.183 67.6798C305.104 55.7661 303.744 49.8726 291.072 45.3099C286.931 43.789 284.273 43.5355 279.823 43.9158C265.173 45.1832 260.785 45.3099 253.553 58.9346C264.802 60.7724 262.948 64.8915 266.348 76.425C268.017 82.0016 269.747 88.2753 268.882 94.1688C268.017 99.9356 261.032 106.336 261.032 111.596Z" fill="white"/>
<path d="M284.397 48.1614C278.401 47.0208 279.699 43.5987 279.699 43.5987C279.699 43.5987 279.946 41.6976 280.07 39.2262C280.07 38.5925 280.132 37.9587 280.132 37.2617C280.132 36.2477 280.07 35.2338 279.946 34.2199C279.452 30.1008 290.825 32.5722 290.825 32.5722C290.825 32.5722 290.145 40.9372 291.752 43.4086C293.298 45.9435 290.392 49.3655 284.397 48.1614Z" fill="#FFE3CA"/>
<path d="M272.961 43.5987C272.961 43.5987 285.077 57.9205 289.527 61.2158C289.527 61.2158 294.657 56.463 291.505 43.9155C291.505 43.9155 285.695 40.8737 272.961 43.5987ZM273.332 9.12497C273.332 9.12497 267.028 21.5456 273.271 33.2692C279.514 44.9928 291.752 28.1362 292.494 26.1717C293.298 24.2072 297.501 12.9906 289.156 9.63194C280.812 6.20991 275.125 5.76632 273.332 9.12497Z" fill="#FFE3CA"/>
<path d="M285.447 34.5366C285.447 34.5366 284.335 37.0081 280.07 39.2261C280.07 38.5924 280.132 37.9586 280.132 37.2616C280.132 37.2616 283.037 36.9447 285.447 34.5366Z" fill="#FCD2B1"/>
<path d="M221.967 100.442C221.967 100.442 219 101.773 217.578 101.203C216.156 100.569 213.993 100.442 213.313 100.442C212.386 100.442 209.481 99.3651 209.542 100.569C209.604 101.71 214.24 102.534 215.167 102.914C216.094 103.294 212.324 105.385 211.953 106.336C211.582 107.286 215.909 113.497 218.32 111.722C220.73 109.948 222.028 106.399 222.523 106.146C223.017 105.892 224.315 104.942 224.315 104.942L221.967 100.442Z" fill="#FFE3CA"/>
<path d="M212.448 105.766C212.448 105.766 205.463 111.722 205.339 112.546C205.216 113.37 205.586 113.75 206.266 113.18C206.946 112.673 213.189 107.603 213.189 107.603C213.189 107.603 206.205 116.095 205.957 116.729C205.834 117.109 206.514 117.869 206.885 117.616C207.255 117.362 214.735 109.378 214.735 109.378C214.735 109.378 208.183 117.299 208.183 117.933C208.121 118.44 208.924 119.01 209.481 118.44C210.037 117.869 216.527 110.899 216.527 110.899C216.527 110.899 212.139 116.982 212.448 117.553C212.633 117.869 213.189 118.567 214.24 116.982C215.291 115.398 218.258 111.849 218.258 111.849L212.448 105.766Z" fill="#FFE3CA"/>
<path d="M296.265 142.901H275.681C275.681 142.901 256.705 144.485 255.16 130.797C253.614 117.172 261.403 109.568 261.403 109.568C261.403 109.568 271.416 112.293 280.193 114.447C284.582 113.497 289.836 112.863 296.017 113.053C296.017 113.053 333.104 125.601 331.992 132.255C331.992 132.318 316.477 123.826 296.265 142.901Z" fill="#0E538C"/>
<path d="M282.851 119.327L322.164 118.693L302.322 129.023L282.851 119.327Z" fill="#F2F2F2"/>
<path d="M295.09 114.13C295.09 114.13 286.251 117.616 275.434 114.447L274.939 110.328L297.254 111.596L295.09 114.13Z" fill="white"/>
<path d="M302.322 129.023L282.851 121.292V119.327L303.867 127.058L302.322 129.023Z" fill="#D3D3D3"/>
<path d="M294.905 116.095C294.781 117.553 296.265 118.63 297.624 118.06L299.911 117.046C300.591 116.729 301.024 116.032 300.9 115.271C299.973 109.188 297.933 85.4872 300.9 81.3681C302.013 79.8472 302.693 78.5164 303.064 77.3757C305.042 82.5721 307.453 89.2894 308.442 92.9016L326.985 118.25L333.228 119.898C325.44 100.696 319.197 90.5569 319.197 90.5569C317.961 87.1982 314.499 77.0589 311.408 68.0602C309.43 62.3569 307.7 57.0971 306.711 54.3088C306.216 52.8512 305.289 51.6472 303.991 50.8867C301.086 49.1124 296.326 46.324 292 44.1694H291.938C291.814 44.1061 291.69 44.0427 291.505 43.9793C299.788 56.7169 296.574 92.9016 294.905 116.095C294.905 116.032 294.905 116.032 294.905 116.095ZM264.246 44.9933C261.588 45.4369 255.036 51.964 251.575 58.5546C247.619 66.0957 243.539 74.6508 240.51 77.4391C234.947 82.6355 219.309 100.95 218.567 100.506C218.258 100.316 222.832 105.956 223.45 106.209C223.759 106.336 249.102 83.7762 251.575 80.3542C253.862 77.1223 260.043 63.4342 261.897 63.751C262.021 64.0679 264.308 69.0742 266.409 76.3618C266.471 76.4885 266.471 76.6153 266.533 76.742C268.017 81.8117 267.893 87.3883 267.089 93.5987C266.471 98.2881 263.072 105.956 261.032 109.695C260.785 110.138 260.846 111.026 261.094 111.659C261.279 112.04 261.464 112.356 261.774 112.483L269.253 115.335L270.984 115.969C272.22 116.476 273.58 116.222 274.569 115.462C275.372 114.891 275.99 113.941 276.114 112.8C277.783 99.7456 279.884 86.3744 281.553 81.3681C288.909 59.3151 278.71 42.7119 278.71 42.7119C278.71 42.7119 266.595 44.1061 264.246 44.9933Z" fill="#00D6C4"/>
<path d="M302.322 129.023L314.005 96.3232L351.648 96.957L340.522 127.121L302.322 129.023Z" fill="#00D6C4"/>
<path d="M326.058 110.772C324.884 113.117 325.254 115.715 326.861 116.475C328.469 117.299 330.632 116.032 331.806 113.687C332.981 111.342 332.61 108.744 331.003 107.984C329.396 107.16 327.171 108.427 326.058 110.772Z" fill="#F2F0F0"/>
<path d="M303.188 48.9855C300.406 44.6762 298.428 41.2542 298.181 35.1073C297.995 31.0515 297.13 25.5383 294.41 22.8133C297.254 15.2088 293.916 12.9275 292.556 10.456C290.887 7.35085 278.525 -0.126899 273.641 7.73108C268.758 15.5257 270.489 23.7005 270.489 23.7005C270.983 19.3913 275.31 13.5612 275.31 13.5612C275.99 18.0605 285.077 25.4115 289.033 28.39C288.971 28.4533 288.909 28.5801 288.909 28.6434C286.684 31.9387 289.465 35.234 289.96 38.7194C290.454 42.2048 280.626 51.5837 291.567 56.2731C302.508 61.0259 305.969 53.2313 303.188 48.9855ZM104.215 418.12C104.215 418.12 103.968 420.782 91.8525 420.782C79.7374 420.782 62.121 417.55 62.121 417.55L90.2454 414.762C90.2454 414.762 101.063 414.191 104.215 418.12Z" fill="#0E538C"/>
<path d="M73.3708 419.071C66.5096 419.071 63.6045 422.683 60.8847 423.823C58.165 424.964 55.4453 426.675 55.4453 426.612C56.9906 423.507 59.154 423.443 60.2666 422.429C61.3792 421.415 61.0702 421.922 58.6595 421.732C57.2997 421.605 54.8272 424.204 53.0964 425.661C51.5511 426.865 50.624 426.992 50.624 426.992C50.624 426.992 52.4165 424.394 54.6417 422.303C57.3615 419.768 60.7611 417.676 61.5647 417.296C63.0482 416.663 67.6223 416.536 70.8365 416.979C74.5452 417.486 78.3157 419.071 73.3708 419.071Z" fill="#0E538C"/>
<path d="M61.9974 417.423C61.9974 417.423 56.7434 418.817 55.8162 419.578C55.1981 420.085 52.4783 423.063 52.4783 423.063C52.4783 423.063 54.4563 422.746 55.5689 421.606C56.7433 420.402 61.9974 417.423 61.9974 417.423ZM94.2632 412.67C94.2632 412.67 107.491 413.558 106.564 421.923C106.069 426.675 103.04 428.323 99.0227 427.943C91.6053 427.309 83.1989 426.168 83.1989 426.168L79.4283 413.177L94.2632 412.67Z" fill="#0E538C"/>
<path d="M97.0447 413.811L110.025 370.909C110.025 370.909 111.941 364.635 115.094 365.776C119.606 367.487 117.381 372.62 117.01 375.662C116.206 381.872 116.763 384.597 112.56 399.553C109.963 408.805 107.738 419.451 105.513 425.535C103.968 429.717 101.31 423.697 97.292 422.049C89.7509 418.944 97.0447 413.811 97.0447 413.811ZM98.0337 347.589C100.568 355.066 108.418 358.932 115.65 356.207C122.82 353.482 126.653 345.18 124.118 337.703C121.584 330.225 113.734 326.359 106.502 329.084C99.3318 331.809 95.4994 340.111 98.0337 347.589Z" fill="#0E538C"/>
<path d="M83.817 348.285C87.7729 354.369 95.6849 355.89 101.433 351.708L100.63 344.547C106.378 340.301 107.8 331.936 103.844 325.852L101.124 321.733C97.1684 315.65 89.2564 314.129 83.5079 318.311L80.9118 320.212C75.1633 324.458 73.7416 332.823 77.6976 338.907L83.817 348.285Z" fill="#0E538C"/>
<path d="M78.6248 328.324C79.3047 329.338 80.0464 330.288 80.9118 331.239C86.5985 337.576 94.2014 339.984 99.0227 337.386C101.248 340.491 103.782 342.962 106.069 344.864C108.727 347.082 115.526 347.969 115.526 347.969C119.482 352.405 104.648 378.323 103.597 378.197C101.433 378.006 98.6518 363.685 100.692 358.488C101.619 356.144 103.102 353.355 102.67 352.088C101.124 347.715 98.9609 348.476 98.9609 348.476C98.9609 348.476 96.1175 351.898 93.8923 351.771C91.6053 351.581 87.6493 347.905 87.4639 347.842C86.7839 347.272 86.1658 346.575 85.6095 345.751L79.6756 336.625C78.1303 334.09 77.7594 331.049 78.6248 328.324Z" fill="#FFE3CA"/>
<path d="M123.995 437.511C123.995 437.511 119.173 443.468 117.69 444.102C115.712 444.989 109.654 443.088 109.654 443.088C109.654 443.088 108.047 415.775 106.193 405.129C104.339 394.483 101.619 391.694 101.495 388.336C101.31 382.949 96.9211 380.795 97.6628 376.612C98.4046 372.43 99.7026 357.474 100.135 359.439C103.906 376.422 108.542 362.29 109.593 360.072C110.149 358.868 123.995 437.511 123.995 437.511Z" fill="#F2F0F0"/>
<path d="M102.052 354.369C102.052 354.369 96.1794 360.96 96.612 363.558C96.9829 366.156 94.0778 374.268 96.9829 385.548C100.259 398.412 101.99 407.157 102.608 415.585C103.226 424.014 100.444 431.745 101.557 442.074C102.422 450.186 104.215 450.63 104.215 450.63C104.215 450.63 107.738 451.517 110.211 448.348C112.683 445.243 108.974 417.613 107.738 410.769C106.502 403.862 102.546 387.766 101.495 383.013C100.197 377.183 100.444 371.226 100.506 369.515C100.815 363.495 101.557 359.756 102.175 357.474C102.237 357.158 102.546 353.609 102.052 354.369ZM112.312 362.101C115.527 371.606 125.54 376.486 134.688 373C143.836 369.515 148.658 358.995 145.443 349.49C142.229 339.984 132.216 335.105 123.068 338.59C113.919 342.012 109.098 352.595 112.312 362.101Z" fill="#0E538C"/>
<path d="M80.85 525.47L84.126 552.276L69.9093 559.183L62.0592 560.958L76.0287 549.868L71.4546 525.66L80.85 525.47Z" fill="#FCBAA2"/>
<path d="M85.0532 556.332L81.9626 557.156L79.861 555.191L68.4876 561.022L58.4123 563.493C58.4123 563.493 58.2887 562.669 58.5977 562.226C59.834 560.515 66.9423 556.776 66.9423 556.776C66.9423 556.776 67.0659 559.247 68.0549 559.311C69.0439 559.374 77.7594 554.684 79.7992 553.417C83.2607 551.199 83.9406 549.742 84.1879 549.932C84.9296 550.312 85.0532 556.332 85.0532 556.332Z" fill="#0E538C"/>
<path d="M46.5444 488.208L35.2328 511.022L19.6562 510.261L11.8679 507.917L29.1134 504.938L38.5088 485.42L46.5444 488.208Z" fill="#FCBAA2"/>
<path d="M34.3056 515.078L31.215 514.317L30.226 511.529L16.1947 511.339L7.85011 509.311C7.85011 509.311 8.83911 508.17 9.45723 507.853C11.3116 507.03 17.9255 506.649 17.9255 506.649C17.9255 506.649 17.2455 508.614 18.1109 509.121C18.9763 509.691 28.6189 510.008 30.9678 509.818C35.0474 509.501 36.2218 508.614 36.3454 508.867C36.7781 509.755 34.3056 515.078 34.3056 515.078Z" fill="#0E538C"/>
<path d="M129.063 419.958L120.657 423.824L120.719 435.674L62.8009 425.978C62.8009 425.978 57.2997 424.14 53.7764 433.456C48.7696 446.637 36.0364 487.638 36.0364 487.638L44.0719 496.573L69.353 450.249C69.353 450.249 121.151 476.041 138.211 470.465C144.764 468.31 149.77 456.016 148.843 443.595C148.101 433.836 146.247 424.901 146.247 424.901L129.063 419.958Z" fill="#00D6C4"/>
<path d="M121.708 470.211L80.2319 467.042L83.817 534.976L71.5782 535.42L62.5537 455.826C62.5537 455.826 64.9643 443.976 72.8763 445.75C80.85 447.588 100.012 463.177 121.708 470.211Z" fill="#00D6C4"/>
<path d="M149.647 487.258C149.647 487.258 127.889 462.226 122.264 448.095C115.526 431.175 116.083 409.945 114.847 402.911C112.559 389.984 109.778 364.889 109.283 361.784C108.727 358.678 110.643 355.193 110.643 355.193C110.643 355.193 109.222 345.814 113.301 346.828C119.173 348.286 124.984 351.581 127.023 352.595C130.856 354.369 138.706 401.644 139.139 403.925C140.746 412.163 146.618 419.641 150.821 427.309C160.711 445.496 163.245 466.979 163.245 466.979C163.245 466.979 162.009 482.695 149.647 487.258Z" fill="#2A94F4"/>
<path d="M127.209 421.796C127.209 421.796 127.024 424.838 113.178 424.141C99.3318 423.38 79.0574 418.627 79.0574 418.627L111.138 417.106C111.138 417.106 123.438 417.17 127.209 421.796Z" fill="#FFE3CA"/>
<path d="M89.9364 420.275C83.3225 420.148 80.4791 423.634 77.883 424.711C75.2869 425.788 72.629 427.372 72.629 427.372C74.1125 424.394 76.2141 424.331 77.3267 423.38C78.3775 422.43 78.1303 422.937 75.7814 422.683C74.4216 422.556 72.0727 425.028 70.4038 426.422C68.9203 427.626 67.9931 427.689 67.9931 427.689C67.9931 427.689 69.7238 425.154 71.8873 423.127C74.5452 420.719 77.7594 418.691 78.563 418.374C79.9846 417.803 84.3733 417.74 87.5257 418.247C91.049 418.754 94.6959 420.402 89.9364 420.275Z" fill="#FFE3CA"/>
<path d="M78.872 418.437C78.872 418.437 73.8034 419.704 72.9381 420.402C72.32 420.908 69.7238 423.76 69.7238 423.76C69.7238 423.76 71.5782 423.443 72.6908 422.366C73.8034 421.352 78.872 418.437 78.872 418.437Z" fill="#FFE3CA"/>
<path d="M116.145 418.437L136.666 407.347C136.666 407.347 136.728 420.782 136.852 425.915C136.975 431.048 139.077 438.272 135.121 439.349C131.165 440.427 129.125 439.856 133.205 442.328C137.284 444.736 136.357 447.271 134.812 449.362C133.267 451.453 140.004 472.746 138.397 473.95C132.03 465.712 125.169 455.509 122.202 448.095C118.432 438.462 116.948 427.436 116.145 418.437Z" fill="#0E538C"/>
<path d="M122.758 413.05L121.955 370.212C121.955 370.212 122.017 356.84 122.264 352.911C122.511 348.856 129.249 353.609 129.249 353.609C129.249 353.609 138.706 366.726 138.891 398.348C139.015 419.514 137.902 430.541 128.383 429.653C119.544 428.83 109.469 427.435 109.469 427.435L105.08 415.712L122.758 413.05Z" fill="#2A94F4"/>
<path d="M120.657 435.674L50.0058 426.612L50.1913 425.091L120.842 434.153L120.657 435.674Z" fill="#D3D3D3"/>
<path d="M89.6891 430.097C89.5655 431.302 88.6383 432.189 87.6493 432.062L51.4275 427.436C50.4385 427.309 49.2023 426.359 48.3369 423.19L34.3674 386.118C34.5529 384.597 35.7273 383.837 36.7163 384.217L73.7416 390.174C74.7306 390.554 75.4105 391.441 75.7814 393.089L89.6891 430.097Z" fill="#D3D3D3"/>
<path d="M85.115 431.111L85.4859 431.175L120.842 435.737C119.482 436.308 117.319 436.498 114.908 436.181L85.3005 432.379L84.9296 432.315L55.3217 428.513C52.911 428.196 50.8712 427.436 49.635 426.612L85.115 431.111Z" fill="#D3D3D3"/>
<path d="M122.758 413.05L121.955 370.212C121.955 370.212 122.573 366.6 123.809 363.368C124.118 368.057 126.22 401.834 126.467 406.27C126.776 411.086 130.609 411.593 131.412 413.177C132.278 414.698 131.536 415.015 128.692 414.445C125.911 413.811 126.9 414.318 127.518 415.839C128.136 417.423 126.591 416.979 121.151 414.951C117.195 413.494 109.593 414.951 105.76 415.839L122.758 413.05Z" fill="#0E538C"/>
<path d="M367.039 307.919C360.24 309.756 347.692 316.22 345.034 327.31C341.078 343.977 348.99 368.374 336.504 392.329C332.486 399.933 405.548 410.199 405.548 410.199L419.641 326.043C419.641 326.043 402.025 307.792 398.44 306.525C390.96 303.99 380.638 304.243 367.039 307.919Z" fill="#CCE9FF"/>
<path d="M419.703 326.106C422.237 332.823 428.666 372.81 421.496 382.252C420.692 383.33 425.204 385.041 424.401 389.984C424.277 390.807 422.917 394.8 422.917 394.8L417.107 396.384L404.435 381.365C404.435 381.365 409.566 373.19 416.303 342.202C418.281 333.077 419.147 324.585 419.703 326.106Z" fill="#2A94F4"/>
<path d="M371.737 373.887C371.737 373.887 377.856 390.427 392.629 394.863C395.164 395.624 396.771 398.539 395.535 399.489C393.927 400.693 391.826 400.947 388.117 400.947C380.391 400.947 369.883 398.412 362.651 390.934C351.895 379.908 348.496 374.838 349.608 369.325C350.597 363.685 371.737 373.887 371.737 373.887Z" fill="#FCD2B1"/>
<path d="M347.136 321.733C343.983 327.183 342.191 335.928 342.253 348.476C342.253 358.172 350.165 374.078 351.339 378.957C351.524 379.781 352.019 383.266 352.019 383.266L360.734 392.392L378.227 379.781L372.911 371.099L371.304 371.289C371.304 371.289 370.315 366.473 370.562 364.635C370.81 362.798 365.741 337.766 363.207 321.733C361.785 312.418 350.226 316.347 347.136 321.733Z" fill="#2A94F4"/>
<path d="M362.836 370.909L367.966 369.261L370.068 368.691C370.192 370.212 371.428 371.226 371.428 371.226L367.41 371.733L362.774 373.254L357.335 377.246L362.836 370.909Z" fill="#0E538C"/>
<path d="M391.517 394.8L400.418 392.202C400.418 392.202 402.952 395.814 402.457 396.701C401.963 397.588 402.457 402.911 402.457 402.911L398.131 406.84L394.607 405.573C394.607 405.573 394.36 403.925 395.535 403.799C396.771 403.608 394.731 402.721 394.113 402.341C393.495 401.897 388.364 399.109 391.517 394.8Z" fill="#FCD2B1"/>
<path d="M377.795 307.095C376.806 310.073 378.289 313.432 381.132 314.446L386.201 316.347C389.044 317.424 392.135 315.777 393.124 312.798L397.636 299.11C398.625 296.132 397.142 292.773 394.298 291.696L389.23 289.794C386.386 288.717 383.296 290.365 382.307 293.343L377.795 307.095Z" fill="#FF957E"/>
<path d="M399.923 319.135C399.429 321.1 397.451 322.304 395.596 321.733L380.329 317.234C378.474 316.664 377.362 314.636 377.856 312.608L384.099 288.59C384.594 286.626 386.572 285.422 388.426 285.992L403.694 290.428C405.548 290.998 406.661 293.026 406.166 295.054L399.923 319.135Z" fill="#FCD2B1"/>
<path d="M407.835 292.646C407.959 292.519 406.413 290.745 407.217 287.26C408.268 282.57 404.868 280.669 402.334 280.606C400.85 280.542 395.844 283.014 393.186 283.838C390.528 284.661 390.775 283.584 385.954 282.697C382.739 282.063 381.998 283.901 380.885 286.436C379.772 289.034 379.649 298.92 379.649 298.92C380.082 299.554 380.761 300.061 381.194 299.554C381.627 299.047 383.358 291.125 384.779 288.781C386.139 286.436 391.702 290.175 394.731 292.012C397.698 293.85 400.356 294.167 405.115 293.153C405.672 293.787 406.166 294.484 406.166 294.801C406.166 295.434 404.806 299.934 404.806 299.934C404.806 299.934 407.464 298.223 408.206 296.892C408.577 296.448 408.7 294.294 407.835 292.646Z" fill="#0E538C"/>
<path d="M382.678 307.601C382.492 308.235 381.874 308.679 381.256 308.489L377.98 307.538C377.362 307.348 376.991 306.651 377.176 306.017L378.845 299.617C379.031 298.983 379.649 298.539 380.267 298.729L383.543 299.68C384.161 299.87 384.532 300.567 384.347 301.201L382.678 307.601Z" fill="#FCD2B1"/>
<path d="M380.638 301.518C380.638 301.518 378.165 310.96 377.362 314.129C376.62 316.981 376.064 323.571 391.208 328.007C400.17 330.605 401.654 323.508 402.272 321.226C402.705 319.452 402.21 313.685 401.53 312.418C401.53 312.354 400.541 316.347 400.541 316.347C400.541 316.347 399.676 311.974 395.411 310.77C388.55 308.742 385.83 312.608 382.863 311.594C380.514 310.77 379.834 306.208 380.638 301.518Z" fill="#0E538C"/>
<path d="M390.96 316.03L395.658 317.424C396.276 317.614 396.956 317.234 397.08 316.537L397.265 315.84L390.28 313.812L390.095 314.509C389.971 315.206 390.342 315.84 390.96 316.03Z" fill="#FCD2B1"/>
<path d="M465.444 412.036C463.28 418.437 425.204 441.947 412.409 440.553L373.9 442.518C341.202 438.272 325.687 384.28 325.687 384.28C326.985 370.719 359.251 390.364 370.748 396.447C388.921 406.08 400.479 406.587 400.479 406.587C412.656 407.917 426.75 397.905 442.141 397.588C459.015 397.144 468.905 401.961 465.444 412.036Z" fill="#0B4870"/>
<path d="M381.75 405.573C381.75 405.51 381.75 405.51 381.75 405.573V403.799L447.951 402.531V404.306L447.766 404.622C446.962 406.143 445.417 406.397 443.686 406.46L386.077 407.601C384.347 407.664 382.801 407.411 381.936 405.953L381.75 405.573Z" fill="#D3D3D3"/>
<path d="M397.698 405.509L397.512 405.826C397.265 406.206 396.956 406.523 396.585 406.713L386.51 406.904C384.841 406.967 383.358 406.777 382.492 405.573L382.307 405.319L382.245 405.256V404.432L397.574 404.115L397.698 405.509ZM406.661 404.876L439.73 404.242V403.038L406.599 403.735L406.661 404.876ZM398.069 403.418L406.043 368.691C406.228 367.804 407.093 367.043 407.959 366.98L454.441 366.093C455.307 366.093 455.801 366.79 455.616 367.74L447.642 402.468L398.069 403.418Z" fill="#D3D3D3"/>
<path d="M368.09 451.453C372.664 452.277 376.187 446.637 376.187 446.637L388.055 436.751L385.521 430.034L362.403 441.06C362.403 441.06 363.454 450.629 368.09 451.453Z" fill="#FCD2B1"/>
<path d="M376.126 446.257C376.126 446.257 376.126 446.827 375.26 449.425C374.395 452.024 373.282 452.911 372.17 453.291C367.719 454.685 364.567 453.988 353.935 456.143C343.303 458.297 340.089 456.65 336.999 451.453C333.908 446.257 337.122 442.138 342.314 441.758C349.794 441.187 353.997 442.074 357.891 441.441C361.971 440.807 362.218 439.793 364.629 438.209C366.854 436.751 368.955 445.496 366.854 447.524C364.938 449.299 374.58 449.552 376.126 446.257Z" fill="#00D6C4"/>
<path d="M373.9 451.263C369.512 452.657 366.297 451.96 355.666 454.115C345.034 456.269 341.82 454.622 338.729 449.425C337.308 447.017 337.246 444.862 338.049 443.215C335.701 444.926 334.897 447.904 336.999 451.453C340.089 456.649 343.303 458.297 353.935 456.142C364.567 453.988 367.781 454.685 372.17 453.291C373.035 453.037 373.9 452.404 374.642 450.946C374.395 451.073 374.148 451.2 373.9 451.263Z" fill="white"/>
<path d="M376.126 446.447V446.32C376.126 446.384 376.064 446.447 376.002 446.51C376.064 446.447 376.126 446.447 376.126 446.447Z" fill="#E9D6B8"/>
<path d="M353.193 450.312C352.884 450.439 352.575 449.742 352.452 448.792C352.266 446.827 351.833 444.926 351.215 442.961C350.906 442.011 350.906 441.187 351.277 441.06C351.648 440.934 352.266 441.631 352.513 442.581C353.132 444.482 353.502 446.447 353.688 448.348C353.811 449.299 353.502 450.186 353.193 450.312ZM356.469 449.679C356.098 449.742 355.789 449.108 355.666 448.221C355.48 446.383 355.048 444.546 354.43 442.771C354.121 441.884 354.12 441.124 354.553 441.06C354.924 440.997 355.542 441.694 355.851 442.581C356.408 444.356 356.84 446.193 357.026 447.968C357.087 448.855 356.84 449.615 356.469 449.679ZM359.931 449.552C359.56 449.615 359.189 448.918 359.065 447.968C358.756 446.067 358.324 444.229 357.644 442.328C357.335 441.377 357.335 440.617 357.706 440.617C358.138 440.617 358.756 441.314 359.065 442.264C359.745 444.102 360.178 446.003 360.425 447.841C360.549 448.728 360.302 449.489 359.931 449.552Z" fill="white"/>
<path d="M368.894 435.294C368.894 435.294 450.3 399.743 454.936 399.679C470.636 399.553 467.051 416.409 459.077 424.394C449.682 433.773 378.227 450.946 378.227 450.946L368.894 435.294Z" fill="#0E538C"/>
<path d="M401.159 441.504L378.907 419.071L388.426 409.122L412.656 436.244L401.159 441.504Z" fill="#FCD2B1"/>
<path d="M405.734 423.887C405.734 423.887 349.176 368.818 345.405 367.17C332.486 361.594 324.513 376.739 324.945 381.999C325.563 388.78 382.987 443.912 382.987 443.912L405.734 423.887Z" fill="#0E538C"/>
<path d="M439.236 443.215C440.534 444.482 440.781 448.348 440.781 448.348C440.781 448.348 421.928 455.952 415.314 456.079C413.584 456.143 410.493 455.382 407.526 454.495C407.032 454.368 405.857 452.974 405.363 452.847C404.435 452.594 404.25 453.481 403.508 453.228C401.53 452.53 400.047 451.96 399.985 451.833C395.967 442.835 397.327 438.399 397.327 438.399C397.327 438.399 405.981 441.06 404.497 438.969C401.345 434.533 410.431 430.034 412.409 432.379C420.568 441.821 435.403 439.476 439.236 443.215Z" fill="#00D6C4"/>
<path d="M440.286 445.116C434.476 447.588 422.299 452.594 419.888 452.784C409.937 453.545 403.014 449.806 398.378 447.588C398.811 448.855 399.305 450.313 399.985 451.833C400.047 451.96 401.468 452.531 403.508 453.228C404.312 453.481 404.497 452.531 405.363 452.847C405.857 452.974 406.97 454.368 407.526 454.495C410.493 455.382 413.584 456.079 415.314 456.079C421.928 455.953 440.781 448.348 440.781 448.348C440.781 448.348 440.781 446.574 440.286 445.116ZM426.997 439.286C427.182 439.666 426.44 440.047 425.39 440.3C423.226 440.744 421.125 441.441 419.023 442.328C417.972 442.771 417.045 442.898 416.921 442.518C416.798 442.138 417.478 441.441 418.529 440.997C420.568 440.11 422.732 439.476 424.833 439.033C425.822 438.716 426.811 438.906 426.997 439.286ZM422.732 437.702C422.917 438.082 422.175 438.589 421.125 438.906C419.023 439.54 416.983 440.427 414.943 441.504C413.954 442.011 413.027 442.201 412.904 441.821C412.78 441.441 413.46 440.617 414.449 440.11C416.427 439.096 418.467 438.209 420.568 437.638C421.619 437.195 422.608 437.322 422.732 437.702ZM418.652 436.308C418.776 436.688 418.096 437.258 417.107 437.638C415.067 438.462 413.089 439.476 411.173 440.68C410.246 441.314 409.38 441.504 409.257 441.06C409.133 440.68 409.751 439.793 410.74 439.159C412.656 437.955 414.634 436.941 416.612 436.181C417.601 435.864 418.529 435.927 418.652 436.308Z" fill="white"/>
</g>
<defs>
<clipPath id="clip0_101_1689">
<rect width="539" height="564" fill="white"/>
</clipPath>
</defs>
</svg>
