<svg xmlns="http://www.w3.org/2000/svg" viewBox="0 0 851.92 304"><defs><style>.cls-1,.cls-10,.cls-4{fill:#000068;}.cls-2{fill:#222293;}.cls-3{fill:#00d6c4;}.cls-4{font-size:78.75px;}.cls-10,.cls-4{font-family:Montserrat-SemiBold, Montserrat;font-weight:700;}.cls-5{letter-spacing:0em;}.cls-6{letter-spacing:0.02em;}.cls-7{letter-spacing:-0.03em;}.cls-8{letter-spacing:-0.03em;}.cls-9{letter-spacing:0em;}.cls-10{font-size:92.33px;letter-spacing:0.2em;}.cls-11{letter-spacing:0.17em;}.cls-12{letter-spacing:0.2em;}</style></defs><title>Laju cipta digital</title><g id="Layer_2" data-name="Layer 2"><g id="Layer_1-2" data-name="Layer 1"><path class="cls-1" d="M259.87,81.39H255v25.5h4.9a7.84,7.84,0,0,1,7.85,7.85v76.49a7.84,7.84,0,0,1-7.85,7.84H102v25.5H259.87a33.39,33.39,0,0,0,33.34-33.34V114.74A33.39,33.39,0,0,0,259.87,81.39Z"/><polygon class="cls-1" points="223.1 106.89 223.1 81.39 101.99 81.39 76.49 81.39 65.7 81.39 40.21 81.39 0 81.39 0 224.57 65.7 224.57 65.7 199.07 25.5 199.07 25.5 106.89 40.21 106.89 65.7 106.89 76.49 106.89 101.99 106.89 223.1 106.89"/><path class="cls-2" d="M229.47,233.88a2.46,2.46,0,0,1-2.45,2.46H108.36v25.49H227A28,28,0,0,0,255,233.88v-9.31h-25.5Z"/><path class="cls-2" d="M65.7,233.88V113.26H40.21V233.88a28,28,0,0,0,27.94,27.95h8.34V236.34H68.15A2.46,2.46,0,0,1,65.7,233.88Z"/><path class="cls-2" d="M227,41.19H68.15a28,28,0,0,0-27.94,28V81.39H65.7V69.14a2.46,2.46,0,0,1,2.45-2.46H227a2.46,2.46,0,0,1,2.45,2.46V121.6l25.5-9.81V69.14A28,28,0,0,0,227,41.19Z"/><rect class="cls-3" x="76.49" width="25.5" height="66.68"/><path class="cls-3" d="M105.91,278.5a3.93,3.93,0,0,1-3.92-3.92V106.89H76.49V274.58A29.46,29.46,0,0,0,105.91,304H216.72V278.5Z"/><text class="cls-4" transform="translate(339.39 152.98)"><tspan class="cls-5">L</tspan><tspan class="cls-6" x="47.25" y="0">A</tspan><tspan x="107.42" y="0">JU CI</tspan><tspan class="cls-7" x="315.16" y="0">P</tspan><tspan class="cls-8" x="369.97" y="0">T</tspan><tspan class="cls-9" x="414.62" y="0">A</tspan></text><text class="cls-10" transform="translate(339.39 250.9)">DIGI<tspan class="cls-11" x="280.32" y="0">T</tspan><tspan class="cls-12" x="351.14" y="0">AL</tspan></text></g></g></svg>