<svg width="20" height="20" viewBox="0 0 20 20" fill="none" xmlns="http://www.w3.org/2000/svg">
<g clip-path="url(#clip0_269_567)">
<path d="M10.0003 5C9.34106 5 8.69659 5.1955 8.14843 5.56177C7.60026 5.92804 7.17302 6.44863 6.92073 7.05772C6.66844 7.66681 6.60243 8.33703 6.73104 8.98363C6.85966 9.63024 7.17713 10.2242 7.6433 10.6904C8.10948 11.1565 8.70342 11.474 9.35003 11.6026C9.99663 11.7312 10.6669 11.6652 11.2759 11.4129C11.885 11.1606 12.4056 10.7334 12.7719 10.1852C13.1382 9.63707 13.3337 8.9926 13.3337 8.33333C13.3337 7.44928 12.9825 6.60143 12.3574 5.97631C11.7322 5.35119 10.8844 5 10.0003 5ZM10.0003 10C9.67069 10 9.34846 9.90225 9.07438 9.71912C8.8003 9.53598 8.58667 9.27568 8.46053 8.97114C8.33438 8.6666 8.30138 8.33148 8.36569 8.00818C8.42999 7.68488 8.58873 7.38791 8.82182 7.15482C9.0549 6.92173 9.35188 6.763 9.67518 6.69869C9.99848 6.63438 10.3336 6.66739 10.6381 6.79353C10.9427 6.91968 11.203 7.1333 11.3861 7.40738C11.5692 7.68146 11.667 8.0037 11.667 8.33333C11.667 8.77536 11.4914 9.19928 11.1788 9.51184C10.8663 9.8244 10.4424 10 10.0003 10Z" fill="#344054"/>
<path d="M10.0003 20.0002C9.29855 20.0038 8.60619 19.8392 7.98115 19.5202C7.35611 19.2013 6.81659 18.7372 6.40776 18.1669C3.23193 13.786 1.62109 10.4927 1.62109 8.3777C1.62109 6.15541 2.5039 4.02414 4.07529 2.45274C5.64669 0.881338 7.77797 -0.00146484 10.0003 -0.00146484C12.2226 -0.00146484 14.3538 0.881338 15.9252 2.45274C17.4966 4.02414 18.3794 6.15541 18.3794 8.3777C18.3794 10.4927 16.7686 13.786 13.5928 18.1669C13.1839 18.7372 12.6444 19.2013 12.0194 19.5202C11.3943 19.8392 10.702 20.0038 10.0003 20.0002V20.0002ZM10.0003 1.8177C8.26061 1.81969 6.59277 2.51164 5.36265 3.74176C4.13253 4.97188 3.44058 6.63972 3.43859 8.37937C3.43859 10.0544 5.01609 13.1519 7.87943 17.101C8.12251 17.4359 8.4414 17.7084 8.81002 17.8963C9.17864 18.0842 9.58651 18.1821 10.0003 18.1821C10.414 18.1821 10.8219 18.0842 11.1905 17.8963C11.5591 17.7084 11.878 17.4359 12.1211 17.101C14.9844 13.1519 16.5619 10.0544 16.5619 8.37937C16.5599 6.63972 15.868 4.97188 14.6379 3.74176C13.4077 2.51164 11.7399 1.81969 10.0003 1.8177V1.8177Z" fill="#344054"/>
</g>
<defs>
<clipPath id="clip0_269_567">
<rect width="20" height="20" fill="white"/>
</clipPath>
</defs>
</svg>
