<svg width="598" height="490" viewBox="0 0 598 490" fill="none" xmlns="http://www.w3.org/2000/svg">
<g clip-path="url(#clip0_130_2025)">
<path d="M590.292 489.097H7.45645C3.53923 489.097 0.334229 485.892 0.334229 481.975V454.08C0.334229 450.163 3.53923 446.958 7.45645 446.958H590.292C594.209 446.958 597.414 450.163 597.414 454.08V481.975C597.414 485.892 594.209 489.097 590.292 489.097Z" fill="#F7F7F7"/>
<path d="M303.622 457.047C413.105 457.047 501.857 368.294 501.857 258.812C501.857 149.33 413.105 60.5769 303.622 60.5769C194.14 60.5769 105.387 149.33 105.387 258.812C105.387 368.294 194.14 457.047 303.622 457.047Z" fill="#F3FAFF"/>
<path d="M549.339 398.823C553.553 388.08 557.826 376.151 553.85 365.349C552.9 362.737 551.416 359.948 552.307 357.277C553.494 353.656 558.242 352.41 559.785 348.967C561.565 345.169 558.776 340.777 559.488 336.682C560.2 332.527 564.296 329.797 568.272 328.313C572.249 326.829 576.581 325.88 579.786 323.149C585.9 317.808 585.187 308.252 583.822 300.18C582.457 292.168 581.448 282.671 587.324 277.033C576.522 279.11 565.483 281.247 556.105 286.945C546.728 292.643 539.249 302.732 539.783 313.712C540.08 319.232 542.217 325.108 539.724 329.975C536.994 335.257 529.694 337.334 527.854 342.973C525.717 349.442 532.068 355.377 534.56 361.728C536.934 367.723 535.807 374.429 536.341 380.78C536.875 387.19 540.199 394.431 546.549 395.381L549.339 398.823Z" fill="#FFBE55"/>
<path opacity="0.59" d="M549.339 398.823C553.553 388.08 557.826 376.151 553.85 365.349C552.9 362.737 551.416 359.948 552.307 357.277C553.494 353.656 558.242 352.41 559.785 348.967C561.565 345.169 558.776 340.777 559.488 336.682C560.2 332.527 564.296 329.797 568.272 328.313C572.249 326.829 576.581 325.88 579.786 323.149C585.9 317.808 585.187 308.252 583.822 300.18C582.457 292.168 581.448 282.671 587.324 277.033C576.522 279.11 565.483 281.247 556.105 286.945C546.728 292.643 539.249 302.732 539.783 313.712C540.08 319.232 542.217 325.108 539.724 329.975C536.994 335.257 529.694 337.334 527.854 342.973C525.717 349.442 532.068 355.377 534.56 361.728C536.934 367.723 535.807 374.429 536.341 380.78C536.875 387.19 540.199 394.431 546.549 395.381L549.339 398.823Z" fill="#00D6C4"/>
<path d="M545.006 384.757C544.888 353.538 550.941 288.191 586.968 277.271" stroke="white" stroke-width="0.75" stroke-miterlimit="10" stroke-linecap="round"/>
<path d="M524.233 396.212C517.823 384.222 511.176 370.868 514.321 357.633C515.093 354.428 516.399 350.985 515.034 347.958C513.194 343.923 507.436 343.032 505.122 339.234C502.57 335.079 505.181 329.5 503.757 324.811C502.332 320.004 497.169 317.452 492.361 316.205C487.554 315.018 482.331 314.543 478.176 311.694C470.282 306.293 469.807 294.957 470.282 285.402C470.757 275.846 470.638 264.569 462.982 258.812C475.921 259.762 489.156 260.771 500.908 266.172C512.659 271.573 522.868 282.375 523.699 295.313C524.114 301.783 522.393 308.964 526.014 314.365C529.931 320.182 538.774 321.606 541.742 327.957C545.125 335.257 538.537 343.032 536.46 350.807C534.56 358.108 536.756 365.823 536.994 373.361C537.231 380.899 534.323 389.861 527.023 391.879L524.233 396.212Z" fill="#00D6C4"/>
<path d="M527.379 379.118C523.224 342.498 507.199 266.825 463.457 259.05" stroke="white" stroke-width="0.75" stroke-miterlimit="10" stroke-linecap="round"/>
<path d="M564.77 466.544H508.386C504.469 466.544 501.264 463.339 501.264 459.421L496.516 378.109C496.516 374.192 499.721 370.987 503.638 370.987H569.519C573.436 370.987 576.641 374.192 576.641 378.109L571.893 459.421C571.893 463.339 568.688 466.544 564.77 466.544Z" fill="#CCE9FF"/>
<path d="M53.4811 208.306L89.8634 202.789L114.599 365.923L78.2168 371.439L53.4811 208.306Z" fill="#00D6C4"/>
<path d="M71.6596 205.563L89.8508 202.805L114.586 365.938L96.3953 368.697L71.6596 205.563Z" fill="#00D6C4"/>
<path d="M89.8962 202.962L53.5135 208.482L62.0602 186.581L66.9271 174.236L75.2363 184.622L89.8962 202.962Z" fill="#FFEBC2"/>
<path d="M75.2363 184.622L62.0602 186.581L66.927 174.236L75.2363 184.622Z" fill="#0E538C"/>
<path d="M119.106 165.44L155.757 168.722L141.041 333.061L104.39 329.779L119.106 165.44Z" fill="#00D6C4"/>
<path d="M137.467 167.095L155.793 168.736L141.076 333.074L122.751 331.433L137.467 167.095Z" fill="#00D6C4"/>
<path d="M155.777 168.894L119.097 165.63L132.63 146.4L140.286 135.538L145.865 147.587L155.777 168.894Z" fill="#FFEBC2"/>
<path d="M145.865 147.587L132.63 146.4L140.286 135.538L145.865 147.587Z" fill="#0E538C"/>
<path d="M179.874 467.137H35.2925L16.3593 243.381H191.447L179.874 467.137Z" fill="#CCE9FF"/>
<path opacity="0.5" d="M103.903 467.137H179.874L191.447 243.381H103.903V467.137Z" fill="#CCE9FF"/>
<path d="M135.656 403.987H503.044V454.495H135.656V403.987Z" fill="#FFEBC2"/>
<path d="M137.2 403.987V454.495H522.631V458.294C522.631 462.982 518.535 466.781 513.49 466.781H138.862C126.932 466.781 117.257 457.878 117.257 446.839V413.067C117.257 402.028 126.932 393.125 138.862 393.125H513.49C518.535 393.125 522.631 396.924 522.631 401.613V404.046H137.2V403.987Z" fill="#00D6C4"/>
<path d="M135.656 426.481H503.044V454.436H135.656V426.481Z" fill="#FFEBC2"/>
<path d="M183.138 342.498H481.678V386.418H183.138V342.498Z" fill="#CCE9FF"/>
<path d="M183.025 342.437V386.357H492.842V389.681C492.842 393.776 489.518 397.041 485.482 397.041H184.331C174.775 397.041 167 389.266 167 379.71V350.331C167 340.775 174.775 333 184.331 333H485.482C489.518 333 492.842 336.324 492.842 340.36V342.496H183.025V342.437Z" fill="#2A94F4"/>
<path d="M312.169 192.991C308.074 187.59 307.718 180.171 311.575 174.532C314.662 170.022 316.739 164.443 316.502 160.347C316.027 152.988 311.457 146.222 305.225 142.186C297.034 136.844 286.113 136.072 277.27 140.227C268.427 144.382 262.017 153.284 260.889 162.959C260.058 169.903 261.66 177.5 258.099 183.554C255.488 187.887 250.68 190.439 245.932 192.16C241.125 193.822 236.08 194.949 231.688 197.502C227.296 200.054 223.557 204.446 223.616 209.55C223.675 213.408 225.871 216.969 226.109 220.768C226.465 226.347 222.548 231.273 218.393 234.953C214.179 238.632 209.371 241.837 206.523 246.645C201.834 254.598 204.03 265.341 209.965 272.463C215.9 279.585 224.803 283.562 233.706 285.876C258.04 292.286 283.68 288.132 308.786 287.716C316.561 287.598 324.514 287.835 332.052 285.876C339.589 283.918 346.949 279.407 350.095 272.285C353.3 265.163 351.697 256.497 347.424 250.028C343.151 243.559 336.444 238.87 329.381 235.546C324.277 233.113 318.816 231.213 314.662 227.415C310.507 223.616 308.074 217.147 310.863 212.221C311.931 210.322 313.712 208.838 314.721 206.939C316.739 203.259 315.908 198.57 313.653 195.009C313.237 194.415 312.762 193.762 312.169 192.991Z" fill="#1C0311"/>
<path d="M183.138 362.084H481.678V386.418H183.138V362.084Z" fill="#CCE9FF"/>
<path d="M317.867 299.765L354.665 325.88L399.772 419.062H391.463L341.014 336.563C341.014 336.563 323.802 337.157 317.867 331.815C311.932 326.473 277.804 303.326 277.804 303.326L317.867 299.765Z" fill="#0B4870"/>
<path d="M252.758 292.287C246.051 310.448 250.799 335.97 273.353 337.157C295.906 338.344 303.029 337.157 303.029 337.157L346.949 426.184H357.039L322.615 326.473L280.772 303.326L252.758 292.287Z" fill="#0E538C"/>
<path d="M287.004 188.777C292.939 196.493 307.183 217.859 312.525 241.6C317.867 265.341 332.705 299.765 332.705 299.765H315.493L298.874 243.381L283.443 190.557L287.004 188.777Z" fill="#4EA3FB"/>
<path d="M305.284 157.261C306.174 171.802 299.824 181.773 290.743 182.248C281.662 182.723 275.727 169.547 278.457 157.261C284.808 146.34 293.473 145.45 293.473 145.45H298.933L305.284 157.261Z" fill="#FFE3CA"/>
<path d="M299.23 148.596C297.568 153.7 293.888 158.092 289.14 160.585C284.392 163.077 278.694 163.671 273.531 162.128L286.469 143.669H297.568L308.192 152.097L306.59 161.772C302.435 158.626 299.23 148.596 299.23 148.596Z" fill="#1C0311"/>
<path d="M288.013 180.527C286.113 187.887 286.707 195.602 286.707 196.789C284.926 199.164 276.617 198.57 275.43 190.261C277.211 179.577 280.772 167.707 280.772 167.707L283.739 174.236L288.013 180.527Z" fill="#FFE3CA"/>
<path d="M276.617 183.969C269.198 186.403 244.27 197.68 243.083 200.054C244.864 206.582 253.767 303.326 253.767 303.326H294.126C294.126 303.326 288.784 249.909 291.752 246.348C294.719 242.787 304.216 230.323 303.029 228.542C301.842 226.762 286.766 188.48 286.766 188.48L276.617 183.969Z" fill="#2A94F4"/>
<path d="M243.083 200.054C237.267 204.505 212.814 244.568 220.53 265.934C228.245 287.301 253.47 299.884 253.47 299.884V288.132C253.47 288.132 232.994 271.869 234.181 259.999C235.368 248.129 249.612 223.794 249.612 223.794L243.083 200.054Z" fill="#4EA3FB"/>
<path d="M338.699 310.151H251.333C248.603 310.151 246.348 307.896 246.348 305.166L243.974 249.256C243.974 246.526 246.229 244.271 248.959 244.271H339.886C342.616 244.271 344.872 246.526 344.872 249.256L343.685 305.166C343.685 307.896 341.429 310.151 338.699 310.151Z" fill="#00D6C4"/>
<path d="M355.614 426.184C361.49 427.49 369.443 433.959 373.242 437.283C374.014 437.936 373.539 439.242 372.47 439.242C366.357 439.123 352.528 438.47 349.323 435.74C345.169 432.179 346.356 426.244 346.356 426.244H355.614V426.184ZM399.654 418.825C404.876 420.249 411.761 426.303 415.204 429.567C415.975 430.28 415.382 431.526 414.373 431.467C408.616 431.051 396.271 429.923 393.481 427.253C389.801 423.81 391.166 418.409 391.166 418.409L399.654 418.825Z" fill="#1A87D8"/>
<path d="M294.719 286.114C299.636 286.114 303.622 282.128 303.622 277.211C303.622 272.294 299.636 268.308 294.719 268.308C289.803 268.308 285.817 272.294 285.817 277.211C285.817 282.128 289.803 286.114 294.719 286.114Z" fill="white"/>
<path d="M216.375 403.631L205.098 397.102L193.821 403.631V362.084H216.375V403.631ZM391.226 157.617C391.226 158.745 390.81 159.754 390.098 160.585C390.81 161.356 391.226 162.425 391.226 163.552V167.232C391.226 168.004 390.988 168.775 390.632 169.428C390.988 170.081 391.226 170.853 391.226 171.624V175.304C391.226 177.738 389.267 179.696 386.834 179.696H348.611C346.177 179.696 344.219 177.738 344.219 175.304V171.565C344.219 170.793 344.456 170.022 344.812 169.369C344.456 168.716 344.219 167.944 344.219 167.173V163.493C344.219 162.365 344.634 161.356 345.347 160.525C344.634 159.754 344.219 158.686 344.219 157.558V153.878C344.219 151.445 346.177 149.486 348.611 149.486H386.834C389.267 149.486 391.226 151.445 391.226 153.878V157.617ZM421.732 74.4059C421.732 95.832 409.269 114.29 391.226 123.074V143.017C391.226 144.5 389.979 145.747 388.495 145.747H346.949C345.465 145.747 344.219 144.5 344.219 143.017V123.074C326.176 114.35 313.712 95.832 313.712 74.4059C313.712 44.552 337.868 20.3958 367.722 20.3958C397.576 20.3958 421.732 44.6113 421.732 74.4059Z" fill="#FFBE55"/>
<path opacity="0.23" d="M386.121 160.881H349.917M386.121 169.191H349.917" stroke="#7F7F7F" stroke-width="2" stroke-miterlimit="10" stroke-linecap="round"/>
<path d="M376.981 81.0532C376.328 80.4597 375.379 80.1629 374.37 80.2817C373.123 80.4004 371.936 81.1126 371.165 82.1215C370.512 83.0118 370.156 84.0802 369.978 85.0891C369.443 84.7924 368.85 84.4956 368.316 84.1395L368.138 84.0208H367.366L367.188 84.1395C366.595 84.4956 366.06 84.7924 365.526 85.0891C365.348 84.0802 364.992 83.0118 364.339 82.1215C363.627 81.1126 362.381 80.4004 361.134 80.2817C360.125 80.1629 359.235 80.4597 358.523 81.0532C357.632 81.8841 357.336 83.0712 357.632 84.3176C358.107 85.9794 359.472 87.3445 361.075 87.6413C362.084 87.8193 363.033 87.76 364.042 87.5226C365.526 106.812 366.12 126.339 365.704 145.628H367.485C367.9 126.279 367.307 106.693 365.823 87.4039C365.823 87.2258 365.823 87.0478 365.764 86.8697C366.476 86.5729 367.129 86.2168 367.782 85.8014C368.434 86.1575 369.087 86.5729 369.8 86.8697C369.8 87.0478 369.8 87.2258 369.74 87.4039C368.256 106.693 367.663 126.279 368.078 145.628H369.859C369.443 126.339 370.037 106.753 371.521 87.5226C372.47 87.76 373.479 87.8787 374.488 87.6413C376.031 87.3445 377.456 85.9794 377.931 84.3176C378.168 83.0712 377.871 81.8841 376.981 81.0532ZM361.372 85.9794C360.481 85.8014 359.591 84.9111 359.294 83.9021C359.176 83.4866 359.116 82.8338 359.65 82.4183C359.947 82.1215 360.363 82.0622 360.659 82.0622H360.897C361.609 82.1216 362.381 82.537 362.855 83.1899C363.39 83.9021 363.686 84.7924 363.805 85.8014C362.974 86.0388 362.202 86.0981 361.372 85.9794ZM376.15 83.9021C375.853 84.9111 375.023 85.8014 374.073 85.9794C373.301 86.1575 372.47 86.0388 371.699 85.8014C371.877 84.7924 372.114 83.9021 372.648 83.1899C373.064 82.5964 373.835 82.1809 374.607 82.0622C374.963 82.0029 375.438 82.0622 375.853 82.4183C376.269 82.8338 376.21 83.4866 376.15 83.9021Z" fill="white"/>
<path d="M353.478 30.3074C340.42 35.0555 319.054 52.2676 320.834 80.1629" stroke="white" stroke-width="4" stroke-miterlimit="10" stroke-linecap="round"/>
<path d="M281.959 127.051C290.317 127.051 297.094 120.275 297.094 111.916C297.094 103.558 290.317 96.7815 281.959 96.7815C273.6 96.7815 266.824 103.558 266.824 111.916C266.824 120.275 273.6 127.051 281.959 127.051Z" fill="#FFBE55"/>
<path d="M443.989 68.886C447.759 68.886 450.815 65.8302 450.815 62.0606C450.815 58.291 447.759 55.2351 443.989 55.2351C440.22 55.2351 437.164 58.291 437.164 62.0606C437.164 65.8302 440.22 68.886 443.989 68.886Z" fill="#FFBE55"/>
<path d="M422.277 180.554C428.505 180.554 433.554 175.505 433.554 169.277C433.554 163.049 428.505 158 422.277 158C416.049 158 411 163.049 411 169.277C411 175.505 416.049 180.554 422.277 180.554Z" fill="#FFBE55"/>
<path d="M313.712 23.1853C319.94 23.1853 324.989 18.1365 324.989 11.9084C324.989 5.68041 319.94 0.631592 313.712 0.631592C307.484 0.631592 302.435 5.68041 302.435 11.9084C302.435 18.1365 307.484 23.1853 313.712 23.1853Z" fill="#FFBE55"/>
<path d="M216.375 403.631L205.098 397.102L193.821 403.631V362.084H216.375V403.631Z" fill="#0D877D"/>
</g>
<defs>
<clipPath id="clip0_130_2025">
<rect width="598" height="490" fill="white"/>
</clipPath>
</defs>
</svg>
